<svg xmlns="http://www.w3.org/2000/svg" viewBox="0 0 200 175"><defs><style>.a{fill:#00fafd}.b{fill:#fd0042}.c{fill:#272736}</style></defs><title>404-icon</title><ellipse class="a" cx="42.55" cy="23.11" rx="4.6" ry="4.57"/><ellipse class="a" cx="55.59" cy="23.11" rx="4.6" ry="4.57"/><ellipse class="a" cx="29.77" cy="23.11" rx="4.6" ry="4.57"/><path class="a" d="M188 0H18C11.37 0 6 6.6 6 14.73v145.54C6 168.4 11.37 175 18 175h170c6.65 0 12-6.6 12-14.73V14.73C200 6.6 194.63 0 188 0zm6.39 44.19v115.06c0 4.57-2.81 8.38-6.65 8.38H18.27c-3.58 0-6.65-3.81-6.65-8.38V44.19zm0-27.43v19.81H11.62V16.76c0-5.33 2.81-9.65 6.65-9.65h169.46c3.58 0 6.65 4.57 6.65 9.65z"/><path class="a" d="M57.63 99.06a2.75 2.75 0 0 0 1 2.29 3.11 3.11 0 0 0 4.6 0l3.58-3.56 3.58 3.56a3.11 3.11 0 0 0 4.6 0 3.77 3.77 0 0 0 1-2.29 2.75 2.75 0 0 0-1-2.29l-3.32-3.56 3.83-3.81a3.21 3.21 0 0 0 0-4.57 3.25 3.25 0 0 0-4.6 0l-3.58 3.56-3.58-3.56a3.25 3.25 0 0 0-4.6 0 3.21 3.21 0 0 0 0 4.57l3.6 3.6-3.58 3.56a2.6 2.6 0 0 0-1.53 2.5zm72.85 0a2.75 2.75 0 0 0 1 2.29 3.13 3.13 0 0 0 2.3 1 3.57 3.57 0 0 0 2.3-1l3.58-3.56 3.58 3.56a3.11 3.11 0 0 0 4.6 0 3.21 3.21 0 0 0 0-4.57l-3.58-3.56 3.58-3.56a3.21 3.21 0 0 0 0-4.57 3.82 3.82 0 0 0-2.3-1 2.78 2.78 0 0 0-2.3 1l-3.58 3.3-3.58-3.56a3.82 3.82 0 0 0-2.3-1 2.78 2.78 0 0 0-2.3 1 3.77 3.77 0 0 0-1 2.29 2.75 2.75 0 0 0 1 2.29l3.6 3.59-3.58 3.56a3.25 3.25 0 0 0-1.02 2.5zm-58.54 30.22a2.94 2.94 0 0 0 3.07 3h34.76c-.51 6.86 1.28 12.19 5.37 15a10.11 10.11 0 0 0 5.37 1.52 8.3 8.3 0 0 0 5.62-1.78c4.6-3.3 6.13-10.16 4.09-18a1.93 1.93 0 0 0-.51-1.27 3.21 3.21 0 0 0-2.81-1.52H75a2.94 2.94 0 0 0-3.06 3.05zm44.47 3h8.18c.77 4.32 0 7.87-2.3 9.4a3.11 3.11 0 0 1-3.58.25c-2.04-1.47-3.06-5.03-2.29-9.6z"/><ellipse class="b" cx="36.55" cy="23.11" rx="4.6" ry="4.57"/><ellipse class="b" cx="49.59" cy="23.11" rx="4.6" ry="4.57"/><ellipse class="b" cx="23.77" cy="23.11" rx="4.6" ry="4.57"/><path class="b" d="M182 0H12C5.37 0 0 6.6 0 14.73v145.54C0 168.4 5.37 175 12 175h170c6.65 0 12-6.6 12-14.73V14.73C194 6.6 188.63 0 182 0zm6.39 44.19v115.06c0 4.57-2.81 8.38-6.65 8.38H12.27c-3.58 0-6.65-3.81-6.65-8.38V44.19zm0-27.43v19.81H5.62V16.76c0-5.33 2.81-9.65 6.65-9.65h169.46c3.58 0 6.65 4.57 6.65 9.65z"/><path class="b" d="M51.63 99.06a2.75 2.75 0 0 0 1 2.29 3.11 3.11 0 0 0 4.6 0l3.58-3.56 3.58 3.56a3.11 3.11 0 0 0 4.6 0 3.77 3.77 0 0 0 1-2.29 2.75 2.75 0 0 0-1-2.29l-3.32-3.56 3.83-3.81a3.21 3.21 0 0 0 0-4.57 3.25 3.25 0 0 0-4.6 0l-3.58 3.56-3.58-3.56a3.25 3.25 0 0 0-4.6 0 3.21 3.21 0 0 0 0 4.57l3.6 3.6-3.58 3.56a2.6 2.6 0 0 0-1.53 2.5zm72.85 0a2.75 2.75 0 0 0 1 2.29 3.13 3.13 0 0 0 2.3 1 3.57 3.57 0 0 0 2.3-1l3.58-3.56 3.58 3.56a3.11 3.11 0 0 0 4.6 0 3.21 3.21 0 0 0 0-4.57l-3.58-3.56 3.58-3.56a3.21 3.21 0 0 0 0-4.57 3.82 3.82 0 0 0-2.3-1 2.78 2.78 0 0 0-2.3 1l-3.58 3.3-3.58-3.56a3.82 3.82 0 0 0-2.3-1 2.78 2.78 0 0 0-2.3 1 3.77 3.77 0 0 0-1 2.29 2.75 2.75 0 0 0 1 2.29l3.6 3.59-3.58 3.56a3.25 3.25 0 0 0-1.02 2.5zm-58.54 30.22a2.94 2.94 0 0 0 3.07 3h34.76c-.51 6.86 1.28 12.19 5.37 15a10.11 10.11 0 0 0 5.37 1.52 8.3 8.3 0 0 0 5.62-1.78c4.6-3.3 6.13-10.16 4.09-18a1.93 1.93 0 0 0-.51-1.27 3.21 3.21 0 0 0-2.81-1.52H69a2.94 2.94 0 0 0-3.06 3.05zm44.47 3h8.18c.77 4.32 0 7.87-2.3 9.4a3.11 3.11 0 0 1-3.58.25c-2.04-1.47-3.06-5.03-2.29-9.6z"/><ellipse class="c" cx="39.55" cy="23.11" rx="4.6" ry="4.57"/><ellipse class="c" cx="52.59" cy="23.11" rx="4.6" ry="4.57"/><ellipse class="c" cx="26.77" cy="23.11" rx="4.6" ry="4.57"/><path class="c" d="M185 0H15C8.37 0 3 6.6 3 14.73v145.54C3 168.4 8.37 175 15 175h170c6.65 0 12-6.6 12-14.73V14.73C197 6.6 191.63 0 185 0zm6.39 44.19v115.06c0 4.57-2.81 8.38-6.65 8.38H15.27c-3.58 0-6.65-3.81-6.65-8.38V44.19zm0-27.43v19.81H8.62V16.76c0-5.33 2.81-9.65 6.65-9.65h169.46c3.58 0 6.65 4.57 6.65 9.65z"/><path class="c" d="M54.63 99.06a2.75 2.75 0 0 0 1 2.29 3.11 3.11 0 0 0 4.6 0l3.58-3.56 3.58 3.56a3.11 3.11 0 0 0 4.6 0 3.77 3.77 0 0 0 1-2.29 2.75 2.75 0 0 0-1-2.29l-3.32-3.56 3.83-3.81a3.21 3.21 0 0 0 0-4.57 3.25 3.25 0 0 0-4.6 0l-3.58 3.56-3.58-3.56a3.25 3.25 0 0 0-4.6 0 3.21 3.21 0 0 0 0 4.57l3.6 3.6-3.58 3.56a2.6 2.6 0 0 0-1.53 2.5zm72.85 0a2.75 2.75 0 0 0 1 2.29 3.13 3.13 0 0 0 2.3 1 3.57 3.57 0 0 0 2.3-1l3.58-3.56 3.58 3.56a3.11 3.11 0 0 0 4.6 0 3.21 3.21 0 0 0 0-4.57l-3.58-3.56 3.58-3.56a3.21 3.21 0 0 0 0-4.57 3.82 3.82 0 0 0-2.3-1 2.78 2.78 0 0 0-2.3 1l-3.58 3.3-3.58-3.56a3.82 3.82 0 0 0-2.3-1 2.78 2.78 0 0 0-2.3 1 3.77 3.77 0 0 0-1 2.29 2.75 2.75 0 0 0 1 2.29l3.6 3.59-3.58 3.56a3.25 3.25 0 0 0-1.02 2.5zm-58.54 30.22a2.94 2.94 0 0 0 3.07 3h34.76c-.51 6.86 1.28 12.19 5.37 15a10.11 10.11 0 0 0 5.37 1.52 8.3 8.3 0 0 0 5.62-1.78c4.6-3.3 6.13-10.16 4.09-18a1.93 1.93 0 0 0-.51-1.27 3.21 3.21 0 0 0-2.81-1.52H72a2.94 2.94 0 0 0-3.06 3.05zm44.47 3h8.18c.77 4.32 0 7.87-2.3 9.4a3.11 3.11 0 0 1-3.58.25c-2.04-1.47-3.06-5.03-2.29-9.6z"/></svg>