<svg id="Слой_1" xmlns="http://www.w3.org/2000/svg" viewBox="0 0 250 100.1"><style>.st0{fill:#347ffb}.st1{fill:#82b1ff}</style><title>info_icons</title><path class="st0" d="M.5.9H0V.4C0 .3.1.2.2.2h.5v.5H.5v.2zm0 37.4H0v-1h.5v1zm0-2H0v-1h.5v1zm0-2.2H0v-1h.5v1zm0-2H0v-1h.5v1zm0-2H0v-1h.5v1zm0-2.1H0v-1h.5v1zm0-2.1H0v-1h.5v1zm0-2.1H0v-1h.5v1zm0-2.1H0v-1h.5v1zm0-2H0v-1h.5v1zm0-2.1H0v-1h.5v1zm0-2.1H0v-1h.5v1zm0-2.1H0v-1h.5v1zm0-2.1H0v-1h.5v1zm0-2H0V8.1h.5v1.2zm0-2.2H0v-1h.5v1zm0-2H0v-1h.5v1zM.5 3H0V2h.5v1zm.3 37.1H.2c-.1 0-.2-.1-.2-.2v-.5h.5v.2h.2v.5zm29.4 0h-1v-.5h1v.5zm-2 0h-1v-.5h1v.5zm-2 0h-1v-.5h1v.5zm-2 0h-1v-.5h1v.5zm-2 0h-1v-.5h1v.5zm-2 0h-1v-.5h1v.5zm-2 0h-1v-.5h1v.5zm-2 0h-1v-.5h1v.5zm-2 0h-1v-.5h1v.5zm-2 0h-1v-.5h1v.5zm-2 0h-1v-.5h1v.5zm-2 0h-1v-.5h1v.5zm-2 0h-1v-.5h1v.5zm-2 0h-1v-.5h1v.5zm-2 0h-1v-.5h1v.5zm29.6 0h-.5v-.5h.2v-.2h.5v.5c0 .1-.1.2-.2.2zm.2-1.7h-.5v-1h.5v1zm0-2h-.5v-1h.5v1zm0-2h-.5v-1h.5v1zm0-2h-.5v-1h.5v1zm0-2h-.5v-1h.5v1zm0-2h-.5v-1h.5v1zm0-2h-.5v-1h.5v1zm0-2h-.5v-1h.5v1zm0-2h-.5v-1h.5v1zm0-2h-.5v-1h.5v1zm0-2h-.5v-1h.5v1zm0-2h-.5v-1h.5v1zm0-2h-.5v-1h.5v1zm0-2h-.5v-1.2h.5v1.2zm0-2h-.5V9.1h.5v1.3zm0-2h-.5V7.1h.2l.2-.2c.1.1.1.2.1.2v1.3zm-1.2-1.8l-.7-.7.4-.4.7.7-.4.4zm-1.4-1.4l-.7-.7.4-.4.7.7-.4.4zM28 3.8l-.7-.7.4-.4.7.7-.4.4zm-1.4-1.4l-.7-.7.4-.4.6.7-.3.4zM25.2.9l-.3-.3h-.4V.1h.5c.1 0 .1 0 .2.1l.4.4-.4.3zM23.4.6h-1V.1h1v.5zm-2 0h-1V.1h1v.5zm-2.1 0h-1V.1h1v.5zm-2 0h-1V.1h1v.5zm-2.1 0h-1V.1h1v.5zm-2.1 0h-1V.1h1v.5zm-2 0H10V.1h1l.1.5zM9 .6H8V.1h1v.5zM6.9.6h-1V.1h1v.5zm-2 0h-1V.1h1v.5zM2.8.6h-1V.1h1v.5z"/><path class="st0" d="M25.2.9h-.4V.4c0-.1.1-.3.2-.3s.1 0 .2.1l.4.4-.3.3h-.1zm5.3 5.4l-.7-.7.4-.4.7.8-.4.3zM29.2 5l-.7-.7.4-.4.7.7-.4.4zm-1.3-1.4l-.7-.6.4-.4.7.7-.4.3zm-1.4-1.3l-.7-.7.4-.4.7.7-.4.4zm5.3 5.1h-.5V7l.3-.3.4.4c.1.1.1.3 0 .4-.2 0-.2 0-.2-.1zm-1.7 0H29v-.5h1.1v.5zm-2.3 0h-1.2v-.5h1.1l.1.5zm-2.3 0H25c-.1 0-.3-.1-.3-.2v-.5h.5v.2h.2v.5zm-.3-1.9h-.5V4.4h.5v1.1zm0-2.3h-.5V2.1h.5v1.1zm-19 19.2h1v1h-1v-1zm2.1.2h.8v-5h-.8v-.7h3c.4 0 .8 0 1.1.2.7.3 1.1 1.1 1.1 1.8 0 .8-.4 1.6-1.2 1.9-.3.1-.7.2-1 .1H10v1.7h.8v.7H8.3v-.7zm2.9-2.5c.2 0 .5 0 .7-.1.4-.2.7-.7.6-1.1 0-.4-.2-.9-.6-1.1-.2-.1-.5-.2-.8-.2H10v2.5h1.2zm3.1 2.5h.8v-5h-.8v-.7H17c.5 0 .9 0 1.4.2 1.3.5 2.1 1.7 2 3.1.1 1.4-.7 2.6-2 3.1-.4.1-.9.2-1.4.2h-2.7v-.9zm2.7 0c.4 0 .7 0 1.1-.2.9-.4 1.5-1.3 1.4-2.3.1-1-.5-2-1.4-2.3-.4-.1-.7-.2-1.1-.2h-1v5h1zm4.3 0h.8v-5h-.8v-.7h4.5v1.5H25v-.8h-2v2.1h2.2v.8H23v2.1h.9v.7h-2.6v-.7zm41-21.5c.2-.3.2-.7-.1-1-.3-.2-.7-.2-1 .1 0 .1-.1.1-.1.2L59.6 3c-.2.3-.1.8.2.9s.8.1 1-.2l1.5-2.6zM67.9 7c0-.2 0-.4-.1-.5-.1-.2-.4-.3-.6-.3-.1 0-.2 0-.3.1l-2.6 1.5c-.4.1-.5.5-.4.9s.5.5.9.4l.2-.2 2.6-1.5c.1-.1.3-.2.3-.4zm2.1 7.7c0-.4-.3-.7-.7-.7l-3 .1c-.4 0-.7.3-.7.7 0 .4.3.7.7.7l3-.1c.4 0 .7-.3.7-.7zM53 32.1l-4.6-5 .2-.2 1.2-.9c.6-.5 1.3-1 2.2-1.6l.2-.2.1.3c.4.8.6 1.6.6 2.4l1.7 1.8.5.6.2.2.5.6-.5.3-1.7 1.2-.6.5zm-3.9-5l4 4.3.4-.2 1.7-1.2-.2-.2-.2-.2-.6-.5-1.7-1.8c-.1-.1-.2-.3-.2-.4 0-.7-.1-1.3-.4-1.9-.7.5-1.3 1-1.9 1.4l-.9.7z"/><path class="st0" d="M46.7 26.5h-.3c-.3 0-.6-.2-.9-.3l-.3-.3-.1-.1c-1.6.2-3.2-.6-4-2-.1-.2-.2-.3-.3-.5-.3-.6-.5-1.2-.7-1.9-.2-.8-.1-1.7.4-2.5-.3-.7-.3-1.6.1-2.3.2-.3.4-.6.7-.8.9-.6 4.2-2.9 5-3.4l.5-.3c.7-.3 1.2-.8 1.7-1.4.5-.8.9-1.6 1.1-2.5.5-1.5 1.1-3.1 2.4-3.9 1-.5 2-.6 2.9-.4 2.2.5 4.9 2.8 6.9 5.9 1.2 1.8 2 3.9 2.4 6 .4 2.4-.2 4.2-1.6 5.1-.5.3-1.1.5-1.8.5-.5 0-1-.1-1.5-.2-.4-.1-.8-.1-1.2-.2h-.8c-.5 0-1 0-1.5.1-1.1.3-2.1.9-3 1.6-.7.5-1.3 1-2 1.4l-1 .8-.4.3c-.7.8-1.7 1.2-2.7 1.3zm-1.5-2c.3 0 .4.1.7.4l.2.1c.1.1.3.1.4.1.7.1 1.3-.4 2-.9l.4-.3 1-.8c.7-.5 1.4-1 2-1.5 1-.8 2.2-1.4 3.4-1.8.6-.1 1.2-.2 1.8-.2h.8c.5 0 1 .1 1.4.2.4.1.8.2 1.2.2.4 0 .8-.1 1.1-.3 1-.6 1.3-2 1-3.8-.4-2-1.2-3.9-2.3-5.6-1.8-2.9-4.2-5-6.1-5.4-.6-.2-1.3-.1-1.8.2-1 .6-1.4 1.9-1.9 3.3-.3 1-.7 2-1.3 2.9-.6.7-1.3 1.3-2 1.7l-.2.5c-.7.5-4 2.7-4.9 3.3-.1.1-.2.2-.3.4-.2.5-.2 1.1.1 1.5l.2.4-.3.3c-.4.5-.6 1.1-.4 1.8.1.5.3 1 .5 1.5.1.1.2.3.2.4.6 1.1 1.8 1.7 3 1.4h.1z"/><path class="st0" d="M51.3 20.6c-.5-.1-1-.3-1.3-.7-1.1-1-1.8-2.2-2.2-3.6-.5-1.5.2-1.9 1.1-2.4l.4-.3c.9-.7 1.6-1.6 2-2.7l.3-.6.2.6c.5 1.4 1.1 2.8 1.9 4.1.8 1.3 1.7 2.4 2.8 3.4l.4.4h-.6c-1.1 0-2.2.2-3.2.8H53l-1.2.8c-.1.1-.3.2-.5.2zm.2-9c-.4.9-1.1 1.8-1.9 2.4l-.4.3c-.9.6-1.2.8-.9 1.9.4 1.3 1.1 2.5 2.1 3.4.3.3.7.6.9.6.1 0 .2 0 .3-.1l1.2-.8h.1c.9-.5 1.9-.8 2.9-.8-.9-1-1.7-2-2.5-3.1-.7-1.3-1.3-2.5-1.8-3.8zm9.3 7.3h-.4c-1.2-.3-3.4-1.9-5.2-4.8-2.4-3.8-2.6-6.9-1.7-7.6.3-.1.6-.2.8-.1 1.2.3 3.4 1.9 5.2 4.8 1 1.5 1.7 3.3 2.1 5.1.2 1.2 0 2.2-.4 2.5-.1 0-.3.1-.4.1zm-6.9-12h-.2c-.4.3-.7 2.9 1.8 6.8 1.8 2.8 3.8 4.3 4.9 4.6h.5c.2-.1.4-.7.2-2-.4-1.7-1-3.4-2-4.9-1.8-2.7-3.8-4.2-4.9-4.4l-.3-.1zM112 17c0 2.6-1.6 5-4.1 6v2.5c0 .3-.2.6-.5.7-.1 0-.2.1-.3.1-.2 0-.4-.1-.6-.2l-2.6-2.6H100c-2.5 0-4.7-1.4-5.8-3.6-.1-.2 0-.5.2-.7.2-.1.5 0 .7.2.9 1.8 2.8 3 4.9 3h4.1c.1 0 .3.1.4.1L107 25v-2.4c0-.2.1-.4.3-.5 2.9-1 4.4-4.1 3.5-7-.6-1.9-2.2-3.3-4.2-3.7-.3 0-.5-.3-.4-.6s.3-.5.6-.4c3 .8 5.2 3.5 5.2 6.6zM80 8.5C80 3.9 83.8.1 88.4.1h7.2c4.6 0 8.4 3.8 8.4 8.4 0 4.6-3.8 8.4-8.4 8.4h-5.2l-3.5 3.5c-.2.2-.4.3-.6.3-.5 0-.9-.4-.9-.9v-3.4C82.1 15.1 80 12 80 8.5zm1 0c0 3.2 2 6 5 7 .2.1.3.3.3.5v3.5l3.4-3.4c.1-.1.2-.1.4-.1h5.3c4.1 0 7.4-3.3 7.4-7.4 0-4.1-3.3-7.4-7.4-7.4h-7.2C84.3 1.1 81 4.4 81 8.5zM91.6 12c-.1.1-.1.2-.1.4 0 .1.1.3.1.4.1.1.2.1.4.1.1 0 .3-.1.4-.1.1-.1.1-.2.1-.4 0-.1-.1-.3-.1-.4-.3-.2-.6-.2-.8 0zm-1.4-5.1c.3 0 .5-.2.5-.5 0-.4.2-.8.5-1 .3-.2.7-.3 1.1-.3.5.1.9.5 1 1 .1.5-.1 1-.5 1.2-.8.7-1.3 1.6-1.4 2.5 0 .3.2.5.5.5s.5-.2.5-.5c0-.7.4-1.3.9-1.7.7-.5 1-1.4.8-2.2-.1-.9-.8-1.6-1.7-1.8-.7-.1-1.4 0-1.9.5-.5.4-.8 1.1-.8 1.7-.1.2.1.5.3.5.1.1.2.1.2.1z"/><path class="st1" d="M.5 50.9H0v-.5c0-.1.1-.2.2-.2h.5v.5H.5v.2zm0 37.4H0v-1h.5v1zm0-2H0v-1h.5v1zm0-2.2H0v-1h.5v1zm0-2H0v-1h.5v1zm0-2H0v-1h.5v1zm0-2.1H0v-1h.5v1zm0-2.1H0v-1h.5v1zm0-2.1H0v-1h.5v1zm0-2.1H0v-1h.5v1zm0-2H0v-1h.5v1zm0-2.1H0v-1h.5v1zm0-2.1H0v-1h.5v1zm0-2.1H0v-1h.5v1zm0-2.1H0v-1h.5v1zm0-2H0v-1.1h.5v1.1zm0-2.2H0v-1h.5v1zm0-2H0v-1h.5v1zm0-2.1H0v-1h.5v1zm.3 37.1H.2c-.1 0-.2-.1-.2-.2v-.5h.5v.2h.2v.5zm29.4 0h-1v-.5h1v.5zm-2 0h-1v-.5h1v.5zm-2 0h-1v-.5h1v.5zm-2 0h-1v-.5h1v.5zm-2 0h-1v-.5h1v.5zm-2 0h-1v-.5h1v.5zm-2 0h-1v-.5h1v.5zm-2 0h-1v-.5h1v.5zm-2 0h-1v-.5h1v.5zm-2 0h-1v-.5h1v.5zm-2 0h-1v-.5h1v.5zm-2 0h-1v-.5h1v.5zm-2 0h-1v-.5h1v.5zm-2 0h-1v-.5h1v.5zm-2 0h-1v-.5h1v.5zm29.6 0h-.5v-.5h.2v-.2h.5v.5c0 .1-.1.2-.2.2zm.2-1.7h-.5v-1h.5v1zm0-2h-.5v-1h.5v1zm0-2h-.5v-1h.5v1zm0-2h-.5v-1h.5v1zm0-2h-.5v-1h.5v1zm0-2h-.5v-1h.5v1zm0-2h-.5v-1h.5v1zm0-2h-.5v-1h.5v1zm0-2h-.5v-1h.5v1zm0-2h-.5v-1h.5v1zm0-2h-.5v-1h.5v1zm0-2h-.5v-1h.5v1zm0-2h-.5v-1h.5v1zm0-2h-.5v-1.2h.5v1.2zm0-2h-.5v-1.2h.5v1.2zm0-2h-.5v-1.2h.2l.2-.2c.1 0 .1.1.1.1v1.3zm-1.2-1.6l-.7-.7.4-.4.7.7-.4.4zm-1.4-1.4l-.7-.7.4-.4.7.7-.4.4zM28 53.8l-.7-.7.4-.4.7.7-.4.4zm-1.4-1.4l-.7-.7.4-.4.7.7-.4.4zm-1.4-1.5l-.3-.3h-.4v-.5h.5c.1 0 .1 0 .2.1l.4.4-.4.3zm-1.8-.3h-1v-.5h1v.5zm-2 0h-1v-.5h1v.5zm-2.1 0h-1v-.5h1v.5zm-2 0h-1v-.5h1v.5zm-2.1 0h-1v-.5h1v.5zm-2.1 0h-1v-.5h1v.5zm-2 0H10v-.5h1l.1.5zm-2.1 0H8v-.5h1v.5zm-2.1 0h-1v-.5h1v.5zm-2 0h-1v-.5h1v.5zm-2.1 0h-1v-.5h1v.5z"/><path class="st1" d="M25.2 50.9h-.4v-.5c0-.1.1-.3.2-.3s.1 0 .2.1l.4.4-.3.3h-.1zm5.3 5.4l-.7-.7.4-.4.7.7-.4.4zM29.2 55l-.7-.7.4-.4.7.7-.4.4zm-1.3-1.4l-.7-.6.4-.4.7.7-.4.3zm-1.4-1.3l-.7-.7.4-.4.7.7-.4.4zm5.3 5.1h-.5V57l.3-.3.4.4c.1.1.1.3 0 .4-.2 0-.2 0-.2-.1zm-1.7 0H29v-.5h1.1v.5zm-2.3 0h-1.2v-.5h1.1l.1.5zm-2.3 0H25c-.1 0-.2-.1-.2-.2v-.5h.5v.2h.2v.5zm-.3-1.9h-.5v-1.2h.5v1.2zm0-2.3h-.5V52h.5v1.2zm-19 19.2h1v1h-1v-1zm2.1.2h.8v-5h-.8v-.7h3c.4 0 .8 0 1.1.2 1 .5 1.4 1.8.9 2.8-.2.4-.6.7-1 .9-.3.1-.7.2-1 .1H10v1.7h.8v.7H8.3v-.7zm2.9-2.5c.2 0 .5 0 .7-.1.4-.2.7-.7.6-1.2 0-.4-.2-.9-.6-1.1-.2-.1-.5-.2-.8-.2H10V70h1.2v.1zm3.1 2.5h.8v-5h-.8v-.7H17c.5 0 .9 0 1.4.2 1.3.5 2.1 1.7 2 3.1.1 1.4-.7 2.6-2 3.1-.4.1-.9.2-1.4.2h-2.7v-.9zm2.7 0c.4 0 .7 0 1.1-.2.9-.4 1.5-1.3 1.4-2.3.1-1-.5-2-1.4-2.3-.4-.1-.7-.2-1.1-.2h-1v5h1zm4.3 0h.8v-5h-.8v-.7h4.5v1.5H25v-.8h-2v2.1h2.2v.8H23v2.1h.9v.7h-2.6v-.7zm41-21.5c.2-.3.1-.8-.2-1-.3-.2-.8-.1-1 .2L59.5 53c-.2.3-.1.8.2 1 .3.2.8.1 1-.2l1.6-2.7zm5.6 5.9c0-.2 0-.4-.1-.5-.1-.2-.4-.3-.6-.3-.1 0-.2 0-.3.1l-2.6 1.5c-.4.1-.6.5-.4.9.1.4.5.6.9.4.1 0 .2-.1.2-.1l2.6-1.5c.1-.2.3-.3.3-.5zm2.1 7.7c0-.4-.3-.7-.7-.7l-3 .1c-.4 0-.7.3-.7.7 0 .4.3.7.7.7l3-.1c.4 0 .7-.3.7-.7zM53 82.1l-4.6-5 .2-.2 1.2-.9c.6-.5 1.3-1 2.2-1.6l.2-.2.1.3c.4.8.6 1.6.6 2.4v.1l1.7 1.8.5.6.2.2.5.6-.5.3-1.7 1.2-.6.4zm-3.9-5l4 4.3.4-.2 1.7-1.2-.2-.2-.2-.2-.6-.5-1.7-1.8c-.1-.1-.2-.3-.2-.4 0-.7-.1-1.3-.4-1.9-.7.5-1.3 1-1.9 1.4l-.9.7z"/><path class="st1" d="M46.7 76.5h-.3c-.3 0-.6-.2-.9-.3l-.3-.3-.1-.1c-1.6.2-3.2-.6-4-2-.1-.2-.2-.3-.3-.5-.3-.6-.5-1.2-.7-1.9-.2-.8-.1-1.7.4-2.5-.3-.7-.3-1.6.1-2.3.2-.3.4-.6.7-.8.9-.6 4.2-2.9 5-3.4l.5-.3c.7-.3 1.2-.8 1.7-1.4.5-.8.9-1.6 1.1-2.5.5-1.5 1.1-3.1 2.4-3.9.8-.5 1.8-.7 2.8-.4 2.2.5 4.9 2.8 6.9 5.9 1.2 1.8 2 3.9 2.4 6 .4 2.4-.2 4.2-1.6 5.1-.5.3-1.1.5-1.8.5-.5 0-1-.1-1.5-.2-.4-.1-.8-.1-1.2-.2h-.8c-.5 0-1 0-1.5.1-1.1.3-2.1.9-3 1.6-.7.5-1.3 1-2 1.4l-1 .8-.4.3c-.6.8-1.6 1.2-2.6 1.3zm-1.5-2c.3 0 .4.1.7.4l.2.2c.1.1.3.1.4.2.7.1 1.3-.4 2-.9l.4-.3 1-.8c.7-.5 1.4-1 2-1.5 1-.8 2.2-1.4 3.4-1.8.6-.1 1.2-.2 1.8-.2h.8c.5 0 1 .1 1.4.2.4.1.8.2 1.2.2.4 0 .8-.1 1.1-.3 1-.6 1.3-2 1-3.8-.4-2-1.2-3.9-2.3-5.6-1.8-2.9-4.2-5-6.1-5.4-.6-.2-1.3-.1-1.8.2-1 .6-1.4 1.9-1.9 3.3-.3 1-.7 2-1.3 2.8-.6.7-1.3 1.3-2 1.7l-.2.4c-.7.5-4 2.7-4.9 3.3-.1.1-.2.2-.3.4-.2.5-.2 1.1.1 1.5l.2.4-.3.3c-.4.5-.6 1.1-.4 1.8.1.5.3 1 .5 1.5.1.1.2.3.2.4.6 1.1 1.8 1.7 3 1.4h.1z"/><path class="st1" d="M51.3 70.6c-.5-.1-1-.3-1.3-.7-1.1-1-1.8-2.2-2.2-3.6-.5-1.5.2-1.9 1.1-2.5l.4-.3c.9-.7 1.6-1.6 2-2.7l.3-.6.2.6c.5 1.4 1.1 2.8 1.9 4.1.8 1.3 1.7 2.4 2.8 3.4l.4.4h-.6c-1.1 0-2.2.2-3.2.8H53l-1.2.8c-.1.2-.3.3-.5.3zm.2-9c-.4.9-1.1 1.8-1.9 2.4l-.4.3c-.9.6-1.2.8-.9 1.9.4 1.3 1.1 2.5 2.1 3.4.3.3.7.6.9.6.1 0 .2 0 .3-.1l1.2-.8h.1c.9-.5 1.9-.8 2.9-.8-1.9-2-3.4-4.3-4.3-6.9zm9.3 7.3h-.4c-1.2-.3-3.4-1.9-5.2-4.8-2.4-3.8-2.6-6.9-1.7-7.5.3-.1.6-.2.8-.1 1.2.3 3.4 1.9 5.2 4.8 1 1.5 1.7 3.3 2.1 5.1.2 1.2 0 2.2-.4 2.5-.1-.1-.3 0-.4 0zm-6.9-12h-.2c-.4.3-.7 2.9 1.8 6.8 1.8 2.8 3.8 4.3 4.9 4.6h.5c.2-.1.4-.7.2-2-.4-1.7-1-3.4-2-4.9-1.8-2.8-3.8-4.3-4.9-4.6l-.3.1zM112 67c0 2.6-1.6 5-4.1 6v2.5c0 .3-.2.6-.5.7-.1 0-.2.1-.3.1-.2 0-.4-.1-.6-.2l-2.6-2.6H100c-2.5 0-4.7-1.4-5.8-3.6-.1-.2 0-.5.2-.7.2-.1.5 0 .7.2.9 1.8 2.8 3 4.9 3h4.1c.1 0 .3.1.4.1L107 75v-2.4c0-.2.1-.4.3-.5 2.9-1 4.4-4.1 3.5-7-.6-1.9-2.2-3.3-4.2-3.7-.3 0-.5-.3-.4-.6s.3-.5.6-.4c3 .8 5.2 3.5 5.2 6.6zm-32-8.5c0-4.6 3.8-8.4 8.4-8.4h7.2c4.6 0 8.4 3.8 8.4 8.4s-3.8 8.4-8.4 8.4h-5.2l-3.5 3.5c-.2.2-.4.3-.6.3-.5 0-.9-.4-.9-.9v-3.4C82.1 65.1 80 62 80 58.5zm1 0c0 3.2 2 6 5 7 .2.1.3.3.3.5v3.5l3.4-3.4c.1-.1.2-.1.4-.1h5.3c4.1 0 7.4-3.3 7.4-7.4s-3.3-7.4-7.4-7.4h-7.1c-4-.1-7.3 3.2-7.3 7.3zM91.6 62c-.1.1-.1.2-.1.4 0 .1.1.3.1.4.1.1.2.1.4.1.1 0 .3-.1.4-.1.1-.1.1-.2.1-.4 0-.1-.1-.3-.1-.4-.3-.2-.6-.2-.8 0zm-1.4-5.1c.3 0 .5-.2.5-.5 0-.4.2-.8.5-1 .3-.2.7-.3 1.1-.3.5.1.9.5 1 1 .1.5-.1 1-.5 1.2-.8.6-1.2 1.5-1.2 2.5 0 .3.2.5.5.5s.5-.2.5-.5c0-.7.3-1.3.8-1.7.7-.5 1-1.4.8-2.2-.2-.9-.8-1.6-1.7-1.8-.7-.1-1.4 0-1.9.5-.5.4-.8 1.1-.8 1.8-.1.2.1.5.3.5h.1z"/><path class="st0" d="M135 .9c7.9 0 14.2 6.4 14.2 14.2s-6.4 14.2-14.2 14.2-14.2-6.4-14.2-14.2c0-7.8 6.3-14.2 14.2-14.2m0-.8c-8.3 0-15 6.7-15 15s6.7 15 15 15 15-6.7 15-15-6.7-15-15-15z"/><path class="st0" d="M137.8 6.8V9c.3 0 .6.1.8.2.6.2 1.1.6 1.4 1.1.3.5.5 1 .5 1.6 0 .4-.1.8-.3 1.2-.2.4-.4.7-.8 1-.4.3-.8.6-1.3.7.5.1.9.3 1.4.5.4.3.8.6 1.1 1.1.3.5.4 1 .4 1.5 0 .7-.2 1.3-.6 1.8-.4.6-1 1-1.7 1.3l-.9.3v2.2h-2.1v-2.1h-1.4v2.1h-2.1v-2.1H129v-1.7h.5c.2 0 .5 0 .7-.1.1 0 .2-.1.2-.2.1-.2.1-.5.1-.7v-7c0-.2 0-.5-.1-.7-.1-.1-.1-.2-.2-.2-.2-.1-.4-.1-.7-.1h-.5V8.9h3.2V6.8h2.1v2.1h1.4V6.8h2.1m-4.2 7.1h1.4c.5 0 1.1 0 1.6-.2.3-.1.6-.3.8-.5.2-.2.3-.5.3-.8 0-.3-.1-.6-.2-.9-.2-.2-.4-.4-.7-.5-.5-.1-1.1-.2-1.7-.1h-1.4l-.1 3m.8 5.5h.9c.4 0 .9 0 1.3-.1s.7-.3.9-.6c.3-.3.4-.7.4-1.1 0-.3-.1-.7-.3-.9-.2-.3-.5-.5-.8-.6-.5-.2-1.1-.2-1.6-.2h-1.6v3.4c0 .1.1.1.1.2.3-.1.4-.1.7-.1m4.4-13.6h-7.6v2.1H128v3.7h1.5v7.1H128v3.7h3.2v2.1h7.6V22l.3-.1c.9-.3 1.6-.9 2.1-1.6.5-.7.8-1.6.8-2.4 0-.7-.2-1.4-.5-2-.3-.5-.6-.9-1.1-1.2.3-.3.6-.7.8-1.1.2-.5.4-1.1.4-1.6 0-.8-.2-1.5-.7-2.1-.5-.7-1.2-1.2-2-1.5l-.2-.1.1-2.5zm-4.2 6.1h.4c.5 0 .9 0 1.4.1.1 0 .2.1.2.1 0 .1.1.2.1.3 0 .1 0 .2-.1.3-.1.1-.2.1-.3.2-.4.1-.8.2-1.3.1h-.4v-1.1zm0 4.9h.6c.4 0 .8 0 1.2.1.1 0 .2.1.3.2.1.1.1.2.1.4s0 .4-.1.5c-.1.1-.2.2-.4.3-.3.1-.7.1-1.1.1h-.7c.1 0 .1-1.6.1-1.6z"/><path class="st1" d="M135 51.1c7.7 0 14 6.3 14 14s-6.3 14-14 14-14-6.3-14-14 6.3-14 14-14m0-1c-8.3 0-15 6.7-15 15s6.7 15 15 15 15-6.7 15-15-6.7-15-15-15z"/><path class="st1" d="M137.8 56.8V59c.3 0 .6.1.8.2.6.2 1.1.6 1.4 1.1.3.5.5 1 .5 1.6 0 .4-.1.8-.3 1.2-.2.4-.4.7-.8 1-.4.3-.8.6-1.3.7.5.1.9.3 1.4.5.4.3.8.6 1.1 1.1.3.5.4 1 .4 1.5 0 .7-.2 1.3-.6 1.8-.4.6-1 1-1.7 1.3l-.9.3v2.2h-2.1v-2.1h-1.4v2.1h-2.1v-2.1H129v-1.7h.5c.2 0 .5 0 .7-.1.1 0 .2-.1.2-.2.1-.2.1-.5.1-.7v-7c0-.2 0-.5-.1-.7-.1-.1-.1-.2-.2-.2-.2-.1-.4-.1-.7-.1h-.5V59h3.2v-2.1h2.1V59h1.4v-2.1h2.1m-4.2 7h1.4c.5 0 1.1 0 1.6-.2.3-.1.6-.3.8-.5.2-.2.3-.5.3-.8 0-.3-.1-.6-.2-.8-.2-.2-.4-.4-.7-.5-.5-.1-1.1-.2-1.7-.2h-1.4l-.1 3m.8 5.5h.9c.4 0 .9 0 1.3-.2.4-.1.7-.3.9-.6.3-.3.4-.7.4-1.1 0-.3-.1-.7-.3-.9-.2-.3-.5-.5-.8-.6-.5-.2-1.1-.2-1.6-.2h-1.6v3.4c0 .1.1.1.1.2h.7m4.4-13.6h-7.6v2.1H128v3.7h1.5v7.1H128v3.7h3.2v2.1h7.6V72l.3-.1c.9-.3 1.6-.9 2.1-1.6.5-.7.8-1.6.8-2.4 0-.7-.2-1.4-.5-2-.3-.5-.6-.9-1.1-1.2.3-.3.6-.7.8-1.1.2-.5.4-1.1.4-1.6 0-.8-.2-1.5-.7-2.1-.5-.7-1.2-1.2-2-1.5l-.2-.1.1-2.5zm-4.2 6.1h.4c.5 0 .9 0 1.4.1.1 0 .2.1.2.1 0 .1.1.2.1.3 0 .1 0 .2-.1.3-.1.1-.2.1-.3.2-.4.1-.8.2-1.3.1h-.4v-1.1zm0 4.9h.6c.4 0 .8 0 1.2.1.1 0 .2.1.3.2.1.1.1.2.1.4s0 .4-.1.5c-.1.1-.2.2-.4.3-.3.1-.7.1-1.1.1h-.7v-1.6z"/><path class="st0" d="M160.5.9h-.5V.4c0-.1.1-.2.2-.2h.5v.5h-.2v.2zm0 37.4h-.5v-1h.5v1zm0-2h-.5v-1h.5v1zm0-2.1h-.5v-1h.5v1zm0-2.1h-.5v-1h.5v1zm0-2.1h-.5v-1h.5v1zm0-2.1h-.5v-1h.5v1zm0-2h-.5v-1h.5v1zm0-2.1h-.5v-1h.5v1zm0-2.1h-.5v-1h.5v1zm0-2.1h-.5v-1h.5v1zm0-2.1h-.5v-1h.5v1zm0-2h-.5v-1h.5v1zm0-2.1h-.5v-1h.5v1zm0-2.1h-.5v-1h.5v1zm0-2.1h-.5V8.1h.5v1.1zm0-2.1h-.5v-1h.5v1zm0-2h-.5v-1h.5v1zm0-2.1h-.5V2h.5v1zm.3 37.1h-.5c-.1 0-.2-.1-.2-.2v-.5h.5v.2h.2v.5zm29.4 0h-1v-.5h1v.5zm-2 0h-1v-.5h1v.5zm-2 0h-1v-.5h1v.5zm-2 0h-1v-.5h1v.5zm-2 0h-1v-.5h1v.5zm-2 0h-1v-.5h1v.5zm-2 0h-1v-.5h1v.5zm-2 0h-1v-.5h1v.5zm-2 0h-1v-.5h1v.5zm-2 0h-1v-.5h1v.5zm-2 0h-1v-.5h1v.5zm-2 0h-1v-.5h1v.5zm-2 0h-1v-.5h1v.5zm-2 0h-1v-.5h1v.5zm-2 0h-1v-.5h1v.5zm29.6 0h-.5v-.5h.2v-.2h.5v.5c0 .1-.1.2-.2.2zm.2-1.7h-.5v-1h.5v1zm0-2h-.5v-1h.5v1zm0-2h-.5v-1h.5v1zm0-2h-.5v-1h.5v1zm0-2h-.5v-1h.5v1zm0-2h-.5v-1h.5v1zm0-2h-.5v-1h.5v1zm0-2h-.5v-1h.5v1zm0-2h-.5v-1h.5v1zm0-2h-.5v-1h.5v1zm0-2h-.5v-1h.5v1zm0-2h-.5v-1h.5v1zm0-2h-.5v-1h.5v1zm0-2h-.5v-1.2h.5v1.2zm0-2h-.5V9.1h.5v1.3zm0-2h-.5V7.1h.2l.2-.2c.1.1.1.2.1.2v1.3zm-1.2-1.6l-.7-.7.4-.4.7.7-.4.4zm-1.4-1.4l-.7-.7.4-.4.7.7-.4.4zM188 3.8l-.7-.7.4-.4.7.7-.4.4zm-1.4-1.4l-.7-.7.4-.4.7.7-.4.4zM185.2.9l-.3-.3h-.4V.1h.5c.1 0 .1 0 .2.1l.4.4-.4.3zm-1.8-.3h-1V.1h1v.5zm-2 0h-1V.1h1v.5zm-2.1 0h-1V.1h1v.5zm-2 0h-1V.1h1v.5zm-2.1 0h-1V.1h1v.5zm-2.1 0h-1V.1h1v.5zm-2 0h-1V.1h1v.5zm-2.1 0h-1V.1h1v.5zm-2.1 0h-1V.1h1v.5zm-2 0h-1V.1h1v.5zm-2.1 0h-1V.1h1v.5z"/><path class="st0" d="M185.2.9h-.4V.4c0-.1.1-.3.2-.3s.1 0 .2.1l.4.4-.3.3h-.1zm5.3 5.4l-.7-.7.4-.4.7.7-.4.4zM189.2 5l-.7-.7.4-.4.7.7-.4.4zm-1.3-1.4l-.7-.6.4-.4.7.7-.4.3zm-1.4-1.3l-.7-.7.4-.4.7.7-.4.4zm5.3 5.1h-.5V7l.3-.3.4.4c.1.1.1.3 0 .4-.2 0-.2 0-.2-.1zm-1.7 0H189v-.5h1.1v.5zm-2.3 0h-1.1v-.5h1.1v.5zm-2.3 0h-.5c-.1 0-.2-.1-.2-.2v-.5h.5v.2h.2v.5zm-.3-1.9h-.5V4.4h.5v1.1zm0-2.3h-.5V2.1h.5v1.1zm-4.8 3.7h1v.5h-1zm-1.9 0h1v.5h-1zm-2 0h1v.5h-1zm-2 0h1v.5h-1zm-1.9 0h1v.5h-1zm-2 0h1v.5h-1zm-2 0h1v.5h-1zm-1.9 0h1v.5h-1zm-2 0h1v.5h-1zm21.6 6h1v.5h-1zm-1.9 0h1v.5h-1zm-2 0h1v.5h-1zm-2 0h1v.5h-1zm-1.9 0h1v.5h-1zm-2 0h1v.5h-1zm-2 0h1v.5h-1zm-1.9 0h1v.5h-1zm-2 0h1v.5h-1zm-2 0h1v.5h-1zm-1.9 0h1v.5h-1zm-2 0h1v.5h-1zm21.6 6h1v.5h-1zm-1.9 0h1v.5h-1zm-2 0h1v.5h-1zm-2 0h1v.5h-1zm-1.9 0h1v.5h-1zm-2 0h1v.5h-1zm-2 0h1v.5h-1zm-1.9 0h1v.5h-1zm-2 0h1v.5h-1zm-2 0h1v.5h-1zm-1.9 0h1v.5h-1zm-2 0h1v.5h-1zm21.6 6h1v.5h-1zm-1.9 0h1v.5h-1zm-2 0h1v.5h-1zm-2 0h1v.5h-1zm-1.9 0h1v.5h-1zm-2 0h1v.5h-1zm-2 0h1v.5h-1zm-1.9 0h1v.5h-1zm-2 0h1v.5h-1zm-2 0h1v.5h-1zm-1.9 0h1v.5h-1zm-2 0h1v.5h-1z"/><path class="st1" d="M160.5 50.9h-.5v-.5c0-.1.1-.2.2-.2h.5v.5h-.2v.2zm0 37.4h-.5v-1h.5v1zm0-2h-.5v-1h.5v1zm0-2.1h-.5v-1h.5v1zm0-2.1h-.5v-1h.5v1zm0-2.1h-.5v-1h.5v1zm0-2.1h-.5v-1h.5v1zm0-2h-.5v-1h.5v1zm0-2.1h-.5v-1h.5v1zm0-2.1h-.5v-1h.5v1zm0-2.1h-.5v-1h.5v1zm0-2.1h-.5v-1h.5v1zm0-2h-.5v-1h.5v1zm0-2.1h-.5v-1h.5v1zm0-2.1h-.5v-1h.5v1zm0-2.1h-.5v-1.1h.5v1.1zm0-2.1h-.5v-1h.5v1zm0-2h-.5v-1h.5v1zm0-2.1h-.5v-1h.5v1zm.3 37.1h-.5c-.1 0-.2-.1-.2-.2v-.5h.5v.2h.2v.5zm29.4 0h-1v-.5h1v.5zm-2 0h-1v-.5h1v.5zm-2 0h-1v-.5h1v.5zm-2 0h-1v-.5h1v.5zm-2 0h-1v-.5h1v.5zm-2 0h-1v-.5h1v.5zm-2 0h-1v-.5h1v.5zm-2 0h-1v-.5h1v.5zm-2 0h-1v-.5h1v.5zm-2 0h-1v-.5h1v.5zm-2 0h-1v-.5h1v.5zm-2 0h-1v-.5h1v.5zm-2 0h-1v-.5h1v.5zm-2 0h-1v-.5h1v.5zm-2 0h-1v-.5h1v.5zm29.6 0h-.5v-.5h.2v-.2h.5v.5c0 .1-.1.2-.2.2zm.2-1.7h-.5v-1h.5v1zm0-2h-.5v-1h.5v1zm0-2h-.5v-1h.5v1zm0-2h-.5v-1h.5v1zm0-2h-.5v-1h.5v1zm0-2h-.5v-1h.5v1zm0-2h-.5v-1h.5v1zm0-2h-.5v-1h.5v1zm0-2h-.5v-1h.5v1zm0-2h-.5v-1h.5v1zm0-2h-.5v-1h.5v1zm0-2h-.5v-1h.5v1zm0-2h-.5v-1h.5v1zm0-2h-.5v-1.2h.5v1.2zm0-2h-.5v-1.2h.5v1.2zm0-2h-.5v-1.2h.2l.2-.2c.1.1.1.1.1.2v1.2zm-1.2-1.6l-.7-.7.4-.4.7.7-.4.4zm-1.4-1.4l-.7-.7.4-.4.7.7-.4.4zm-1.4-1.6l-.7-.7.4-.4.7.7-.4.4zm-1.4-1.4l-.7-.7.4-.4.7.7-.4.4zm-1.4-1.5l-.3-.3h-.4v-.5h.5c.1 0 .1 0 .2.1l.4.4-.4.3zm-1.8-.3h-1v-.5h1v.5zm-2 0h-1v-.5h1v.5zm-2.1 0h-1v-.5h1v.5zm-2 0h-1v-.5h1v.5zm-2.1 0h-1v-.5h1v.5zm-2.1 0h-1v-.5h1v.5zm-2 0h-1v-.5h1v.5zm-2.1 0h-1v-.5h1v.5zm-2 0h-1v-.5h1v.5zm-2.1 0h-1v-.5h1v.5zm-2.1 0h-1v-.5h1v.5z"/><path class="st1" d="M185.2 50.9h-.4v-.5c0-.1.1-.3.2-.3s.1 0 .2.1l.4.4-.3.3h-.1zm5.3 5.4l-.7-.7.4-.4.7.7-.4.4zm-1.3-1.3l-.7-.7.4-.4.7.7-.4.4zm-1.3-1.4l-.7-.7.4-.4.7.7-.4.4zm-1.4-1.3l-.7-.7.4-.4.7.7-.4.4zm5.3 5.1h-.5V57l.3-.3.4.4c.1.1.1.3 0 .4-.2 0-.2 0-.2-.1zm-1.7 0H189v-.5h1.1v.5zm-2.3 0h-1.1v-.5h1.1v.5zm-2.3 0h-.5c-.1 0-.2-.1-.2-.2v-.5h.5v.2h.2v.5zm-.3-1.9h-.5v-1.2h.5v1.2zm0-2.3h-.5V52h.5v1.2zm-4.8 3.7h1v.5h-1zm-1.9 0h1v.5h-1zm-2 0h1v.5h-1zm-2 0h1v.5h-1zm-1.9 0h1v.5h-1zm-2 0h1v.5h-1zm-2 0h1v.5h-1zm-1.9 0h1v.5h-1zm-2 0h1v.5h-1zm21.6 6h1v.5h-1zm-1.9 0h1v.5h-1zm-2 0h1v.5h-1zm-2 0h1v.5h-1zm-1.9 0h1v.5h-1zm-2 0h1v.5h-1zm-2 0h1v.5h-1zm-1.9 0h1v.5h-1zm-2 0h1v.5h-1zm-2 0h1v.5h-1zm-1.9 0h1v.5h-1zm-2 0h1v.5h-1zm21.6 6h1v.5h-1zm-1.9 0h1v.5h-1zm-2 0h1v.5h-1zm-2 0h1v.5h-1zm-1.9 0h1v.5h-1zm-2 0h1v.5h-1zm-2 0h1v.5h-1zm-1.9 0h1v.5h-1zm-2 0h1v.5h-1zm-2 0h1v.5h-1zm-1.9 0h1v.5h-1zm-2 0h1v.5h-1zm21.6 6h1v.5h-1zm-1.9 0h1v.5h-1zm-2 0h1v.5h-1zm-2 0h1v.5h-1zm-1.9 0h1v.5h-1zm-2 0h1v.5h-1zm-2 0h1v.5h-1zm-1.9 0h1v.5h-1zm-2 0h1v.5h-1zm-2 0h1v.5h-1zm-1.9 0h1v.5h-1zm-2 0h1v.5h-1z"/><path class="st0" d="M225.9 2.5c-2.4-2.4-6.7-2.1-11.1.6-.3.2-.4.7-.3 1 .2.3.7.4 1 .3 3.7-2.3 7.5-2.7 9.3-.9 2.5 2.5.8 8.4-3.7 12.9s-10.4 6.2-12.9 3.7c-.7-.7-1.1-1.7-1.2-2.9 0-.4-.4-.7-.8-.7s-.7.4-.7.8c.1 1.6.6 2.9 1.6 3.9l3.5 3.5c1.1 1.1 2.6 1.6 4.3 1.6 3.3 0 7.3-1.9 10.7-5.3 5.2-5.2 6.8-11.8 3.7-15l-3.4-3.5zm2.4 4.5c.7.7 1 1.6 1.1 2.6l-2-2V6.1l.9.9zm-.9 9.4L225 14c.3-.5.7-1.1.9-1.6l2.4 2.4c-.3.6-.6 1.1-.9 1.6zm-2.3 3l-2.4-2.4c.5-.5 1-1.1 1.4-1.6l2.4 2.4c-.4.5-.9 1-1.4 1.6zm-2.6 2.3l-2.4-2.4c.5-.4 1.1-.9 1.6-1.3l2.4 2.4c-.5.5-1.1.9-1.6 1.3zm-2.9 1.8l-2.4-2.4c.5-.3 1.1-.6 1.6-.9l2.4 2.4c-.6.4-1.1.7-1.6.9zm-3.2 1.1l-2.2-2.2c.5-.1 1-.3 1.6-.5l2.3 2.3c-.6.2-1.2.3-1.7.4zM226.6 11c.2-.5.4-1 .5-1.6l2.2 2.2c-.1.5-.2 1.1-.4 1.6l-2.3-2.2zm-15.1 12.1h.9l2 2c-1.1-.1-2-.4-2.7-1.1l-.9-.9h.7z"/><path class="st0" d="M203.9 14.1c0 .9.3 1.2.7 1h3.6c.4.2.7-.5.7-.5v-4.4h4.2c.4 0 .7-.3.7-.7V5.9c0-.4-.3-.7-.7-.7h-4.2V1c0-.4-.3-.7-.7-.7h-3.5c-.4 0-.7.3-.7.7v4.2h-4.2c-.4 0-.7.3-.7.7v3.5c0 .4.3.7.7.7h4.2l-.1 4zM200 9.2v-3h4.2c.4 0 .7-.3.7-.7V1.2h3v4.2c0 .4.3.7.7.7h4.2v3h-4.2c-.4 0-.7.3-.7.7V14h-3V9.9c0-.4-.3-.7-.7-.7H200z"/><path class="st1" d="M225.9 52.2c-2.4-2.4-6.7-2.1-11.1.6-.3.2-.4.7-.3 1 .2.3.7.4 1 .3 3.7-2.3 7.5-2.7 9.3-.9 2.5 2.5.8 8.4-3.7 12.9s-10.4 6.2-12.9 3.7c-.7-.7-1.1-1.7-1.2-2.9 0-.4-.4-.7-.8-.7s-.7.4-.7.8c.1 1.6.6 2.9 1.6 3.9l3.5 3.5c1.1 1.1 2.6 1.6 4.3 1.6 3.3 0 7.3-1.9 10.7-5.3 5.2-5.2 6.8-11.8 3.7-15l-3.4-3.5zm2.4 4.6c.7.7 1 1.6 1.1 2.6l-2-2v-1.5l.9.9zm-.9 9.4l-2.4-2.4c.3-.5.7-1.1.9-1.6l2.4 2.4c-.3.5-.6 1.1-.9 1.6zm-2.3 2.9l-2.4-2.4c.5-.5 1-1.1 1.4-1.6l2.4 2.4c-.4.5-.9 1.1-1.4 1.6zm-2.6 2.4l-2.4-2.4c.5-.4 1.1-.9 1.6-1.3l2.4 2.4c-.5.5-1.1.9-1.6 1.3zm-2.9 1.8l-2.4-2.4c.5-.3 1.1-.6 1.6-.9l2.4 2.4c-.6.3-1.1.6-1.6.9zm-3.2 1.1l-2.2-2.2c.5-.1 1-.3 1.6-.5l2.3 2.3c-.6.1-1.2.3-1.7.4zm10.2-13.7c.2-.5.4-1 .5-1.6l2.2 2.2c-.1.5-.2 1.1-.4 1.6l-2.3-2.2zm-15.1 12.1h.9l2 2c-1.1-.1-2-.4-2.7-1.1l-.9-.9h.7z"/><path class="st1" d="M203.9 63.9c0 .9.3 1.2.7 1h3.6c.4.2.7-.5.7-.5V60h4.2c.4 0 .7-.3.7-.7v-3.5c0-.4-.3-.7-.7-.7h-4.2v-4.2c0-.4-.3-.7-.7-.7h-3.5c-.4 0-.7.3-.7.7V55h-4.2c-.4 0-.7.3-.7.7v3.5c0 .4.3.7.7.7h4.2l-.1 4zm-3.9-5v-3h4.2c.4 0 .7-.3.7-.7V51h3v4.2c0 .4.3.7.7.7h4.2v3h-4.2c-.4 0-.7.3-.7.7v4.2h-3v-4.2c0-.4-.3-.7-.7-.7H200z"/></svg>