<svg xmlns="http://www.w3.org/2000/svg" viewBox="0 0 120 120"><defs><style>.a{fill:#0c8cff}</style></defs><title>ref-icon-2</title><path class="a" d="M67.18 107.2q-1.61.29-3.24.47l.44.37a.1.1 0 0 1-.13.16l-.68-.5-.76.07a2.22 2.22 0 0 1-.2.2.61.61 0 0 1-.86 0l-.08-.1a8.61 8.61 0 0 1-.91 0h-.32l.43.35a.08.08 0 0 1 0 .11.08.08 0 0 1-.11 0c-.26-.14-.51-.3-.76-.46h-.13a16.06 16.06 0 0 1-2.39.06c-.52 0-1.05-.08-1.57-.12s-1.22-.12-1.82-.22c-.85-.13-1.71-.28-2.56-.45a81.46 81.46 0 0 1-10.32-2 2.31 2.31 0 0 1 .81.08c.59.11 1.19.2 1.78.29q1.76.26 3.52.5l-.18-.06c-.58-.2-1.16-.44-1.73-.65-.26-.1-.5-.21-.76-.32l-.53-.23-.31-.12c-.74-.29-1.43-.63-2.15-1l-.36-.19a.46.46 0 0 1-.32.28.85.85 0 0 1-.55-.15c-.51-.24-1-.5-1.52-.76-.23-.12-.42-.3-.64-.43l-.76-.42c-1.19-.67-2.36-1.41-3.48-2.18-.52-.36-1.06-.72-1.57-1.09A44.84 44.84 0 0 1 28.09 95a.1.1 0 0 1 0-.14.1.1 0 0 1 .14 0c.26.2.54.39.82.57l-.05-.1.09.07-.09-.06c-.35-.37-.69-.75-1-1.12l-.7-.78-.51-.44a47.6 47.6 0 0 1-2.55-2.76A51.68 51.68 0 0 1 20.92 86l.14.24a38.39 38.39 0 0 0 4 6.06 26.06 26.06 0 0 0 4.73 4.41.19.19 0 0 1-.23.3 26.5 26.5 0 0 1-2.1-1.67 33.62 33.62 0 0 1-6.49-8 2 2 0 0 0 .11.25.11.11 0 0 1-.19.09c-.38-.75-.73-1.53-1.07-2.31s-.89-1.78-1.28-2.7c-.28-.65-.56-1.29-.82-1.94a9.53 9.53 0 0 1-.34-.95 3.51 3.51 0 0 1-.58-1 36.43 36.43 0 0 0 2.47 6.46.23.23 0 0 1-.41.2 45.15 45.15 0 0 1-3.26-9.2c-.08-.33-.16-.66-.24-1-.29-.52-.57-1.06-.83-1.58.22.25.42.52.62.79v.07c-.52-2.32-.94-4.7-1.23-7.05l-.4-.59v.13c0 1.16.09 2.31.2 3.47a30.28 30.28 0 0 0 4.1 13.23.18.18 0 0 1-.31.19c-.37-.62-.75-1.24-1.08-1.88a28.79 28.79 0 0 1-1.33-3 36.7 36.7 0 0 1-1.4-4.63c-.3-1.38-.55-2.74-.75-4.13-.23-1.66-.34-3.31-.42-5V63.7c0-1 .05-2 .12-3s.14-1.87.23-2.8c-.15-.19-.3-.39-.43-.58a.11.11 0 0 1 0-.16.12.12 0 0 1 .16 0l.29.36c.06-.58.13-1.15.22-1.72l.11-.76c0-1.65.11-3.32.3-5v-.08a.22.22 0 0 1 .07-.3q.05-.44.12-.87a37.72 37.72 0 0 1 1-4.45.07.07 0 1 1 .13 0c-.1.64-.18 1.28-.3 2.58l.07.09.11-.52c.1-.45.21-.9.32-1.34.17-.74.39-1.48.6-2.21a43.84 43.84 0 0 1 1.66-4.69c.29-.7.59-1.39.93-2.07.2-.41.39-.83.62-1.22s.42-.78.64-1.17.42-.7.62-1c.32-.54.68-1.08 1.05-1.61l-.27.45c.57-.86.64-1 .71-1l.08-.09a29.88 29.88 0 0 1 5-6l-.71.55c-.57.47-1.13 1-1.67 1.46a.13.13 0 1 1-.18-.2c.29-.26.58-.54.88-.79.57-.48 1.14-.95 1.74-1.4A13.81 13.81 0 0 1 28.6 23l.12-.11A26.21 26.21 0 0 1 31 21.25a.46.46 0 0 1-.1-.14 1.42 1.42 0 0 1 0-.56 4 4 0 0 1 .2-.93.46.46 0 1 1 .87.28c0 .09-.07.2-.09.29s0 .25-.06.36v.11h.14l.23-.12c.4-.27.81-.53 1.22-.77l.19-.11c1-.72 2.13-1.39 3.24-2 .18-.32.35-.65.52-1a5.35 5.35 0 0 0 .38-1c.06-.21.11-.35 0-.54a.57.57 0 0 1 1.14-.06 3.35 3.35 0 0 0-.11.64 4.44 4.44 0 0 1-.27.82l-.15.35a47.71 47.71 0 0 1 3.73-1.67l1.49-.9a6.53 6.53 0 0 1 1.57-.83.42.42 0 0 1 .61.48l1.16-.32c.65-.17 1.33-.34 2-.46s1.56-.31 2.35-.4h.21l1-.22c1-.22 2-.38 3.07-.52q.84-.11 1.68-.18h-3.38a.24.24 0 0 1 0-.48h1.27l2.13.06c1 0 2 .1 2.93.16l2.61.17a.13.13 0 0 1 .17-.07l.28.12 2.56.19c1.28.1 2.56.18 3.84.27l1.37.03c.31 0 .6 0 .91.06.48.05.94.16 1.41.24a.1.1 0 0 1 .1.11.1.1 0 0 1-.11.1c-.42 0-.85.11-1.28.12s-1 0-1.52-.06l-1.51-.1-1-.08c.64.15 1.29.32 1.92.51a19.28 19.28 0 0 1 1.89.68l1 .15h.07c1 .14 1.95.29 2.91.47a30.1 30.1 0 0 1 3.11.71l.43.13a.16.16 0 0 1 .21-.08l.36.18c-.35-.22-.71-.43-1.07-.62-1-.51-1.94-1-2.93-1.52-.62-.3-1.26-.57-1.88-.86a.13.13 0 1 1 .11-.25l.43.19 1.3.57 1.71.79c.61.29 1.23.64 1.83 1 .44.24.89.46 1.33.71l.71.41c.5.28 1 .63 1.49.95 1 .69 2.1 1.42 3.08 2.18s2.18 1.71 3.21 2.64a9.23 9.23 0 0 1 .86.85l.56.5.76.71a.26.26 0 0 1 0-.1.25.25 0 0 1 .34 0l1.12.95 1 .9c.26.23.53.49.77.73.6.58 1.17 1.16 1.74 1.77l.49.55c.59.44 1.18.87 1.78 1.29s1.15.81 1.75 1.16a.08.08 0 0 1-.08.14c-.71-.38-1.4-.76-2.08-1.18l.06.06a23.33 23.33 0 0 1 1.81 2c.48.64 1 1.28 1.38 2 .21.33.45.69.63 1s.25.43.36.65c.4.78.82 1.56 1.15 2.37s.61 1.48.88 2.24a45 45 0 0 1 1.62 5.92c.18.88.33 1.76.47 2.65s.27 1.85.33 2.79c0 .2.08.4.1.6.08.61.14 1.22.21 1.84s.08 1.07.11 1.61v4.15c0 1.8 0 3.63-.15 5.42-.13 2.11-.4 4.18-.71 6.26-.14 1-.32 1.9-.47 2.85a.07.07 0 0 1-.14 0q0-1.3.08-2.6c-.07.44-.15.87-.22 1.3-.14.81-.32 1.6-.5 2.39l.72.61a.17.17 0 1 1-.21.27c-.21-.14-.42-.28-.61-.44-.21 1.15-.44 2.3-.68 3.45l-.06.26h.08a.17.17 0 0 1 .07.22l-.09.24a29 29 0 0 0 1.83-4.25.24.24 0 1 1 .46.16c-.34 1-.71 2-1.14 2.95a29.75 29.75 0 0 1-1.39 2.69l.2.09a.29.29 0 0 1-.25.53l-.26-.11-.31.52-.05.18c-.21.74-.42 1.48-.64 2.22-.13.43-.28.86-.41 1.29A.34.34 0 1 1 102 86c.16-.51.32-1 .48-1.54l-.27.39c-.19.27-.4.54-.59.8s-.59.77-.9 1.15l.39.21a.29.29 0 1 1-.29.5l-.47-.27-.3.36a1.61 1.61 0 0 1-.29.51c-.1.16-.23.33-.34.49l-.4.56.22.21-.34-.05-.09.12a35.35 35.35 0 0 1-3.88 4.44A44.54 44.54 0 0 1 89 98.86c-.59.4-1.19.82-1.81 1.18l-.67.39.26.18c1.33-.52 2.65-1 4-1.62.42-.18.83-.4 1.24-.6l-1 .74a22.38 22.38 0 0 1-3.44 2 28.09 28.09 0 0 1-3.43 1.34c-.79.26-1.57.51-2.37.74s-1.31.37-2 .54l.38.24a.09.09 0 0 1 0 .11.09.09 0 0 1-.11 0l-.61-.3-1.06.26-1.13.26-.43.16-.65.23.18.11a.21.21 0 1 1-.21.36l-.49-.28c-.75.26-1.5.51-2.26.74l-1.77.51.52.4a.24.24 0 1 1-.29.38l-.82-.62q-1.26.33-2.54.6l-.84.17.19.13c.57.38 1.16.75 1.74 1.12a.18.18 0 1 1-.19.3zm-.56-.37l-.58.12zm1.69-.33c.77-.16 1.52-.34 2.28-.53l-.07-.05-1.4.25c-.61.18-1.24.34-1.85.49h-.19.06zm-11.42-.08c-1-.12-2-.28-3-.47l.45.46.93.12h2.72zm-3.51-.55c-1.09-.12-2.19-.28-3.28-.49h-.47l.35.24q1.91.47 3.87.77zm8.38.43h-1.82v.08h1.86zm-2.44-.07h-.69l.72.06zm3.21 0h-.47.06zm-15.26-.94c-.76-.24-1.52-.5-2.27-.78.61.27 1.23.5 1.86.71a17.68 17.68 0 0 0 2.44.66c-.68-.2-1.3-.4-2.02-.61zm24.52.38l-.67.15zm-14.85 0q-2-.25-4-.63l.44.41c1.21.14 2.43.22 3.65.27zm6.2-.19l.55-.71q-2.12-1.56-4.17-3.21c-.05.18-.1.37-.15.56a6.11 6.11 0 0 0-.22 1.7v.3l1.85 1.32h1.12a8.75 8.75 0 0 0 1.03.03zm1.52 0zm1.87 0l.92-.09-.68-.49a4.88 4.88 0 0 0-1.06-.6h-.12l-.72 1 .4.28zm-7.33-1.06a4.5 4.5 0 0 0 .24 1l1.17.07zm-6.79.58q-2.37-.48-4.7-1.13l.16.12a26.08 26.08 0 0 0 4.24 1.37l.79.1zm-3.43.26l-.63-.13c-.46-.09-.93-.22-1.41-.36q1.11.35 2.25.65zm9.48-1.37l-.2-.15a6.9 6.9 0 0 0 .07 1.58h.53a6.21 6.21 0 0 1-.38-1.48zm10.32 1.34h.17a6.77 6.77 0 0 1-1-.65 11.33 11.33 0 0 1-1.34-1.18v.06a.22.22 0 0 1-.28.11.21.21 0 0 1-.12-.15l-.53.72a2.13 2.13 0 0 1 .41.15c.65.32 1.25.77 1.91 1.05zM58 103.48l-2.31-1.71c-1.78-1.33-3.55-2.65-5.25-4.07a75.27 75.27 0 0 1-2.5-2.19c-.35-.32-.68-.66-1-1-.8-.73-1.54-1.58-2.27-2.39 3.84 4.38 8.63 7.8 13.34 11.17a8.9 8.9 0 0 1 .62-2.45q-3.24-2.66-6.32-5.52L50.94 94a.16.16 0 0 1-.09 0 6.74 6.74 0 0 1-.63-.48c-.87-.71-1.73-1.42-2.58-2.16-1.06-.93-2.1-1.87-3.15-2.81s-2.25-2.09-3.39-3.12l-1.62-1.46-1.64-1.43a.07.07 0 0 1 0-.1.07.07 0 0 1 .1 0c1.09 1 2.19 1.91 3.26 2.89 2 1.81 4 3.62 6 5.41.74.66 1.5 1.31 2.25 1.95l.95.78c-.44-.44-.88-.89-1.3-1.35-.71-.61-1.36-1.27-1.12-1.11-1.12-1.08-1.35-1.32-1.58-1.57q.76.81 1.56 1.59l.63.64c.16.16.32.32.49.47 1.3 1.31 2.65 2.57 4 3.81.9.82 1.85 1.6 2.76 2.4.29.26.6.5.9.75.64.53 1.29 1.05 1.94 1.58q.13-.3.27-.59l.14-.27c.21-.49.44-1 .69-1.47.16-.3.32-.6.49-.89l-1-.91A91.92 91.92 0 0 1 50.21 87c-.73-.64-1.45-1.29-2.2-1.91-.34-.29-.74-.6-1.11-.85-.18-.12-.37-.24-.54-.37v-.07h.07c.2.15.42.28.62.44.52.4 1.06.8 1.56 1.24l1.35 1.2c-1-1.22-1.93-2.48-2.82-3.77v-.11h.08C48 84 48.8 85 49.65 86.11c.28.37.59.72.89 1.08l.29.25A27 27 0 0 0 53 89.26a1.17 1.17 0 0 0 .18.15l.11.07c.45.32.89.61 1.37.89a2.57 2.57 0 0 1-.29-.16c-.22-.12-.43-.26-.64-.39a2.85 2.85 0 0 1-.44-.33c-.22-.12-.42-.26-.29-.22A16 16 0 0 1 51.37 88l-.55-.48.05.06c.41.5.84 1 1.27 1.46s.89 1 1.35 1.47l1.64 1.67c1.33 1.36 2.76 2.67 4.18 3.95l1.13 1 .64-1 .4-.67a8.62 8.62 0 0 1 .21-1.37l.07-.27c-.81-.81-1.61-1.63-2.4-2.45-2-2.08-4-4.2-5.88-6.33v-.08h.08c2.44 2.7 4.94 5.33 7.52 7.9l.74.73v-.13c0-.17.08-.35.12-.52v-.1a2.66 2.66 0 0 0-.07-.27c-.07-.23-.15-.45-.22-.68s-.11-.3-.18-.45l-.24-.09c-.51-.2-1-.35-1.56-.55a4.13 4.13 0 0 1-1.3-.8.51.51 0 1 1 .7-.74 2.51 2.51 0 0 0 .77.56 12.74 12.74 0 0 0 1.2.55h.11c0-.12-.07-.25-.12-.37l-.03-.41h-.56a2 2 0 0 1-1-.21l-.23-.16L59 89l-.54-.29a6.81 6.81 0 0 1-1.12-.87 6.49 6.49 0 0 1-2.23-3.6 3.71 3.71 0 0 1-.1-.77.45.45 0 0 1 .42-.49 4 4 0 0 1-.11-.45l-.25-.07a1.87 1.87 0 0 1-.47-.3 2.43 2.43 0 0 1-.44-2.7 9.2 9.2 0 0 1 .93-1.94c.27-.46.58-.88.89-1.3a11.43 11.43 0 0 1 1.64-1.84.32.32 0 0 0 .1-.14 1.86 1.86 0 0 1-.21-.59 2.4 2.4 0 0 1 .3-1.65v-.42a3.7 3.7 0 0 1 .19-.68 4.16 4.16 0 0 1 .4-.9 5.75 5.75 0 0 1 1.85-1.93c2.5-1.5 5.5-.5 8 .6.38.17.77.34 1.14.53.52.27 1.09.55 1.63.78l.84.33.36.05H73l-1.4-1.15a.08.08 0 0 1 0-.11.08.08 0 0 1 .11 0l1.5 1.35H74a2.74 2.74 0 0 0 .42 0h.24a1.3 1.3 0 0 1 .3-.06.59.59 0 0 1 .46.25l.33.49a5 5 0 0 1 .47 1c.13.38.23.76.35 1.15l.11.27 1.71 1.46h.14c.25 0 .54.09.78.15.69.16 1.38.29 2.06.49a14.26 14.26 0 0 1 4 1.68 4.57 4.57 0 0 1 .93.79 1.58 1.58 0 0 1 .76.7c.11.18.4.76.67.75a.27.27 0 1 1-.15.52 1.05 1.05 0 0 1-.38-.19 2.58 2.58 0 0 1-.13 1.08 4.41 4.41 0 0 1-.27.64c1 .68 1.92 1.35 2.9 2 1.88 1.27 3.89 2.52 5.89 3.6l1.83 1 .5.26c.47-.57.92-1.15 1.35-1.74l-.19-.11c-.35.52-.71 1-1.09 1.56a.23.23 0 1 1-.39-.25l.88-1.67A98.97 98.97 0 0 1 92.01 82c-3.39-2.41-6.64-5-9.79-7.69-1.27-1.1-2.55-2.19-3.81-3.29-.52-.46-1.06-.92-1.57-1.38-1.07-1-2.13-2-3.19-3s-1.87-1.73-2.8-2.58v-.07h.07c1.92 1.73 3.86 3.44 5.85 5.08.64.53 1.26 1.1 1.89 1.65 1.05.92 2.11 1.83 3.19 2.72 1.72 1.43 3.47 2.81 5.23 4.19.58.45 1.17.89 1.76 1.34L90.26 80c1.73 1.29 3.5 2.53 5.31 3.71.79.52 1.59 1 2.39 1.53l.79.48c.41-.79.79-1.6 1.18-2.41l-3.06-2c-1.66-1.08-3.3-2.22-4.92-3.36a134.07 134.07 0 0 1-11.83-9.4c-1.79-1.6-3.54-3.24-5.22-4.95l.06-.06c2.24 2.27 4.6 4.4 7 6.47 1.38 1.17 2.81 2.31 4.25 3.41.83.63 1.66 1.26 2.51 1.87 1.07.77 2.14 1.52 3.22 2.27l1 .68c1.61 1.1 3.28 2.17 4.95 3.19.74.45 1.48.92 2.23 1.36.36-.74.71-1.48 1-2.22l-.23-.13a57.73 57.73 0 0 1-5.67-3.72 95.63 95.63 0 0 1-10.33-9 250.3 250.3 0 0 1-7.17-7.4c.77.82 1.55 1.63 2.33 2.44 1.4 1.45 2.81 2.9 4.26 4.3s2.71 2.61 4.12 3.85a74.69 74.69 0 0 0 9.59 7.3c1.07.68 2.17 1.31 3.28 1.9q.26-.57.5-1.15c-.78-.85-1.6-1.72-2.33-2.62a.15.15 0 0 1 .23-.2c.26.33.55.64.82.95.44.5.89 1 1.34 1.47l.07.07.31-.75.25-.62a64.56 64.56 0 0 1-6.48-4A123.28 123.28 0 0 1 83.88 63l-5.33-5a.09.09 0 1 1 .12-.13c3.13 2.92 6.26 5.81 9.51 8.59a91.82 91.82 0 0 0 7.78 6 69.74 69.74 0 0 0 6.88 4.16c.2-.53.4-1.07.6-1.61l.17-.47-.24-.18c-1-.77-2.07-1.58-3.1-2.37-1.43-.99-2.86-2.1-4.27-3.22-.87-.7-1.74-1.41-2.6-2.12-2.58-2.13-5.13-4.31-7.61-6.56-1.48-1.34-2.94-2.72-4.34-4.14-.91-.92-1.82-1.84-2.7-2.79l.06-.06a80.1 80.1 0 0 0 3.55 3.59c2.15 2.06 4.4 4 6.71 5.92.87.7 1.73 1.4 2.61 2.09L93.4 66c1.12.89 2.29 1.73 3.42 2.6l3.71 2.87c1.06.82 2.13 1.62 3.18 2.45l.09.07c.26-.77.49-1.55.71-2.32a.25.25 0 0 1-.19 0c-.87-.55-1.74-1.09-2.57-1.71a67.45 67.45 0 0 1-4.87-3.89c-1.14-1-2.26-2-3.36-3.09-1.85-1.75-3.63-3.6-5.41-5.42-1.21-1.24-2.41-2.48-3.63-3.71-.37-.38-.75-.77-1.13-1.14l-2.68-2.61a.07.07 0 1 1 .1-.1c1 1 2.11 2 3.14 3.08 1.86 1.87 3.71 3.74 5.58 5.6a88.77 88.77 0 0 0 13.34 11.43c.58.38 1.16.78 1.76 1.14v-.17c.22-.8.42-1.61.58-2.43 0-.41.08-.83.12-1.25v-.22a.19.19 0 0 1-.14-.22 2.57 2.57 0 0 1-.33-.34v-.41c0-.07 0-.17-.06-.25a11 11 0 0 1-1.13-.67 11.2 11.2 0 0 1-.93-.68l-.09.12-.28.35c.94.63 1.87 1.26 2.79 1.91a.25.25 0 0 1-.27.41c-1-.57-2-1.2-2.93-1.84l-.33.34.16.09a12.93 12.93 0 0 0 2.25 1.17.28.28 0 0 1-.23.51 19.32 19.32 0 0 1-2.44-1.45 2.58 2.58 0 0 1-1.76.7 1.66 1.66 0 0 1-.46-.09 2.43 2.43 0 0 1-.54-.27A2.91 2.91 0 0 1 98 66a6.21 6.21 0 0 1-.81-1.26 3.19 3.19 0 0 1-.18-.39c-.16-.35-.31-.72-.44-1.08-.24-.67-.47-1.35-.68-2q-2.5-1.85-4.91-3.81c-1.07-.87-2.15-1.72-3.17-2.64-2.93-2.64-5.77-5.36-8.47-8.23a.07.07 0 0 1 0-.09.07.07 0 0 1 .09 0c.38.42.79.84 1.2 1.24.72.71 1.43 1.42 2.17 2.1 1.84 1.69 3.74 3.34 5.7 4.89.55.43 1.08.9 1.62 1.34l1.65 1.32c1.26 1 2.54 2 3.83 2.91l-.1-.3c-.27-1.09-.55-2.18-.77-3.28q-.15-.75-.28-1.49-3.33-2.66-6.68-5.32c-.94-.75-1.9-1.48-2.83-2.23l-1.7-1.48v.05l-.49-.48c-.1-.09-.21-.19-.3-.28l-.14-.12-.06-.07v-.07c0-.01.3.17.37.21a5.36 5.36 0 0 1 .44.32l.89.62c1.06.71 2 1.49 3 2.27l3.4 2.67 4 3.1c-.09-.57-.17-1.13-.24-1.71s-.11-.92-.14-1.38c-1.3-1-2.59-2.07-3.87-3.11-1.49-1.21-3-2.43-4.48-3.63L83.65 43l.08.09.32.31.34.44-.66-.74-.17-.1-.79-.62.1.07a3.92 3.92 0 0 1 .39.28l.13.12L84.93 44c1.06.81 2.11 1.64 3.16 2.45C89.73 47.7 91.36 49 93 50.22l.88.65c0-.59-.06-1.18-.06-1.78v-1l-2.16-1.75L87 42.41l-2.29-1.91c-1.28-1-2.56-2.1-3.81-3.16.8.68 1.62 1.35 2.44 2q3 2.48 6.08 4.91 2.21 1.76 4.44 3.47a8.68 8.68 0 0 1 .31-1.8c.06-.18.11-.35.18-.53a2.67 2.67 0 0 0 .22-.74 4.92 4.92 0 0 1 0-1l.09-.14-1.06-.82a2 2 0 0 1-1.2.06 2.6 2.6 0 0 1-.82-.52l-.09-.23a.87.87 0 0 1-.37-.41 1.87 1.87 0 0 1-.15-.52l-3.66-3c-4.37-3.55-8.78-7-13.17-10.58l.05-.06c4.35 3.5 8.75 6.94 13.14 10.39 1.21 1 2.41 1.93 3.62 2.89v-.24l-1.28-1-4-3.22c-.94-.77-1.89-1.57-2.85-2.31-.49-.38-.92-.79-1.38-1.2s-.77-.67-1.16-1c.42.34.86.66 1.3 1 .28.2.56.39.83.59l.64.51q2.77 2.25 5.57 4.46L91 40a.54.54 0 0 1 .23-.46 2.86 2.86 0 0 1 .33-.18 1.88 1.88 0 0 0 .93-1v-.07L91.38 38a2.22 2.22 0 0 1-1.11-.81 1 1 0 0 1 0-.69 2.05 2.05 0 0 1 0-.21l-.85-.66-.73-.57a3.27 3.27 0 0 1-.65.06 3 3 0 0 1-1.81-.81c-.22-.18-.62-.51-.67-.79a5 5 0 0 1 0-.66v-.17q-1.07-.73-2.13-1.47l1.34 1.4v.07h-.07l-1.49-1.55-.21-.21a53.82 53.82 0 0 1-7.35-6.11v-.08h.08a55 55 0 0 0 9 7.14l.88.59a1.64 1.64 0 0 1 .39-1.19l-.62-.42c-1.58-1.08-3.13-2.2-4.66-3.33-1.8-1.33-3.53-2.77-5.23-4.23a.09.09 0 1 1 .12-.14c1 .9 2.1 1.76 3.18 2.6 1.48 1.15 3 2.24 4.52 3.33 1 .71 2 1.39 3 2.08a.07.07 0 0 1 .06 0 3.74 3.74 0 0 1 2.27.87 3.23 3.23 0 0 0 .72.41h.19l-.91-.65-1.94-1.38a2.14 2.14 0 0 1-1.55-.52A5.1 5.1 0 0 1 84 28.38l-2.28-1.72 1.16 1.16-1.08-1.08c-.12-.12-.29-.26-.39-.39.11.07.25.2.32.25.34.24.67.49 1 .74s.74.55 1.14.83c-.31-.59-.6-1.21-.87-1.83l-.23-.52L80.65 24c-.9-.75-1.84-1.44-2.75-2.17a.21.21 0 1 1 .25-.33c.47.37 1 .73 1.43 1.1.86.69 1.71 1.39 2.56 2.1l.14.12a6.27 6.27 0 0 0-.52-.88l-.36-.4-.26-.2c-.26-.19-.54-.37-.81-.53a14.63 14.63 0 0 1-3.52-2.39 5.12 5.12 0 0 1-.48-.64l-.08-.14c0-.06-.07-.12-.1-.17a2.75 2.75 0 0 1-.21-.49c-1.67-1.42-3.36-2.81-5.1-4.15l-1.31-.25c-1.41-.28-2.86-.51-4.3-.68 1.85 1.41 3.76 2.75 5.7 4 .55.37 1.09.75 1.63 1.13.76.53 1.53 1 2.3 1.57 2.09 1.43 4.25 2.79 6.4 4.11a.23.23 0 1 1-.24.39c-2.29-1.43-4.57-2.9-6.8-4.43L71.74 19c-.41-.28-.82-.56-1.21-.86l-5.63-4.3h-.42l-.59-.06-1.89-.12c-1.05 0-2.14-.07-3.19 0h-1.16.89c.87 0 1.73.13 2.59.2l-.13-.1v-.07l1.64 1.2 1.37 1 .49.36.25.1c.37.17.74.32 1.11.5l.55.27c.54.25 1.08.57 1.6.87s1.28.77 1.89 1.19c.41.28.79.57 1.18.87a10.55 10.55 0 0 1 1.55 1.4c.19.21.35.4.52.63a1.62 1.62 0 0 1 .17.24 1.45 1.45 0 0 1 .08.49l1 .67a.09.09 0 0 1 0 .13.09.09 0 0 1-.13 0l-.88-.52a1.58 1.58 0 0 1-.85 1.06c-.24.16-.46.25-.67.38.41.29.82.59 1.24.87a.28.28 0 0 1-.34.45c-.16-.12-.34-.27-.49-.4s-.39-.31-.58-.47l-.13.02-.07.57a14.91 14.91 0 0 0 .5 3.25 3.16 3.16 0 0 0 1 .84.14.14 0 0 1-.13.25 2.87 2.87 0 0 1-.84-.66 5.57 5.57 0 0 1 .06 1 5.28 5.28 0 0 1 0 .54 5.07 5.07 0 0 1 .77.45.12.12 0 0 1 0 .17.12.12 0 0 1-.17 0l-.22-.18-.22-.14L72 31a1.48 1.48 0 0 1-.17.78.84.84 0 0 1-.34.44l.47.25a4.23 4.23 0 0 1 .83.57c.13.12.23.24.34.37a.16.16 0 1 1-.25.2 2.82 2.82 0 0 0-.57-.58c-.38-.27-.81-.49-1.21-.74a1.4 1.4 0 0 1-.47 0 3.6 3.6 0 0 1-1.41-.83c-.13-.11-.24-.25-.37-.36a5.49 5.49 0 0 1-.58-.65l-.63-.79c-.24-.32-.47-.65-.7-1s-.44-.64-.66-1l-1-1.37c-.26-.37-.52-.74-.8-1.1s-.6-.77-.92-1.14-.42-.47-.63-.71a7 7 0 0 0-.59-.58c-.14-.12-.29-.26-.43-.37a4.28 4.28 0 0 0-1.81-.91 2.14 2.14 0 0 0-.42 0h-.3L60 22c.29.27.57.57.87.83.1.09.19.19.3.27s.26.23.41.32l-.3-.15a5.17 5.17 0 0 1-1-.66c-.19-.16-.37-.32-.55-.49l-.63-.62-.33.11a2.62 2.62 0 0 0-.69.4l-.28.24.45.61c.26.29.54.57.82.84l.85.81a5.75 5.75 0 0 0 1.34.64l.6.23a4.47 4.47 0 0 1 1.06.57c.11.08.2.18.31.26a.15.15 0 0 1 0 .22.16.16 0 0 1-.22 0l-.35-.32a5.78 5.78 0 0 0-1.41-.75 3.67 3.67 0 0 1-1.06-.58l.14.13c.12.13.26.25.38.39s.47.53.69.81a5.51 5.51 0 0 1 .67 1.08c.36.22.79.33 1.2.54a1.78 1.78 0 0 1 .57.45c0 .06.09.14.14.19a.11.11 0 0 1-.18.12 1.6 1.6 0 0 0-.36-.42 2.58 2.58 0 0 0-.63-.36c-.23-.1-.44-.19-.64-.29a4.53 4.53 0 0 1 .37 1.69l1.2.79a.08.08 0 0 1-.09.14l-1.11-.73a5.69 5.69 0 0 1-.13 1l.34.28a5.32 5.32 0 0 0 1.23 1 .18.18 0 1 1-.17.33 3.83 3.83 0 0 1-.92-.75c-.1-.09-.2-.22-.31-.31s-.16-.16-.26-.23a.88.88 0 0 1-.06.31 6.28 6.28 0 0 1-.38.89v.07l1.39 1.08a.18.18 0 1 1-.22.28l-1.4-1.08h-.09a2.25 2.25 0 0 1-.36.07c-.26 0-.49.06-.75.07h-.1a5 5 0 0 0 .92.55c.21.1.42.22.63.32l1.25.63a10.67 10.67 0 0 1 4.18 3.31 5 5 0 0 1 .75 1.87 3.58 3.58 0 0 1 .09.68.86.86 0 0 1 0 .21l.49.49v.09h-.09l-.51-.47a1.41 1.41 0 0 1-.31.4 1.58 1.58 0 0 1-.52.3c.27.18.51.42.79.65a3.43 3.43 0 0 0 .62.47.15.15 0 1 1-.16.26c-.57-.3-1-1-1.62-1.27-.32.07-.66.11-.95.15l-.41.04.17.07.82.29c.77.29 2.09.73 2.34 1.64a1.19 1.19 0 0 1 0 .49 1.38 1.38 0 0 1-.17.43 2.73 2.73 0 0 1-1 .87 1.44 1.44 0 0 1-.4.2c.3.23.63.43 1 .65.18.12.37.25.56.36a.19.19 0 1 1-.21.31L68.1 46a11 11 0 0 1-1.38-1l-.4-.06a2.21 2.21 0 0 0-2.17.51l-.28.34-.11.19a3.3 3.3 0 0 0 1.24 1.3l.6.4a3.32 3.32 0 0 1 .63.53l.15.17a.19.19 0 0 1-.29.24 3.63 3.63 0 0 0-.66-.63l-.5-.35a4.16 4.16 0 0 1-1.44-1.38l-.27.44c-.17.3-.33.61-.48.92l.95.84a5.89 5.89 0 0 0 2.21 1.44.13.13 0 0 1 .08.16.13.13 0 0 1-.16.08 7.59 7.59 0 0 1-2.7-1.91l-.46-.41-.28.59-.46 1a1.09 1.09 0 0 0 .21.15c.33.2.68.4 1 .61.1.07.22.12.32.2l.38.26.38.3a.12.12 0 0 1 0 .17.12.12 0 0 1-.17 0c-.12-.1-.25-.22-.37-.3-.39-.27-.79-.52-1.2-.77l-.68-.42a1 1 0 0 1-.18.27 2.27 2.27 0 0 1-.58.34l-.79.37h-.06c.42.28.83.58 1.24.87a14.38 14.38 0 0 0 1.82 1.09.18.18 0 1 1-.16.32 6.5 6.5 0 0 1-.89-.49c-.58-.36-1.14-.74-1.69-1.14l-.67-.47-1.24.59c-.27.13-.6.27-.86.43l-.77.43a20.84 20.84 0 0 0 3.38 2.33.13.13 0 1 1-.13.22 12 12 0 0 1-1.27-.77c-.75-.53-1.46-1.06-2.15-1.64l-.55.4-.08.1a1.32 1.32 0 0 1-.05.12v.19A3.18 3.18 0 0 0 56 54l.26.23c.55.5 1.1 1 1.67 1.47.41.34.84.68 1.27 1 .17.12.36.26.54.37a.13.13 0 0 1-.14.21c-.21-.15-.42-.28-.63-.44A36 36 0 0 1 56 54.27v.08c.07.94.22 1.85.29 2.78.44.31.9.62 1.36.89s.71.43 1.09.6a.12.12 0 0 1 .05.16.12.12 0 0 1-.16.05 18.5 18.5 0 0 1-2.32-1.42v.19a3.39 3.39 0 0 1-.09 1 .6.6 0 0 1-.45.36c.47.26.94.5 1.43.76a.13.13 0 1 1-.11.24 4.7 4.7 0 0 1-.73-.31 15.89 15.89 0 0 1-2-1.21 16.28 16.28 0 0 1-1.3-1A26.55 26.55 0 0 1 50.35 55c-.17-.07-.35-.13-.53-.19a1.8 1.8 0 0 0-.25-.07l-.33-.06a2.64 2.64 0 0 0-.6 0h-.22l-.38.08h-.15A33.82 33.82 0 0 0 52 58.45a28.07 28.07 0 0 0 2.75 1.91.12.12 0 1 1-.12.21 14.49 14.49 0 0 1-1.3-.77c-.38-.24-.73-.5-1.09-.76s-.79-.58-1.14-.89-1-.85-1.48-1.3c-.69-.62-1.35-1.29-2-2l-.32.15a4.59 4.59 0 0 0-.7.44l-.24.19c.24.2.49.39.74.59s.38.28.57.41.59.42.89.62A12.77 12.77 0 0 1 50.72 59a.14.14 0 0 1-.2.21c-.13-.09-.25-.22-.37-.32-.33-.26-.64-.56-1-.8l-.61-.45-.62-.45c-.39-.29-.81-.57-1.18-.88-.19-.16-.41-.32-.6-.5A8.39 8.39 0 0 0 45.08 57 18.59 18.59 0 0 0 47 58.38l.85.54a6.85 6.85 0 0 1 .72.5.09.09 0 0 1 0 .13.09.09 0 0 1-.13 0 4.6 4.6 0 0 1-.59-.37l-.93-.6c-.47-.3-1-.62-1.41-1l-.51-.39c-.21.28-.41.57-.61.87a1.73 1.73 0 0 1-.11.17l.12.11a9.77 9.77 0 0 0 2.08 1.44.13.13 0 1 1-.13.23 11.19 11.19 0 0 1-2.17-1.58l-.11.24a3.48 3.48 0 0 0-.12.4 2.78 2.78 0 0 0-.08.38l.51.4c.47.34.94.7 1.43 1l.44.31c.07 0 .16.12.23.16a.13.13 0 0 1-.15.21c-.13-.07-.29-.2-.42-.29-.42-.28-.83-.59-1.23-.88s-.57-.42-.85-.65v.35a5.1 5.1 0 0 0 .17 1.3 7.89 7.89 0 0 0 .6.57c.18.16.35.34.54.48a9.14 9.14 0 0 0 1.39 1c.22-.21.44-.41.66-.62a5.77 5.77 0 0 1 1.68-1.13l.34-.11a2.09 2.09 0 0 1 2.15.57 2.14 2.14 0 0 1 .35.47 1.87 1.87 0 0 1 0 .86 2.31 2.31 0 0 1-.53 1l-.61.66.08.53.07.17c.38.21.77.41 1.16.6.77.37 1.61.66 2.41 1a.05.05 0 0 1 0 .1 17.13 17.13 0 0 1-1.86-.73c-.53-.23-1.08-.5-1.63-.8 0 .07.06.14.09.21.17.36.37.72.57 1.07l.11.19h.6a1.76 1.76 0 0 1 .3 0c.25 0 .46.55.55.76a4.18 4.18 0 0 1 .31 2.18 3.57 3.57 0 0 1-.08.46 2.83 2.83 0 0 1 .09 1.24 2.12 2.12 0 0 1-.05.21 7 7 0 0 0 1 .6 5 5 0 0 0 .46.22.13.13 0 0 1-.11.24c-.16-.06-.31-.15-.47-.22a6.21 6.21 0 0 1-1-.58l-.07.14a1.14 1.14 0 0 1-.34.38.93.93 0 0 1-.46.06 3 3 0 0 1-.46-.06l.27.4a.16.16 0 0 1 .13 0c.77.51 1.55 1 2.33 1.53a.18.18 0 0 1-.2.3L52.49 74l.29.45c.11.16.19.33.29.49a.37.37 0 0 1-.65.36 21.77 21.77 0 0 0-1.83-2.88 1.58 1.58 0 0 1-.18-.16 7 7 0 0 1-1-1.06 13.23 13.23 0 0 0-1.83-2.33l-.23-.14.13.5a2.21 2.21 0 0 0 0 .3 6.17 6.17 0 0 1-.92-.06 1.41 1.41 0 0 1-.42-.25c-.24-.15-.47-.34-.72-.48l-.42-.27-.59-.34-.41-.22a16.24 16.24 0 0 0 2.75 1.87 17.52 17.52 0 0 0 1.76.81.11.11 0 1 1-.08.21 10.68 10.68 0 0 1-2.55-1.21 16.63 16.63 0 0 1-2.78-2.15c-.52-.28-1.05-.55-1.58-.79-.34-.16-.67-.33-1-.48s-.56-.28-.84-.39-.52-.23-.78-.36c1.93 1.61 4 3 5.86 4.75a.2.2 0 1 1-.26.29c-.28-.23-.54-.48-.81-.72s-.69-.6-1-.88c-1-.88-2.12-1.75-3.19-2.6-.57-.45-1.13-1-1.68-1.43a.14.14 0 0 1 0-.15 3.65 3.65 0 0 1-.32-.67c-.06-.15-.14-.31-.2-.46-.13-.3-.26-.62-.37-.92-.25-.66-.45-1.29-.64-2-.13-.47-.21-.94-.32-1.41s-.22-1-.32-1.47-.22-.89-.36-1.32l-.2-.58-.19-.45a7.29 7.29 0 0 0-.43-.77 10.12 10.12 0 0 0-1-1.31c-.75-.84-1.61-1.59-2.37-2.42a5.13 5.13 0 0 1-1.63-3.55 3.83 3.83 0 0 1 .11-.85 6.13 6.13 0 0 1 .6-1.5c.15-.26.31-.5.47-.75s.24-.33.36-.49a14 14 0 0 1 1.38-1.51l.46-.45a1.58 1.58 0 0 0 0-.52v-.31a5.6 5.6 0 0 0-.85-1.62c-.11-.17-.22-.36-.32-.54a4.84 4.84 0 0 1-.85-2.42 5.4 5.4 0 0 1 .86-2.47c.47-.88 1-1.73 1.45-2.65a4.12 4.12 0 0 0 .45-2 2.58 2.58 0 0 0-.17-.75v-.09l-.6.07-.87.08.47.38v.08h-.08l-.56-.46H29.5a6.06 6.06 0 0 0 1.67 1.5c.32.22.64.47.94.72a.19.19 0 1 1-.24.29l-.44-.38-.4-.32-.58-.39a5.45 5.45 0 0 1-1.38-1.49l-.24-.06a2.66 2.66 0 0 1-.55-.22 1.35 1.35 0 0 1-.41-.37c-.63-.86.46-1.86 1.13-2.35l.47-.35a10.83 10.83 0 0 1 3.28-1.78c.24-.06.47-.12.72-.17l.59-.09-1-.89-.8.57a44.93 44.93 0 0 0-8 7.19c-.37.44-.74.9-1.08 1.37-.11.16-.24.31-.34.46l-.44.65-1.34 2.2c-.39.66-.75 1.36-1.09 2.05l-.42.86h.06l.19.1a1.82 1.82 0 0 1 .58.65c.34.51.45 1.2 1.15 1.36a.11.11 0 0 1 .07.14.11.11 0 0 1-.14.07 1.37 1.37 0 0 1-.68-.44l-.19-.27a3.74 3.74 0 0 1-.18-.34 2 2 0 0 0-.9-1.08l-.32.69c-.06.12-.11.25-.54 1.37.19.32.38.65.58 1-.15 0-.18-.11-.25-.24s-.26-.43-.39-.64a23.64 23.64 0 0 0-1 2.54 31.27 31.27 0 0 0 3.08 2.68.16.16 0 0 1 0 .22.16.16 0 0 1-.22 0c-.62-.47-1.22-1-1.81-1.49-.4-.35-.82-.72-1.19-1.11l-.08.23c-.12.34-.24.69-.75 2.49a.16.16 0 0 1 .21.06 5.92 5.92 0 0 0 .67 1c.4.51.84 1 1.24 1.5.11.14.27.26.38.4a.17.17 0 0 1 0 .23h-.23a5.26 5.26 0 0 1-.43-.47c-.32-.34-.61-.72-.91-1.09s-.47-.59-.69-.9a2.58 2.58 0 0 1-.31-.48 22.64 22.64 0 0 0-.82 2.66c.29.4.58.81.89 1.2.89 1.13 1.77 2.26 2.55 3.48a.2.2 0 1 1-.33.22c-.18-.26-.34-.53-.52-.78-.69-1-1.42-1.91-2.15-2.84l-.58-.75c-.08.53-.15 1.06-.21 1.59a.24.24 0 0 1-.09.16c0 .32-.09.65-.12 1q.82 1.26 1.7 2.48a16.61 16.61 0 0 0 3.41 3.72.21.21 0 0 1-.25.34 7.29 7.29 0 0 1-.88-.74 21.63 21.63 0 0 1-1.72-1.87 36.23 36.23 0 0 1-2.35-3.19v.2q-.12 1.21-.19 2.43a27 27 0 0 0 3.76 4.56c.44.49.87 1 1.29 1.48s.62.85.92 1.27a11.55 11.55 0 0 1 .77 1.43.11.11 0 0 1-.05.14.11.11 0 0 1-.14-.05 14 14 0 0 0-.67-1.25 21.36 21.36 0 0 0-2.86-3.4 22.61 22.61 0 0 1-2.93-3.42 21.92 21.92 0 0 0-.2 3.83l.91 1.05c.83.95 1.67 1.9 2.47 2.87s1.53 1.85 2.26 2.79c.59.77 1.17 1.55 1.74 2.34.21.29.4.59.61.88a.09.09 0 0 1 0 .13.09.09 0 0 1-.13 0l-.64-.95c-.56-.77-1.14-1.55-1.75-2.28-1.11-1.36-2.28-2.68-3.42-4-.7-.82-1.41-1.63-2.1-2.46q0 1.7.14 3.39c1.22 1.69 2.51 3.33 3.78 5 1.09 1.42 2.18 2.85 3.29 4.27.83 1.07 1.66 2.15 2.46 3.24l1.38 1.89a.07.07 0 1 1-.11.08c-.49-.67-1-1.35-1.48-2q-1.49-1.94-3-3.85c-1.91-2.37-3.86-4.75-5.59-7.26l-.7-1q.2 2.72.62 5.41l1 1.29c2.21 2.92 4.4 5.87 6.78 8.65 1.15 1.34 2.34 2.61 3.58 3.86.44.44.9.86 1.35 1.28s.71.65 1.07.95l1.32 1.08a.09.09 0 0 1-.11.13 54.4 54.4 0 0 1-5.5-5 95.58 95.58 0 0 1-7.31-8.69q-1.07-1.42-2.09-2.88.18 1.11.4 2.21a76.23 76.23 0 0 0 4.57 7c.57.77 1.13 1.55 1.73 2.3s1.31 1.63 2 2.41 1.38 1.53 2.09 2.28a61.25 61.25 0 0 0 6.88 6.16l-1.35-1.06a65.74 65.74 0 0 1-6.47-6Q23.62 83.2 22 81.18c-.33-.4-.65-.83-1-1.23-.59-.73-1.13-1.53-1.67-2.3a57.43 57.43 0 0 1-3.19-5.13q.17.84.36 1.67c.41 1.2.89 2.39 1.39 3.55.14.33.29.66.72 1.47-.81-1.54-.92-1.78-1-2-.28-.67-.52-1.33-.78-2-.07-.19-.14-.39-.21-.59q.27 1.12.57 2.24l.18.64c.33.49.66 1 1.1 1.6-.19-.4-.36-.76.16.1-.14-.22 0 0 .08.24.45.64.93 1.3 1.41 2 1 1.43 2.13 2.83 3.25 4.19l.75.88c.31.37.63.73 1 1.09.56.62 1.13 1.26 1.72 1.85.76.76 1.53 1.51 2.32 2.25.27.25.56.49.83.75s.55.51 1.14 1l-.11-.13.17.2.42.34c-.94-.78-1.91-1.52-2.8-2.36-.72-.69-1.45-1.37-2.15-2.08l-1-1.07c-.23-.24-.45-.49-.68-.73l-1.33-1.48a56.002 56.002 0 0 1-3.6-4.47 1.76 1.76 0 0 0 .12.21c.21.34.4.7.62 1l.61 1c.17.27.35.54.53.81a1.72 1.72 0 0 1 .3.33c.14.15.26.32.39.48l1.31 1.55c.8.93 1.62 1.87 2.44 2.78s1.56 1.72 2.36 2.56a66.4 66.4 0 0 0 5.19 4.86l.92.68c.63.46 1.25.93 1.88 1.41l.66.42c.68.29 1.36.55 2 .83s1.2.46 1.8.68l-.61-.47c-.76-.56-1.52-1.11-2.31-1.65A48.33 48.33 0 0 1 33 95.24a41.24 41.24 0 0 0 4.22 3.11L39 99.53c.63.41 1.29.86 1.89 1.32l.76.59c.8.3 1.62.58 2.43.83l1.86.58-.44-.32c-.35-.26-.72-.5-1.07-.75-.54-.37-1.1-.75-1.67-1.09-.4-.25-.83-.48-1.22-.73a.06.06 0 0 1 0-.09.06.06 0 0 1 .09 0c.41.26.86.5 1.28.76.78.47 1.53 1 2.29 1.49.45.3.89.6 1.34.92h.08l-.25-.2c-.94-.75-1.9-1.48-2.85-2.22s-2.17-1.71-3.24-2.58a37.79 37.79 0 0 1-4.82-4.55c-.52-.43-1-.92-.88-1a10.7 10.7 0 0 1-1.19-1.35 14.93 14.93 0 0 0 1.14 1.38 9.11 9.11 0 0 0 .88 1 46.9 46.9 0 0 0 5.54 4.92c.66.52 1.33 1 2 1.54 1.16.87 2.31 1.78 3.46 2.68l.67.55.92.25c1.26.34 2.53.63 3.81.88-.53-.47-1.07-.93-1.62-1.38l-.88-.71-.81-.64-2.19-1.7a89.71 89.71 0 0 1-7-5.78 32.39 32.39 0 0 1-2.59-2.72.1.1 0 0 1 0-.14.1.1 0 0 1 .14 0c3.8 4.42 8.66 7.55 13.16 11.19.79.64 1.56 1.29 2.31 2l1.59.29c.75.13 1.52.24 2.28.34l-1.84-1.41c-1.21-.94-2.4-1.92-3.57-2.91a217.73 217.73 0 0 1-4.64-4c-.72-.64-1.42-1.31-2.13-2l-1.66-1.47c-.48-.44-.94-.9-1.41-1.35l.06-.07c.47.45 1 .87 1.44 1.32 1 1 2.11 1.94 3.19 2.85.49.41 1 .85 1.45 1.27L49 99c1.64 1.41 3.36 2.76 5.05 4.1.87.69 1.74 1.36 2.63 2l1.37.14a7.25 7.25 0 0 1-.05-1.76zM69.4 105l-.1-.08a.16.16 0 0 1 0 .1zm-21.05-.66h-.11l.46.32 1.17.24c-.52-.15-1.02-.33-1.52-.52zm23.95 0c.59-.14 1.2-.24 1.79-.37q-1-.61-1.93-1.26c-.5-.34-1-.7-1.45-1.06s-1.09-.83-1.62-1.25l-.17.12.5.45c.64.55 1.31 1.09 2 1.6a.2.2 0 0 1-.25.32 4.47 4.47 0 0 1-.46-.38l-1-.83-.69-.61c-.12-.11-.25-.25-.37-.35l-.36.26-.2.12-.26.16-.23.31c.86 1.08 2.18 1.64 3.22 2.54a.2.2 0 0 1-.27.31c-.12-.1-.24-.22-.36-.32l-.36-.28c-.47-.36-1-.67-1.43-1a6.65 6.65 0 0 1-1-.93q-.22.35-.41.73l3 2.34c.78-.24 1.54-.44 2.3-.61zm-4.46-.55l-1-.83.19.19a7 7 0 0 0 1.77 1.34zm-20.45.2c-.52-.22-1-.45-1.54-.69a.09.09 0 0 1 0-.12 28.08 28.08 0 0 1-3.85-1.35l.07.05c.3.24.58.52.86.78a.07.07 0 0 1 0 .1 4.42 4.42 0 0 0 .54.26 7.43 7.43 0 0 0 1.1.4 12.63 12.63 0 0 0 1.41.51l1.06.33.78.2.23.05zm18.19-1.78l.14-.19c-2-1.6-3.31-2.75-4.62-3.92l-.08.08-.15.27-.21.39c-.07.13-.21.4-.3.59s-.26.52-.36.79a11.49 11.49 0 0 0-.39 1.11c1.4 1.09 2.85 2.15 4.31 3.17.54-.76 1.08-1.5 1.66-2.28zm9 2l-.11-.07-.45.17zm.95-.2l1.3-.44a.57.57 0 0 1 .13-.15c.25-.15.52-.29.77-.43l.17-.09c-.34-.21-.68-.42-1-.64-.79-.52-1.57-1-2.34-1.59-1-.71-2-1.44-2.94-2.19l-.49.38c-.54.41-1.07.85-1.63 1.24.86.65 1.74 1.28 2.63 1.89s2 1.42 3.1 2.08zM43 103.64a3.74 3.74 0 0 0 .78.27zm-.07-.06c-.6-.2-.55-.16.07.06 0-.02-.06-.04-.07-.06zm15.49-.58a1 1 0 0 0-.12.44l.15.11a5.36 5.36 0 0 1-.03-.55zm21.93-1.4l.19-.1-.47-.34c-.78-.56-1.55-1.17-2.31-1.76q-1.45-1.12-2.88-2.26l-.57.21c.22.15.46.28.7.42l.27.18a2.82 2.82 0 0 1 .58.57.19.19 0 0 1 0 .26.19.19 0 0 1-.26 0c-.06-.06-.1-.15-.16-.21a2.87 2.87 0 0 0-.6-.54c-.25-.16-.56-.34-.82-.54l-.77.27-1 .38-.17.06a12 12 0 0 0 2.67 1.8c.27.13.57.29.84.39a.19.19 0 0 1-.16.35l-.64-.32.41.29c1 .69 2 1.35 3 2 .74-.35 1.43-.71 2.14-1.08zm-38.17.54l-.31-.26-1.3-.48a17.09 17.09 0 0 0 2.18 1.25zm30.56-.65c-.79-.59-1.58-1.13-2.32-1.77a.14.14 0 1 1 .18-.21 17.1 17.1 0 0 0 1.72 1.3l.89.62c.16.12.33.25.49.36a.17.17 0 0 1-.2.27c-.27-.16-.5-.36-.77-.55zm-6.25-.49a4 4 0 0 1 .52-.64 3.62 3.62 0 0 1 .39-.25c.16-.09.33-.24.49-.34l.19-.14c-.9-.74-1.78-1.5-2.64-2.28l-1-.89c-.53-.49-1.06-1-1.56-1.5a5.92 5.92 0 0 1-.29.58c-.18.33-.38.65-.58 1a.25.25 0 0 1-.2.29l-.18.29a.33.33 0 0 1 0 .47l-.35.34c1.33 1.14 2.68 2.26 4 3.35l.59.47c.24-.29.43-.55.62-.75zm-26.35.41a.21.21 0 0 1 .08-.07l-1.22-.53 1.14.62a.19.19 0 0 1 .01-.06zm46.1-.54l-.23-.1-.55.3-.78.4c.53-.23 1.05-.47 1.57-.64zm-45.85.49a.19.19 0 0 0-.17 0l.33.12zm-6.54-1.38c.61.51 1.25 1 1.9 1.45q-.96-.74-1.89-1.5zm49.46.15l.74-.42-.84-.51c-1-.61-2-1.22-2.94-1.88l-2.44-1.68a7.09 7.09 0 0 1-.72.57 6.47 6.47 0 0 1-1.06.58c.3.16.62.29 1 .47l.32.19a.15.15 0 1 1-.14.27c-.28-.11-.55-.25-.82-.36a4 4 0 0 1-.75-.4l-.4.16c1.9 1.45 3.84 2.86 5.77 4.26.74-.47 1.52-.87 2.29-1.3zm1.92.25h-.08q-.57.36-1.16.69zm-45.37-1.2c-1.38-1.07-2.72-2.15-4-3.3S33 93.36 31.6 92.06c-1.86-1.76-3.67-3.57-5.49-5.38-1.25-1.25-2.46-2.52-3.7-3.78a.07.07 0 0 1 0-.1.07.07 0 0 1 .1 0c1.42 1.45 2.89 2.86 4.32 4.3s2.67 2.61 4 3.9 2.58 2.45 3.91 3.62c2.17 1.92 4.37 3.75 6.65 5.54a.07.07 0 0 1 0 .09.07.07 0 0 1-.09 0c-.47-.33-.97-.71-1.44-1.07zm48.09-.48l-.27-.18-.18.15a21.58 21.58 0 0 1-1.74 1.28l.12.07q1.03-.64 2.07-1.32zm-19.45.6c.35-.25.69-.52 1-.77l1-.79c-1.95-1.57-3.82-3.23-5.67-4.91q-1.27-1.15-2.52-2.33c.05.15.11.3.17.45v.1l.2.14a.58.58 0 0 1 .11.1.68.68 0 0 1 .07.47v.25a2.32 2.32 0 0 1 .09.32c0 .1 0 .2.06.3a5.35 5.35 0 0 1 0 .56 4.76 4.76 0 0 1-.07 1.29c0 .06 0 .13-.06.19l.69.64c.67.62 1.37 1.26 2.06 1.84s1.68 1.41 2.53 2.09l.11.09zm18.36-1.36c-.44-.32-.87-.65-1.3-1L84 95.74c-1.11-.87-2.22-1.75-3.32-2.63l-1-.8a10.45 10.45 0 0 0 1.15 1.06c.23.19.47.37.72.54a2.47 2.47 0 0 0 .25.17.18.18 0 0 1-.19.3 6.1 6.1 0 0 1-.82-.6 14.06 14.06 0 0 1-1.13-1l-.36-.38-.15.38-.32.8.32.28A16.38 16.38 0 0 0 81 95.21a.21.21 0 0 1-.23.36c-.2-.11-.41-.28-.6-.41a13.83 13.83 0 0 1-1.53-1.25l-.21.55c0 .13-.16.44-.27.65a2.1 2.1 0 0 0 1 .65.21.21 0 0 1 .15.25.22.22 0 0 1 0 .09c1.23.8 2.48 1.58 3.76 2.33l1.55.88q1.14-.66 2.23-1.37zm-55.15.15l.26.22.42.37zm57.67-.39l.3-.24c.51-.41 1-.84 1.52-1.27a.25.25 0 0 1-.13 0l-.42.31c-.82.58-1.63 1.17-2.47 1.73 0-.13.05-.17.15-.24s.23-.19.34-.29l-.16.11-.37.25-.11.1.17.13a.26.26 0 0 1 .1.19zm-57.69-.87l-3-2.52.88.84c.47.45 1 .89 1.47 1.3a16.27 16.27 0 0 0 2.29 1.69c-.55-.43-1.1-.86-1.64-1.31zm56.94-.06c.52-.35 1-.71 1.55-1.08l-.54-.31c-.46-.26-.91-.55-1.35-.83-1.29-.77-2.44-1.55-3.64-2.42l-1.44-1a.24.24 0 0 1-.31 0 10.2 10.2 0 0 1-1.64-1.31 4.41 4.41 0 0 1-.36.77 3.11 3.11 0 0 1-.45.53c.21.18.44.35.66.52a9.32 9.32 0 0 0 1.57 1 4.09 4.09 0 0 0 .43.21.21.21 0 1 1-.17.39 10.77 10.77 0 0 1-2.75-1.87l-.27.24-.25.22c1.58 1.25 3.19 2.49 4.81 3.68l1.88 1.38 1 .7zm-15.54-1l-.09-.1a131.29 131.29 0 0 1-9.76-8.82c-.87-.74-1.67-1.54-1.29-1.29-2-1.91-2.83-2.78-3.65-3.65 1.17 1.26 2.37 2.5 3.61 3.68.41.45.84.88 1.29 1.29q2.32 2.24 4.76 4.34c1.39 1.21 2.81 2.37 4.24 3.53l1 .84c.71-.57 1.43-1.14 2.14-1.72-.86-.66-1.72-1.33-2.56-2a128.52 128.52 0 0 1-13.2-12.25c2 2.09 4 4.09 6.14 6.06 2 1.81 4 3.54 6.11 5.2 1.21 1 2.46 1.91 3.73 2.82l.43-.36 2.33-2-1.22-1c-.97-.96-2.1-1.9-3.1-2.84s-2.24-2-3.33-3c-3.82-3.48-7.56-7-11.17-10.74l.05-.05a208 208 0 0 0 18.82 17l.36.29.71-.66a.16.16 0 0 1 .2-.19l.21-.19.08-.27c.09-.32.18-.65.26-1Q79 88 78 87.14c-2.77-2.21-5.47-4.52-8.1-6.9-1.9-1.72-3.79-3.47-5.61-5.24v-.1h.07c3.56 3.49 7.3 6.77 11.16 9.92 1.53 1.25 3.11 2.44 4.7 3.62.07-.28.13-.56.18-.84s.08-.37.09-.53a2.2 2.2 0 0 1 0-.23.42.42 0 0 1 .43-.35l.12-.44a4.17 4.17 0 0 1 .19-.61q-3.22-2.58-6.4-5.22c-2.24-1.86-4.48-3.73-6.69-5.64v-.05c1.74 1.5 3.51 3 5.28 4.44 2.57 2.15 5.2 4.25 7.85 6.3a2.89 2.89 0 0 1 .41-.41c.38-.35.76-.66 1.17-1l.44-.35-.9-.68c-1.91-1.45-3.82-2.91-5.7-4.39-3.02-2.44-6.13-4.93-9.15-7.44a.1.1 0 0 1 0-.14.1.1 0 0 1 .14 0c4.14 3.49 8.46 6.78 12.79 10q1.6 1.21 3.23 2.38l.38-.33 1-1 .54-.76-1.7-1.32c-1.32-1-2.62-2.09-3.9-3.17a.55.55 0 0 1 .06.28.53.53 0 0 1-.57.5 3.23 3.23 0 0 1-2.06-.77 2.5 2.5 0 0 1-.41-.47c-.09-.12-.17-.24-.24-.37h-.05a1.86 1.86 0 0 1-.8-1c-.07-.14-.14-.27-.2-.41a9.31 9.31 0 0 1-.39-1.12c-.06-.21-.12-.44-.2-.67a1.11 1.11 0 0 0-.51 0 2.23 2.23 0 0 1-.37.08c-.14 0-.25-.17-.34-.26-.25-.24-.5-.5-.74-.75a.26.26 0 0 1-.06-.09h-.54a5.09 5.09 0 0 1-1.09-.11l-.29-.1a3.21 3.21 0 0 1-.32-.13c-.15-.06-.33-.13-.48-.21l-.25-.12a.45.45 0 0 1-.72.37c-.5-.48-1-1-1.56-1.45-.45-.21-.9-.41-1.36-.59s-.64-.24-1-.34l-.4-.12a3.67 3.67 0 0 0-.36-.09 8 8 0 0 0-1.22-.2 5.69 5.69 0 0 0-1.27 0 4 4 0 0 0-2.88 1.9l-.08.13a5.17 5.17 0 0 1 .68-.38 5 5 0 0 1 1-.35 5.26 5.26 0 0 1 1.06-.13h.52a.46.46 0 1 1-.07.91 5.45 5.45 0 0 0-3.66 1.17v.63a9.61 9.61 0 0 1-.15 2 1.72 1.72 0 0 1-.11.32l.27.24a.25.25 0 1 1-.33.38l-.24-.2-.27.26-.1.1a.46.46 0 0 1 0 .47c-.08.12-.15.26-.23.38-.18.29-.37.58-.57.86s-.55.77-.8 1.16c-.14.23-.28.46-.41.7a3.23 3.23 0 0 0-.47 2.35l.19.08a1.86 1.86 0 0 1 .42.12.55.55 0 0 1 .28.58h.81a.25.25 0 1 1 0 .5h-.72l.06.16a10.2 10.2 0 0 0 .82 1.68c.42.72.85 1.44 1.3 2.14l.11.16L60 88.07l.45.43a6.81 6.81 0 0 1 1.06 0 .56.56 0 0 1 .4.3.88.88 0 0 1 .07.28c0 .19.07.37.11.56a3.39 3.39 0 0 0 .09.4q3.22 3.14 6.7 6 1 .78 1.93 1.53c.78-.64 1.53-1.24 2.28-1.84zm1.14.93l-.15-.12-.4.32zm-40.69-6.91c-1.8-1.55-3.56-3.15-5.26-4.8-1.21-1.18-2.42-2.38-3.56-3.62a.08.08 0 0 1 0-.11.08.08 0 0 1 .11 0c.77.83 1.57 1.63 2.37 2.44.4.4.82.81 1.23 1.19l1.26 1.18c.94.89 1.93 1.75 2.91 2.6s1.82 1.59 2.75 2.36q3.3 2.76 6.63 5.48v.08h-.08c-2.9-2.19-5.63-4.46-8.36-6.8zM75 96.35a2.56 2.56 0 0 1-.21-.28.17.17 0 0 1 0-.09l-.45.37.24.18zm1.77-.84l.53-.31-.85-.61-.84.7-.61.51a.19.19 0 0 1 .1.07 2.55 2.55 0 0 0 .27.34 15.83 15.83 0 0 0 1.4-.7zm15.11.07l-.51.38a.21.21 0 0 1 0 .09zM41.46 94c-1.34-1-2.66-2.07-4-3.14-1.05-.86-2.11-1.86-3.16-2.75-.74-.66-1.5-1.34-2.22-2l-1.63-1.56c-.62-.6-1.23-1.21-1.79-1.87-.41-.35-.78-.74-.23-.25-1.26-1.27-1.61-1.66-2-2q.93 1.06 1.92 2.08l.23.25c2.09 2.16 4.34 4.2 6.62 6.13 1.39 1.18 2.79 2.35 4.21 3.48s3.17 2.46 4.78 3.66V96h-.07c-.85-.62-1.75-1.33-2.66-2zM29 95.4l.37.24a2.75 2.75 0 0 1-.37-.24zM92.45 94q-3.69-2.64-7.26-5.41a.25.25 0 0 1-.34.1 10.31 10.31 0 0 1-2.68-2.13c-.1.36-.18.75-.27 1.11a3.71 3.71 0 0 0 .37.41 13 13 0 0 0 1.09.84 4.54 4.54 0 0 1 .6.57.21.21 0 0 1-.31.27c-.08-.08-.15-.2-.23-.27l-.46-.4c-.16-.14-.38-.28-.56-.41a4.37 4.37 0 0 1-.62-.55l-.24.88-.1.36c1.41 1 2.84 2 4.28 2.93.35.24.72.46 1.07.69l1.11.72 2.72 1.69c.62-.49 1.23-.97 1.83-1.4zm-53.94-5.7c-1.87-1.61-3.68-3.29-5.5-5a.08.08 0 0 1 0-.11.08.08 0 0 1 .11 0 145.34 145.34 0 0 0 14.27 12 .07.07 0 0 1 0 .1.08.08 0 0 1-.1 0c-3.06-2.21-5.93-4.57-8.78-7.03zm-9.61 6.81a.14.14 0 0 1 .1-.05q-.87-.77-1.71-1.58l.57.66 1 1.09a.14.14 0 0 1 .04-.12zm48.94-.32v-.05a3.48 3.48 0 0 0 .2-.32c.13-.24.25-.47.37-.7-.14-.13-.29-.28-.43-.44l-.38.32-.57.47a4.7 4.7 0 0 1 .76.69zm-.84-.31a1.17 1.17 0 0 0-.15-.12l-.09-.05-.06.05.49.33.2.14a4.44 4.44 0 0 0-.39-.35zm-45.66-.72l.23.24zm62.52-1l.18-.15.65-.67q-5.18-3.84-10.34-7.7l-1 .82a6.77 6.77 0 0 0 .9.6 4.79 4.79 0 0 1 1.22.92.2.2 0 1 1-.29.27c-.07-.06-.13-.15-.21-.21a8 8 0 0 0-.77-.59l-.86-.59-.25-.19-.75.67v.09l.22.17c2.64 2 5.3 4 8 5.91.74.52 1.48 1 2.23 1.55zm-62.77.72zm0 0c-.18-.13-.05 0 .07.08zm47.7-.57l.21-.41-.49.41-.21.09.32.32c.07-.11.13-.26.19-.43zm17.47-2.63a11.44 11.44 0 0 0 1.15-1.42c-.58-.31-1.17-.62-1.73-1s-1.3-.75-1.93-1.15l-1.09-.68c-.8-.49-1.58-1-2.37-1.57-.48-.32-.94-.65-1.41-1q-1.15-.81-2.26-1.65a7.65 7.65 0 0 1-1.09 1.31l-.6.58.11.1.66.6a5.88 5.88 0 0 0 .71.58l.21.12a.24.24 0 0 1 .1.28L89 87.09c2 1.45 4.08 2.92 6.14 4.36zm-75.93-7.63q-.39-.66-.76-1.33l-.27-.37q-.82-1.1-1.6-2.23l.12.3q.24.55.51 1.08c.31.64.64 1.28 1 1.89s.64 1.1 1 1.62c.22.32.43.66.65 1l.61.85c.39.56.84 1.11 1.28 1.64.57.7 1.16 1.38 1.77 2s1 1 1.45 1.51a52 52 0 0 1-5.76-7.96zM22 85l.2.29c.24.35.5.72.75 1.06s.49.64.72 1 .36.46.54.69.52.65.79 1A31.94 31.94 0 0 1 22 85zm37.15 2.44c.09.14.19.26.29.4a3.22 3.22 0 0 0 .49.58.62.62 0 0 0 .34.1zm0 0l-.15-.15c-.35-.31-.24-.19.08.12zm-3-2.87a5.89 5.89 0 0 0 .31.76 7.18 7.18 0 0 0 1.1 1.67 20.5 20.5 0 0 1-1.44-2.47zM101 84c.14-.24.29-.48.42-.72a14.48 14.48 0 0 0 1-2.17.74.74 0 0 1-.29-.1c-.39.85-.79 1.68-1.23 2.51s-1 1.68-1.48 2.48h.08l.11.07c.46-.61.91-1.3 1.39-2.07zm-13.61-.52a3.67 3.67 0 0 0-.73-.54.16.16 0 0 1 .16-.28 6 6 0 0 1 .73.51 5.21 5.21 0 0 1 .38.4l.28.25a.18.18 0 0 1-.24.28 5 5 0 0 1-.62-.57zM86 79.94a2.13 2.13 0 0 0-.85-1.4 9.68 9.68 0 0 0-2.93-1.48c-.48-.17-1-.31-1.46-.45l-.5-.13c1.19 1 2.39 1.92 3.61 2.87.64.5 1.29 1 1.94 1.47a1.82 1.82 0 0 0 .19-.88zm16.83-.06l-.13-.15-.35.79.23.12c.08-.24.17-.5.24-.75zm.49-1.63l-.06.15-.42 1 .1.11zm-84.64 1.19l-.18-.24.19.26zm-.24-.35l.05.08s-.08-.1-.05-.07zM78 74.86l-1.17-1 .13.32v.1c.09.16.18.32.27.46h.1zm-24-3.8a2 2 0 0 0-.29 0 .14.14 0 1 1 0-.28h.18a1.53 1.53 0 0 1 .36.11 4.32 4.32 0 0 1 1.2 1.11 5.42 5.42 0 0 0 .5.5.18.18 0 0 1 0 .25.18.18 0 0 1-.25 0c-.52-.43-1.06-1.51-1.7-1.69zm-1.61.36a5.92 5.92 0 0 0-.66-1.64c-.3-.53-.61-1.06-.92-1.58h-1c-.19 0-.34 0-.46-.16a3.38 3.38 0 0 1-.44-1.2 4.69 4.69 0 0 1-.06-.58 8.21 8.21 0 0 1-.94-.75l.06-.06a8.71 8.71 0 0 0 .88.69 2.21 2.21 0 0 1 .34-1.28c-.28-.22-.57-.43-.83-.68v-.06a8.65 8.65 0 0 0 .8.65 3.31 3.31 0 0 1 .46-.7 3.6 3.6 0 0 1 .65-.57.33.33 0 0 1 .37 0l.05-.11v-.34l-.06-.07a1.39 1.39 0 0 0-.43-.31 1.5 1.5 0 0 0-1.22.23 6 6 0 0 0-1.08.83c-.1.11-.22.21-.32.31s-.38.37-.57.55a1.21 1.21 0 0 1-.83.19 3.05 3.05 0 0 1-2.18-.96 4.15 4.15 0 0 1-.7-.95 5.87 5.87 0 0 1-.65-2.65v-.07a.12.12 0 0 1 0-.17 5.81 5.81 0 0 1 .1-.87c0-.08 0-.17.05-.25a2.25 2.25 0 0 1-.2-.24.11.11 0 0 1 .17-.14l.09.13a3 3 0 0 1 .13-.37 2.56 2.56 0 0 1 .39-.68v-.05a4.24 4.24 0 0 1 .34-.6l.37-.5a.1.1 0 0 1 0-.06 10.77 10.77 0 0 1 1.12-1.24l-.25-.28a.13.13 0 1 1 .19-.17l.25.28a6 6 0 0 1 1.45-.94l-.18-.21a.12.12 0 0 1 0-.1 4.87 4.87 0 0 0-3.78 2.42 3.46 3.46 0 0 0-.3 1.11.23.23 0 0 1-.46-.07v-.33a3.75 3.75 0 0 1 .42-1.17 4.43 4.43 0 0 1 .95-1.17 5.85 5.85 0 0 1 3.68-1.38 4.57 4.57 0 0 1 .55 0 5 5 0 0 1 1.8.47h.3a5.63 5.63 0 0 1 .62.19 10 10 0 0 1 3.35 2.33c.44.43.87.9 1.33 1.31l.08.07-.1-1-.11-.1a26.9 26.9 0 0 1-2.2-1.87 10 10 0 0 1-.69-.72.08.08 0 0 1 0-.12.08.08 0 0 1 .12 0 6.58 6.58 0 0 0 .54.56c.68.66 1.39 1.24 2.12 1.83l.22.18-.11-.65c-.05-.43-.12-.88-.14-1.31a8 8 0 0 1 0-1l-.24-.27a.09.09 0 0 1 0-.11.08.08 0 0 1 .11 0l.21.18a1.86 1.86 0 0 1 .38-1 3.44 3.44 0 0 1 .61-.53.1.1 0 0 1 .14 0 2.32 2.32 0 0 1 .6-.44c.56-.32 1.13-.6 1.71-.88l.29-.14c-.15-.08-.3-.16-.44-.25a.17.17 0 0 1 .17-.3c.19.12.4.22.59.34l1-.45.51-.24.24-.12.09-.17-.11-.13a.11.11 0 1 1 .16-.16l.06.06c.08-.16.15-.33.22-.49.33-.7.66-1.43 1.05-2.1.62-1.06 1.11-2 2.39-2.31a3.88 3.88 0 0 1 1.4-.05l1.09.14.5-.36a1.28 1.28 0 0 0 .12-.16l-.06-.09a1.22 1.22 0 0 0-.22-.16 5 5 0 0 0-.82-.4c-.53-.23-1.11-.38-1.65-.58a2.74 2.74 0 0 1-.76-.36.87.87 0 0 1 0-1.06 2 2 0 0 1 1.7-.91h.44a4.33 4.33 0 0 0 .52-.08c.07 0 .12-.06.18-.08v-.26a5.09 5.09 0 0 0-.31-1c-.74-1.65-2.83-2.81-4.35-3.59l-1-.51a12 12 0 0 1-1.3-.69 4.79 4.79 0 0 1-.49-.35l-.09-.11-.49.21a1.53 1.53 0 0 0-.38.43 2.59 2.59 0 0 0-.25.63c0 .12-.06.24-.08.36a6.09 6.09 0 0 0 .1 2.22c0 .11 0 .22.09.33a3.2 3.2 0 0 1 .12.39.62.62 0 0 1-.22.55 2.22 2.22 0 0 1-.24.14 3.22 3.22 0 0 1-1.84.33 6.1 6.1 0 0 1-4-2.67 6.74 6.74 0 0 1-.58-1 4.17 4.17 0 0 1-.4-2.83 3.73 3.73 0 0 1 .88-1.1 4.83 4.83 0 0 1 3-1.15h.53l.07-.42a2.74 2.74 0 0 0 0-.62 1.37 1.37 0 0 0-.11-.3c-.39-.78-1.65-.86-2.42-.89h-.65l-.87.06-.63.07L50 28a13.38 13.38 0 0 1-1.42.18 1.6 1.6 0 0 1-1.22-.22c-.27-.22-.21-.42-.21-.7v-.42l-.8-.19a6.15 6.15 0 0 1-2-1.23 4.4 4.4 0 0 1-.86-1.11 3.38 3.38 0 0 1-.32-.83v-.56a2.16 2.16 0 0 0-.77-.45 3.85 3.85 0 0 0-2.57.39l-.25.1a.12.12 0 0 1-.16.17l-.09-.07c-.36.15-.73.31-1.09.44a14.68 14.68 0 0 1-2.46.62h-.09l.44.32a.16.16 0 0 1-.2.26l-.63-.52-1 .11-.54.07a5.62 5.62 0 0 0-.78.18 4.23 4.23 0 0 0-.76.31 11.61 11.61 0 0 0-1.75 1.06l-.67.49a4.25 4.25 0 0 0-.49.4l-.21.22-.15.22h.07l.29.08a9 9 0 0 0 1.8.13 11.33 11.33 0 0 0 1.38-.06c.24 0 .49 0 .72-.07a3.29 3.29 0 0 1 .47-.05.55.55 0 0 1 .43.23 3.58 3.58 0 0 1 .34.69 3.62 3.62 0 0 1 .2.86c.52.35 1 .66 1.59 1a.13.13 0 0 1-.13.23 14.63 14.63 0 0 1-1.44-.9 8.54 8.54 0 0 1-1.5 4.21c-.18.32-.37.64-.53 1l-.55 1.2-.1.4a3.88 3.88 0 0 0 .76 2.21 12.51 12.51 0 0 1 1 1.88 4.79 4.79 0 0 1 .17.66 1.86 1.86 0 0 1 0 .36 5.08 5.08 0 0 1 0 .63 1.89 1.89 0 0 1-.14.51 2.45 2.45 0 0 1-.39.41c-.27.28-.57.56-.82.86s-.29.32-.42.49a7.71 7.71 0 0 0-1.38 2.25 3 3 0 0 0-.18 1.26 2.61 2.61 0 0 0 .06.38c0 .13.07.26.12.38a6.87 6.87 0 0 0 1.68 2.24.15.15 0 0 1 .16 0c.53.47 1.08.94 1.6 1.44l1.5 1.46a.15.15 0 0 1 0 .2h-.2l-.67-.65.53.71a8.27 8.27 0 0 1 1.09 2.36c.15.48.32 1 .42 1.46l.39 1.8a16.34 16.34 0 0 0 .67 2.34l.41 1 .47 1 .28.15c.14.06.27.14.41.2s.55.27.83.4l.82.39c.67.34 1.37.64 2 1l1 .48c.41.21.82.45 1.22.68l1.25.77v-.17a.4.4 0 0 1 .53-.19c.17.09.35.16.51.27a9 9 0 0 1 2.14 2.2c.52.67 1.32 1.77 2.2 2h.36a1.32 1.32 0 0 0 .01-.59zm22 .68l.19-.05h.14l-.57-.5h-.34l.21.21zm.48-.19l-.26-.43h-.21zM55.19 70.2a6.79 6.79 0 0 1-1.41-.88c-.18-.14-.38-.28-.56-.42a.17.17 0 1 1 .2-.27 9 9 0 0 0 1.93 1.26 2.85 2.85 0 0 0 .88.24.18.18 0 0 1-.05.37 3.33 3.33 0 0 1-.99-.3zM52.43 69c0-.09-.07-.19-.08-.29a1.76 1.76 0 0 0-.16-.38v-.09H52l.21.37a3.52 3.52 0 0 1 .17.35V69zm-37.85-2.54c.06.58.12 1.16.19 1.73l.09.11c-.1-.6-.19-1.21-.28-1.84zM52 68.2zm-1.72-.88l-.12-.22-.45-.26c0 .09 0 .17.07.26a2.19 2.19 0 0 0 .1.26h.43zm-36.45-1c-.1-.94-.2-1.88-.27-2.82v3.13l.33.41v.05c.02-.22-.01-.48-.04-.75zm35.78-.48a3.44 3.44 0 0 0 .07.83l.32.19h.06a6.45 6.45 0 0 1-.43-.99zm49.27-.54a1.49 1.49 0 0 0 .46.37.68.68 0 0 0 .24.07 4.69 4.69 0 0 1-.67-.42zm5.44-.28a5.94 5.94 0 0 0-.93-1.1l-.07-.06-.19.23-.21.28a10.39 10.39 0 0 0 1.62 1 3.92 3.92 0 0 0-.2-.37zm-4.43-.12l.34-.43c-.91-.63-1.8-1.26-2.7-1.91.13.19.25.39.39.58a6.46 6.46 0 0 0 1.89 1.78zm5.67-3q0-1.45-.11-2.89c-.23-.1-.46-.2-.68-.32-.46-.24-.91-.53-1.36-.79-1.41-.82-2.79-1.72-4.13-2.64s-2.75-2-4.09-3c0 .35.08.71.13 1.07a5.39 5.39 0 0 0 1.15 2.16.19.19 0 0 1-.29.24 4.59 4.59 0 0 1-.59-.79l.08.47 3.48 2.69 3.23 2.46c.93.71 1.88 1.41 2.8 2.14a.29.29 0 0 1-.34.46c-1.72-1.22-3.39-2.51-5.06-3.8q-2-1.53-3.95-3.09c.07.37.15.75.24 1.12.32 1.36.64 2.72 1.06 4 1.11.81 2.23 1.61 3.36 2.37l.16.11.17-.21a4.64 4.64 0 0 1 1.35-1.24 1.17 1.17 0 0 1 .62-.14.92.92 0 0 1 .16 0l.27.09h.07a.68.68 0 0 1 .39.19 10 10 0 0 1 1.78 2v.07c.12-.84.14-1.77.12-2.7zm-4.11 2.49c.13-.16.26-.32.38-.48-.16.17-.3.34-.44.52zm-56.34-1.55c-.35-.31-.68-.62-1-.94a2.59 2.59 0 0 0 1.49 1.59h.4a9.1 9.1 0 0 1-.89-.65zm61.34-4.35v-.05.68c0-.21 0-.42.01-.63zm-1.17-1.7c-3.43-2.49-6.78-5.07-10.08-7.71-.06.35-.09.71-.12 1a9.81 9.81 0 0 0 .07 1.69l.48.35c1.15.84 2.35 1.66 3.53 2.45 1.35.92 2.72 1.84 4.12 2.67l1.31.77c.2.12.4.23.59.35l.24.16q-.04-.85-.13-1.73zm1.08.52c0 .38.07.76.11 1.12a6.62 6.62 0 0 0-.1-1.13zm-54.14-1.08a8.16 8.16 0 0 0-1.22-.91c.41.41.84.8 1.26 1.16s.95.79 1.44 1.15c-.49-.47-.98-.94-1.48-1.4zm53.53-2.82q-.1-1.31-.25-2.61l-.67-.44.23 1.12c.17.85.34 1.72.46 2.58.06.45.14.9.2 1.35l.12.93.08.05q-.06-1.5-.17-2.98zM104.26 50h-.06l-.35-.22c-1.51-.92-3-1.87-4.45-2.88q-1.43-1-2.82-2a17.89 17.89 0 0 0-.69 1.67 16.42 16.42 0 0 0-.55 2c0 .07 0 .15-.05.23q4.88 3.69 9.93 7.15-.36-3.04-.96-5.95zM47.6 53.71a1 1 0 0 0-.35 0h-.35l.19.22a5.3 5.3 0 0 1 .51-.22zM90 49.76c-.68-.57-1.36-1.16-2.06-1.71-1.11-.87-2.22-1.72-3.35-2.57-2.21-1.67-4.51-3.32-6.59-5.16a34.91 34.91 0 0 1-2.56-2.41c.23.25.49.5.73.74.46.45.93.9 1.42 1.32.3.26.6.53.91.79 1.17 1 2.36 1.9 3.58 2.81 2.09 1.56 4.23 3.09 6.26 4.72.62.5 1.25 1 1.85 1.55l.79.7c.37.32.72.7 1.09 1a.07.07 0 0 1 0 .09.07.07 0 0 1-.09 0c-.6-.63-1.23-1.27-1.98-1.87zm15-2.21c-.16-.89-.32-1.8-.52-2.69l-.17-.44c-.31-.75-.64-1.47-1-2.19a2 2 0 0 1-.16.52 1.54 1.54 0 0 1-.25.35l.16.53.32.12a.35.35 0 0 1-.09.67c.33 1.13.63 2.26.92 3.39q.23.9.42 1.81l.37.22.36.21q-.11-1.25-.36-2.5zm-2.19-3.28c-.42-.17-.85-.37-1.27-.57a5.49 5.49 0 0 1-2.39-.47l-.79-.31-.92.17c-.25.41-.47.85-.68 1.29l1.31.93c1.26.88 2.54 1.75 3.83 2.58l.74.48h.08l.39.27.46.28.52.31q-.52-2.47-1.24-4.96zM93 48.44c-.32-.18-.65-.39-1-.59-1.26-.82-2.45-1.73-3.65-2.64-1.93-1.47-3.8-3-5.63-4.62-1-.87-2-1.8-2.92-2.72-.65-.63-1.33-1.25-2-1.89-.93-1-1.86-1.91-2.77-2.88V33h.07c.94 1 1.94 2 2.92 2.93 1.52 1.52 3.13 2.94 4.75 4.35q2.13 1.85 4.34 3.61c2.06 1.64 4.22 3.14 6.31 4.75a1.18 1.18 0 0 1-.42-.2zm-24.9-.76c-.2-.1-.38-.23-.57-.35a14.86 14.86 0 0 1-1.56-1.18c-.31-.25-.64-.53-.93-.8a.15.15 0 0 1 .2-.23 18.89 18.89 0 0 0 3 2.29 6.85 6.85 0 0 0 .79.38.16.16 0 1 1-.12.3c-.31-.14-.57-.27-.85-.41zm-53.44-.42l-.06-.14c0 .3-.06.61-.08.91-.01-.26.04-.51.1-.77zm81.45-3.77h-.1v.05l-.08.16zm6.53-.07zm-21.78-8c-1.36-1.1-2.71-2.24-4-3.43v-.09h.09c.71.66 1.45 1.29 2.19 1.92s1.23 1 1.85 1.54c1.08.86 2.15 1.72 3.25 2.55 2.36 1.77 4.75 3.5 7.17 5.18a.07.07 0 0 1 0 .09.07.07 0 0 1-.09 0c-3.59-2.51-7.13-5.05-10.5-7.79zM83.65 43l-.18-.15.12.11zm-.37-.32l-.09-.07-.11-.07zM95 42.67a1.08 1.08 0 0 1 .4-.2l.54-.18.39-.12h.05A5.42 5.42 0 0 1 95 41a2.86 2.86 0 0 1-.43.88 3.35 3.35 0 0 1-.47.5 6.11 6.11 0 0 1 .65.19l.19.07zm6.65 0h.29l.08-.07a1.58 1.58 0 0 0 .19-.17l-.18-.47-.22-.51a1.08 1.08 0 0 1-.31.24c-.29.17-.58.36-.88.53l-.49.25.49.23a3.83 3.83 0 0 0 1.02-.07zM97 42a.88.88 0 0 1 .39-.35 1.07 1.07 0 0 1 .55 0l-.38-.23-1-.67c-.37-.23-.73-.49-1.1-.74l-.21-.14a5.92 5.92 0 0 1-.1.77A6.84 6.84 0 0 0 96.84 42zm-3.69-.41h.12l.43-.51a4.09 4.09 0 0 0 .27-1.87l-.59-.43a1.28 1.28 0 0 1 0 .15 2.47 2.47 0 0 1-.67 1l-.68.45v.59l.12.09.83.63zm5.69 0c.31-.11.6-.24.88-.38a12.64 12.64 0 0 1-1.17-.83l-.6-.47-.5-.41a5.71 5.71 0 0 1-.1.59.67.67 0 0 1-.23.41h-.07l-.15.06.47.31a4.41 4.41 0 0 0 .65.37.16.16 0 0 1 .08.11l.29.16.21.12zm3.78-.31v-.08l-.28-.49c0 .13 0 .26.07.39l.07.39a1.41 1.41 0 0 1 .1-.24zm-2.52-.28l.46-.27-.08-.45c-.06-.28-.14-.58-.23-.9q-1.41-.76-2.78-1.58v1.36c.31.25.63.49 1 .72s.77.54 1.17.81l.5.32zm2.32-2q-.35-.59-.72-1.18a10.62 10.62 0 0 0-1.08-1.48c.15.3.3.6.44.91s.37.85.54 1.27a.34.34 0 0 1 .17.13c.17.26.35.5.51.75.26.42.51.82.76 1.23q-.29-.89-.62-1.7zm-6.17 1.15V39l-.55-.34-.53-.29-.12-.05v1.19l.56.36a2.13 2.13 0 0 1-.45-.54.12.12 0 1 1 .2-.13 3.11 3.11 0 0 0 .7.74l.23.19zm-2.35-2.43a2 2 0 0 1 0-.25.53.53 0 0 1 .23-.35c.33-.22.91 0 1.23.19l.27.13.42.24.25.14v-.69q-1.85-1.13-3.65-2.34c-.73-.49-1.44-1-2.16-1.48a1.73 1.73 0 0 1-1.14.38 2.33 2.33 0 0 1-.82-.23c-.6-.28-1.11-.78-1.72-1h-.25v.81L88 34h.49c.14 0 .31-.07.45-.1a3.53 3.53 0 0 1 1.56-.07 2.33 2.33 0 0 1 .64.22 1.21 1.21 0 0 1 .28.34 2.12 2.12 0 0 1 .06 1.79l-.13.55c-1.58-1.07-1.21-.79.1.07l.23.12a5.64 5.64 0 0 0 1 .35 1 1 0 0 1 .56.24 1.5 1.5 0 0 1 .24.63 1.87 1.87 0 0 1 0 .21l.54.37c.04-.33-.02-.72.04-1.06zm5.35-.39a2.94 2.94 0 0 0-1.07-.91 1.64 1.64 0 0 0-.24-.1l-.31-.08h-.18v.93l.51.27a.21.21 0 0 1 .29.05.92.92 0 0 0 .45.4c-.36-.17-.14-.06.09 0s.37.16.53.22.33.12.47.19a4.71 4.71 0 0 0-.54-1.04zm-42.66.22l.51-.13-.18-.71a5.62 5.62 0 0 1 .45-3.52 2.67 2.67 0 0 1 .86-.92l.19-.11a2.54 2.54 0 0 1 .36-.15 1.41 1.41 0 0 1-.21-.16 3.56 3.56 0 0 1-.46-.46 4 4 0 0 1-.59-1.2 8.47 8.47 0 0 1-.29-1.28c-.11-.6-.19-1.21-.29-1.82a7.59 7.59 0 0 0-.21-.85c0-.1-.08-.2-.11-.29a2.31 2.31 0 0 0-.19-.38l-.11-.16a1.7 1.7 0 0 0-.34-.35 2.53 2.53 0 0 0-1.84-.48.33.33 0 1 1 0-.66A4.09 4.09 0 0 1 56 24a3.24 3.24 0 0 1 .51.26c.09.06.19.16.28.22a1.51 1.51 0 0 1 .16.17 3.36 3.36 0 0 1 .64 1 16.72 16.72 0 0 1 .82 3.37 4.8 4.8 0 0 0 .51 1.54 1.6 1.6 0 0 0 1.64.79l.56-.09.29-.74c0-.14.08-.27.12-.41h-.11a.14.14 0 1 1 .06-.27h.11v-.33c.12-1.59-.76-2.73-1.83-3.8-.65-.65-1.35-1.26-2-1.94a7.39 7.39 0 0 1-.81-1 2.89 2.89 0 0 1-.26-.43c-.13-.32.11-.53.32-.72a4.94 4.94 0 0 1 1.26-.86 5.11 5.11 0 0 0-1-.56L57 20a.09.09 0 0 1 .06-.17l.36.14a6.49 6.49 0 0 1 .63.32 4.59 4.59 0 0 1 .5.34 3 3 0 0 1 .41-.13c2-.48 3.59.82 4.86 2.17.22.24.43.48.65.73s.58.7.83 1c.46.63.94 1.26 1.38 1.91.34.49.67 1 1 1.46s.47.67.72 1 .42.54.63.81a6.17 6.17 0 0 0 1.45 1.41 1.41 1.41 0 0 0 .35.15h.12l.11-.28a1.6 1.6 0 0 0 .07-.36v-.13a3.08 3.08 0 0 1-.5-.42.09.09 0 0 1 0-.12.09.09 0 0 1 .12 0 2.29 2.29 0 0 0 .39.33v-.48a8.91 8.91 0 0 0-.22-1.26 9.73 9.73 0 0 1-.4-3.54 2.43 2.43 0 0 1 .08-.36 1 1 0 0 1 .17-.3c-.21-.17-.41-.35-.61-.54a.2.2 0 0 1 .27-.31c.2.19.41.37.63.54l.23-.18c.15-.1.33-.21.48-.29a1.47 1.47 0 0 0 .63-.49.27.27 0 0 0 0-.17v-.06l-.34-.43-.18-.19-.9-.64c-1-.7-2-1.46-2.91-2.22l-.83-.48a25.77 25.77 0 0 0-4.56-2 13.75 13.75 0 0 0-2.13-.53l.23.17c.79.59 1.6 1.15 2.41 1.72.33.24.68.46 1 .69.59.4 1.19.79 1.8 1.17l.55.36 1.51.94a.2.2 0 0 1-.21.35c-.63-.39-1.27-.77-1.89-1.19-2-1.35-3.9-2.78-5.77-4.25a5.57 5.57 0 0 0-2 .1l-.53.24-.37.37c-.06.08-.12.17-.17.26l.18.12a43.63 43.63 0 0 0 3.81 2.44c.43.23.86.49 1.3.7a.09.09 0 1 1-.08.16c-.33-.14-.65-.31-1-.46s-.63-.33-.93-.51c-.8-.46-1.55-1-2.31-1.48-.37-.25-.74-.51-1.1-.78a4.44 4.44 0 0 0-.39 1.13c0 .11 0 .22-.05.33a1.65 1.65 0 0 0 0 .19l.31.2a.18.18 0 0 1-.19.3l-.17-.1a.56.56 0 0 1-.09.14 2.38 2.38 0 0 1-.86.46 5.43 5.43 0 0 1-3.12-.34l-.69-.21h.06a.13.13 0 0 1-.11 0h-.09l-.31-.08-.28.13c-.28.12-.52.27-.79.4a6.82 6.82 0 0 0-.84.52c-.13.09-.27.19-.39.29-.67.55-1.52 1.27-1.55 2.2a1.22 1.22 0 0 0 .3.7l.29.27h.27a2.36 2.36 0 0 0 1.05-.48 3.16 3.16 0 0 1 1.62-.65c.35 0 1 .06 1.16.4a.63.63 0 0 1 0 .15v.19a2.69 2.69 0 0 1 .08.29 3.49 3.49 0 0 0 .14.43v.1l.92.31a.55.55 0 0 1-.35 1l-.87-.29a1.59 1.59 0 0 1-.43-.16.93.93 0 0 1-.31-.52 6.12 6.12 0 0 1-.21-.65v-.21h-.18a.88.88 0 0 0-.29.06 13.07 13.07 0 0 0-1.4.8 2.66 2.66 0 0 1-.91.27h-.25a1.42 1.42 0 0 1-.64-.14 2.78 2.78 0 0 1-1.1-1.48 2.34 2.34 0 0 1-.06-.65 2.84 2.84 0 0 1 .47-1.33 6 6 0 0 1 1.42-1.49c-.49-.28-1-.57-1.43-.87s-1.2-.79-1.8-1.18-1-.57-1.43-.86c-.89.26-1.78.51-2.66.78a15.68 15.68 0 0 0 3.85 2.68c.38.2.77.39 1.17.56a.12.12 0 1 1-.11.22 21.3 21.3 0 0 1-4-2.42 12.85 12.85 0 0 1-1.08-1l-.95.31-.69.24c.61-.37.16-.16-.26.13l-.55.34c-.29.18-.57.35-1.56 1l-.32.5a6.16 6.16 0 0 0 1 1 11.37 11.37 0 0 0 1 .73h.05a8.34 8.34 0 0 1 2.51-.76h-.06a10.14 10.14 0 0 1-2.25-1.49 3.7 3.7 0 0 1-.41-.43.07.07 0 1 1 .11-.1 8.39 8.39 0 0 0 2.75 1.94 4.41 4.41 0 0 1 1.2 0 3.45 3.45 0 0 1 .46.12 2.58 2.58 0 0 1 .57.26c.3.19.9.58 1 .95a3.08 3.08 0 0 0 0 .63c0 .08 0 .16.08.24a3.39 3.39 0 0 0 .79 1.12l.14.13s.06.09.11.13a3.77 3.77 0 0 0 1.69.8 3.28 3.28 0 0 0 .45 0 2.23 2.23 0 0 1 .51 0 .6.6 0 0 1 .27 1v.29h.25l1.1-.15c.44-.07.89-.13 1.33-.17l1.12-.1a8.41 8.41 0 0 1 2.66.18 3.2 3.2 0 0 1 .42.14l.28.13a2.54 2.54 0 0 1 1 1 3.22 3.22 0 0 1 .26.65c0 .11 0 .23.06.35a4.46 4.46 0 0 1-.14 1.56 1.12 1.12 0 0 1-.07.22l.66.47a.19.19 0 0 1-.22.31l-.66-.41a1.53 1.53 0 0 1-.59 0h-.85a4.18 4.18 0 0 0-.51.08 3.2 3.2 0 0 0-1.23.53l-.43.45a7.61 7.61 0 0 0 1.81 1.5c.42.28.81.56 1.21.85a.16.16 0 1 1-.2.26c-.14-.1-.27-.22-.41-.32s-.55-.4-.82-.6a11.43 11.43 0 0 1-1.36-1.09 4.22 4.22 0 0 1-.4-.42l-.21.22v.64a.1.1 0 0 1 .09 0 4.09 4.09 0 0 0 1.05.93c.36.23.74.45 1.1.68.13.08.31.17.43.26l.31.21a.13.13 0 1 1-.14.21c-.36-.26-.73-.49-1.11-.73s-.61-.37-.89-.59a4.76 4.76 0 0 1-.84-.76v.21a5.17 5.17 0 0 0 .45 1.12 2.29 2.29 0 0 0 .68.83 3.5 3.5 0 0 1 .77.64.21.21 0 0 1 0 .27 4.51 4.51 0 0 0 1.76.94 2.59 2.59 0 0 0 .58.07zm44.68-2.73a15 15 0 0 1 1.29 2.48 11 11 0 0 0-1.28-2.54zm-4.86.63c.18-.41.41-.36.76-.39a3.5 3.5 0 0 1 1.73.45l.14.08.15.1c-.15-.29-.3-.58-.47-.86s-.34-.61-.52-.91c-1.6-.92-3.13-1.92-4.65-2.86-.35-.22-.69-.47-1-.7-1.19-.8-2.37-1.64-3.55-2.45.12.38.23.76.34 1.15.06.21.13.42.18.63s.13.46.2.68.21.7.34 1a4 4 0 0 0 .37.82c.14.17.39.25.36.6a.54.54 0 0 1-.07.21c1.83 1.2 3.7 2.35 5.6 3.43a3.11 3.11 0 0 1 .1-1.04zm-6.2.63l-1.1-.77L89 35l1.46 1zm.15-.51a1.22 1.22 0 0 0 0-.36v-.18a1.52 1.52 0 0 0-.58-.08h-.53l1.13.77a1.3 1.3 0 0 0 0-.22zm-70.65-.76c0-.14 0 0-.08.13l-.08.2a3.1 3.1 0 0 1 .18-.4zm79-2.81l-.3-.42a17.37 17.37 0 0 0-1.32-1.72l-1.2-1.12-.27-.24c.39.48.75 1 1.11 1.48s.87 1.22 1.28 1.86l.88 1 1 1.27.32.38c-.37-.86-.93-1.72-1.49-2.56zm-77.58.42a8.05 8.05 0 0 0-.42.69c.13-.29.28-.54.43-.75zm32.71-.6a.13.13 0 0 1 .15-.21c.45.32.9.65 1.35 1a.13.13 0 0 1-.15.21c-.43-.34-.88-.68-1.35-1zm43.06 0l-.2-.29-.42-.44-.74-.75c-.38-.39-.8-.77-1.2-1.15-.66-.62-1.33-1.24-2-1.82l-1.41-1.19c-.51-.22-1-.45-1.51-.72s-.82-.47-1.22-.72l-.71-.43v.05a4.83 4.83 0 0 1 .37.66c.13.31.3.6.41.93s.22.55.31.83l.18.56c1.8 1.13 3.59 2.27 5.4 3.37l2.4 1.46.89.52c-.14-.28-.33-.57-.52-.85zm-75-.58c-.29.35-.54.72-.79 1.1a6.92 6.92 0 0 1 .82-1.08zm67.25.76v-.11L89 31.2l-.1-.32-.1-.06-.19-.09-.6-.3a4.65 4.65 0 0 0-.53-.21 2.43 2.43 0 0 1-.4.14h-.12l.09.06q1.11.82 2.26 1.58zm-.8-2.36c-.19-.65-.38-1.31-.58-2-.05-.17-.1-.35-.16-.52h-.18a7 7 0 0 1 .28.88v.33a3.15 3.15 0 0 1-.06 1.17l.79.61zm-.79.28zm-1-.45h.16v-.14c-.85-.69-1.68-1.39-2.52-2.09l.32.63c.34.64.88 1.53 1.64 1.69a.9.9 0 0 0 .41-.08zm-13.84-1a1.6 1.6 0 0 1-.73-.73.08.08 0 1 1 .14-.08 1.44 1.44 0 0 0 .93.74c.13 0 .27.12.4.16a.12.12 0 0 1-.11.21 3.48 3.48 0 0 0-.62-.33zm13.86-.69a5.35 5.35 0 0 0-.89-1.43h-.07a.07.07 0 0 1 0 .09.07.07 0 0 1-.09 0l-.13-.21c-.4-.23-.8-.45-1.19-.69s-.76-.49-1.13-.74l.07.14c.23.45.43.93.64 1.4l1.07.91q1 .84 2 1.66a3.14 3.14 0 0 0-.27-1.17zm-38.41-1.12zm40.53-3.3a27 27 0 0 0-2.24-1.76c-2.22-1.38-4.51-2.6-6.84-3.77a.28.28 0 0 1-.38 0l-.12-.09a1.33 1.33 0 0 0-.38-.16h-.4l1 .64c1.81 1.24 3.65 2.46 5.5 3.65 1.1.71 2.22 1.38 3.32 2.08L87.11 23c-1.3-1-2.65-2-4-3a.16.16 0 0 1 .19-.25c1.25.93 2.53 1.83 3.77 2.77.47.36 1 .69 1.43 1.05l1.15.86 1.62 1.25.88.7c-1.06-1-2.15-2.04-3.29-3.02zm-1.43 2.9c-.09-.24-.21-.48-.31-.71a4.87 4.87 0 0 0-.36-.66 4.19 4.19 0 0 0-.33-.45 1.16 1.16 0 0 0-.85-.5l-.34.07.07.07c.31.3.59.62.88.93a9.15 9.15 0 0 1 .91 1.18l.1.06.25.11zm5.15-1.41l.21.22.14.11.16.13zm-65.47.35l.05-.06-.12.11zm57-.85c-.16-.19-.28-.31-.21-.59s.64-.6.92-.7a2.54 2.54 0 0 1 .66-.16h.12c-1-.72-2-1.46-3-2.19-1.2-.87-2.4-1.74-3.61-2.58l-.75-.5-.32.08-.64.42-.21.27s-.26.34-.25.38a1.92 1.92 0 0 0 .18.39l.11.19.2.24 1.2 1 .83.66 1.18.66c.39.22.75.44 1.12.7a3.58 3.58 0 0 1 .41.31c0 .06.14.13.2.19a3.89 3.89 0 0 1 .48.61q1 .64 2 1.23a6.05 6.05 0 0 1-.67-.62zm-52-2.7H32q-1.07.79-2.08 1.64c.72-.57 1.44-1.12 2.17-1.65zM35.34 23a15.5 15.5 0 0 0 1.7-.36l.47-.14.59-.22a7.48 7.48 0 0 1-1.91-1.66l-.07.11a1.61 1.61 0 0 1-.36.48.48.48 0 0 1-.36.06A1.68 1.68 0 0 1 35 21c-.63.37-1.23.76-1.83 1.17l1.13.95zm51.58-2.55A11.12 11.12 0 0 0 85 18.94c-.43-.34-.88-.65-1.34-1l-1-.65c-.87-.42-1.78-.81-2.68-1.14a22 22 0 0 0-3.62-1l.9.3c.83.29 1.69.63 2.5 1a36.63 36.63 0 0 1 5.42 3c.92.63 1.78 1.27 2.66 2l.72.57.5.33a19.43 19.43 0 0 0-2.14-1.93zm-38.44-.77a10.12 10.12 0 0 1 1.82-1.09 25.883 25.883 0 0 1-2.28-1.92c-.2-.18-.39-.38-.59-.56l-.14-.11-.5.12c-.9.22-1.8.45-2.69.71l-.36.1.53.3.72.43c.67.4 1.32.83 2 1.25l.77.47c.21.13.42.25.64.37zm6.86-.72l.17-.08v-.08l-.74-.47c-.87-.57-1.74-1.12-2.58-1.75a19.12 19.12 0 0 1-1.62-1.34l-1.82.41-1.28.31c.39.37.79.72 1.2 1.07.24.22.51.42.77.62s.73.56 1.11.82h.08a2.12 2.12 0 0 1 .71-.19 2.25 2.25 0 0 1 .61.13c.44.12.89.27 1.33.4a3.63 3.63 0 0 0 2.06.11zm21-1.08a2.48 2.48 0 0 1 .62-.65l.15-.09.2-.07-.12-.07a.11.11 0 1 1 .12-.18l.27.18h.4l-.86-.43-.67-.32-1.13-.3c-1.26-.32-2.54-.6-3.81-.87 1.3 1 2.59 2 3.85 3.08l.57.48a1.92 1.92 0 0 1 .39-.8zm-20.77.54a7.06 7.06 0 0 1 .22-.8 5.13 5.13 0 0 1 .37-.85l-1-.75c-.49-.37-1-.76-1.49-1.16a.07.07 0 0 1 0-.1.07.07 0 0 1 .1 0c.4.33.82.62 1.23.94s.62.46.94.69l.32.23a3 3 0 0 1 .57-.72 3.49 3.49 0 0 1 2-.73l-1.14-.93a21.53 21.53 0 0 0-3.05.15c-1.27.26-2.53.54-3.79.83a28.32 28.32 0 0 0 4.66 3.19h.07zm5.93-4.23a.25.25 0 0 1-.27.22c-.92-.09-1.84-.18-2.77-.22h-.56l1.13.91h.49c.35 0 .69 0 1 .09l.47.07c.34.06.71.16 1.05.25.54.15 1.07.31 1.59.5l.44.17c-.83-.71-1.7-1.38-2.59-2.03zm-15.66 1.02l1.13-.3 1.03-.25c.56-.13 1.14-.25 1.72-.35h.15c.42-.1.85-.17 1.28-.23a14.18 14.18 0 0 1 1.91-.18h.08c.8-.16 1.61-.32 2.41-.46h-2.47c-1 .12-2 .27-3 .48s-2.23.46-3.31.78l-.57.16c-.58.21-1.16.43-1.73.67.53-.09.96-.21 1.37-.32zm20.56-2l-.72-.14c-.93-.18-1.89-.29-2.83-.39-.39 0-.79-.06-1.18-.09s-.77 0-1.15-.05a30.42 30.42 0 0 0-3.12.06l.67.06c.39 0 .77.11 1.15.16l.91-.16a.25.25 0 0 1 .29.2.26.26 0 0 1 0 .16 33.19 33.19 0 0 1 3.41.26h.46c.47 0 1 0 1.45.05l1.77.15zm-7.46.24z"/></svg>