<svg xmlns="http://www.w3.org/2000/svg" viewBox="0 0 120 120"><title>Монтажная область 1</title><path d="M30.64 96.26a1.62 1.62 0 0 0-.36-.13l-.67-.18v-.17a1.28 1.28 0 0 0 .17-.17.5.5 0 0 0 .1-.16 3.64 3.64 0 0 0-.43.17l-.11-.07-.29-.1-.6-.18-.17-.05-.95-.22.06-.14a1.11 1.11 0 0 0 .09-.35s.07 0 0-.12a.09.09 0 0 0-.08 0 .1.1 0 0 0-.12-.15v-.05c0-.47-.1-1-.1-1.43h.07l.63-.21.31-.12a.09.09 0 0 0 0-.12l-.16-.05.47-.14a.08.08 0 0 0 0-.15 2.23 2.23 0 0 0 .32-.17l.11-.08a.12.12 0 0 0 .23.08l.06-.19a.1.1 0 0 0 .08-.09v-.22a3 3 0 0 1-1.74.74h-.09l.26-.1a2.23 2.23 0 0 0 .87-.57 1.74 1.74 0 0 0 .23-.35l.2-.1v.3a.12.12 0 0 0 .23 0v-.08l.05.17v-.14a1.13 1.13 0 0 0 .1-.26 1.56 1.56 0 0 0 0-.17v-.12a.11.11 0 0 0 0-.06h-.06c-.1 0-.15.1-.15.18v-.32l.1-.06a.1.1 0 1 0-.12-.15v-.05c0-.47-.1-1-.1-1.43l.29-.1v-.07h.2l-.21-.05v-.21l.53.15h.06c.05 0 .16 0 .16-.1a.08.08 0 0 0 0-.07 1.74 1.74 0 0 0-.33-.12l-.7-.19a.09.09 0 0 0 0-.06l.1-.07s.22-.16.22-.2a3.3 3.3 0 0 1-.35.23l-.13-.1a1.36 1.36 0 0 0-.27-.1l-.44-.15-.19-.06h-.17l-.61-.15h-.17l.05-.17a.1.1 0 0 0 .08-.1v-.32a.93.93 0 0 0 .11-.33.69.69 0 0 0 0-.17.1.1 0 0 0-.05-.05.1.1 0 0 0-.09-.17c0-.47-.1-1-.1-1.43l.22-.07c.23-.07.46-.16.7-.24.06 0 .13-.05.13-.13a.09.09 0 0 0 0-.05h-.11v-.11h.12s-.05-.06-.07-.12h-.07v-.06h.07a.08.08 0 0 0 0-.15 2.36 2.36 0 0 0 .49-.24h.06v.06a.12.12 0 0 0 .23.08l.05-.18a.1.1 0 0 0 .08-.1V83l.09-.17a1.18 1.18 0 0 0 .09-.37.1.1 0 0 0 0-.06.1.1 0 0 0-.12 0A.1.1 0 1 0 29 82v-.13c0-.47-.1-.95-.1-1.42.24-.07.49-.15.71-.23a2 2 0 0 0 .31-.13.09.09 0 0 0 0-.12h-.13l-.23-.08-.56-.17h-.09a.07.07 0 0 0 0-.06l.1-.07s.22-.16.22-.2a3.4 3.4 0 0 1-.35.23 8.19 8.19 0 0 0-.87-.36A9.86 9.86 0 0 0 27 79l-.51-.11-1.3-.23a21 21 0 0 0-3.19-.44h-.21a6.73 6.73 0 0 0-1-.11l-1.07-.05h-1.23c-.82 0-1.65 0-2.47.1l-1.62.14-.87.1h-.28l-.5.06-.4.05-.39.06a1.74 1.74 0 0 0-1.26.64v.07l-.45.18-.45-.19.38.17h-.06c-.21.1-.4.19-.6.3a.06.06 0 0 0-.1-.05 1.35 1.35 0 0 0-.26.27c0 .05-.1.07-.09.17s.07.1.12.1a2.55 2.55 0 0 0 .37.16h.07v.83a2.8 2.8 0 0 0 0 .87v.08a1.17 1.17 0 0 0 0 .17l-.12-.09a.07.07 0 1 0-.09.12l.24.18a.21.21 0 0 1 .05.17c-.4-.2-.86-.42-1.27-.65a.09.09 0 0 0-.09 0L8.29 82l-.05.07.06.07.06.05c.22.17.44.34.67.49l.35.22a7.63 7.63 0 0 0-.74.55h-.07l-.2.1-.19.1-.2.11H8a.06.06 0 0 0-.09 0l-.13.13-.16.11h-.05c0 .05-.1.07-.09.17s.07.1.12.1l.42.17v.83a2.79 2.79 0 0 0 0 .87v.08a1.19 1.19 0 0 0 0 .17l-.12-.1a.07.07 0 0 0-.09.12l.24.18a1.48 1.48 0 0 0 .07.22v.12L8 86.87a7.81 7.81 0 0 1-1-.6 5 5 0 0 1-.44-.3l-.05.07a7.29 7.29 0 0 0 .57.45 10.73 10.73 0 0 0 1.05.61c0 .16.1.35.13.46s.1.14.16.11.05-.09.05-.17v-.24a13.29 13.29 0 0 0 1.61.66L10 88a.06.06 0 0 0-.09 0l-.2.18-.09.08a.1.1 0 0 0 0 .05c-.08 0-.1.05-.08.16s.07.1.12.1a2.56 2.56 0 0 0 .37.16h.07v.84a2.77 2.77 0 0 0 0 .87v.09a1.19 1.19 0 0 0 0 .17l-.12-.1a.07.07 0 1 0-.09.12l.54.48v.06l-.36.1.22.12c0 .16.09.3.13.45H10l-.46-.16-.34-.12c.25.1.5.19.75.27H10l-.44.15L9 92l-.31-.09-.38.21a.06.06 0 0 0-.09 0 1.74 1.74 0 0 0-.23.22l-.24-.08.1.05.11.05a.12.12 0 0 0-.05.07c0 .05-.1.07-.09.17s.07.1.12.1a2.55 2.55 0 0 0 .37.16h.07v.24a.77.77 0 0 0 0 .28v.3a2.79 2.79 0 0 0 0 .87v.08a1.28 1.28 0 0 0 0 .17l-.12-.1a.07.07 0 0 0-.09.12l.24.18a1.48 1.48 0 0 0 .07.22v.12l-.11-.05a7.82 7.82 0 0 1-1-.6 5 5 0 0 1-.44-.3l-.05.07a7.26 7.26 0 0 0 .57.45 10.74 10.74 0 0 0 1.05.61c0 .16.1.35.13.46s.1.14.16.11.05-.09.05-.17v-.24l.23.1.06.1c.07.11.12.23.19.34a.07.07 0 0 0 .12-.07c-.05-.09-.14-.17-.14-.26a10 10 0 0 0 .93.36c-.06 0-.08 0-.06.14s.07.1.12.1a2.55 2.55 0 0 0 .37.16h.07v.84a2.78 2.78 0 0 0 0 .87v.09a1.28 1.28 0 0 0 0 .17l-.12-.1a.07.07 0 1 0-.09.12l.24.18a1.48 1.48 0 0 0 .07.22v.12l-.11-.05a7.82 7.82 0 0 1-1-.6 5 5 0 0 1-.44-.3l-.05.07a7.3 7.3 0 0 0 .57.45q.42.29.87.54a.1.1 0 0 0 0 .09l-.36.2-.11.07a.06.06 0 0 0-.09 0 1.06 1.06 0 0 0-.23.23c-.08 0 0 .06-.08.11a.14.14 0 0 0-.08.17.11.11 0 0 0 .1.08l.32.14h.13v.86a2.79 2.79 0 0 0 0 .87v.08a1.19 1.19 0 0 0 0 .17l-.12-.09h-.08l-.29-.18a5 5 0 0 1-.45-.3l-.05.07a7.3 7.3 0 0 0 .58.45l.46.27a1.54 1.54 0 0 0 .06.18l-.19.08-.29.13h-.07l-.25.14-.34.19a.06.06 0 0 0-.09 0 1.67 1.67 0 0 0-.25.25h-.07c0 .05-.1.07-.09.17s.07.1.12.1a2.56 2.56 0 0 0 .38.15h.07v.83a2.79 2.79 0 0 0 0 .87v.08a1.52 1.52 0 0 0 .09.49.07.07 0 0 0-.07.13l.17.1-.3-.16a2.6 2.6 0 0 1-.34-.19l-.05.08c.11.06.21.16.32.22l.4.22v.16l-.53-.16a.06.06 0 1 0 0 .12l.64.32.07.22c0 .11.11.14.16.11s.05-.1.05-.17a20.27 20.27 0 0 0 4.69 1.48c.5.09 1 .17 1.52.22a12.91 12.91 0 0 0 2-.15h-1.89l-1.08-.12a19.22 19.22 0 0 1-3.48-.83c-.6-.2-1.21-.44-1.8-.7V107l.65.28c.23.09.48.18.72.26a15.56 15.56 0 0 0 2.07.54 3.87 3.87 0 0 0 .82.15h.1a2.73 2.73 0 0 0 .59.11l.58.07h.25l1 .16c.53.08 1.05.14 1.58.18.33-.05.65-.1 1-.17h1l.87-.06.7-.09h1.84l.94-.06.7-.08.54-.08a5 5 0 0 0 1.93-.71l.32-.06a2.68 2.68 0 0 0 .56-.14h.05a.08.08 0 1 0-.05-.15 1.48 1.48 0 0 0-.3.06h-.17l.31-.13a.23.23 0 0 0 .11-.07v-.17a1.07 1.07 0 0 1 0-.14v-.15a.1.1 0 0 0 .08-.1v-.31a1.16 1.16 0 0 0 .13-.37c0-.06.05-.16 0-.21a.1.1 0 0 0-.08 0 3 3 0 0 0 .07-.57.08.08 0 1 0-.15 0 3.46 3.46 0 0 1 0 .44c0-.47-.1-1-.11-1.43l.24-.08v-.09a2.2 2.2 0 0 0 .4-.16l.18.05h.08l.12-.05a.09.09 0 0 0 0-.12l-.34-.11.19-.09.42-.2c.05 0 .17-.05.17-.11a.36.36 0 0 0 0-.16l-.31.15c-.42.19-.85.36-1.28.51a5 5 0 0 0 1.12-.59 1.12 1.12 0 0 1 .1-.13h-.07l.06-.14a2.18 2.18 0 0 0 .06-.3.19.19 0 0 0 0-.07.1.1 0 0 0-.1 0 .09.09 0 0 0-.09-.16 3.32 3.32 0 0 1-.06-.76v-.7l.25-.08V100l.56.17.18-.07a.1.1 0 0 0 0-.13l-.41-.12-.29-.08-.36-.1.1-.08h.1v.05a.12.12 0 0 0 .15-.08l.06-.19a.1.1 0 0 0 .08-.09V99a.14.14 0 0 0 .06-.14v-.33a.1.1 0 0 0-.14-.11.09.09 0 0 0-.13-.12v-.1c0-.3-.07-.58-.07-.87a3.17 3.17 0 0 1 .09-.61l.24-.08.31-.1.3-.11c.14-.03.21-.1.14-.17zM29 80l.45.13.25.08h-.05l-.29.1-.36.14zm.54 16.28c0 .09 0 .17-.06.18a.91.91 0 0 0-.41-.07.09.09 0 0 0 0-.08zm-5.35 6.86a3.91 3.91 0 0 1 .07.44.08.08 0 0 0 .07.07.06.06 0 0 0-.05.05.06.06 0 0 0 .06.06l.24.23h-.18l-.57.11-.76.12a11.66 11.66 0 0 1-1.91 0 1.23 1.23 0 0 1-.38.06h-2a1.16 1.16 0 0 1-.37-.09c-.55 0-1.1-.05-1.65-.11l-.23-.09-.25-.05-.87-.16c-.5-.1-1-.21-1.47-.36l.43.13-.21-.06-.64-.13a.6.6 0 0 0-.21 0 6.77 6.77 0 0 1-.81-.25l-.16-.07-.35-.05a.1.1 0 0 0-.18-.06h-.06s.05-.13 0-.13h-.2s.06.13.07.19h-.13l-.31-.13v-.07a2.53 2.53 0 0 1-.34-.16 5.06 5.06 0 0 1 .06-1.86 1.19 1.19 0 0 0 .26.16l.15.06a.07.07 0 1 0 0-.13l-.17-.1a1 1 0 0 1-.2-.13l.52.06h.05a.07.07 0 0 0 0-.09l-.15-.06-.27-.1.17-.07.26-.1.44-.14c.43.16.86.3 1.3.42.25.07.51.11.76.17a7.15 7.15 0 0 0 .87.11 5.92 5.92 0 0 0 .6 0h.23c.66.14 1.34.23 2 .34a31 31 0 0 0 3.32.41h-1c-.17 0-.32.06-.49.06a1.48 1.48 0 0 0 .5.06h1.09c.6 0 1.2 0 1.8-.09l1.12-.1h.12a6 6 0 0 0 0 1.63zm2.2.85l-.69.14-.39.07-1.14.18a8.52 8.52 0 0 1-1.15.12c-.53 0-1.06.06-1.6.07l.89-.08c.57 0 1.14-.09 1.71-.16s1.28-.16 1.92-.26l.77-.14zm-8.93.65l-.65-.08 1.1.07c.61 0 1.27.08 1.94.09h-.21 1.52a26 26 0 0 0 2.74-.13h.24a9 9 0 0 1-1.28.15 29.07 29.07 0 0 1-5.41-.1zm-5.7-.26h-.52l-.65-.2-.24-.09.23-.1c.24-.09.48-.18.73-.25l.2-.05.87.24.51.13c.69.18 1.42.32 2.08.46s1.34.22 2 .32a31 31 0 0 0 3.37.28H21l-1.15.05H16.8c-.91 0-1.88-.1-2.75-.22a20.3 20.3 0 0 1-2-.35l-.25-.06v-.09zm-1.1-3.81h.22v.23a5.39 5.39 0 0 0 .06 1.74h-.08v.08h-.07l-.08-.5a8.36 8.36 0 0 1-.07-1.54zm2.63 3.43a5.37 5.37 0 0 1-.67-.2h-.12l.48.13-.43-.1-.3-.08-.4-.17.22-.05.24.08.29.12.73.25c.36.1.73.19 1.1.29l-.77-.14zm2.2.33c-.52-.1-1-.24-1.55-.39.44.1.88.2 1.32.27s1 .15 1.45.19.78.12 1.17.17c-.64 0-1.28-.07-1.9-.15zM11.9 103zm-.15.39l-.17.05h-.38v-.25zM25 104zm-11.07-3.76c-.43-.1-.88-.22-1.3-.35h.19l.26.1a9 9 0 0 0 .84.23zm2.74.27a8 8 0 0 1-.92-.07 19 19 0 0 1-2.55-.71h.05l.45.13.87.23 1.09.22 1 .2zm.36 0a25.2 25.2 0 0 0 4.08.13c.44 0 .88-.1 1.31-.1l.58-.07v.23a38.1 38.1 0 0 1-3.82.09 26.27 26.27 0 0 1-2.66-.17 4.84 4.84 0 0 0 .48-.11zm-4.85-.87l.3.12-.17.06-.39-.14q-.36-.13-.7-.29l.27-.1h.07l.27.13zM24 100.88a8.53 8.53 0 0 1-1.15.1 17.49 17.49 0 0 1-2.43 0c1.13 0 2.28-.07 3.41-.2l1.23-.15h.15-.1zm.16-.47c.18.05.36.08.53.14h-.22l-1.28.13v-.23h.32l.62-.1.01.06zm2.11-.09l-1.32.2-.75-.19 1.05-.2.32-.07a7.11 7.11 0 0 0 .68.27zm1.5-.3l-1.2.25-.42-.11-.45-.14zm-1.63-.02l.63-.17.37.11a2.2 2.2 0 0 0-.45.06zm1.58-.09a8.17 8.17 0 0 1-.82-.17l.44-.14c.35 0 .71.11 1.07.19a4.9 4.9 0 0 1-.69.09zm0-.68l-.24-.06h-.18a.07.07 0 0 0-.08.05.07.07 0 1 0 0 .13l-.15.05h-.31a1.05 1.05 0 0 0 0-.3v-.2a1.48 1.48 0 0 1 0-.87.08.08 0 0 0-.11 0 1.33 1.33 0 0 0 0 .59 1.52 1.52 0 0 0 .09.4.55.55 0 0 1 0 .26.68.68 0 0 1 0 .14h-.19a.07.07 0 1 0 0 .14h.21c-.47.15-.94.26-1.42.37l-.65-.07a.06.06 0 1 0 0 .11H25c-.64.14-1.3.25-2 .34V100a5.37 5.37 0 0 1 0-1.74.07.07 0 1 0-.13 0 2.65 2.65 0 0 0-.06.42 4.78 4.78 0 0 0 0 .55 10.35 10.35 0 0 0 .1 1.06 18.66 18.66 0 0 1-2.29.17 26.44 26.44 0 0 1-3.34-.1 21.41 21.41 0 0 1-3.1-.5l-.76-.2.1-.06h-.37c-.34-.1-.67-.22-1-.34l-.35-.12.11-.08a.06.06 0 0 0 0-.08l-.4.08-.26-.11a5.09 5.09 0 0 1 0-2 1.55 1.55 0 0 0 .28.17l.13.05a.07.07 0 0 0 .06-.12l-.1-.07-.24-.14h.38-.11.38l.54.1 1 .14h.29c.67.12 1.33.22 2 .28l1.14.09h.92a3.46 3.46 0 0 0 .67.1h.88a17.61 17.61 0 0 0 3.24 0l.49.05a.1.1 0 0 0 .1-.08h.46l-.35.06a8.5 8.5 0 0 0 1.36-.1H25V98c0 .36.1.74.16 1.09v.46a.07.07 0 0 0 .14 0 3.23 3.23 0 0 0-.09-.52c-.05-.1 0-.12-.05-.31a3.27 3.27 0 0 1-.09-.57 4.57 4.57 0 0 1-.05-.62v-.08h.24a15.33 15.33 0 0 0 1.92-.16l.34-.05h.3l.36-.07.73-.17.3-.08a6.83 6.83 0 0 0 .06 1v.56h-.08l-.5.23zM22.54 97h.28l.14.05.43.16h-.55l-.71-.15zm.57-.06l.32-.06.49.13.25.07h-.1l-.25.06c-.23-.03-.47-.09-.7-.14zm1.5 0l-.47-.09-.41-.1h.06q.47-.11.94-.26l.17.05.7.2zm.92-.72c.36.11.71.22 1.08.3l-.52.09-.56-.11-.39-.1H25zm-1.09 0l-.54-.18h1.25zm2.63.18c-.43-.1-.87-.19-1.29-.3h.06l.45-.12.35-.1 1.16.28.19.05zm-.75-.73l-.36-.1a.07.07 0 0 0 0 .13h.15H26a7.91 7.91 0 0 1-1 .14l-.46-.21a.07.07 0 0 0-.05.12l.23.1h-1.08c.35-.09.68-.18 1-.29l.77-.26 1.32.15a3.36 3.36 0 0 1-.39.29zm-2.19.59H24l-1.14.19a4.17 4.17 0 0 1-.52-.25l.87-.2h.3zm-1.69.23h.09l-.4.05-.42-.17.41-.06zm-.27.23l.14.05-.81.11-.2-.07zm-.49.43l.18.06.4.11H20.9l-.42.07-.54-.1c.45 0 .89 0 1.32-.09zm-1.32-.17a14.35 14.35 0 0 1-1.93 0h-.39c1 0 2-.06 3-.17l.17.07zm7-1.38a.12.12 0 0 0 .13 0h.23l.67.22.7.21-.72.1-.36-.08c-.26-.05-.53-.13-.79-.2l-.36-.1a.08.08 0 0 0-.05-.05l.33-.16h.16a.12.12 0 0 0 .1.14zm-.14-.43l-.09.08-.38-.13a.07.07 0 1 0 0 .14h.11l-.45-.05-.53-.05h-.06l.14-.05.43-.17zM24 92.77a38.75 38.75 0 0 1-4 .27l.23-.1-.4.1h-1.14a27.16 27.16 0 0 1-2.77-.19H16c.28 0 .55-.07.82-.07h.4a10.9 10.9 0 0 0 1.41.06h.06c1 .06 2 .06 3 .06.67 0 1.35-.06 2-.13a21.48 21.48 0 0 0 2.24-.35l.65-.15-.48.2H26c-.68.12-1.32.22-2 .3zm.89.14l-.72.17-.63.09a8.52 8.52 0 0 1-1.15.1h-2.26c1.09 0 2.2-.07 3.29-.2zm-14.17-.1l.56.09a15.71 15.71 0 0 0 2 .11h.35c.66.14 1.34.23 2 .34a8.09 8.09 0 0 0 1.2.16l-.76.05a5.37 5.37 0 0 0-.68.05 13.84 13.84 0 0 1-1.95-.16 17.57 17.57 0 0 1-2.68-.64zM9.65 87c-.3-.11-.63-.23-.93-.37a5.08 5.08 0 0 1 0-2 2.06 2.06 0 0 0 .41.22.07.07 0 0 0 .1 0 .07.07 0 0 0-.07.07c0 .3.1.74.12.91a2.65 2.65 0 0 0 .08.53.7.7 0 0 1 .05.32.08.08 0 0 0 .16 0c-.06-.36-.15-.83-.18-1.06a4.75 4.75 0 0 1-.09-.7.07.07 0 0 0-.06-.06q.74.23 1.51.39v1.87a2 2 0 0 0 0 .22c-.31-.05-.75-.2-1.1-.34zm.29-6a2.94 2.94 0 0 0 0-.4l.35.07v.19a5.36 5.36 0 0 0 0 1.82l-.13-.06a8.09 8.09 0 0 1-.16-1.2zm.57 2.66l-.38.07a.22.22 0 0 0 0-.14v-.22l.56.24zm.54.16l.18.07a5.49 5.49 0 0 0 .87.26.08.08 0 0 0 .1-.05l1.15.34c.07 0 .13.06.2.06l.24.05.25.05a20.05 20.05 0 0 0 3.48.5h.36a16.12 16.12 0 0 0 2 .11 25.85 25.85 0 0 1-3.76-.09 33.34 33.34 0 0 1-3.76-.63c-.37-.09-.75-.17-1.12-.27l-.47-.13-.41-.12.29-.07zm-.91.3l.87.25.5.13c.69.19 1.42.34 2.08.48s1.34.23 2 .34c1 .14 2 .23 2.95.29h-2.18a9.43 9.43 0 0 0-1.21-.05h-.5c-1.42-.21-2.82-.49-4.22-.79 1.18.26 2.36.5 3.56.7h-.13l.57.1.29.11h.49V87a5.87 5.87 0 0 0 .08 1.17.09.09 0 1 0 .17 0 2.76 2.76 0 0 1-.14-.47v-2h1.95l.66.05c.29 0 .58 0 .87.06h.2l.63-.07h.73V86c.07.3 0 .7.07.87s0 .41.05.49a.44.44 0 0 1 .05.25.08.08 0 1 0 .16 0 12.42 12.42 0 0 1-.18-1.45v-.28h1.31c0 .28.09.63.13.87a6.52 6.52 0 0 0 .12.72 1.58 1.58 0 0 1 .06.53c-.5.12-.91.2-1.54.31s-1.24.2-1.87.25a7.11 7.11 0 0 1-2.22-.18 11.3 11.3 0 0 1-1.69-.19l-.81-.11a.1.1 0 0 0 0-.18l-.54-.1a4.35 4.35 0 0 1 0-.54v-1.52a.06.06 0 0 0-.12 0 14 14 0 0 1 0 1.48 4.93 4.93 0 0 0 0 .58H13l-.41-.08-.42-.18a.08.08 0 0 0 0-.07v-.42c0-.23-.09-.45-.09-.68a3.36 3.36 0 0 1 0-.75.06.06 0 0 0-.12 0 3.54 3.54 0 0 0 0 .76 2.19 2.19 0 0 1 .07.67v.41c-.35-.14-.71-.27-1.05-.44a7.22 7.22 0 0 1-.06-1.09v-.72a.07.07 0 0 0-.07-.05h-.05a18.28 18.28 0 0 1-1.8-.47l.56.05c.46.14.87.25 1.33.36l.3.05a.07.07 0 1 0 0-.14l-.3-.08a3.93 3.93 0 0 1-.48-.12v-.05l-.56-.05h-.16c-.16-.05-.34-.1-.49-.17l-.2-.08h-.05l.23-.09.3-.1.38-.12zm17.3 4.08l-.63.19h-.07c-.4-.13-.78-.29-1.17-.44l.23-.1.45-.12h.11l.22.1a8.85 8.85 0 0 0 .86.32zM27 89h-.42l-.31-.09.21-.07.42-.15.42.14h.11zm-1.15.17l-.4-.11.2-.05.3-.08.43.14zm2.08-.53l-.23.12-.6-.17.62-.27.35.1h.15-.06v.05zm-1.46-.15l-.18.05-.54.17-.29-.1a7.41 7.41 0 0 1-.78-.34l.68-.23c.37.15.75.31 1.12.44zm-1 .38l-.56.13a10.21 10.21 0 0 1-1.1-.39h-.1l.76-.21c.36.17.69.33 1.03.47zm-.05.4l-.75.1-.23-.06.65-.15zm-1.87-.72a11 11 0 0 0 1.15.46l-.7.14-.32-.1a9.09 9.09 0 0 1-1-.36h.08zm-.55-.09l-.39.07-.2.07-.11-.06 1-.13zm-.55.3h.09l.41.19c.3.12.58.23.87.32l-.59.12-.24-.05a9.56 9.56 0 0 1-1.62-.44zm-2.45.83l-.17-.06-.15-.07-.19-.09.17.09c-.47 0-.94-.07-1.41-.12a33.34 33.34 0 0 1-3.76-.63l-.21-.05c.61.1 1.16.17 1.74.23l1.14.09a12.12 12.12 0 0 0 1.3 0H20a4.34 4.34 0 0 0 1.36.59q-.68.02-1.36.02zM12.5 89H12l-.26-.08-.44-.15-.21-.09.43-.17a1.46 1.46 0 0 1 .46-.13l.56.1.79.12.31.08c.69.19 1.42.34 2.08.48s1.34.23 2 .34c.89.14 1.82.23 2.69.28l.25.08c-1.05 0-2.09 0-3.14-.06l-1.29-.08-1.06-.1c-.48 0-1-.14-1.42-.21s-.83-.17-1.25-.27v-.09zm-.57-1.38l-.66-.17a.06.06 0 0 0-.08 0H11a.1.1 0 0 0 0-.08v-.18a8.88 8.88 0 0 0 1.19.49zm.62.56l.3-.07h.1l.47.05v.21zm1 0c.4.11.78.21 1.17.29-.33 0-.65-.05-1-.09h-.12a1.43 1.43 0 0 1-.04-.18zm6.25.64l.82-.06.12.08h-.47zm1.38.54a4.71 4.71 0 0 1-.52-.16 3.2 3.2 0 0 1-.3-.13l-.17-.1c.33 0 .65-.07 1-.07a6.23 6.23 0 0 0 1.28.45l.38.1-.3.06h-.63l-.25-.06zm-9.56-1.13h-.13l-.27.1-.23.09-.11.05v.07a6.38 6.38 0 0 1-.65-.33l-.09-.05.12-.09.19-.18c.38.17.78.27 1.19.36zm.1 3.49l.87.34c-.4-.11-.79-.23-1.17-.37zm.32 0h.07a14.44 14.44 0 0 0 1.51.47c.59.15 1.18.26 1.78.36h-.63a16.09 16.09 0 0 1-2.09-.6zm-.65 0h-.26l-.6-.26v-.31l.13.08v.12a.09.09 0 0 0 .17 0l.25.13.27.13.12.1zm-.49.12h-.3v-.24zm-.29-1h-.08a7.67 7.67 0 0 1-.14-1.1v-.43a2.94 2.94 0 0 0 0-.4l.33.07v.18a5.26 5.26 0 0 0-.08 1.68zm.1 1.13l.35-.08h.13a15.17 15.17 0 0 0 2.37.65h-1.14c-.37-.09-.75-.17-1.12-.27l-.47-.13-.41-.14zm5.46 1.3c-.7-.08-1.4-.17-2.09-.3h.84l1.12.15c.67.12 1.33.22 2 .28h.1l-.38.05c-.51-.07-1.04-.12-1.56-.18zm2 .37h.76-1.14zm4.91-1l.68-.1c.5-.09 1-.18 1.54-.31h.3c-.5.11-1 .21-1.53.29zm3.1-.61h-.53l.45-.14a.09.09 0 0 0 .06-.05h.1l.23.06h.15zm-.34.93c.41-.1.82-.22 1.23-.36v.11l-.62.14-1 .2h-.3zm.83 2l.13-.06.25-.12v.25zm1.17-2.71l.27.08-.47.16-.22.07v-.14zm.15-.77a4.2 4.2 0 0 1-.64.27l-.14-.05h-.15l.4-.13c.3-.1.58-.22.87-.33a1.56 1.56 0 0 1-.33.23zm.79-1.54a3 3 0 0 1-.06.41 2.42 2.42 0 0 1-.19.57l-.13.08c-.35.17-.73.3-1.09.43l-.6.23h-.17a.31.31 0 0 1-.17.14l-.13.05a.07.07 0 0 0-.07 0h-.05a.1.1 0 0 0-.08 0l-1.13.27-1.2.24c-.4.08-.8.13-1.21.18a15.94 15.94 0 0 1-2 .19h-1.08a.05.05 0 0 0-.05.05v-.12h-.7a.1.1 0 0 0-.09-.09c-.39 0-.78 0-1.17-.1h-.92a1.5 1.5 0 0 1 0-.24.07.07 0 1 0-.13 0 1.92 1.92 0 0 1 0 .24L15 92.35h-.14a.09.09 0 0 0 .05-.08v-.07c-.49-.09-1-.21-1.47-.32l-.24-.06a.09.09 0 0 0 .07-.08V90h-.18v1.69a.09.09 0 0 0 0 .06l-.31-.09-.45-.14h-.22l-.29-.1c-.3-.11-.63-.23-.92-.36l-.12-.06.51-.16a.09.09 0 1 0 .17 0v-.74a2.37 2.37 0 0 0-.05-.36v-.05a.07.07 0 1 0-.14 0v.07a1.15 1.15 0 0 1 0 .21v.75l-.52.05a4.83 4.83 0 0 1 .08-1.74 1.53 1.53 0 0 0 .26.16l.17.09a.07.07 0 0 0 0-.13c-.05 0-.1-.1-.17-.1L11 89l.53.11a10.87 10.87 0 0 0 1.16.32l.43.1v.07c.44.09.87.16 1.29.22q1.3.18 2.61.26c.46 0 .92.05 1.38.06l1.07-.06h.81c1.29 0 2.57-.09 3.85-.21l1-.11v1.92a.1.1 0 1 0 .18 0v-1.94l1.25-.17v1.93a.1.1 0 0 0 .21 0v-2h.06c.37-.05.75-.14 1.11-.21v1.51a.1.1 0 0 0 .2 0v-1.5l.7-.17c.01.28-.04.54-.04.81zm.2-1.07l-.67.16V89a.08.08 0 0 0 0-.11v-.16l.3-.15.37.07zm-.51-.74h.19a.15.15 0 0 0 .12 0h.21l-.36.22-.39-.09-.3-.07.31-.16a.87.87 0 0 1 .24.1zm-.33-.13l-.37.11a8.69 8.69 0 0 1-.92-.32zm-1-1.26v-.08l.05.17a1.46 1.46 0 0 1-.39.33l-.23-.05-.33-.11h-.15l-.26-.11-.14-.05.29.18.11.06a.07.07 0 0 0 .05 0h.1l.27.11-.46.14h-.31a.09.09 0 0 0-.08.11l-.4.05a.06.06 0 0 0 0 .11h.3c-.57.13-1.09.24-1.74.35l-1.6.23a12.47 12.47 0 0 0 1.39-.42h1.13a.12.12 0 1 0 0-.24h-.79l.5-.21-1 .24h-.1l-1.2.29c-.1-.7-.29-1.4-.37-2.11h-1.33v-.03l.87-.06c.67-.05 1.32-.11 2-.19v.34h-.1v1.67a.1.1 0 1 0 .21 0v-.66c0-.25-.07-.6-.07-.74v-.76h.38l.66-.1a.07.07 0 0 0 0-.14l-.45.05a10.1 10.1 0 0 0 1.57-.46c.35-.08.7-.17 1-.29l.43-.15v.31l-.7.17c-.27.07-.54.11-.81.17l-.27.05-.3.11h.27l.32-.05.46-.09.72-.16.29-.08a6.79 6.79 0 0 0 .06 1v.55h-.07a.72.72 0 0 0 0-.16c-.06-.22-.23-.48-.06-.7a.08.08 0 1 0-.14-.08.56.56 0 0 0-.1.39.77.77 0 0 0 0 .17 1.67 1.67 0 0 1 .14.45l-.12.06-.34.17c-.05 0-.09.1-.14.1a.05.05 0 0 0 0 .1h.16l.63-.26v.3a.12.12 0 0 0 .23 0zm1.71-3.87v-.08l.05.17-.09.09a1.91 1.91 0 0 1-.29.22l-.27.14a2.14 2.14 0 0 1-.05-.57v-.12l.44-.19v.3a.12.12 0 1 0 .23 0zm-.09-1.13v.55l-.46.22v-1.6a.08.08 0 1 0-.17 0v1.69l-.32.15c-.07 0-.11.11-.18.11a.05.05 0 0 0 0 .07h.18l.29-.11v.69H28a5.6 5.6 0 0 1-.57.14h-.11l.1-.07s.22-.16.22-.2l-.34.23v-.05h-.17a.1.1 0 0 0-.17.09h-.07a.08.08 0 0 0-.08.11h-.09a.06.06 0 1 0 0 .11l-.19.1-.52.12a1.51 1.51 0 0 0-.36.1v.09h.15l-.21.05-.65.15-.6.12-.52.09-.54.07a.1.1 0 0 0-.13-.07l-1.16.22c-.45 0-.91.05-1.36.07.42 0 .82-.1 1.22-.17a18.82 18.82 0 0 0 2-.48l.36-.1.52-.17c-.29.08-.58.13-.87.19a27.27 27.27 0 0 1-3.16.44 22.52 22.52 0 0 1-3.63 0 7.89 7.89 0 0 1-1.22-.2c-.41-.06-.82-.12-1.23-.2a17.63 17.63 0 0 1-1.82-.44l-.87-.26-.19-.06-.08-.06h.07a.1.1 0 0 0 .05-.18c-.22-.1-.43-.17-.65-.25l-.67-.26.2-.09a.06.06 0 0 0-.07 0h-.38a5 5 0 0 1 .06-1.9 1.92 1.92 0 0 0 .41.23.07.07 0 0 0 0-.13 1.91 1.91 0 0 1-.37-.21l.67.07c.3.1.62.18.93.26-.1.65.12 1.28.07 1.93a.09.09 0 0 0 .17 0v-.24a2.06 2.06 0 0 0 0-.25c0-.17-.07-.43-.07-.5v-.2a2.73 2.73 0 0 1 0-.77c.34.08.69.14 1 .2h.05l.87.11c.41.08.82.15 1.23.2a.07.07 0 0 0 0 .06v.31a.09.09 0 1 0 .17 0 2.38 2.38 0 0 1 0-.3 11.06 11.06 0 0 0 1.3.14v-.1a.1.1 0 0 0 .18 0v-.07l1.15.07a27.31 27.31 0 0 0 2.83 0l1.08-.09v.05a5.16 5.16 0 0 0 .11 1 .75.75 0 0 1 .05.31V83a.08.08 0 0 0 .15 0 2 2 0 0 1-.08-.46 4.81 4.81 0 0 1-.12-1v-.07l.92-.12c.27-.05.54-.05.43-.05l.72-.06h.84a20.1 20.1 0 0 0-.08 2.28.09.09 0 0 0 .17 0v-1.69a4.74 4.74 0 0 1 0-.51l.64-.09c.85-.12 1.64-.28 2.51-.48l.25-.06a6.81 6.81 0 0 0 .35 1.04zm-2.93-2.35l.38.12.74.27.65.25-.23.06c-.76.2-1.56.35-2.34.48-1.46.23-2.89.39-4.34.5-.6 0-1.2.11-1.78.11L17.83 81a33.33 33.33 0 0 1-3.76-.63c-.37-.09-.75-.17-1.12-.27l-.47-.1-.41-.12a21.63 21.63 0 0 1 3.09-.56c1.36-.15 2.79-.23 4-.26s2.52 0 3.77.06l1.3.09c.59.06 1.12.12 1.64.18zm2.77 1v.1h-.19c-.64.13-1.29.23-1.93.3a9.17 9.17 0 0 0 1.22-.46l.31-.16h.09l.43.17a.12.12 0 0 0 .11.07zm-15.94-.23l.5.13c.69.19 1.38.33 2.08.48a18 18 0 0 0 1.87.29c-.74-.07-1.53-.17-2.22-.28s-1.36-.23-2-.36a.07.07 0 0 0 0 .14c1 .18 1.92.36 2.89.5h-.39c-.3 0-.59-.08-.87-.08l-.5-.07a7.58 7.58 0 0 1-.92-.19c-.15 0-.32-.09-.46-.14l-.36-.14a3.69 3.69 0 0 1-.78-.44l.34-.1zm-1.17-.13a3.57 3.57 0 0 0 .75.45 8.07 8.07 0 0 0 1.58.5l-.76-.17-.87-.23-.28-.08-.47-.1a5.21 5.21 0 0 1-.56-.17l.41-.15zm16.81-.15L28 80l-.91-.35zm-17.46-.48a.87.87 0 0 1 0-.16v-.05H11l.48-.16c.48-.13 1-.25 1.45-.34l1-.16 1.39-.13h2c-.61.08-1.22.21-1.82.34a.07.07 0 0 0 0 .13 22.27 22.27 0 0 1 2.61-.43h.1l1 .06c.7 0 1.4.1 2.09.17l.7.07 1 .1 1.57.18.5.13-.7-.07c-.84-.07-1.66-.14-2.53-.14a50.24 50.24 0 0 0-5.15.1c-.38 0-.76.1-1.15.1-.56.06-1.09.13-1.65.22s-.81.15-1.21.23v-.06c-.3.06-.66.15-.89.18h-.09l-.46-.16h-.06v-.06l.51-.12-.4.09h-.14v.07l-.22-.08a.51.51 0 0 1-.04-.02zm-1.05.33l.23-.15.35-.17.22.23v.05a.09.09 0 0 0 .18 0l.3.1.12.14.05.05c-.25.09-.5.17-.74.28h-.14l-.13-.16-.29-.1-.22-.13zm-.72 3.48l.34-.11.18-.06.19.1c0 .15.1.31.12.43a.16.16 0 0 0 .07.11h-.1l-.46-.16-.58-.21zm-.82.41l.45-.23c.35.13.7.26 1 .36h.08l-.5.17-.08.08-.14.05-.18.07h-.23l-.51-.27-.14-.02zm.11 2.91a8.59 8.59 0 0 1-.16-1.23v-.43a3.33 3.33 0 0 0 0-.35l.34.12v.07a5.4 5.4 0 0 0 0 1.85zm.9.91c-.3-.11-.58-.23-.87-.36v-.28l.13.08V87a.09.09 0 0 0 .17 0l.25.13.27.13.39.17.74.3-.14.06c-.26-.1-.59-.2-.88-.31zm.92 4.66l.87.25.5.1.3.14a12.26 12.26 0 0 1-1.27-.16l-.87-.18zm-1 .34q.5.2 1 .36H10l-.6-.18-.34-.13zm-.5.56a5.33 5.33 0 0 0-.05 1.85 5 5 0 0 1-.2-.63 5.6 5.6 0 0 1-.08-.62v-.43a2.94 2.94 0 0 0 0-.4l.33.07zm.1 1.92a5.07 5.07 0 0 1 .05-2l.22.14.19.08a3.2 3.2 0 0 0 0 .37 4.26 4.26 0 0 0 0 .49v.24c0 .27.08.53.13.79a.1.1 0 0 0 .17-.1 4.44 4.44 0 0 1-.11-2.07.07.07 0 0 0 0-.06h.16a13.75 13.75 0 0 0 2 .5l.4.17a.06.06 0 0 0 0 .05V96a.1.1 0 0 0 .19 0v-2.44l.61.09H13a5.63 5.63 0 0 0 1 .14 15.5 15.5 0 0 0 1.74.08h2.86c.85 0 1.67-.05 2.54-.11h.37V94a10.43 10.43 0 0 0 0 1.48v.3a.1.1 0 0 0 .19 0 5.69 5.69 0 0 1-.1-.63v-1.37h.47a.07.07 0 0 0 .06-.08l.87-.1c.41-.07.86-.15 1.28-.25h.18l-.33.1h.4l.39-.06v1.21a.1.1 0 0 0 .2 0v-1.29l.7-.13.5-.1.67-.17a6.81 6.81 0 0 0 .06 1v.56l-.79.36h-.46a.06.06 0 1 0 0 .12h.19l-.32.13s.07-.08 0-.07-.07.06-.07.06a.06.06 0 0 0 0 .09l-.21.08h-.18a.07.07 0 0 0-.08.06q-.73.24-1.47.43a12.92 12.92 0 0 1-.17-1.38 1.08 1.08 0 0 0 0-.37.66.66 0 0 1 0-.29.07.07 0 1 0-.13 0c0 .1-.05.1 0 .3a2.37 2.37 0 0 1 .05.61 9.18 9.18 0 0 0 .11 1.17l-.45.11-.87-.1a.06.06 0 1 0 0 .11l.52.07q-.81.17-1.68.3l-.67.09a6.46 6.46 0 0 1-.19-.7c-.13-.55-.26-1.09-.36-1.65.09.46.21 1.05.28 1.38s.14.68.23 1a24.67 24.67 0 0 1-3.1.17h-1.47a.05.05 0 1 0 0 .1l1 .07h2.2a23.45 23.45 0 0 0 2.62-.28l.29.13a38.52 38.52 0 0 1-5.23.36h-.06l-.34-.05-.52-.1h-.2l-.77-.13-1-.19a7.6 7.6 0 0 1-.06-1.34v-.91a.07.07 0 0 0-.13 0v1.59a4.82 4.82 0 0 0 0 .82 21.3 21.3 0 0 1-2.13-.54h-.15a.18.18 0 0 0-.06-.16v-.8c0-.17-.05-.34-.05-.5a8 8 0 0 1-.12-1 .07.07 0 0 0-.13 0c0 .33.1.65.1 1v.86h-.12a.54.54 0 0 1-.21 0 .63.63 0 0 1 .18.13l.06.06h-.2l-.59-.18c-.32-.1-.63-.23-.95-.35zm2.34 3.9l-.12-.06a8.75 8.75 0 0 1-.17-1.23v-.43a2.92 2.92 0 0 0 0-.4l.33.07v.18a5.41 5.41 0 0 0-.04 1.87zm-.89-2.92h-.12l-.68-.23-.5-.2-.09-.17v-.07a.09.09 0 0 0 0-.06l.25.13.27.13.45.19.47.19zm.09 3.88l.19-.12.28-.13.06.2c0 .11.1.14.16.11s.05-.11.05-.17v-.05l.23.1.51.21-.42.15-.25.1-.15.06h-.05l-.28-.13-.23-.12-.19-.11zm-.3 3.81a1.73 1.73 0 0 1 .35-.32l.75.24c-.18.05-.38.12-.55.19l-.16.06-.29.12-.21-.05a.33.33 0 0 1 0-.1zm-.08.9a5.33 5.33 0 0 0 0 1.81h-.05a.09.09 0 0 0-.08 0l-.06-.37v-.47a1.13 1.13 0 0 1 0-.39 3.83 3.83 0 0 0 0-.7H10v.18zM28.25 107a.87.87 0 0 1-.22.2 11.1 11.1 0 0 1-1.3.4c-.48.13-1 .22-1.45.32.27-.05.54-.11.8-.19a11.58 11.58 0 0 0 1.32-.47 3.07 3.07 0 0 0 .92-.34zm.11-1.09l-.22.12a1 1 0 0 0-.24.16.05.05 0 0 0 0 .1.87.87 0 0 0 .25-.08l.16-.06v.31a.12.12 0 0 0 .05.1v.05a.09.09 0 0 0 .05.1 1.54 1.54 0 0 1-.6.38.1.1 0 0 0 0-.05.1.1 0 0 0-.13 0 6.66 6.66 0 0 1-.79.34h-.09a2.49 2.49 0 0 0 .12-1.1v-.48a.12.12 0 1 0-.23 0c0 .52.18 1.16-.11 1.63a.09.09 0 0 0 0 .07l-.67.2c-.3.09-.62.16-.93.23.19-.09.38-.19.55-.29a1.16 1.16 0 0 0 .24-.16c-.16.07-.31.16-.47.22l-.37.15h-.11a4.26 4.26 0 0 0 .1-1.3v-.42a.13.13 0 0 0-.26 0 5 5 0 0 1-.05 1.8l-.14.05-.87.14a.07.07 0 0 0 0-.1h-.33c-.73.09-1.47.17-2.2.23h-1.72c-1 0-1.91-.11-2.86-.22-.48 0-1-.11-1.43-.18a.1.1 0 0 0-.08-.1 2.39 2.39 0 0 0-.49-.09h-.34a1.06 1.06 0 0 0-.3 0 .05.05 0 0 0-.06 0l-.18.1a14.81 14.81 0 0 1-2-.66l-.8-.36-.35-.18a.09.09 0 0 0-.12 0l-.15-.06a5 5 0 0 1 0-1.92l.13.09h.09l.19.09a.07.07 0 1 0 0-.13l-.17-.09-.18-.11.61.05.51.15a19.87 19.87 0 0 0 2.85.53 32.79 32.79 0 0 0 4 .22 48.05 48.05 0 0 0 6.23-.36c.56-.08 1.15-.15 1.74-.26l.87-.16c.29-.05.58-.13.87-.2l.21-.05a2.6 2.6 0 0 0 0 .49c0 .16.08.34.13.5zm0-1.86l-.26.07-.5.12-.34.07-.5.1-.87.15-.43.06a9.88 9.88 0 0 0 2-.68l.48-.17a.12.12 0 0 0 .11.08h.31zm-1.7-.22l.52-.1zm2.62-1.44l-.46.22h-.07a.07.07 0 0 0-.08.05.07.07 0 0 0-.08.05h-.1v-1.49a.09.09 0 1 0-.18 0v1.49a.1.1 0 0 0 .06.09l-.15.06H28a.07.07 0 0 0 0 .14h-.1a.05.05 0 0 0 0 .07.38.38 0 0 1 .21 0h.06l.32.05a9.08 9.08 0 0 1-1.74.73h-1l.45-.14a.1.1 0 1 0-.07-.18l-1.15.27-.67-.08a.08.08 0 0 0 .06-.07 4.88 4.88 0 0 1 0-2.06c.41 0 .81-.09 1.12-.14v2.1a.09.09 0 0 0 .17 0v-2.1l.66-.09.76-.12.51-.1.41-.14a.07.07 0 0 0 0-.14l-.37.06-1 .17h-.35a9.89 9.89 0 0 0 2-.66c.23-.1.43-.22.64-.34l.1-.05c.05.05 0 .09.05.16a.31.31 0 0 1 .06.23v.15a2.53 2.53 0 0 0-.44.17 2 2 0 0 0 .46-.05.45.45 0 0 1 0 .1v.22a.12.12 0 0 0 .07.1v.22a3.16 3.16 0 0 1 0 .64zm-.1-2.85l-.28-.1h-.31l-.36-.1h.06a9 9 0 0 0 .87-.36l.35-.17V99a.12.12 0 0 0 .08.11v.12a2 2 0 0 1-.43.3z" fill="#0c8cff"/><path d="M16.62 83.59c-.44-.07-.89-.1-1.33-.19l-.71-.12H14l.13.08a1.12 1.12 0 0 0 .27.07l.53.1h.57c.52.07 1 .12 1.46.18h.26a.07.07 0 1 0 0-.15zM13 90.46h.25zm-.86-.21a.11.11 0 0 0-.1 0h.2a.1.1 0 0 0-.1 0zm.45.12h-.14a1 1 0 0 1-.22 0l.26.07a.08.08 0 0 1 .1-.07zm-.68-.06v-.06h-.13l.13.06zm16.97-.52l-.24.08a2.57 2.57 0 0 1 .32.1.1.1 0 1 0-.07-.2zm-.24.21v-.1a.06.06 0 0 0 0 .1zM23 85.64a.07.07 0 0 0-.1 0 3.75 3.75 0 0 0 .07.64.09.09 0 0 0 .19 0 2.26 2.26 0 0 1-.11-.61.08.08 0 0 0-.05-.03zM12.27 83.8a.09.09 0 0 0-.09.09 2.32 2.32 0 0 1 0 .27 1.7 1.7 0 0 1-.13.72.09.09 0 1 0 .18.07 1.75 1.75 0 0 0 .14-.54v-.25a2.41 2.41 0 0 0 0-.3.09.09 0 0 0-.1-.06zm10.73.1a.55.55 0 0 1 0-.15.07.07 0 0 0-.14 0 .62.62 0 0 1 0 .16.09.09 0 0 0 .19 0zm-1.88-.19v.13h.06a.07.07 0 1 0 0-.15zm33.6 24.84l-.71-.07c-.58-.07-1.18-.09-1.76-.15l-1.53-.13a30.47 30.47 0 0 1-3.29-.46c-.42-.09-.86-.18-1.28-.3a9.24 9.24 0 0 1-2.46-1.08 3.53 3.53 0 0 1-.74-.61l-.07.07h-.32a.23.23 0 0 1 0-.32l.29-.29a5.24 5.24 0 0 1-.52-.28 1 1 0 0 1-.44-.52 3.37 3.37 0 0 1 .07-.9 8.59 8.59 0 0 1-.61-1 .18.18 0 1 1 .32-.18 5 5 0 0 0 .35.58 2.52 2.52 0 0 1 .07-.72 3.21 3.21 0 0 0 0-.82v-.72c.06-.8.06-1.62.09-2.43.08-1.77.1-3.54.11-5.31l-.1-.48c-.06-.25-.11-.52-.18-.76s-.12-.43-.17-.64q-.31-.25-.6-.53a23.1 23.1 0 0 1-4.39-5.77c-.26-.46-.52-.93-.76-1.41-.17-.24-.34-.48-.5-.73s-.28-.5-.43-.74q-.42-.64-.79-1.32l-.48-.74-.62-.23-2.57-1c.89.32 1.77.61 2.67.87l.33.1-.41-.67c-.4-.65-.79-1.33-1.14-2-.19-.37-.38-.75-.56-1.12-.24-.16-.48-.34-.71-.52a.42.42 0 0 1-.17.16.43.43 0 0 1-.57-.19L30 75l-.22-.15a7.11 7.11 0 0 1-1.1-.32h-.1l-.52-.11-1-.19a.16.16 0 0 1-.25.15l-.32-.27c-.65-.14-1.29-.3-1.92-.5a8.28 8.28 0 0 0 0 .84.07.07 0 0 1-.14 0 3.47 3.47 0 0 0-.08-.91l-.69-.25h-.5v.07a.31.31 0 0 1-.39.07l.23.21.43.42a1.94 1.94 0 0 1 .29.29 1.74 1.74 0 0 1 .12.23c-.23 0-.53-.3-.67-.46s-.48-.54-.7-.83h-.09l-.37.2a1.12 1.12 0 0 0-.21.15 1.37 1.37 0 0 1-.16.18c-.06 0-.2-.07-.24-.16a2.46 2.46 0 0 1-.13-.38 8.63 8.63 0 0 1-.2-.88c-.06-.3-.13-.62-.18-.95a9.24 9.24 0 0 1-.64-2.45 26.79 26.79 0 0 1-.16-5.6q0-.81-.08-1.61v-1.32a15.1 15.1 0 0 1 .09-2c0-.46.08-.92.11-1.37s.06-.64.11-1 .05-.47.1-.69.1-.56.15-.83.1-.47.15-.69a9 9 0 0 1 .2-1.53 1.39 1.39 0 0 1 .2-.57c.1-.09.31-.06.43-.06a2.11 2.11 0 0 1 .93-.83 1.51 1.51 0 0 1 .57-.13h.06a1.54 1.54 0 0 1 .58.08 2 2 0 0 1 .58.32h.14a2.23 2.23 0 0 0 .24.19.69.69 0 0 1 .14.16h1.67a6.74 6.74 0 0 0 .71-.51c.21-.17.38-.35.58-.53a3.55 3.55 0 0 0 .36-.38l.41-.53a.37.37 0 0 1 .52 0A.31.31 0 0 1 29 50a2.27 2.27 0 0 0 .6-.48l.14-.14a.24.24 0 0 1-.17-.15.25.25 0 0 1 .13-.32 3.4 3.4 0 0 0 1.37-.9 1.89 1.89 0 0 1 .11-.47c-.2.16-.41.3-.61.43s-.51.29-.76.44a.16.16 0 0 1-.22-.23h.07a8.89 8.89 0 0 0 1-.61c.1-.07.22-.12.3-.19l.36-.28v-.13l-.37.2c-.41.2-.8.44-1.21.63a.07.07 0 1 1-.06-.13 11.87 11.87 0 0 0 1.79-1.09l.14-.36A18.8 18.8 0 0 1 33 43.63l.44-.72a42.07 42.07 0 0 1 2.73-5.35q.32-.52.65-1c.06-.23.1-.47.15-.7a3.83 3.83 0 0 0 .07-.44V35a15.73 15.73 0 0 0 0-1.69A33.19 33.19 0 0 0 36.7 29c-.09-.52-.19-1-.28-1.56s-.12-.86-.19-1.28c-.13-.87-.24-1.75-.35-2.62a10.85 10.85 0 0 1-.12-2.34 6.75 6.75 0 0 1-.12-.72c-.12-1-.24-1.93-.32-2.91v-.69a1.53 1.53 0 0 1 0-.21.4.4 0 0 1 .06-.17v-.25a1.79 1.79 0 0 1-.08-.56.27.27 0 0 1 .34-.17l.38.15.37.17v-.35a3.53 3.53 0 0 1 .1-.46 2.21 2.21 0 0 1 .06-.31.1.1 0 1 1 .2 0 2.71 2.71 0 0 1 0 .33v.41h.08c.19.08.43.16.63.22s.58.23.85.34.66.33 1 .5a8.16 8.16 0 0 1 1 .58 4.61 4.61 0 0 1 .5.38 7.43 7.43 0 0 1 .19-1.31 9.82 9.82 0 0 1 .41-1.76 2.35 2.35 0 0 1 .2-.5.44.44 0 0 1 .15-.12l.17-.4a3.35 3.35 0 0 1 .77-1.09.51.51 0 0 1 .1-.3l-.85-.3a.08.08 0 0 1 0-.16l.68.12.25.06c.2-.35.47-.35.82-.36a7.64 7.64 0 0 1 2.06.33 6.17 6.17 0 0 1 .79.27l.8.35c.32.15.61.32.92.48a4.89 4.89 0 0 1 .44.26l.67.42a33.64 33.64 0 0 1 3.16 2.41c.9.77 1.75 1.58 2.6 2.4 1.31 1.28 2.58 2.63 3.78 4 .6.69 1.2 1.39 1.79 2.09l.11.14H61l-.2-.51c-.28-.49-.58-1-.88-1.43-.16-.26-.35-.5-.52-.76a.14.14 0 1 1 .23-.16c.33.49.68 1 1 1.45s.55.86.81 1.3c.49-.1 1-.18 1.47-.25a13.81 13.81 0 0 1 2.18-.15 8.38 8.38 0 0 1 1.65.11c.55.11 1-.13.61 0h-.25a7.11 7.11 0 0 1-1-.15.15.15 0 1 1 0-.29c.68.1 1.35.19 2 .25h.14a.81.81 0 0 1 .33 0h.2a14.53 14.53 0 0 1 1.46-.16h1.88c1 0 2 .11 3 .2.65.06 1.32.14 2 .24l1.21.2c.43.07.86.17 1.29.26l1.56.35a.47.47 0 0 1 .62-.24l1.15.49a.17.17 0 0 1 .12 0c1.1.32 2.2.61 3.28 1l1.53.58a38.21 38.21 0 0 1 3.53 1.59l1.06.42.82.34a41 41 0 0 1 4.25 2.12 22.75 22.75 0 0 1 4 2.89.18.18 0 0 1 .08.06l.06.08q.52.48 1 1a13.41 13.41 0 0 1 .93 1.07l.31.41a2.89 2.89 0 0 1 .64-.22l.16-.14a4.11 4.11 0 0 1 .39-.26l-.5-.37c-.28-.2-.61-.38-.9-.56a.07.07 0 0 1 .08-.12c.25.19.52.39.78.56l.65.42a4.9 4.9 0 0 1 1-.41 6.65 6.65 0 0 1 1.23-.24l-.34-.61a.14.14 0 0 1 .24-.13l.37.72a5.23 5.23 0 0 1 .81 0 5 5 0 0 1 .67-1.23 2.5 2.5 0 0 1 .63-.59 2.25 2.25 0 0 1 2.18-.17 3.5 3.5 0 0 1 1.3-.11 2.32 2.32 0 0 1 .74.15h.07a2.9 2.9 0 0 1 1 .39 1.57 1.57 0 0 1 .59-2.14l.11-.06a.27.27 0 0 1 .19.5l-.15.06a.8.8 0 0 0-.35.34l-.07.14a1.47 1.47 0 0 0-.08.39 3.24 3.24 0 0 0 0 .36 1 1 0 0 0 .94.91.17.17 0 0 1 0 .34h-.17a4.07 4.07 0 0 1 .48.69c0 .09.12.19.18.28s.13.24.2.36a.73.73 0 0 1 .07.48 3 3 0 0 1 .2 1.64.67.67 0 0 1 .17.47 8 8 0 0 1-.06 1.2l.31.28a.16.16 0 0 1-.22.23l-.11-.1a9.88 9.88 0 0 1-.21 1.85.89.89 0 0 1-.16.37v.15a1.24 1.24 0 0 1 0 .4 4.23 4.23 0 0 1-.26.83l.39.28a.17.17 0 0 1-.2.28 2.65 2.65 0 0 1-.34-.25 3.58 3.58 0 0 1-.49.69.82.82 0 0 1 0 .17v1.68c0 .41-.07 1-.12 1.44a13.93 13.93 0 0 1-.26 1.58c-.08.37-.19.73-.29 1.09a7 7 0 0 1-1.31 2.67c.05.29.1.58.14.86a9.22 9.22 0 0 1 0 1.11.08.08 0 0 1-.17 0 8.55 8.55 0 0 1-.26-1c-.07-.37-.06-.39-.09-.58l-.1.09v.26a6.68 6.68 0 0 1 0 1.54 9.92 9.92 0 0 1-.55-1.41 2.75 2.75 0 0 1-.75.22l-.21.12c0 .49.08 1 .1 1.46s0 .84.05 1.26a4.63 4.63 0 0 0 .24.86c.27 1.06.43 2.1.6 3.18a3.24 3.24 0 0 1-.18-.54c-.07-.24-.15-.48-.23-.73l-.33-1.2v1.8c.05.58.09 1.15.11 1.72s0 1.25 0 1.87a22.17 22.17 0 0 1-.12 2.82c-.12.94-.22 1.93-.38 2.9s-.43 2-.67 3l.18-1.07c.06-.36.06-.54.09-.82l-.09.31a23.36 23.36 0 0 1-1.32 3.57q-.2.43-.42.84a.18.18 0 0 1-.2.28l-.32.57a.26.26 0 0 0 .14.06.08.08 0 0 1 0 .16h-.26l-.07.12-.36.54-.19.47c-.11.28-.26.56-.37.84l.15-.47-.09.2q-.41.87-.85 1.72v.05l-.13.11a26.88 26.88 0 0 1-1.94 3.41c-.85 1.35-1.73 2.71-2.69 4 0 .45-.06.9-.06 1.35l.44-.43h.13a.09.09 0 0 1 0 .13l-.58.58v.27a.32.32 0 0 1 .15.28v1.61a.15.15 0 0 1 0 .19v4.51c0 1.74.09 3.49.06 5.23v1.2l.53-.27a.2.2 0 1 1 .22.33l-.73.42v.6h.22a9.48 9.48 0 0 0 1.4-1.61 7.59 7.59 0 0 0 .51-.91h.05v.05a5.52 5.52 0 0 1-.82 2 5.44 5.44 0 0 1-.71.84.36.36 0 0 1-.24.35l-.27.1-.25.19a2.28 2.28 0 0 1-.08.73 6.69 6.69 0 0 0-.14 1 .15.15 0 0 1-.29 0 1.07 1.07 0 0 1 .06-.43 32.09 32.09 0 0 1-3.22.94 19.44 19.44 0 0 1-10 .12l-.39-.11v.17c.05.22.26.62-.06.74s-.48-.17-.48-.41v-.27l-.2-.49a7.13 7.13 0 0 1-.69-.29.18.18 0 0 1 .14-.34l.42.18-.1-.36a.27.27 0 0 1-.09-.3l-.21-.72c-.17-.58-.38-1.15-.53-1.73-.22-.8-.47-1.58-.75-2.37-.22-.48-.44-1-.66-1.42S85 99 84.8 98.58s-.44-.92-.67-1.38a7.06 7.06 0 0 1-.77.15 2.85 2.85 0 0 0 .12.43 3.23 3.23 0 0 1-.12-.44c-1.68.25-3.35.4-5.07.5q-1.29.08-2.59.08l.58.59-.84-.59h-1.51l-1 .11 1.78 1.45a.08.08 0 1 1-.1.13c-.57-.4-1.16-.81-1.71-1.23l-.39-.3q-1.61.15-3.23.18l.22.17a.15.15 0 1 1-.13.27h-.05l-.48-.39a30 30 0 0 1-7.27-.77l.13.08.7.47a.1.1 0 0 1-.09.18 6.87 6.87 0 0 1-1.76-.91l-.39 1a.63.63 0 0 1 .59.89c0 .1-.09.19-.12.29-.09.26-.2.51-.3.77-.31.82-.59 1.65-.89 2.46s-.57 1.43-.9 2.14a11.58 11.58 0 0 1-.65 1.21h.4a.18.18 0 1 1-.06.36l-.53-.11a6.14 6.14 0 0 1-.89 1.06 3.55 3.55 0 0 1-.8.58 1.53 1.53 0 0 1-.3.1h-.79a1.18 1.18 0 0 1 .42.05.18.18 0 0 1 0 .36 1 1 0 0 1-.62.03zm-.61-.44zm0 0zm-6.08-.7a13.93 13.93 0 0 1-2.82-1.14.12.12 0 0 1 0-.22L45 106a.27.27 0 0 1-.37.09l-.83-.53-.51-.19v.18l.74.59a8.77 8.77 0 0 0 2.67 1.06 23.93 23.93 0 0 0 2.39.44c-.36-.08-.72-.15-1.09-.25zm45.6.15a13 13 0 0 0 1.39-.11l.58-.07.83-.13.4-.08-.74.09a17.07 17.07 0 0 1-1.72.1 15 15 0 0 1-2.71-.24.16.16 0 0 1-.13-.13 13.44 13.44 0 0 1-2.32-.26h-.47a.27.27 0 0 1-.35-.16.07.07 0 0 1 0 .1l.05.18c.29.1.58.18.85.25s.54.14.82.19a13.89 13.89 0 0 0 2 .25h.78zm-48-1.4a9.43 9.43 0 0 0 3.08 1l.47.07a15.84 15.84 0 0 1-3.61-1.1zm52.11.44a26.21 26.21 0 0 1-3 .25H94a2.52 2.52 0 0 1-.62.09 4.55 4.55 0 0 1-.57 0 13.91 13.91 0 0 0 2.6 0 14.76 14.76 0 0 0 2.25-.36zm-43 .25h.06c.1-.29.22-.59.33-.89a56.92 56.92 0 0 1-5.6-4.1.09.09 0 0 1 .11-.14 51.72 51.72 0 0 0 5.09 3.67l.51.31.19-.45c.12-.27.23-.55.35-.83l.23-.5-.11-.08-.09.16a1.94 1.94 0 0 1-.2.34.23.23 0 0 1-.38-.16.64.64 0 0 1 0-.19l.16-.49c-1.46-1-2.88-2.14-4.28-3.25a.1.1 0 1 1 .08-.18c1.31 1 2.62 2 4 3l.25.17.11-.31c.1-.27.24-.54.35-.81s.32-.69.49-1l-1.92-1.52c-.65-.52-1.44-1-2.2-1.52a.12.12 0 0 1 .13-.2l.82.52c.51.35 1 .69 1.51 1.06s1.21.92 1.82 1.38v-.06c.23-.39.46-.77.71-1.14l.41-.59-1.23-.92c-.2-.15-.42-.31-.63-.44l-.43-.27-.26-.15a9.59 9.59 0 0 0-1.12-.65.12.12 0 1 1 0-.22 10.06 10.06 0 0 1 1.49.71c.41.27.82.52 1.23.81l1.17.82.37-.48c0-.33.1-.67.16-1a.38.38 0 0 1 .74-.05l.2-.22a.2.2 0 0 1 0-.19.19.19 0 0 1 .2-.14l-.2-.15-.58-.21c-.52-.19-1-.41-1.57-.64H57c-.25-.06-.52-.09-.77-.15l-.52-.17h.43a2.31 2.31 0 0 1 .43.08h.11l-.21-.11-.74-.18a.07.07 0 0 1 0-.13l.26.07a14.45 14.45 0 0 1-1.94-1.26.44.44 0 0 1 .52-.7 12.52 12.52 0 0 0 4 2l1.09.31c.21.06.43.09.63.15l.41.11-1.65-.49-.26-.19c-.41-.15-.83-.3-1.23-.47l-.56-.21-.69-.32a.09.09 0 0 1 0-.13.09.09 0 0 1 .13 0c.47.21 1 .36 1.43.55a27 27 0 0 0 3 1l.18-.35a49 49 0 0 1-4.82-1.33A36.75 36.75 0 0 0 61.12 95c.15-.27.31-.55.49-.81-.58-.55-1.17-1.1-1.76-1.63s-1-.92-1.59-1.36l-.65-.53-1.08-.82 1.12.83c1.07.82 2.13 1.68 3.17 2.55l.93.78.07-.12.18-.29v-.06a.18.18 0 0 1 .29.19v.08l-.11.22.52.45.8.72 1.4.16.87.09c-.73-.74-1.44-1.49-2.14-2.27q-2-2.23-4-4.53a.07.07 0 0 1 .11-.1c1.26 1.45 2.6 2.94 3.93 4.35.84.89 1.67 1.75 2.53 2.59.65.07 1.31.14 2 .17h1.6s.08.07 0 .1h-.16a4 4 0 0 0-.59.09 20.74 20.74 0 0 1-2.1.21l.32.3c.58 0 1.16.06 1.75.06h1.68l-1-.92a56 56 0 0 1-6.7-7 .07.07 0 0 1 0-.09h.05c.48.62 1 1.24 1.54 1.82a53.92 53.92 0 0 0 5.08 4.92c.47.41 1 .81 1.45 1.21l2-.07h.56l-.12-.11c-.81-.69-1.57-1.4-2.35-2.13a36.2 36.2 0 0 1-5-5.7.1.1 0 0 1 .16-.12c.26.39.55.76.83 1.13a38.08 38.08 0 0 0 3.67 4c.4.39.82.75 1.23 1.13.66.61 1.35 1.21 2 1.8 1-.07 2.09-.16 3.13-.27-1.58-1.76-3.18-3.51-4.85-5.17-.77-.76-1.54-1.53-2.33-2.29s-1.74-1.63-2.61-2.45c.5.48 1 .93 1.52 1.41 1.37 1.3 2.77 2.58 4.11 3.92.77.77 1.55 1.53 2.3 2.31l1.27 1.32.9 1q1.78-.19 3.57-.42c-1.61-1.61-3.17-3.26-4.77-4.88s-3.38-3.34-5.13-5v-.09h.09c.94.87 1.89 1.73 2.81 2.62 1.72 1.66 3.41 3.34 5.11 5l2.27 2.24h.16l.61-.08.44-.13-.45-.42c-.15-.13-.35-.29-.51-.44a.16.16 0 0 1 .21-.24c.19.18.39.34.58.51l.53.49.45-.14c-.43-.35-.84-.77-1.23-1.15a30.52 30.52 0 0 1-2.12-2.3l-1.24-1.34c-1-1.27-2-2.59-3.06-3.87-.33-.41-.67-.81-1-1.2l-.54-.62c-.18-.2-.5-.53-.74-.8v-.07h.07c.78.83 1.53 1.67 2.26 2.54.94 1.13 1.83 2.3 2.78 3.42.55.65 1.1 1.3 1.66 1.94s.92 1 1.38 1.47A22.46 22.46 0 0 0 83.85 95l-.39-.7a.2.2 0 0 1 .34-.19l.43.78 1.35-.43a.33.33 0 0 1 .4.17l1-.33-.98-.89c-1-1-2-2.12-3-3.25-1.68-1.86-3.32-3.77-5-5.64l-1.59-1.72c1.7 1.86 3.37 3.74 5.07 5.6.65.71 1.3 1.42 2 2.11.33.34.66.7 1 1 .75.73 1.48 1.47 2.25 2.16l.61.54.18-.06h.06v.06l-.13.06.42.37 1.23-.21 1.05-.17-.69-.61a62.44 62.44 0 0 1-4.95-5.27c-.93-1.06-1.82-2.15-2.74-3.22L79.91 83c-.21-.24-.4-.5-.61-.75-.55-.66-1.11-1.28-1.69-1.92.86.94 1.82 1.82 2.65 2.78 1.12 1.29 2.24 2.59 3.37 3.89s2.24 2.57 3.42 3.8 2.25 2.31 3.43 3.42l.93-.17a.68.68 0 1 1 .39 1.3h-.16c-.29.07-.62.11-.92.16l-1.57.27.24.21a.14.14 0 1 1-.18.22l-.46-.36-3.09.52h.06c1-.15 2-.33 3-.53a.09.09 0 1 1 0 .18l-.52.15h.61a.09.09 0 1 1 0 .18l-.39.08a3 3 0 0 1-.88.19.77.77 0 0 1-.32-.13l-1 .27h.06a.13.13 0 0 1-.12.22l-.33-.17-.53.19q.27.59.51 1.19c.33.63.66 1.26 1 1.89.2.4.42.79.62 1.2l.26.54a1.88 1.88 0 0 1 .23.42l.13.3.31.65a7.79 7.79 0 0 1 .34.79c.09.28.23.57.3.86s.11.37.16.56.05.25.08.38l.33.12.29.09h1.49a4.2 4.2 0 0 1-.64-.33.07.07 0 1 1 0-.14 3.71 3.71 0 0 0 1 .44 36.71 36.71 0 0 0 3.77-.3c.49-.06 1-.13 1.48-.22l.34-.16-.08-.08c-.93.12-1.84.22-2.78.27a20.6 20.6 0 0 1-4.54-.28v-.1a22.26 22.26 0 0 0 3.68 0c1-.1 2.06-.26 3.08-.43l-.41-.43c-.66-.72-1.32-1.46-2-2.18-.26-.28-.51-.57-.78-.84l-.55-.56c-.22-.23-.46-.44-.69-.67a.1.1 0 0 1 .14-.14c.46.45.92.89 1.37 1.35 1.09 1.13 2.12 2.31 3.24 3.42l1.45-.23c.58-.08 1.16-.17 1.75-.23l.5-.26v-.72l-1.2-1.17c-1.21-1.15-2.41-2.28-3.54-3.51-.3-.33-.64-.68-.91-1l-.42-.49c-.24-.31-.47-.62-.7-.94a.12.12 0 1 1 .16-.18A19 19 0 0 0 96 98.17c.25.26.49.53.75.78 1.31 1.28 2.67 2.52 4 3.72v-.18a.29.29 0 0 1-.2-.3 14.55 14.55 0 0 1 .16-1.48c.05-.48.1-1 .15-1.51-.44-.45-.91-.88-1.37-1.31-.69-.65-1.43-1.28-2.14-1.91a32.64 32.64 0 0 1-2.85-2.79.1.1 0 0 1 .15-.13 9.44 9.44 0 0 0 1 1c.38.31.61.6.92.87C97.75 96 99 97 100.19 98c.26.22.5.45.75.69v-.18q.15-1.39.28-2.79l-.36-.27c-.6-.47-1.2-.93-1.78-1.43-.87-.74-1.71-1.5-2.57-2.25-.47-.41-.94-.83-1.39-1.26a.12.12 0 0 1 .16-.18c.25.25.53.48.8.72s.76.68 1.15 1c.63.55 1.27 1.09 1.91 1.62.38.31.77.61 1.16.91s.64.48 1 .71c0-.33.06-.66.09-1 0-.64-.06-1.28-.07-1.93v-1.15l-.32-.13-.09.07a5.74 5.74 0 0 1-.69.53 4.85 4.85 0 0 1-.67.32 5.42 5.42 0 0 1 .48-.55l.34-.27.29-.24a.24.24 0 0 1-.13-.16l-.09-.06c-.33-.23-.68-.43-1-.65a9.83 9.83 0 0 0-1-.51l-.44-.22a.11.11 0 1 1 .08-.19l.34.16a.65.65 0 0 1 0-.15.68.68 0 0 1 .38-.74c-.59-.58-1.16-1.18-1.74-1.77l-3-2.69-6.57-6c-.77-.71-1.52-1.44-2.29-2.15a.15.15 0 1 1 .21-.22c.58.55 1.17 1.08 1.76 1.62l2.12 1.94c1.43 1.31 2.88 2.6 4.31 3.9q-1.21-1.33-2.39-2.71c-.84-1-1.63-2-2.43-3-1.11-1.41-2.12-2.92-3.09-4.43a54.63 54.63 0 0 0 3.91 5.42c1.15 1.38 2.31 2.71 3.53 4 .86.93 1.74 1.84 2.64 2.74.75.68 1.5 1.35 2.24 2l1.22 1.16.11-.06a.18.18 0 0 1 0-.25l.13-.15a.17.17 0 0 1-.14 0 .18.18 0 0 1 0-.25 18.09 18.09 0 0 1 1.32-1.37l-.28-.22-.9.85a.07.07 0 0 1-.1-.11c.29-.27.58-.56.87-.86l-.17-.14a75 75 0 0 1-8.44-8.94c-1-1.23-2.08-2.46-3.14-3.67-.45-.51-.91-1-1.37-1.53 1.1 1.23 2.2 2.45 3.28 3.71l.6.76a49.6 49.6 0 0 0 1.78 2c1.3 1.48 2.64 2.92 4 4.31a44.53 44.53 0 0 0 3.62 3.25l.31-.35.47-.51.37-.42c.1-.5.25-1 .39-1.51a.11.11 0 0 1 .21 0 8.74 8.74 0 0 0-.16 1c.23-.26.45-.53.67-.8a17.16 17.16 0 0 1-2.43-1.69 41.85 41.85 0 0 1-4.66-4.51c-.3-.32-.59-.66-.88-1l-1.68-1.9c-.46-.52-.93-1-1.38-1.55s-1.24-1.35-1.87-2c-.25-.25-.52-.5-.76-.76a.09.09 0 0 1 0-.12h.12c.55.58 1.14 1.12 1.69 1.7 1.19 1.09 2.19 2.25 3.26 3.42s2.34 2.59 3.59 3.8c.6.58 1.2 1.16 1.84 1.69s1.47 1.24 2.27 1.79c.39.27.78.56 1.18.81a21.08 21.08 0 0 0 1.4-1.9c-1.35-1.21-2.56-2.46-3.81-3.75q-1.54-1.61-3.07-3.28-2.27-2.53-4.4-5.19c-.65-.81-1.32-1.65-1.93-2.49h.06c.31.43.65.86 1 1.28.56.71 1.12 1.43 1.71 2.12.79.93 1.57 1.86 2.39 2.77 1.61 1.78 3.27 3.47 5 5.15 1.08 1.06 2.2 2.09 3.31 3.13.53-.79 1-1.6 1.47-2.4l.15-.27a39.89 39.89 0 0 1-4.35-3.66c-1.14-1.08-2.21-2.22-3.28-3.38s-2-2.23-2.93-3.37c-.34-.42-.67-.86-1-1.29s-.72-1-1.08-1.43c.4.52.81 1 1.23 1.5.25.3.52.58.77.88l.53.63c.77.9 1.52 1.79 2.33 2.66a63.78 63.78 0 0 0 5.68 5.46c.56.47 1.13.94 1.72 1.37l.48.36.67-1.2c.27-.53.5-1.07.74-1.61l-.15-.13c-.89-.79-1.8-1.56-2.7-2.35A71.33 71.33 0 0 1 97.42 65a27.58 27.58 0 0 1-1.83-2.33 17.82 17.82 0 0 1-1-1.66.07.07 0 1 1 .11-.07 10.81 10.81 0 0 0 1 1.39 34.56 34.56 0 0 0 4.32 5c1.9 1.83 3.88 3.51 5.88 5.24l2 1.79c.3-.72.56-1.46.82-2.19.15-.43.3-.89.43-1.35Q107 68.88 105 66.89c-.54-.53-1.06-1.07-1.59-1.59-1.21-1.2-2.38-2.47-3.55-3.71s-2.3-2.54-3.44-3.82c1.65 1.86 3.32 3.7 5.06 5.47s3.58 3.55 5.44 5.25l2.26 2 .11-.43c.21-.85.4-1.67.57-2.53v-.07l-1.15-1.12-2.71-2.59a71 71 0 0 1-7.8-8v-.06h.06C101.64 60 106 63.26 110 67c.11-.63.18-1.27.26-1.91q.15-1.28.21-2.56l-1.12-1-2.94-2.63c-2.65-2.36-5.32-4.66-8.15-6.81l1.74 1.3 1.53 1.21c.44.34.87.71 1.3 1.06l3.6 3c1.2 1 2.69 2.24 4 3.37v-2.35c0 .46.06.91.08 1.34v-.28a11.32 11.32 0 0 0-.06-1.42l-.67-.59a28.58 28.58 0 0 0-2.78-2.46c-.7-.59-1.43-1.16-2.14-1.74-1.85-1.51-3.75-3-5.64-4.45 3.1 2.41 6.23 4.79 9.31 7.23l2 1.61v-.22c-.06-.68-.13-1.37-.2-2a.64.64 0 0 1 .25-.59c-.1-.47-.21-.93-.33-1.4a.13.13 0 0 1 0 .18.16.16 0 0 1-.22 0c-.91-.67-1.81-1.39-2.69-2.1-1.9-1.56-3.76-3.16-5.53-4.86.66.65 1.38 1.3 2.08 1.9s1.24 1.06 1.88 1.58c1.3 1.07 2.66 2.07 4 3h.3v-.21a.5.5 0 0 1-.07-.27c-.15-.59-.33-1.19-.52-1.76s-.32-1-.48-1.43h-.08l-2.09-1.94c-.7-.64-1.32-1.18-2-1.76s-1.65-1.42-2.49-2.09-1.5-1.15-2.25-1.73a.15.15 0 0 1 .18-.24c.75.58 1.52 1.14 2.26 1.73s1.34 1.09 2 1.63c1.24 1 2.43 2.07 3.62 3.13L108 49l-.94-1.14a.12.12 0 1 1 .19-.15c.43.55.88 1.08 1.35 1.6-.06-.15-.11-.3-.18-.45-.14-.32-.27-.66-.43-1s-.34-.74-.52-1.09l-.17-.32c-.55-.5-1.11-1-1.67-1.48s-1.07-1-1.62-1.4-.86-.72-1.3-1.06l-.89-.68a.15.15 0 1 1 .13-.27h.05l1.22.93c.39.3.75.62 1.14.92s.73.6 1.08.91l1.24 1.07.17.14c-.15-.27-.31-.54-.47-.81s-.32-.5-.48-.75l-.44-.59a.09.09 0 0 1 0-.1l-.31-.44c-.14-.22-.31-.42-.47-.63s-.29-.39-.45-.57-.4-.5-.61-.73a25.06 25.06 0 0 0-2.14-2.12c-.4-.35-.82-.65-1.23-1a.09.09 0 0 1 .11-.15l.41.32c-.48-.53-1-1-1.44-1.58-.14-.16-.26-.33-.4-.49s-.45-.53-.68-.78c-.43-.48-.89-.93-1.35-1.37a25.77 25.77 0 0 0-3-2.46h-.06l-.78-.4-1.24-.59-1.19-.53c-.28-.13-.57-.23-.85-.36-.72-.31-1.45-.59-2.19-.86-.95-.2-1.91-.41-2.86-.53l-1.49-.16h-.45a2.19 2.19 0 0 0 .14.56v.12l.1.09A.22.22 0 0 1 83 29h-.08v.08a.88.88 0 0 1-.12.19l.08.23a.31.31 0 0 1-.19.39h-.13a1.39 1.39 0 0 1-.35-.14.23.23 0 0 1-.21.25 1.52 1.52 0 0 1-.45-.19 6.11 6.11 0 0 1-.87-.62h-.09l-.31-.08h-.16a2.32 2.32 0 0 1 .08.26.79.79 0 0 1 0 .17.22.22 0 0 1-.34.17 9.57 9.57 0 0 1-1.12-.88l-.08-.08-.54-.11a.19.19 0 0 1-.1.16c-.14.08-.27 0-.38-.12l-.25-.18-.52-.09c-.87-.12-1.87-.25-2.87-.33s-2.24 0-3.35 0h-.45a6.28 6.28 0 0 0-1.7.4 2.09 2.09 0 0 0-.43.23c-.09.07-.25.21-.36.2a.48.48 0 0 1-.32-.33h-.11a.3.3 0 0 1-.1-.08 1.58 1.58 0 0 1-.15-.65V26.4c-.06-.08-.14-.13-.2-.2a.24.24 0 0 1 0-.33.17.17 0 0 1 .2-.06l-.16-.34c0-.09.15 0 .18 0l.2.1a.29.29 0 0 1 .16 0l.09-.19v-.06h-.88l-.56.1-.67.12a16.14 16.14 0 0 0-3 .68l.21.44a3.06 3.06 0 0 1 .19.48 5.53 5.53 0 0 1 .12.8 1.37 1.37 0 0 1-.39-.42 6 6 0 0 1-.54-1.1 8.23 8.23 0 0 0-.89.43.42.42 0 0 1-.54-.63h-.19c.09.21.18.42.25.62l.07.2.11.08 1.06.79a.18.18 0 0 1-.22.29l-.77-.59a1.56 1.56 0 0 0 .09.34c0 .12.07.35.11.53a.15.15 0 1 1-.3.06 2.25 2.25 0 0 0-.12-.56c0-.18-.13-.46-.2-.69a.1.1 0 0 1-.12-.07v-.11l-.44-.34.14.22a.38.38 0 0 1-.63.41c-.17-.24-.33-.49-.49-.74l-1 .31a.09.09 0 0 1 0-.16l1-.31-.07-.1-1.09.27a.08.08 0 0 1 0-.15l1-.25-.6-.86c-1-.72-2-1.44-2.91-2.2-.63-.5-1.23-1-1.84-1.53a.11.11 0 0 1 .15-.17 50.55 50.55 0 0 0 4.08 3.18c-.27-.35-.54-.7-.82-1l-.45-.54-.88-1c-.51-.56-1.08-1-1.63-1.56-.32-.3-.68-.57-1-.84a15.81 15.81 0 0 0-6.35-3 13.77 13.77 0 0 0-1.49-.28l.15.43c.08.23.13.47.21.7s.16.62.23.9c.16.63.3 1.33.4 2s.15 1 .23 1.56a8.89 8.89 0 0 0 .13.88c0 .53.11 1.07.13 1.6 0 .69.07 1.38.08 2.07a2.49 2.49 0 0 1 .64-.33 2.4 2.4 0 0 1-.68.58v.94c0 .67-.06 1.31-.12 2a11.22 11.22 0 0 1-.26 1.66v.21l.34-.22c.66-.41 1.33-.76 2-1.12a2.56 2.56 0 0 1-.55.44l-1.12.82c-.28.2-.54.41-.81.61a.81.81 0 0 1-.09.17l-.13.16a1.61 1.61 0 0 1-.32.26 2.74 2.74 0 0 1-.7.34l-.82.67c-.25.2-.48.43-.72.63s-.46.42-.68.64l-.13.14A37.66 37.66 0 0 1 46 32.45l.64-.4a16 16 0 0 1 1.87-1c-.73.47-1.47 1-2.17 1.45-.38.27-.77.52-1.16.78-.54.37-1.09.77-1.61 1.17-.86.66-1.67 1.34-2.47 2l-1 1.1-.14.17c-.06.24-.12.48-.19.71-.16.52-.3 1-.48 1.54-.1.29-.21.57-.32.85a.17.17 0 0 1-.31-.12c.27-.72.52-1.42.72-2.17v-.18l-.17.21c-.33.7-.66 1.4-1 2.1a.23.23 0 0 1-.43-.13l-1 1.54c-.43.73-.81 1.5-1.18 2.27a.08.08 0 1 1-.15 0 35.57 35.57 0 0 1 2.84-5l.21-.47c-.4.43-.79.86-1.16 1.3s-.83 1.12-1.22 1.68-.69 1-1 1.54c.2-.62 0-.29 0 .08a.33.33 0 0 1 .27 0 .35.35 0 0 1 .1.48c-.25.39-.53.78-.8 1.16a22.09 22.09 0 0 1-1.6 1.9l-.13.33a.67.67 0 0 1-.16 1.11l-.26.12q-.13.45-.24.92a11.48 11.48 0 0 0-.27 1.74 11.28 11.28 0 0 0 0 1.55.18.18 0 0 1-.36 0 12.18 12.18 0 0 1 .12-2.38 13.09 13.09 0 0 1 .3-1.53L32 49a2.82 2.82 0 0 1-.11.55 22 22 0 0 0-.28 4.94.1.1 0 1 1-.19 0 23.49 23.49 0 0 1 .15-4.16l-.26.2-.2.15q-.17.69-.31 1.39a5.26 5.26 0 0 1 .31 1.08 31 31 0 0 1 .17 4.31.34.34 0 0 1 0 .14v.07a.22.22 0 0 1-.36.19l-.05-.06h-.06a.35.35 0 0 1-.22-.32V56.1l-.06-.26c-.06-.26-.14-.52-.22-.78v.2a.07.07 0 0 1-.14 0 1.21 1.21 0 0 1 .07-.5c.07-.16-.12-.38-.17-.58L30 54l-.27 1.16a.09.09 0 0 1-.17 0c.11-.5.21-1 .34-1.5-.17-.66-.33-1.32-.46-2h-.1c-.21.09-.42.14-.64.21l-.42.09a9.47 9.47 0 0 1-1.91.12l-.69.14c-.41.17-.82.31-1.23.45a.12.12 0 0 1-.15-.07.11.11 0 0 1 0-.09.67.67 0 0 1-.3-.06h-.27l-.2.74c-.1.37 0 .1 0 .13a5.53 5.53 0 0 1 0 .61 10.41 10.41 0 0 0 0 1.4.07.07 0 0 1-.14 0v-1c-.08.36-.15.73-.24 1.09a6.38 6.38 0 0 1-.2.79.1.1 0 0 1-.19 0 4 4 0 0 1 .12-.67c.07-.35.15-.69.24-1l.21-.82v-.51a1.14 1.14 0 0 1 .07-.2.75.75 0 0 0 0-.23v-.28h-.31a.22.22 0 0 1-.22-.18h-.14l-.11.16a3 3 0 0 0-.18.34.38.38 0 0 1 .17.39c-.18 1.61-.83 3.15-1.07 4.75a6.93 6.93 0 0 1-.1.7v.72a.3.3 0 0 1-.09.21v1.5c0 .76.08 1.52.15 2.28a10.17 10.17 0 0 0 .15 1.34.59.59 0 0 0 0 .15 47.92 47.92 0 0 1 .79-7.36.1.1 0 1 1 .19 0 51.58 51.58 0 0 0-.84 9c.41.42.84.83 1.26 1.25.85.84 1.74 1.68 2.63 2.47l1.19 1.05H27a17.29 17.29 0 0 1 1.56.76c.31.17.64.36.94.56h.1l.08.08a13.19 13.19 0 0 1 1.2.93l-.2-.53-.1-.08c-2.48-2.13-5-4.3-7.32-6.56a.08.08 0 0 1 .08-.14c1.09 1.06 2.24 2.09 3.39 3.09s2.26 2 3.66 3.13l-.23-.71a5.7 5.7 0 0 1-.19-.66c-.36-.74-.69-1.51-1-2.27a16.21 16.21 0 0 1-1.5-1.46.38.38 0 0 0 0 .07v1.29-.27a7.42 7.42 0 0 1 0-1.05 19.67 19.67 0 0 1-1.57-1.59.1.1 0 0 1 .15-.14c.47.51 1 1 1.47 1.48 0-.12.08-.27.13-.28a3.49 3.49 0 0 1 .3.32c.25.28.52.58.77.88a.07.07 0 0 1 .1 0l.2.49v.07L30.67 70q-.12-.59-.22-1.18l-.18-1.09a22.4 22.4 0 0 1-.84-.85c-.78-.83-1.57-1.63-2.37-2.43a.1.1 0 0 1 .12-.16c.21.22.44.43.65.64.39.37.77.78 1.15 1.16l1.21 1.21V67a.89.89 0 0 0 .07.42c.39.37.79.73 1.21 1.07v-.4a1.39 1.39 0 0 1 .08-.54v1a5 5 0 0 0 1 .77.17.17 0 0 1-.19.28l-.11-.07c.1.53.2 1.06.31 1.58l.17.82.25.21a.19.19 0 0 1-.15.32 23.06 23.06 0 0 0 1.73 5.36l.32.49.38.62a11 11 0 0 0 .85 1.14 7.3 7.3 0 0 0 2.09 1.7 7.77 7.77 0 0 1-1.46-1c.51.62 1 1.21 1.58 1.8A38.64 38.64 0 0 0 42.17 86c.3.25.6.5.91.73a7.92 7.92 0 0 1 1 .79 5.79 5.79 0 0 1-.9-.57l-.65-.46c.13.33.27.65.38 1s.26.83.36 1.24c.73.62 1.46 1.23 2.23 1.8a1.87 1.87 0 0 1-.48-.25c-.34-.2-.67-.42-1-.63l-.64-.44.09.37v.26l.14.12a12.69 12.69 0 0 0 1 .84l.08.08.65.39v.05l-.52-.3a.58.58 0 0 1-.89.68l-.18-.13v.28l.58.38c.23.14.47.3.71.42a.14.14 0 0 1-.13.24c-.28-.15-.57-.28-.85-.44l-.26-.15v.26a10.94 10.94 0 0 1 .74 1.89.22.22 0 0 1-.43.13c-.09-.25-.16-.51-.24-.77v1.86c0 .63 0 1.45-.07 2.17 0 1-.11 1.9-.19 2.86v3.43a23.65 23.65 0 0 0 2.34.8c1.45.43 2.92.83 4.39 1.16.64.15 1.33.32 2 .43l-.3-.2a29 29 0 0 1-3.89-3.1.09.09 0 0 1 .12-.13 26.19 26.19 0 0 0 4.28 3.27l.46.28c.45.06.88.14 1.34.18zm.5 0h.23a4.39 4.39 0 0 0 .38-.39l-.39-.23-.25.64zm42.84-.29h.09c.1 0 0 .06-.17 0zm3.78-.78a.32.32 0 0 1 .28 0v-.5l-.49.29a13.21 13.21 0 0 1-1.8.83l2-.69zm-45.8.4zm-.24-.2h.36l.07-.14c.2-.43.39-.88.55-1.33l-.47-.31c-.27.57-.53 1.15-.77 1.74l.17.09a.1.1 0 0 1 .06-.13zm39.78-5.2c-.56-.6-1.12-1.21-1.7-1.79l-.75-.72a.09.09 0 0 1 .12-.13c.55.54 1.12 1.06 1.66 1.63l1.2 1.25a18.06 18.06 0 0 0 3.43 2.91.16.16 0 0 1-.18.27 20.28 20.28 0 0 1-3.8-3.5zm-38.37 2.51c.11-.33.23-.72.31-1.07V102l-.09-.07q-.53 1-1 2l.45.28zm45 .84v-.46l-.31.17a.56.56 0 0 1 0 .16.24.24 0 0 1-.34 0h-.07l.13.07zm-1.28-.36l.11-.06a3.67 3.67 0 0 0 .28-1c0-.72-.05-1.43-.06-2.15v-.48c-.08.69-.17 1.38-.21 2.07a.29.29 0 0 1 0 .11v.59l.14.12a.21.21 0 0 1-.16.37v.39zm-44.36-1.33l-.46.74-.21.37.1.06.61-1.17zm45.62.66v-1.71c-.08.32-.16.62-.24.92a1.2 1.2 0 0 0 0 .54v.38zm-45.79-1.18l.35-.51-.08-.06v.08zm.54-.79l.45-.65.59-.78.07-.42H58l-.46.72c-.22.35-.45.73-.66 1.1l.11.08zm2.72-4h-.17l-.44.59-.1.57zm-16-1.29v-2.78l-.1-.27-.17-.42a6.28 6.28 0 0 0 0 .67v3.73c0 .5.06 1 .09 1.48a17.77 17.77 0 0 0 .23-2.41zm24.54 2a30.24 30.24 0 0 1-3.43-.23c-.79-.09-1.56-.21-2.34-.34-.62-.1-1.26-.23-1.88-.39l.09.06c.41.1.83.2 1.25.28a31 31 0 0 0 6.33.59zm15-1.06l-1.69.22zm.65-.08l-.57.08zm1.4-.19zm-18.77-.27h-.2l-1.23.05 1 .16h.69zm-.14-.13l-.3-.3-.5-.05c-.59-.07-1.19-.15-1.78-.24l.72.65 1.82-.08zm1.71-.11l.44-.05h-2.07l.26.25zm-4.61-.32l-.26-.23q-.8-.14-1.59-.31l-.22.37c.68.19 1.36.35 2 .49a2.36 2.36 0 0 1 .45.06zm-2.24.13zm0 0l-.43-.11.43.1zm1-1.25l-.22-.23-.1.19-.24.42 1.22.2zm25.24.21l-.32-.29c-.38.17-.76.34-1.14.49zM43.55 91.4l-.08-.07v.13l.07.2h.06zm-1.2-.08h-.07l.06.24v-.24zm49.49-1.63l-3.27-3c-1.7-1.54-3.42-3.06-5.08-4.63s-3.07-2.93-4.5-4.5a.1.1 0 0 1 .14-.13 89.69 89.69 0 0 0 3.36 3.4c3.71 3.54 7.71 6.76 11.44 10.28a.18.18 0 0 1-.19.3c-.69-.54-1.24-1.11-1.86-1.68zm9.39 1.17zm-58.88-.54l-.46-.44.21.63.3.26zm58.87.06l-.13-.11-.16.35zm-5.72-2c-.58-.53-1.17-1.06-1.73-1.6-.88-.84-1.77-1.67-2.64-2.52-2.94-2.84-5.84-5.78-8.49-8.9a.08.08 0 0 1 .12-.11A110.88 110.88 0 0 0 92.3 85l3.58 3.28c.76.69 1.53 1.37 2.26 2.09a.16.16 0 0 1-.22.24c-.82-.74-1.63-1.5-2.43-2.24zm5.25 1.53l-.64-.55a2.54 2.54 0 0 1-.93.35 4.21 4.21 0 0 1 .86.45l.48.31zm.5.07l-.06.14.06.06V90zm-59.72-.21l-.13-.37c-.57-.6-1.12-1.23-1.64-1.84q-.47-.54-.92-1.1l-.08-.09c-.25-.25-.49-.5-.73-.76.35.56.72 1.12 1.11 1.66a19.2 19.2 0 0 0 2.52 2.84zm59.54-.55l.16-.33v-.43l-.48.45q-.21.18-.44.34l.53.51zm-58-.18l-.65-.49a.29.29 0 0 1-.14.15c.3.31.61.62.92.91zm-.41-1.44c-.13-.39-.29-.77-.44-1.16a.09.09 0 0 1 0-.1 33.28 33.28 0 0 1-3.39-3 34.18 34.18 0 0 1-2.57-2.91l-.47-.62-.46-.61-.14-.2c-.14-.18-.29-.37-.42-.56l-.16-.25q.54 1 1.12 2l.37.21h-.24q1.17 1.93 2.52 3.75.86 1 1.78 1.89c.74.75 1.55 1.46 2.34 2.15l.41.35a3.35 3.35 0 0 0-.2-.95zm58.14-.75l-.06.06zm2-1.15l.54-1-.28.21-.9.67a.58.58 0 0 1 .19 0l.16.09.06.07a.8.8 0 0 1 .11.16zm-1.39-.27a5.66 5.66 0 0 1 .12-.81c-.23.26-.47.51-.71.76l-.22.22.17.13.13.1zm.42-.32h.06L102 85l.37-.4c.62-.68 1.25-1.41 1.83-2.13l.83-1-.56-.5c-.5.71-1 1.39-1.57 2.07-.3.38-.62.76-.95 1.13a.78.78 0 0 1-.06.37 2.86 2.86 0 0 0-.05.57zm2.2-1.73zm-68.44-1.29a1.36 1.36 0 0 1-.16-.23l-.15-.22.18.26.16.23zm69.73-1l.53-1c.28-.52.55-1.07.82-1.6l.18-.36-.42-.28c-.3.54-.63 1.06-.94 1.59s-.47.75-.72 1.11l.55.53zm0 0zm2.93-6l-.32-.29c-.32.75-.7 1.48-1.06 2.2l-.27.52.4.29c.43-.81.85-1.71 1.24-2.63zM34 76.56a28 28 0 0 1-1.3-4.27l-.91-.86v.06l.08.54.05.16v.09a.3.3 0 0 1 .19.18A26.12 26.12 0 0 0 34 76.59l.13.23zm-1.7-2l.06.24a5.44 5.44 0 0 0 .49 1c-.13-.36-.32-.8-.51-1.2zm76.33-.67c.22-.64.4-1.3.58-1.95.08-.28.15-.56.22-.84l-.08-.1-.14.46c-.07.22-.14.45-.22.67s-.18.53-.28.8c-.2.53-.42 1.05-.63 1.58l.31.27zM30 74.74zm.91-.15v.08l.24.18c-.09-.15-.22-.29-.26-.26zm79.7-2.26a1.36 1.36 0 0 0 .09-.34.17.17 0 0 1-.11.06c-.11.39-.22.79-.34 1.18l.33-.9zm-88.93.86l.24-.19v-.28a2.4 2.4 0 0 1-.31-.35l-.1-.13a7 7 0 0 0 .19.89zm9.71-.58v-.13l-.39-.64-.15-.29.37.82.26.56zm.39-.22l-.05-.63-.13-.37-.06-.22-.41-.37q.23.9.5 1.78c0-.12 0-.2.12-.19zm-4.25-.11l-.75-.33a9.37 9.37 0 0 0-.89-.31v.06a.21.21 0 0 1 0 .18l.45.24.81.12.41.07zm-5-.35l-.53-.07a.22.22 0 0 1 .27 0l.09.05zm88.84-2.4c.14-.71.25-1.44.33-2.16v-.82a4 4 0 0 1-.14.75l-.1.65c-.1.65-.23 1.29-.37 1.93s-.27 1.22-.43 1.83a.19.19 0 0 1 0 .25 20 20 0 0 0 .69-2.43zm-80.57 1l-1.09-1 .19.27c.32.45.61 1 .89 1.43l.36.62q-.21-.68-.37-1.37zm1.3-1.18l-.43-.35v.65c0 .44.05.87.09 1.31l.82.73c-.17-.8-.34-1.59-.5-2.39zm-8.81 2.14a.33.33 0 0 1 0-.19l.07-.1-.13-.09a.59.59 0 0 1-.12-.11v-.06l-1.28-1.11a16.83 16.83 0 0 0 .17 1.73l.79.07h.38zm2.34.06l-.49-.14H25l.43.24zm-4-.71q0-.63-.08-1.25l-.43-.38v.85a6.3 6.3 0 0 0 .5 1.35 1.54 1.54 0 0 0 0-.56zM23 68.09L21.94 67l-.21-.21q0 1.25.07 2.5v.16l.86.74.45.39a.3.3 0 0 1 .19-.15 1.16 1.16 0 0 1 .28 0 4.5 4.5 0 0 1 .58.06 4.63 4.63 0 0 0-.05-.83.16.16 0 0 1 .31 0c0 .28.05.58.05.86v.06l.53.12a11.19 11.19 0 0 1 1.16.37C25.09 70.1 24 69.1 23 68.09zm8.61 2.72l-.07-.88v-1.12a8 8 0 0 1-.9-.73l-.22-.21v.24c.14.72.31 1.42.49 2.13l.27.23.11.09c-.16-.64-.31-1.28-.42-1.93.11.59.24 1.19.4 1.79l.09.28.13.11zM30 70.75a.31.31 0 0 1 .33-.15c-.13-.23-.27-.46-.41-.67l-.43-.63-.08-.07-.15-.14c.24.57.48 1.14.73 1.71zm79.74-.75c.06-.26.11-.53.16-.8.09-.46.17-.92.22-1.38-.18.92-.4 1.82-.65 2.74v.09l.11.1c.04-.24.1-.49.16-.75zM21.5 66.77v-.19l-.29-.3a.09.09 0 0 1 .13-.13l.15.17v-.18a.33.33 0 0 1-.33-.22 1.57 1.57 0 0 1-.09-.29v3.27l.43.37c.01-.83-.01-1.66 0-2.5zm7.27 1.6L27.61 67l-.09.19 1.27 1.15zm3.07-2.44c-.37-.31-.74-.62-1.11-.95a7.87 7.87 0 0 1-1-1c-.29-.37-.55-.51-.79-.79a.08.08 0 1 1 .12-.11 17.89 17.89 0 0 0 1.48 1.41c.41.37.83.69 1.24 1a7.1 7.1 0 0 0 .72.53.12.12 0 0 1-.13.19 4.24 4.24 0 0 1-.53-.27zm-8.4.18v-.45a2.29 2.29 0 0 0-.08-.67 24.79 24.79 0 0 1-.12-2.79v-1.78c0-1.65.07-3.3.21-4.94a.3.3 0 0 1 .32-.27h.12v-.11c.13-.7.27-1.4.45-2.09a.2.2 0 0 1 .38.09 32.47 32.47 0 0 0-.9 6.63v2.86a15.62 15.62 0 0 0 .1 2.16c0 .4.08.81.11 1.21a.31.31 0 0 1-.6.16zm87.14-1.9c.08-.46.06-.18 0 .11a.46.46 0 0 1 0-.1zm1.69-2.91v-.46zm-.41-3.72zM111 55.5a1.14 1.14 0 0 0-.07-.3l.07.31zm-66.59-.33a4.72 4.72 0 0 1-3.56-3.31.28.28 0 0 1 .2-.34h.06v-.21a3.29 3.29 0 0 1 0-.7c-.19-.21-.37-.44-.56-.64a4.16 4.16 0 0 0-.44-.45 2 2 0 0 0-.37-.24.62.62 0 0 0-.46-.18h-.2a.54.54 0 0 1 .2.08.49.49 0 0 1 .2 0l.15.06.11.07a.38.38 0 0 1 .29.11l.42.34c.14.12.45.46.68.69a2.56 2.56 0 0 1 .1-.44 3.52 3.52 0 0 1 .56-1l.11-.14-.16-.18c-.37-.42-.74-.84-1.14-1.23-.23-.23-.46-.44-.7-.66s-.34-.27-.5-.4a.1.1 0 0 1 .12-.15l.7.57c.18.16.4.36.57.54.41.44.83.85 1.23 1.3a4 4 0 0 1 .35-.48 3.73 3.73 0 0 1 .56-.56l-.16-.14c-.25-.23-.51-.49-.75-.74s-.39-.39-.59-.58-.17-.13-.2-.18a.08.08 0 0 1 .11-.12l.2.18a2.61 2.61 0 0 0 .24.23 3.92 3.92 0 0 1 .29.29l.64.62.36.34.31-.21a4 4 0 0 1 1.62-.66h.68a4.4 4.4 0 0 1 .81.13 2.76 2.76 0 0 1 .41.14 3.93 3.93 0 0 1 1.07.65 2.37 2.37 0 0 1 .28.27 4.21 4.21 0 0 1 .58.76 3.91 3.91 0 0 1 .26.51 4.25 4.25 0 0 1 .36 1.32h.06a.25.25 0 0 1 0 .49 4.16 4.16 0 0 1-.17 1.23 3.62 3.62 0 0 1-.23.57l-.11.18.16-.25c0 .12 0 .23-.16.27a3.61 3.61 0 0 1-1.58 1.87A2.81 2.81 0 0 1 47 55a4.27 4.27 0 0 1-1.65.27 4.57 4.57 0 0 1-.94-.1zm.66-.93c-.13-.1-.26-.2-.38-.31h-.63a3 3 0 0 1-.81-.26 2.57 2.57 0 0 1-.55-.33 4.65 4.65 0 0 0 .86.68l.6.32a4.62 4.62 0 0 0 1.27.16 2 2 0 0 1-.36-.26zm1.09.13zm-2-.08zm2.89-.51v-.08l-.05-.25-.35-.25h-.06a5.29 5.29 0 0 1-.52.32l.15.06.48.18c0 .07.19 0 .35 0zm64.44-1.45a4.76 4.76 0 0 0-.18-1c-.07-.31-.13-.58-.18-.86a.18.18 0 0 1 .09-.2 18.48 18.48 0 0 1-1.58-1.84c-.34-.43-.68-.86-1-1.28a8.53 8.53 0 0 0-.69-.79l-.08-.07.18.41.24.2a.2.2 0 0 1 0 .27l.31.76.06.11c.17.29.32.64.48.94.28.57.53 1.16.77 1.75l.32.34.38.42q-.12-.66-.27-1.32a.13.13 0 0 1 .09-.15.16.16 0 0 1 .2.11c.2.69.43 1.37.62 2.06v.13a.18.18 0 0 1 0 .17q.16.59.3 1.18a4.79 4.79 0 0 0-.06-1.35zM45 53.46l-.09-.11-.5-.35-.24-.19.43.46zm65.19-.07c-.11-.39-.21-.78-.32-1.17s-.21-.67-.31-1l-.2-.63a25.85 25.85 0 0 1 .87 2.82zm2.78-.21l-.07-.34-.19.43-.07.14.3-.24zm-69.14.17a3.45 3.45 0 0 1-.83-1.11l-.4-.24a.19.19 0 0 1-.08-.26.19.19 0 0 1 .16-.1 3.1 3.1 0 0 1-.08-.38 2.63 2.63 0 0 1 0-.63 2.35 2.35 0 0 1 .24-.76c-.11-.13-.22-.26-.31-.39l-.23-.3-.18.23a3.47 3.47 0 0 0-.23 1.28 2.92 2.92 0 0 0 .08.59 2.63 2.63 0 0 1 .2-.33.15.15 0 0 1 .25.15 2.51 2.51 0 0 0-.29.53v.08a2.4 2.4 0 0 0 .26.48l.24.3.27.26.16.13a2.74 2.74 0 0 0 .62.36zm3.77-.06l-.11-.29q-.09-.21-.18-.39v-.06l-.17.16a2.85 2.85 0 0 1 .2.38l.25.14zm-1.28-.34A18.37 18.37 0 0 1 45 51.62l-.51-.53-.19-.18-.12-.13-.06-.06a.2.2 0 0 1 .26-.28l.65.42.68.48a5.32 5.32 0 0 1 1.2 1.12l.17-.16v-.08l-.26-.35-.24-.18a13.37 13.37 0 0 1-1.13-1.08c-.19-.21-.41-.42-.59-.63s-.29-.26-.19-.43a.17.17 0 0 1 .13-.08c.13 0 .2.09.29.16s.38.32.55.48A16.1 16.1 0 0 1 47 51.46l.08.1.29.22.15.1c.16-.18.31-.37.47-.58a.9.9 0 0 0 0-.43v-.15a8.19 8.19 0 0 0-1-.94 7.57 7.57 0 0 1-.6-.53 2.51 2.51 0 0 1-.28-.27.18.18 0 0 1 0-.09 2.28 2.28 0 0 0-1.58.14 2.62 2.62 0 0 0-.56.39l-.17.16-.28.38-.08.14.07.07a.13.13 0 1 1-.17.19 2 2 0 0 0 0 1.27.2.2 0 0 1 .25 0 7.87 7.87 0 0 1 .76.54l.29.23c.12.09.22.2.34.3l.18.18.06.07.35.22.17.1a4.13 4.13 0 0 0 .55-.32zm66-.36q.18-.42.33-.86c-.14-.5-.31-1-.49-1.49a.15.15 0 0 1 .28-.1c.07.21.16.42.24.63l.15.43c.1-.32.19-.63.28-1a.2.2 0 0 1-.21 0 48.37 48.37 0 0 1-3.35-3.62c-.39-.48-.73-1-1.09-1.48a.17.17 0 1 1 .27-.19c.32.47.65.94 1 1.37s.69.8 1 1.2c.51.59 1.11 1.15 1.66 1.69l.66.65-.1-.4a.14.14 0 0 1 .1-.17.12.12 0 0 1 .15.08 10.35 10.35 0 0 0 .39-1.77.1.1 0 0 1 .2 0 12.41 12.41 0 0 1-.26 3.16c.05.24.11.47.17.71l.09.36a10.67 10.67 0 0 0 .7-2.8c.09-.64.18-1.32.21-2a6.89 6.89 0 0 0-.06-1.12v-.16a.37.37 0 0 1-.15-.34 2.12 2.12 0 0 1 .05-.31 4.41 4.41 0 0 1-.42-.38l-.36-.37a7 7 0 0 0 .06 1.12c.06.37 0 .7.05 1a.18.18 0 0 1-.35 0 9.06 9.06 0 0 0-.23-1.4c-.06-.25-.16-.5-.23-.75s-.18-.8-.3-1.2l-.22-.14-1.47-1.73a.13.13 0 0 1 .19-.17c.37.44.76.87 1.14 1.31v.06l-.12-.25a3 3 0 0 1-.24-.54 1.33 1.33 0 0 1 0-.19.71.71 0 0 1-.53-.41c-.05-.08-.09-.22-.14-.32s-.22-.46-.35-.68a5.56 5.56 0 0 0-.51-.77c-.07-.08-.16-.16-.23-.25l-.16-.15a4.42 4.42 0 0 0-.8-.58.18.18 0 0 1-.22 0 4.26 4.26 0 0 0-1-.4 1.53 1.53 0 0 1-.47-.11l-.17-.06a8 8 0 0 1 .71.64 9.87 9.87 0 0 1-1.16-.82 2 2 0 0 0-.61.46 3.18 3.18 0 0 0-.63 1.19.29.29 0 0 1-.13.15l.26.5.63.81.27.13a.16.16 0 0 1 .07.21h-.07c.17.23.33.48.51.71a9.53 9.53 0 0 0-.68-.68h-.07a24.83 24.83 0 0 1 1.13 2.39.09.09 0 0 1-.15.08l-.34-.47a.7.7 0 0 1-.44.83h-.11q.45.83.86 1.67l.35.31a13.84 13.84 0 0 1 1.24 1.37 20.51 20.51 0 0 0 3 3.29.19.19 0 0 1-.24.29l-.36-.29c.11.55.25 1.1.34 1.66.05.35.1.7.15 1a2.69 2.69 0 0 0 .28-.54zm-1.43.57v-.26l-.12-.73-.48-.58c.14.37.28.74.41 1.12l.19.48zm-87.31-.7h-.11v.28zm24.42.12l-.13-.07.09.16v.08zm65.65-.31c-.05-.32-.11-.65-.17-1q-.12.44-.27.88l.11.32.08.23q.12-.21.21-.43zm-65.5-.61l-.28.36.24.12a3.35 3.35 0 0 0 0-.48zM30.89 51c-.08.23-.16.46-.23.69l.07.14a7.44 7.44 0 0 1 .16-.83zm-.17-.07l-.41.26.1.13.12.19zM49 51v-.19h-.09zm0-.77v-.15l-.06.13h.13zm-18.27-.09l.31-.25v-.06l-.38.37zm17.93 0l.16-.35v-.13a4.33 4.33 0 0 0-.82-1.44 3.41 3.41 0 0 0-1.08-.79l-.47-.17-.67-.12h-.3a3.41 3.41 0 0 0-2 .58h.07a4.08 4.08 0 0 1 2.65 0 3.75 3.75 0 0 1 1.56 1 3.93 3.93 0 0 1 .81 1.36v.06h.09zm-16.88-1l-.11.1v.54a1 1 0 0 1 0 .34c0-.72.06-.83.07-.94zm11.57 0l.09-.08a.3.3 0 0 1-.15-.11.31.31 0 0 1 .06-.43l.31-.22.11-.07-.28.09a3 3 0 0 0-1 .66l.53.61a2.74 2.74 0 0 1 .29-.37zm72.93-1.71a.08.08 0 1 1 .13-.08l.06.16.09.14.1.13.09.14.09.14.08.14.09.14v.18c-.31-.06-.51-.76-.76-1zm-84.07-.36l.1-.35.09-.32a1.08 1.08 0 0 0-.12.3 6.1 6.1 0 0 0-.18.5zM111 44.81c-.19-.26-.39-.53-.6-.78s-.25-.33-.39-.47l-.45-.44-.29-.24a.12.12 0 1 1 .11-.21l.31.26a6.3 6.3 0 0 1 .75.78c.2.26.42.51.61.78a8.08 8.08 0 0 0 2.38 2.37.17.17 0 0 1-.18.29 8.16 8.16 0 0 1-2.25-2.34zm-65.07 1.83l-1.21-1.21zM34.12 44v-.09l.22-.51c-.11.15-.21.3-.31.46a11.36 11.36 0 0 0-1.16 2.22A20.84 20.84 0 0 1 34.12 44zm72-.22v-.06a.68.68 0 0 1-.26-.34l-.17-.48c-.31-.59-.63-1.19-1-1.78l-.6-.93c-.2-.31-.4-.62-.62-.92a5.24 5.24 0 0 0-.1.61.18.18 0 0 1-.35-.06 3.15 3.15 0 0 1 .09-.58.34.34 0 0 1-.11-.24 1.7 1.7 0 0 1-.09-.64l-.12-.16a4.5 4.5 0 0 0-1.34-.54 3.52 3.52 0 0 0-.47-.07h.27a4.47 4.47 0 0 1 1.39.44c-.35-.47-.69-.93-1.06-1.39l-.92-1.11-.1-.08-.24-.17a26.34 26.34 0 0 0-2.9-1.8l.62.59c.2.2.52.53.76.79l.5.58a8.6 8.6 0 0 1 .84 1.1 10 10 0 0 1 .53 1c.13.27.24.54.36.81l.3.24.76.66a21.38 21.38 0 0 1 2.38 2.54c.4.48.77 1 1.13 1.51l.62.91c.19.25.38.51.56.77-.26-.4-.43-.76-.62-1.1zm8.11-.29c-.12-.54-.26-1-.43-1.57-.06-.18-.11-.37-.19-.55s-.25-.23-.36-.35a.13.13 0 0 1 .12-.22c-.08-.2-.16-.4-.25-.6s-.12-.28-.19-.41l-.35-.66-.06-.11-.16-.12-.5-.35a7.38 7.38 0 0 0-.73-.43 5.49 5.49 0 0 1 1.06 1.19 8.5 8.5 0 0 1 .59 1.12.72.72 0 0 1-.25.88l.08.08a1.73 1.73 0 0 1 .24.44c.11.25.21.47.31.73s.26.67.36 1a5 5 0 0 0 .91 1 7.31 7.31 0 0 0-.15-1zm.78.06l.07-.19a2.62 2.62 0 0 0-.16-.67l-.22-.22.09.32c.06.24.12.49.16.73zm.68-1.55c.18-.43.34-.87.5-1.31v-.44l-.06-.25c-.05-.19-.11-.38-.17-.56s-.23-.63-.36-.94l-.4-.37a4.81 4.81 0 0 0-.56-.42c-.16-.1-.35-.18-.5-.27a.12.12 0 0 1 .11-.22c.15.1.34.18.5.27a5.26 5.26 0 0 1 .58.42c-.16-.31-.33-.62-.51-.92a8.64 8.64 0 0 0-.6-.88c-.11-.14-.21-.29-.33-.42s-.41-.47-.65-.69l-.34-.29h-.44a1.47 1.47 0 0 0-.3 0H112a.19.19 0 0 1-.11.07l-.24.06a2.08 2.08 0 0 0-.79.76 2.44 2.44 0 0 0-.12.63 8.58 8.58 0 0 1 2.62 2.87 6.7 6.7 0 0 1 1.26 1.55 7.69 7.69 0 0 1 .6 1.52 1.73 1.73 0 0 0 .11.37v.12zm-1.06-.32c0-.11-.1-.21-.14-.32l-.22-.45-.16-.27a11.59 11.59 0 0 1 .48 1.36l.21.22a3.17 3.17 0 0 0-.17-.52zm-80.46.23c.11-.21.21-.41.32-.6l-.29.57zm2.6-4.15a.26.26 0 0 1-.17-.3l-.06.09c-.32.5-.6 1-.9 1.54-.21.36-.42.75-.6 1.12l-.37.78a22.67 22.67 0 0 1 2.1-3.22zm67.38 1.76l-.3-.5-.14-.12.61 1 .12.22a2.71 2.71 0 0 0-.3-.59zm-65.69-.91a4.44 4.44 0 0 0-.64.83zm67.17-.5a3 3 0 0 1 .57-.67l-.93-.13h-.53a1.63 1.63 0 0 0-.33.08c.19.27.37.56.54.83l.34.55a3.73 3.73 0 0 1 .34-.65zm-67 .27l-.18.23c.08-.07.11-.07.06 0zm78.08-.3a3.51 3.51 0 0 0-.06-.67v-.19a.72.72 0 0 1-.83-.36c-.1-.16-.18-.33-.28-.49a3.74 3.74 0 0 0-1.35-1.28 10.29 10.29 0 0 1 .73.89c.11.15.2.31.31.45a3.48 3.48 0 0 1 .27.44 8.78 8.78 0 0 1 .54 1l.24.53a.68.68 0 0 1 .44-.32zM102.93 38l-.63-1-.69-.58-.17-.14c.39.47.78 1 1.15 1.45l.31.41zm7.81-1.06v.49l.18.08a7.17 7.17 0 0 1 .82.45 6.3 6.3 0 0 0-1-1zm-69.8-1a.45.45 0 0 1-.2-.14l-.74.92-.07.33c.31-.35.65-.73 1.01-1.11zm68.74.35l-.2-.09a4.18 4.18 0 0 0-.59-.19.22.22 0 1 1-.43-.1h-.36l.08.14.44.74a5.46 5.46 0 0 1 1.07.2 5.56 5.56 0 0 1 0-.7zm-70.57-1.14c.28-.26.58-.48.88-.71.11-.68.19-1.36.25-2-.42.5-.83 1-1.23 1.55s-.91 1.2-1.32 1.81l-.06.1a5.6 5.6 0 0 1-.14 1 17.26 17.26 0 0 1 1.62-1.75zM108 36.77h.12l-.28-.64-.11-.23h-.54a4 4 0 0 0-.73.15l-.7.23h-.11l.27.2h.22a10.41 10.41 0 0 1 1.75.19zm-2.5-.33l-.16.09h.33zm.14-.06zm11.42-.61v-1.12a.2.2 0 1 1 .4 0v1.12a.2.2 0 0 1-.39 0zm-7-.68a3.09 3.09 0 0 1 1.09-1.19 1.49 1.49 0 0 0-.53.07 2.1 2.1 0 0 0-.6.33 2.48 2.48 0 0 0-.56.61 4.07 4.07 0 0 0-.36.67 5 5 0 0 1 .7.21 3.53 3.53 0 0 1 .2-.7zm-71.46-1a25.44 25.44 0 0 1 1.71-2c.08-.89.13-1.79.18-2.68.1-2.12.14-4.27.14-6.39v-1.1a.13.13 0 0 1-.07-.14 12.45 12.45 0 0 1 .13-1.56c.07-.56 0-.88.08-1.32l-1.9-1.11c-.4-.23-.82-.46-1.24-.68a5.73 5.73 0 0 0-1.17-.11H36v.71l.08.46h.12a.61.61 0 0 1 .57.64 37.78 37.78 0 0 0 .56 7.11c0 .43.13.86.17 1.29s.07.69.09 1c.07.86.12 1.73.16 2.59v2.29a7.78 7.78 0 0 1-.1 1.22 4.62 4.62 0 0 1-.07 1 7.27 7.27 0 0 0 1-1.19zm3.84.34a6.61 6.61 0 0 0-.69.44l-.18.14v.29a8.4 8.4 0 0 1 .84-.85zm1.32-1.18a.31.31 0 0 1 0-.56 6.3 6.3 0 0 0 1.16-.69H45v-.07l.18-.68a11 11 0 0 0 .2-1.28v-.12l-.11.18a6.07 6.07 0 0 0-.41.71.17.17 0 0 1-.3-.13 3.8 3.8 0 0 0 .21-.69.87.87 0 0 1 0-.36 2.25 2.25 0 0 1 .09-.25 1.39 1.39 0 0 1 .14-.41 2.15 2.15 0 0 0 .1-.31.41.41 0 0 0 0-.16 1.45 1.45 0 0 1 .09-.24.29.29 0 0 1 .08-.24.66.66 0 0 0 .09-.09.28.28 0 0 1 .07-.12v-.33l-.4.3a.08.08 0 1 1-.09-.12 5.07 5.07 0 0 0 .46-.35 27.68 27.68 0 0 0-.09-3.24c-.07-.77-.12-1.55-.22-2.31a27.32 27.32 0 0 0-.79-3.9 2.33 2.33 0 0 0 0 .55.23.23 0 0 1-.46 0v-.06h-.08a.13.13 0 0 1-.12-.14v-.54a.85.85 0 0 1-.06-.25s0-.1.09-.11 0-.06 0-.08v-.74h-.21v.36c-.06.46-.1.93-.15 1.39-.11.83-.18 1.83-.31 2.72-.19 1.51-.37 3-.56 4.54-.09.78-.17 1.58-.27 2.36S42 29.08 42 29.73h.08l.16.25v.61l-.07.19v-.07a.38.38 0 0 1 .1.4c0 .09-.19.11-.24.24a.23.23 0 0 1-.14.14 5 5 0 0 1-.09.94 8.52 8.52 0 0 1-.08.87 2.88 2.88 0 0 1 .7-.34h.26a2 2 0 0 1 .79.21.19.19 0 0 1 .22.14.2.2 0 0 1 0 .06zm9.39-1.35a6.71 6.71 0 0 1-.83-.84 3.73 3.73 0 0 0-1.23-1 2.2 2.2 0 0 0-.42-.12h-.28a2.11 2.11 0 0 1 1 .26c.85.52 1.42 1.46 2.3 1.89a.12.12 0 1 1-.08.23 4 4 0 0 1-.46-.38zm-2-6.48v-.06h.06A68 68 0 0 0 59.33 32a.12.12 0 0 1-.14.19 76 76 0 0 1-8-6.75zm3.53 5.29a20.91 20.91 0 0 1-1.85-1.58l-2.09-1.87a.07.07 0 0 1 .09-.1q.89.81 1.8 1.59a35.24 35.24 0 0 0 3.88 3 .12.12 0 0 1-.14.2c-.59-.38-1.14-.79-1.7-1.22zm-13.94.84v-.16c0-.26.11-.53.15-.79s.09-.5.13-.75 0-.59.07-.89q.15-1.8.28-3.61c0-.5-.08-1-.11-1.52v-.75c0 .6-.06 1.19-.08 1.79 0 1.38-.13 2.76-.22 4.13-.06.86-.12 1.72-.24 2.57zm1.37-.79zm13.94-4C55 25.84 54 24.92 52.91 24l-1-.81a.1.1 0 0 1 .12-.15c.64.54 1.29 1.06 1.94 1.6 2 1.7 4 3.48 6 5.22a.15.15 0 1 1-.2.23c-1.26-1.09-2.48-2.18-3.77-3.3zM91.95 30l-.48-.2.17.09.41.18zm-12.36-1zm7-.71c-.48-.17-1-.32-1.43-.47l-.7-.22-1.85-.51a.71.71 0 0 0 0 .1 3 3 0 0 0 .11.58c.63.07 1.25.16 1.87.25s1.4.19 2.09.31zm-18.7-.09l.14-.08.15-.08c.22-.09.43-.18.66-.25h-.06a2.15 2.15 0 0 0-.89.38zm17.73-.75c-.57-.21-1.14-.48-1.69-.73a7.92 7.92 0 0 0-1.22-.41h-.06l-.27-.09v.06a.73.73 0 0 1 .13.14.65.65 0 0 1 .11.32c.82.21 1.63.45 2.44.7a.15.15 0 0 1 .12 0c.25.07.51.12.76.18H86zm-5.14-.29l-1.59-.49-.45-.13.58.55.67.15a2.5 2.5 0 0 1 .45.12c.15 0 .33.1.49.14a.85.85 0 0 0-.15-.33zm-2.85-.74l-.14-.16-.76-.21.2.22.09.09c.11.13.27.29.41.46l.62.07a4.9 4.9 0 0 1-.42-.46zm-6.91 0l-.94-.69.09.12.48.69.19.3h.8zm1.42.44a2.54 2.54 0 0 0-.15-.25l-.31-.38-.24-.23-.19-.19-.11-.11-.38-.36a4.65 4.65 0 0 0-.94 0c.62.42 1.2.88 1.83 1.29l.39.24zm1.42 0a4.64 4.64 0 0 0-.5-.65l-.27-.28-.14-.13-.4-.36c-.39 0-.79 0-.24.1h-.5l.15.16.2.19a5.92 5.92 0 0 0 1.15.92zm3.16-.16c-.22-.25-.47-.5-.71-.73q-.39-.09-.78-.15a.6.6 0 0 0-.31-.1l.23.23.07.08.58.6.22.23h.89zm-7.2-.22c-.28-.29-.57-.64-.88-.93v.07a6.79 6.79 0 0 1 .47.65l.24.41.06.12h.53zm5.87.35l-.06-.08-.33-.45-.73-.74a2.8 2.8 0 0 0-1.25 0l.47.43.77.67zm-6.56-.41a5.1 5.1 0 0 0-.38-.53 1 1 0 0 0-.14.5l.13.1.22.19.32.06zm-9 0h-.16l.25.18zm-.07-.18l-.32.07zm0-.24c-.1-.2-.2-.41-.32-.62h-.63l.43.63h.07zm9.86 0l-.38-.49-.24-.25h-.13l.63.65zm12-.08c-.82-.28-1.63-.52-2.44-.71l-.29-.06c.92.25 1.82.53 2.72.81zm-21.42-.06l-.17-.2.1.21zm6.8-.05v-.11l-.15-.09.09.2H67zm-5.44-.22zm7.26-.44c.56-.15 1.1-.15 0 0zm1.74 0l-.34-.31-.14-.14a4.89 4.89 0 0 0-1.11.08c.19.11.38.24.56.37h1.06zM58.45 25l.59-.09-.14-.15c-.24-.29-.46-.6-.63-.83-.38-.51-.71-1-1.11-1.54a5.64 5.64 0 0 0-.46-.5l-.49-.46L54.48 20a39.16 39.16 0 0 0-3.64-2.54 53.61 53.61 0 0 0-5.66-2.84 9.73 9.73 0 0 0-1-.21V15a6.8 6.8 0 0 1 .37.82 12.92 12.92 0 0 1 2.14.32 16.23 16.23 0 0 1 3 1A24.26 24.26 0 0 1 58.5 25zm12.44-.15a.66.66 0 0 1 0-.24h-.29l.08.07.19.19zm-1-.39a.14.14 0 0 1 0-.06.21.21 0 0 1 0-.08 7.78 7.78 0 0 0-.88 0 .59.59 0 0 1 0 .2zM71 24.4h-.73l.1.1zm-29.15-4.63a.91.91 0 0 0-.17-.13l-.08-.06v.71a14.74 14.74 0 0 0 0 1.49zm0-.26l-.28-.15v.19a.26.26 0 0 1 .08.08l.14.14zm.07-.66l-.34-.31v.19l.36.2a.23.23 0 0 1 0-.07zm.19-1.77c.08-.71.17-1.43.24-2.15a1.63 1.63 0 0 1 0-.49h-.17v.25a10.42 10.42 0 0 1-.13 1.37c-.11.75-.26 1.49-.44 2.23l.23.22.06.06q.1-.73.19-1.49zM40.8 18l-.16-.09a.37.37 0 0 1-.08.18v.06l.27.15a1 1 0 0 0 0-.28zm11.26-.53a35.83 35.83 0 0 0-3.74-2.66c-.36-.22-.71-.45-1.08-.65l-1.34-.72a14.49 14.49 0 0 0-1.32-.62H44l-.09.55a.82.82 0 0 1-.06.37.06.06 0 0 1 0-.08.44.44 0 0 1 .38.06l.87.31a38.77 38.77 0 0 1 3.9 1.65 18.15 18.15 0 0 1 3.11 1.9zm-8-.79v.24h.1zm-8.23-.34zm.13 0l-.15-.07v.08zm1.41 0l-.57-.2.35.17h.22zm-1.4 0zm7.76-.43v-.11.11zm.15-1.44v.19a.19.19 0 0 1-.06-.17zm-1.3-1.1a3.77 3.77 0 0 0-.24.46h.18z" fill="#0c8cff"/></svg>