<svg xmlns="http://www.w3.org/2000/svg" viewBox="0 0 120 120"><defs><style>.a{fill:#0c8cff}</style></defs><title>ref-icon-1</title><path class="a" d="M35 102.18c-.42-.1-.89-.22-1.3-.36l-.26-.09c-.53-.1-1-.23-1.56-.37a.53.53 0 0 1-.63.76c-.23-.09-.48-.15-.71-.24l-.71-.27a20.09 20.09 0 0 1-1.87-.85 19.41 19.41 0 0 1-2.42-1.5c-.28-.2-.55-.41-.82-.62A5.41 5.41 0 0 1 22.91 97a18.47 18.47 0 0 1-2-2.33 16.48 16.48 0 0 1-2.21-4.14 18.29 18.29 0 0 1-.84-3.53c-.07-.5-.12-1-.15-1.5a.2.2 0 0 1-.18-.2 11.45 11.45 0 0 1 0-1.81 16.25 16.25 0 0 1 .73-3.75 12 12 0 0 1 .44-2c.17-.5.33-1 .53-1.45l.17-.4a.24.24 0 0 1-.11-.31c.14-.28.26-.58.41-.85s.24-.46.36-.68c.28-.5.57-1 .87-1.48a13.81 13.81 0 0 1 1.67-2.22l.11-.19a34.59 34.59 0 0 1 2.2-3.35.19.19 0 1 1 .31.2l-.06.12a54.55 54.55 0 0 1 4.71-4.74l.31-.3 1-.95c.69-.65 1.4-1.28 2.11-1.9s1.68-1.44 2.6-2.1c.26-.19.54-.4.8-.57a.28.28 0 0 1 .39 0c.33-.24.68-.49 1-.72.51-.34 1-.66 1.56-1a.43.43 0 0 1 .6.11.47.47 0 0 1 .06.12 14.4 14.4 0 0 1 4.59-.81h.35a13.37 13.37 0 0 1 1.36-.06 6 6 0 0 1 1 .07h.78c.52 0 1 0 1.53.08.34 0 .68.09 1 .14s.46.07.68.12l.86.19a5.22 5.22 0 0 1 .63.24l.16.06q.7-.78 1.44-1.54l-.1-.25c-.18-.46-.34-.91-.49-1.37a14.37 14.37 0 0 1-.41-1.5c-.11-.5-.23-1-.29-1.52v-.3L53 46.85a12 12 0 0 1 .23-5.58 10.5 10.5 0 0 1 .43-1.09 7.55 7.55 0 0 1 1.07-1.69c.15-.17.31-.42.53-.47l.29-.47a38 38 0 0 1 3.12-4.11c.58-.69 1.19-1.36 1.81-2l.16-.16.57-.75c.58-.73 1.17-1.44 1.78-2.14a37.69 37.69 0 0 1 5-4.88 23.41 23.41 0 0 1 2.07-1.41l.18-.1.22-.21.47-.41.55-.52a.2.2 0 0 1 .28.28l-.12.12c.29-.21.59-.42.89-.62l1-.64a.18.18 0 0 1 .25.06l1.63-1.24a.22.22 0 0 1 .2-.23h.17c.24-.18.49-.37.74-.54l.65-.41a.41.41 0 1 1 .49.66c.49 0 1-.05 1.46-.07a14.43 14.43 0 0 1 4-.61 7.1 7.1 0 0 1 1.52.19l.61.15.48.13c.27.07.53.13.79.23l1 .37a.17.17 0 0 1 .1.2l.61.17c.29.09.56.19.85.31h.2a6.15 6.15 0 0 1 1.17.4c.3.12.6.24.89.37s.5.24.75.37a3.13 3.13 0 0 1 .33.19l.58.3.87.63a.41.41 0 0 1-.08-.15.24.24 0 0 1 .17-.29.22.22 0 0 1 .17 0l.1.09c.18.22.4.42.59.63l.33.38a.43.43 0 0 1 .27.3c.46.52.93 1 1.36 1.58l.74.92c.22.26.41.54.61.82s.52.72.76 1.09l.81 1 .14.06a.42.42 0 0 1 .16.1l.11.1a1.06 1.06 0 0 1 .13.87.1.1 0 0 1 0 .06v.08c.26.35.52.71.76 1.07a4.41 4.41 0 0 0 .46.34.28.28 0 0 1 0 .41l.07.19a6.16 6.16 0 0 1 .83 3.88.14.14 0 0 1-.14.14.15.15 0 0 1-.09 0v1.55c0 .36-.05.71-.1 1.06s-.08.51-.13.76a2.93 2.93 0 0 1-.1.4v.11a22.4 22.4 0 0 1-1.17 3.64q-.21.72-.46 1.43h.12a12.85 12.85 0 0 0 1.37-4.53.22.22 0 1 1 .44 0c0 .24-.06.5-.09.75a9.43 9.43 0 0 1-.22 1.06c-.05.21-.11.45-.18.66s-.15.49-.24.72c-.23.55-.42 1.1-.68 1.63l-.25.51a2 2 0 0 1-.1.39 6 6 0 0 1-.37.71c-.24.43-.5.85-.76 1.27a7.85 7.85 0 0 1-1 1.29l-.07.1-.18.34a28.58 28.58 0 0 1-1.58 2.61c-.31.46-.64.93-1 1.37a.19.19 0 1 1-.31-.2l.27-.5-.77.86-.2.22c-1 1.06-2 2.11-3 3.14-.87.86-1.76 1.72-2.66 2.53-.39.35-.77.7-1.16 1s-1 .86-1.46 1.28-1.06.85-1.6 1.25c-.29.21-.57.42-.87.62a.28.28 0 0 1-.4 0 .26.26 0 0 1-.06-.14 15.08 15.08 0 0 1-2.9 1.5 13.77 13.77 0 0 1-4 .87 11.39 11.39 0 0 1-2.24.19 7.79 7.79 0 0 1-1-.06l-.35-.05h-.08a13.15 13.15 0 0 1-3.3-.21c-.26 0-.56-.09-.81-.16l-.65-.16-.67-.19a5.05 5.05 0 0 1-.51-.21l-1.4 1.28-.24.22c.16.55.32 1.1.46 1.65.08.32.16.64.24 1 .2.86.37 1.75.5 2.64a9.42 9.42 0 0 1 .19 1.62 18.34 18.34 0 0 1-.08 4.17 15.65 15.65 0 0 1-.33 1.67.57.57 0 0 1 0 .07 1.83 1.83 0 0 1-.1.31 2.7 2.7 0 0 1-.09.28v.1a4.32 4.32 0 0 1-.51 1.53L65 82a.36.36 0 0 1-.07.29.37.37 0 0 1-.18.12c-.32.53-.67 1-1 1.55-.52.72-1.09 1.4-1.64 2.09s-1.27 1.47-1.92 2.19l-.51.53-.13.18c-.33.43-.66.86-1 1.27-.51.62-1 1.23-1.56 1.84s-1 1.16-1.56 1.69-1 1-1.55 1.5-1.1 1-1.69 1.42-.92.67-1.4 1l-.62.38-.17.05-1.21 1.12h-.28a.2.2 0 0 1 0-.28l.12-.12-.82.57c-.34.24-.7.44-1 .66a.18.18 0 1 1-.19-.31l.39-.25q-.8.34-1.62.6l-.2.11-.66.34c-.3.16-.6.3-.91.43l1.08.06a.21.21 0 1 1 0 .43 14.86 14.86 0 0 1-1.8.32c-.57.06-1.15.07-1.73.08l-.29.09a12.17 12.17 0 0 1-1.45.32 11.77 11.77 0 0 1-2.75.18 9.36 9.36 0 0 1-1.68-.27zm5.37-1.27h-.06L40 101zm1.07-.7c.26 0 .52-.05.78-.1l.85-.15-.31-.22-.72-.51c-.37-.28-.75-.59-1.11-.89-1-.84-2-1.67-3-2.48a25.51 25.51 0 0 0-2.13-1.46.06.06 0 0 1 0-.08.06.06 0 0 1 .08 0c.38.25.77.47 1.15.73C38.37 96 39.71 97 41 98l.8.56 1.25.89.53.36h.07l.46-.22c.43-.22.84-.45 1.24-.69-.92-.66-1.82-1.37-2.69-2.08s-1.88-1.52-2.81-2.3a.2.2 0 1 1 .25-.31c1.85 1.55 3.73 3 5.71 4.4l.78-.52c.46-.32.94-.71 1.35-1.05.14-.11.29-.24.43-.36l.59-.51c.69-.62 1.39-1.22 2.08-1.85l1.16-1.07h-.06c-.41-.34-.81-.69-1.21-1s-.88-.78-1.3-1.18c-.26-.25-.52-.53-.78-.79s-.5-.5-.74-.76a.19.19 0 0 1 .27-.26c.5.55 1.07 1 1.61 1.52s1 1 1.59 1.41c.29.24.58.49.88.72a.26.26 0 0 1 .08.12c1.24-1.15 2.46-2.32 3.66-3.52.68-.67 1.37-1.37 2-2.08.41-.46.82-.93 1.24-1.38l.51-.57q-1.07-.93-2.12-1.89A35.18 35.18 0 0 1 53 78.52a.17.17 0 1 1 .27-.21c.33.46.69.88 1.05 1.31s.53.59.8.87.71.71 1.07 1.06c.77.73 1.61 1.41 2.42 2.1L60 84.68l.33.29.36-.45c.34-.43.69-.86 1-1.31l-2-1.7c-1.28-1-2.55-2.12-3.76-3.24-.18-.17-.34-.35-.52-.53s-.51-.47-.73-.73l-.39-.45-.52.61a21.19 21.19 0 0 1-1.34 1.73c-.43.54-.92 1.1-1.43 1.59l-.71.78a17.32 17.32 0 0 1-1.7 2q-.48.49-1 1c-.69.84-1.4 1.66-2.13 2.46-.14.16-.29.32-.44.47s-.56.52-.83.79a.2.2 0 1 1-.29-.29c.3-.3.58-.61.86-.93l.58-.62-.09.06a2.35 2.35 0 0 1-.32.29c-.48.38-.93.74-1.44 1.08a13.53 13.53 0 0 1-2 1.14l-.62.7a.25.25 0 0 1-.39-.33c-.23.09-.46.18-.69.25l-.85.25h-.15a.39.39 0 0 1-.41.22L38 89.6h-.39a5.44 5.44 0 0 1-.67-.06 4.07 4.07 0 0 1-.69-.12l-.25-.07h-.16a6.1 6.1 0 0 1-3-1.29 8 8 0 0 1-1-.91 9.17 9.17 0 0 1-1-1.31c-.1-.16-.18-.35-.27-.52l-.11-.25c-.69-.69-1.3-1.44-1.92-2.19l-.9-1.06a.15.15 0 0 1 .36-.22l.47.55c.17.19.33.4.5.59s.59.7.91 1l.21.22a7 7 0 0 1-.35-1.25c0-.13 0-.26-.05-.38a1.74 1.74 0 0 1 0-.18.17.17 0 0 1-.26-.2c.08-.21.15-.42.24-.62s0-.19 0-.28a28.5 28.5 0 0 1-2.07-2.66.14.14 0 1 1 .23-.17c.44.61.89 1.22 1.38 1.8.58-.54 1.13-1.08 1.67-1.66-.69-.6-1.34-1.23-2-1.89-.13-.14-.26-.3-.38-.45s-.42-.51-.62-.77a.18.18 0 0 1 .32-.25 14.62 14.62 0 0 0 1.1 1.18l.49.5A18 18 0 0 0 31.25 78l.39-.39.27-.27c.22-.42.45-.83.7-1.22a21 21 0 0 1-2.88-2.63 9.78 9.78 0 0 1-.63-.79.18.18 0 1 1 .28-.21 7.34 7.34 0 0 0 .65.79 15.56 15.56 0 0 0 2.88 2.36l.53-.78c.13-.18.27-.35.4-.53l.35-.45q-.95-.76-1.87-1.56a9.11 9.11 0 0 1-1.55-1.64.2.2 0 0 1 .32-.23 9.11 9.11 0 0 0 1.8 1.79c.53.44 1.08.84 1.64 1.24l.61-.71.54-.57c.14-.15.29-.3.44-.45l.52-.51c-.83-.62-1.63-1.34-2.39-2-.44-.4-.85-.8-1.26-1.22a7.14 7.14 0 0 1-.71-.82.22.22 0 0 1 .35-.27 5.69 5.69 0 0 0 .53.62 19.09 19.09 0 0 0 1.75 1.59c.52.43 1 .84 1.59 1.22l.39.27.25.17.56-.51c.52-.46 1.06-.89 1.62-1.29.25-.18.5-.37.76-.55l.94-.62.18-.17a.28.28 0 0 1-.31 0c-.52-.39-1-.81-1.51-1.23s-1-.78-1.41-1.19-.73-.66-1.07-1l-.52-.55a.18.18 0 0 1 .26-.25 14.69 14.69 0 0 0 1.57 1.49c1 .8 2 1.51 3 2.29a.29.29 0 0 1 .07.37c.37-.36.74-.72 1.13-1.07l.14-.12a.35.35 0 0 1-.11-.1 4.87 4.87 0 0 0-.36-.5l-.34-.38c-.19-.2-.39-.38-.59-.57l-.23-.23c-.15-.14-.32-.27-.46-.42l-.81-.8c-.16-.16-.32-.34-.47-.51a.25.25 0 1 1 .36-.34A12.17 12.17 0 0 0 41 63.74l.42.37.33.27c.11.1.23.21.33.32s.42.42.61.65.23.31.36.45v.06l1.06-.93.23-.31c-.38-.31-.74-.65-1.1-1s-.79-.73-1.2-1.09l-.49-.4a.25.25 0 0 1 .32-.38l.92.77c.32.26.63.55.95.81s.56.46.85.68l.15.11c.24-.33.5-.65.75-1s.39-.47.59-.7l-.13-.1-.65-.51a1.85 1.85 0 0 1-.49-.49.14.14 0 0 1 .25-.13 2.9 2.9 0 0 0 .57.51l.66.47c.27-.31.56-.63.85-.92l1.34-1.37.61-.59c.78-.75 1.59-1.47 2.4-2.19l.72-.89-.18-.06-.19-.05a3.48 3.48 0 0 1-.52-.08c-.56-.12-1.12-.28-1.68-.42l-.48-.12c-.47-.06-.92-.13-1.38-.17h-.41a12.93 12.93 0 0 0-4 .33l-1.28.36-1.75.77-1.16.57c-.59.28-1.16.57-1.73.88a40.38 40.38 0 0 0-6.51 4.44.17.17 0 0 1-.06.08c-.77.77-1.52 1.55-2.26 2.33l-.94 1q-1 1.09-2 2.24a46.25 46.25 0 0 0-3.67 5c-.16.36-.31.73-.47 1.1a3.05 3.05 0 0 0-.18.52c-.08.57-.15 1.14-.24 1.7s-.15.9-.22 1.35c-.12.76-.32 1.52-.46 2.28s-.25 1.47-.35 2.21c-.07.47-.1 1-.14 1.43a16.68 16.68 0 0 0 .33 4.84.18.18 0 0 1 .18.15 10.53 10.53 0 0 0 .2 1.15l.07.16a15.92 15.92 0 0 0 2.82 4.08.32.32 0 0 1 .07.23l.3.36.54.68a22.69 22.69 0 0 0 5.12 3.74c.53.16 1.06.3 1.6.42-.61-.5-1.22-1-1.82-1.53-1.75-1.49-3.51-3-5.25-4.47a.09.09 0 0 1 .12-.14q2 1.7 4 3.35c1.25 1 2.54 2 3.82 3h.31a27 27 0 0 0 2.76.27c-.76-.56-1.55-1.1-2.33-1.64a44.14 44.14 0 0 1-6-4.67.12.12 0 0 1 0-.17.12.12 0 0 1 .17 0 38.57 38.57 0 0 0 5.9 4.42l2 1.35.58.39.49.34h.75c.58 0 1.17 0 1.75-.07h.6a41.56 41.56 0 0 1-4.34-3.28c-.91-.74-1.8-1.52-2.74-2.23l-.59-.45-.59-.43a.15.15 0 0 1 .18-.24l.59.43c.53.38 1.06.8 1.57 1.21l2 1.55c.51.4 1 .81 1.55 1.2.73.53 1.47 1.09 2.25 1.55.43.25.85.49 1.29.72l.81.07h.06zM26.6 98.76l-.11-.06.13.08.3.19.17.06zm21.9.12h.07zm1.14-1.37c1-.81 2-1.67 2.87-2.55l.07-.07-1 .81c-.59.48-1.19.94-1.8 1.4l-.7.53-1 .7c.56-.25 1.07-.53 1.57-.82zm-2-1a15.56 15.56 0 0 1-1.45-1.08 34.18 34.18 0 0 1-2.78-2.56l-.63-.66a.13.13 0 0 1 .19-.18c.53.58 1.11 1.11 1.69 1.63.34.31.7.59 1.07.87l.49.37c.67.47 1.34.94 2 1.39a.26.26 0 0 1-.29.43zm1.66-2.1c-.37-.32-.77-.63-1.15-.94l-.89-.72a5.7 5.7 0 0 1-.47-.42l-.34-.33a8.33 8.33 0 0 1-.67-.88.21.21 0 0 1 .34-.23 14.13 14.13 0 0 0 3 2.76c.36.29.68.57 1 .87a.27.27 0 1 1-.36.39zm5.84-2.36a.09.09 0 0 1 .13 0l.37-.4c.69-.73 1.36-1.49 2-2.25l1.14-1.32C57.91 89.11 57 90 56 91c-.53.52-1.06 1-1.6 1.55zm-2.14-.9c-.07-.08-.13-.18-.2-.25a7.4 7.4 0 0 0-.58-.59 9.94 9.94 0 0 1-2.57-2.42.22.22 0 0 1 .37-.23 5.77 5.77 0 0 0 1.79 1.73 9.48 9.48 0 0 1 1.2 1c.15.15.27.3.4.46a.27.27 0 1 1-.43.34zm-33.3-.58c-.19-.53-.35-1.09-.49-1.64v-.08a14.74 14.74 0 0 1-.93-3.47c0 .25.05.52.09.79.07.47.17.93.27 1.39s.19.71.29 1.06a16.32 16.32 0 0 0 .9 2.29l.08.17c-.1-.18-.16-.35-.22-.51zM53 87.09c-.26-.23-.51-.47-.77-.69l-.47-.4a.15.15 0 0 1 .18-.23l.44.36.68.58c.81.68 1.6 1.42 2.46 2a.22.22 0 1 1-.28.35c-.77-.58-1.49-1.29-2.24-1.97zM42.22 87c.23-.27.47-.54.71-.78.44-.44.9-.87 1.36-1.29s.91-.84 1.37-1.25c.75-.66 1.49-1.33 2.24-2 .24-.33.47-.66.69-1a17.44 17.44 0 0 0 .92-1.53c.15-.28.31-.56.43-.85a.58.58 0 0 1 1.08.34l.71-.89h-.63a.55.55 0 0 1-.21 0h-.28c-.43 0-.87-.11-1.3-.19a14 14 0 0 1-1.52-.56 12.27 12.27 0 0 1-1.52-.57l.1.16c.09.15.17.3.27.44a.21.21 0 0 1-.36.22c-.18-.27-.35-.56-.52-.84l-.22-.35a5.5 5.5 0 0 1-2.9-3.35 1.69 1.69 0 0 1 0-.21c-.06-.3-.1-.58-.14-.88a4 4 0 0 1 0-.56 7 7 0 0 1 .31-2.16v-.07a6.74 6.74 0 0 1 .14-1.17 39.39 39.39 0 0 0-3.21 2.89.2.2 0 0 1-.14.06c-1.54 1.55-3.05 3.13-4.6 4.67l-1.59 1.61-.11.2c-.18.3-.34.61-.49.93s-.25.53-.37.8l.42.28a.3.3 0 1 1-.35.48l-.28-.21a8.4 8.4 0 0 0-.5 2.83l.23.13a.24.24 0 0 1-.2.44 5 5 0 0 0 .32 1.3 5.76 5.76 0 0 0 .43.88l.57.79.86.89a7.36 7.36 0 0 0 1 .75 6.38 6.38 0 0 0 1.32.63 5.71 5.71 0 0 0 1.72.28A8.2 8.2 0 0 0 42.22 87zM30 87c-.28-.28-.55-.58-.81-.87s-.49-.5-.74-.75a.13.13 0 0 1 .18-.18l.74.72a15.87 15.87 0 0 0 2 1.73.2.2 0 1 1-.23.33A5.85 5.85 0 0 1 30 87zm26.23.44a6.2 6.2 0 0 0-.72-.77 9.5 9.5 0 0 1-2.29-2.31.14.14 0 0 1 .23-.15 2.67 2.67 0 0 0 .2.32 8.66 8.66 0 0 0 1.72 1.61c.26.21.49.41.74.63s.27.3.4.44a.19.19 0 0 1-.29.24zm.2-2.64c-.35-.36-.7-.72-1-1.09-.43-.6-.94-1.16-1.43-1.71-.3-.39-.55-.78-.83-1.18a.19.19 0 1 1 .32-.21 16.61 16.61 0 0 0 1.17 1.58c.4.49.82 1 1.26 1.43s1.09 1.09 1.67 1.62a9.75 9.75 0 0 0 .8.67.26.26 0 1 1-.32.4 19.65 19.65 0 0 1-1.61-1.56zm-38.29-1a.78.78 0 0 0 0 .16.62.62 0 0 0 0 .1c-.01-.29-.01-.49.03-.33zm.22-2.44a2.2 2.2 0 0 0-.16.55v.7a8.8 8.8 0 0 1 .19-1.33zm44.16.64c.09-.16.16-.33.24-.5s0-.12.07-.17a.53.53 0 0 1 .17-.23 81.9 81.9 0 0 1-6.88-6.58l-.54.38c-.25.24-.51.48-.75.73l-.15.16a.45.45 0 0 1-.08.42c.17.16.37.32.54.49l.57.56c.19.19.41.34.61.52a62.29 62.29 0 0 0 3.92 3.31l1.93 1.52.35-.61zm-43.11-.13c0-.38.12-.77.19-1.14a1.37 1.37 0 0 0-.06.27c-.07.42-.13.83-.18 1.25 0 .27-.07.54-.09.8.04-.39.09-.78.14-1.18zm45.18-1.75l.24-.39c.05-.15.1-.3.14-.45a53.67 53.67 0 0 1-5.18-4.38c-.65-.62-1.27-1.27-1.87-1.93l-.5.47.35.26a.29.29 0 1 1-.33.47 5 5 0 0 1-.47-.32c-.19.17-.37.32-.56.47.48.5 1 1 1.46 1.47 1.48 1.43 3 2.81 4.62 4.09L64 81.06zM31 80.09a2 2 0 0 0-.16.69c-.05-.35.03-.7.16-.69zm-12.21.08c.06-.27.12-.55.19-.81a6.15 6.15 0 0 0-.36 1.23 2.5 2.5 0 0 1 .15-.42zm11 .09a1.11 1.11 0 0 0 0-.11l-.23.2.19.21a1.64 1.64 0 0 1 .02-.3zm.78-.64l.18-.29-.36.31a.35.35 0 0 1 0 .12zM19 79.3a.17.17 0 0 0 0 .06.18.18 0 0 1 0-.06zm0 0c0-.23 0-.15 0 0zm.18-.1c0-.22.1-.44.15-.66l-.17.23s0 .07-.16.53a.14.14 0 0 1 .15-.11zm46.22-1.44a11.86 11.86 0 0 0 .12-1.55.39.39 0 0 1-.54 0c-.46-.41-.92-.85-1.36-1.28-.67-.65-1.34-1.31-2-2s-1.14-1.19-1.7-1.8l-.28.25c-.46.41-.91.84-1.36 1.27l.35.38a31.14 31.14 0 0 0 2.56 2.42c.79.68 1.62 1.36 2.47 2 .53.39 1.06.78 1.61 1.15a7.76 7.76 0 0 0 .11-.85zm-12.79-1.07l.1-.11a.16.16 0 0 1-.17-.06l-.21.09-.29.09h.58zm12.89-.61v-.36a.39.39 0 0 1 0 .47s-.01-.07-.01-.11zm-.16-2.18l-.09-.72a.35.35 0 0 1-.46 0c-.59-.51-1.17-1.06-1.74-1.59s-1.21-1.11-1.76-1.72l-1 .89c.55.59 1.12 1.16 1.68 1.72 1.11 1.1 2.27 2.19 3.47 3.19.02-.56-.04-1.17-.11-1.77zm-14.27 1.46l.31-.06.38-.13c-.5-.42-1-.86-1.47-1.29q-1.88-1.69-3.76-3.39a.14.14 0 1 1 .18-.21c1.81 1.64 3.65 3.2 5.57 4.69l1.52-.74.15-.08c-.89-.8-1.72-1.69-2.54-2.56-.57-.6-1.15-1.18-1.72-1.76a.15.15 0 1 1 .22-.22c.48.48 1 1 1.46 1.44 1 1 2 1.95 3.09 2.82h.06l.06-.16a.44.44 0 0 1 .51-.29l-.17-.19a.16.16 0 1 1 .24-.21l.26.3.51-.34c-.23-.22-.46-.47-.68-.71s-.37-.4-.54-.61c-.75-.89-1.47-1.78-2.2-2.69-.21-.27-.44-.53-.64-.8a.18.18 0 1 1 .28-.23c.19.25.4.49.6.73l.87 1.05c.32.38.65.76 1 1.13s.66.73 1 1.07c.2.19.39.39.6.58l.18.16.09-.06.35-.26q1.11-1 2.2-2c0 .07-.09 0-.13 0-.32-.25-.63-.55-.92-.83-.49-.47-1-1-1.43-1.45s-1-1-1.47-1.54l-.5-.5a.18.18 0 0 1 .25-.26l1.08 1.07c.69.69 1.37 1.36 2.1 2 .32.29.65.56 1 .82a.29.29 0 0 1 .31.09l.16.18 1-1v-.07a.24.24 0 0 1 0-.33.22.22 0 0 1 .31 0l.44-.41-1-.83A18.11 18.11 0 0 1 58.91 66c-.2-.22-.4-.43-.59-.66-.06-.08-.13-.15-.19-.23-.27-.38-.49-.78-.74-1.18a.24.24 0 0 1 .41-.25 7.89 7.89 0 0 0 1 1.23 15.34 15.34 0 0 0 1.69 1.64c.43.37.85.77 1.3 1.12l.38-.37.31-.31a.27.27 0 0 1 0-.3.26.26 0 0 1 .34-.07l.78-.84c-.53-.49-1-1-1.54-1.52l-.63-.65-.48-.47c-.41-.42-.85-.77-1.3-1.15a.26.26 0 0 1 .32-.4A32.07 32.07 0 0 1 62.51 64c.48.47 1 .94 1.47 1.39l.67-.71.63-.64a.41.41 0 0 1 0-.29.42.42 0 0 1 .32-.22c-.18-.18-.36-.36-.55-.54-.56-.5-1.15-1-1.72-1.48-.28-.24-.54-.51-.8-.77a7 7 0 0 1-.76-1 .22.22 0 1 1 .35-.25 14.06 14.06 0 0 0 3.18 3c.28.23.55.46.81.71l.6-.55.38-.4.36-.37a.25.25 0 0 1 .08-.07l.31-.29c-.59-.58-1.15-1.19-1.72-1.79-.78-.81-1.56-1.6-2.35-2.4a.25.25 0 0 1 0-.35h.35C65.54 58.3 67 59.61 68.4 61c.49-.48.66-.64.83-.8l.73-.68-.38-.34c-.22-.21-.44-.44-.65-.67-.37-.4-.73-.8-1.09-1.21s-.87-1-1.28-1.49c-.28-.33-.58-.64-.86-1a.21.21 0 0 1 .32-.29c.18.22.39.43.58.64q.79.89 1.6 1.75c.6.64 1.22 1.22 1.87 1.81l.36.33c1.44-1.31 2.88-2.62 4.28-4l.1-.1h-.42a.23.23 0 0 1 0 .35.32.32 0 0 1-.46 0c-.72-.62-1.4-1.28-2.1-1.91s-1.37-1.24-2.07-1.86a.25.25 0 0 1 .32-.37c.7.63 1.44 1.25 2.16 1.87l1.52 1.28a.48.48 0 0 1 .44-.38h.33a8.09 8.09 0 0 0 1-.44.48.48 0 0 1-.11-.23.46.46 0 0 1 0-.23c-1-1-1.81-2.07-2.73-3.09-.35-.39-.73-.74-1.1-1.1a.21.21 0 1 1 .3-.31l.59.56 1 1.05c.34.34.67.71 1 1.06s.83.85 1.27 1.24a6.33 6.33 0 0 0 .57-1.25l-.17-.18c-.52-.53-1.08-1-1.6-1.54l-.53-.52c-.32-.32-.63-.64-.94-1a.22.22 0 0 1 .31-.3 21.57 21.57 0 0 0 2 1.92c.31.26.61.54.93.8l.13.11a4.49 4.49 0 0 0 0-1.58 4.36 4.36 0 0 0-.32-1l-.19-.4a3.66 3.66 0 0 0-.31-.52 7.17 7.17 0 0 0-.83-.98c-.1-.1-.21-.18-.31-.27a7.46 7.46 0 0 0-1.72-1.11l-.18-.08-.48-.09a7.58 7.58 0 0 0-2.76.13 14.55 14.55 0 0 0-3.6 1.33l-.75.85c-.38.42-.81.82-1.21 1.22s-1.12 1.06-1.69 1.54c-.83.71-1.66 1.43-2.5 2.13l-3.44 2.85.09.28v.11a.41.41 0 0 1-.8.2v-.06l-.26.22q-.76.74-1.49 1.49c-1.58 1.62-3.14 3.27-4.71 4.91q-1.08 1.22-2.15 2.35c-.23.25-.47.49-.69.74L46 65a.46.46 0 0 1 .6.27.17.17 0 0 1 0 .16.13.13 0 0 1 0 .05.48.48 0 0 1-.44.51h-.32a4.71 4.71 0 0 0-1 .49c-.32.66-.67 1.3-1 2 0 .1-.08.21-.12.31v.58a6 6 0 0 0 .13 1l1.23 1c1.16 1 2.31 1.94 3.43 3 .38.34.74.71 1.1 1.08a5.74 5.74 0 0 0 1.46-.09zm-4.73-2.55c-.52-.48-1-1-1.58-1.41l-.88-.73.12.33a7 7 0 0 0 1.52 2.61 6.06 6.06 0 0 0 .66.49 7.35 7.35 0 0 0 1.23.66l.33.15a7.27 7.27 0 0 0 .84.28l.32.08c-.9-.83-1.69-1.66-2.56-2.46zm-.64 2.26l-.48-.42.1.18.18.12zm-2.14-2.52l.18.52a3.62 3.62 0 0 0 .41.66 8.03 8.03 0 0 1-.6-1.17zM64.93 71c-.1-.62-.22-1.25-.34-1.86V69c-.36-.37-.71-.75-1.08-1.11l-1.83 1.64c.19.2.38.4.59.59.36.34.75.66 1.13 1 .6.5 1.21 1 1.8 1.5-.09-.55-.2-1.08-.27-1.62zm-21.38 1.56v-.07zm-6-4.44l-.7-.75c-.69-.76-1.44-1.49-2.16-2.23a.21.21 0 0 1 0-.29H35c.78.78 1.58 1.55 2.38 2.31.53.5 1.06 1 1.58 1.5a.31.31 0 1 1-.44.44c-.37-.33-.68-.65-.99-.99zm26.68-.87l-.33.3.48.46zm7.14-1.79h-.14c-.38-.06-.76-.14-1.14-.23l-.63-.23a9.16 9.16 0 0 0 2.12.49zm5.51-.93a16.78 16.78 0 0 0 1.83-.53c-.27-.22-.55-.47-.78-.71l-.72-.72a23.56 23.56 0 0 1-1.56-1.81c-.65-.83-1.28-1.66-1.92-2.49-.52.55-1.06 1.08-1.6 1.61a9.12 9.12 0 0 0 1.1 1.39c.77.84 1.61 1.62 2.43 2.41a.27.27 0 0 1-.38.38c-.85-.89-1.72-1.78-2.51-2.71a12.38 12.38 0 0 1-.92-1.2l-1.33 1.29a13.17 13.17 0 0 0 3.34 3.5h.38a11.7 11.7 0 0 0 2.62-.41zm-6.52-2.75l-.09-.14-1.14 1.09 1.26 1 .66.53.29.25.23.07a6.59 6.59 0 0 0 1.44.29 14.65 14.65 0 0 1-2.67-3.1zm-2.25 1.91l-.11.1.29.06a.67.67 0 0 1-.2-.17zm.62-.58l.19.19a3.36 3.36 0 0 0 .69.47zm12.57-.3c-.53-.53-1.07-1.07-1.59-1.61l-.71-.74c-.2-.21-.4-.41-.59-.63s-.53-.62-.8-.93l-.39-.48c-.28-.32-.53-.69-.79-1s-.58-.77-.85-1.18l-.08.09c-.16.19-.32.38-.5.56l-1 1.06a35.31 35.31 0 0 0 3.77 4.38 13.65 13.65 0 0 0 1.47 1.24.3.3 0 0 1 .1.14c.66-.26 1.3-.57 1.94-.9zm2.07-1.18c-.43-.36-.86-.73-1.26-1.13a35.71 35.71 0 0 1-2.59-2.81 32.41 32.41 0 0 1-2.4-3.35 1.47 1.47 0 0 1-.28.21 5.8 5.8 0 0 1-.34.5c-.21.29-.42.56-.64.83a33.54 33.54 0 0 0 3.48 4c.81.84 1.63 1.68 2.48 2.49a.33.33 0 0 1 .07.1q.72-.39 1.45-.85zM87 59.06L88.32 58l-.17-.11a9.73 9.73 0 0 1-1.61-1.42l-.62-.65c-.25-.26-.51-.51-.77-.77a5.16 5.16 0 0 0-.54-.45l-.23-.17a.06.06 0 0 1 0-.09.06.06 0 0 1 .09 0c.08.07.18.12.26.19l.27.21c.32.26.6.55.91.82a10.56 10.56 0 0 0 2.78 2.16c.36-.3.71-.61 1.06-.93 1-.86 1.88-1.76 2.77-2.69-.62-.67-1.29-1.31-1.93-2a14.66 14.66 0 0 1-1.1-1.31.23.23 0 1 1 .36-.29 23 23 0 0 0 2.3 2.41l.52.5.24.24c.52-.55 1-1.1 1.52-1.67a.33.33 0 0 1-.26-.09c-.26-.24-.5-.51-.74-.76s-.41-.46-.6-.69-.35-.42-.52-.62Q91.65 49 91 48.27a.23.23 0 1 1 .36-.31c.42.49.84 1 1.28 1.46a20.59 20.59 0 0 0 2 2 .34.34 0 0 1 .1.23l.2-.24c.36-.43.74-.87 1.09-1.32a.29.29 0 0 1-.15-.08c-.69-.73-1.35-1.49-2.05-2.21a10.79 10.79 0 0 0-.93-.87l-.46-.38a.17.17 0 0 1 .21-.26c.47.38.93.76 1.37 1.17.77.7 1.5 1.43 2.27 2.13l.05.07.9-1.2.25-.35-.52.54h-.07v-.05c.15-.37.31-.74.5-1.09a9.92 9.92 0 0 1-1.12-1.15 7.52 7.52 0 0 0-1.43-1.41 3 3 0 0 0-1.13-.46 3.83 3.83 0 0 0-.46-.06c.14 0 .3 0 .44.06a.89.89 0 0 1 .38 0 3.14 3.14 0 0 1 .38.13l.36.17a5.52 5.52 0 0 1 .53.34c.57.41 1.06.93 1.61 1.37a7 7 0 0 0 .65.46c.15-.34.31-.67.49-1s.32-.58.48-.87l-.93-1A26.35 26.35 0 0 1 95 41a.21.21 0 1 1 .34-.24A18.11 18.11 0 0 0 98.22 44l.61.58.12-.22c.33-.63.64-1.25.94-1.89a16.38 16.38 0 0 0 .61-2.09v-1.24c0-.41 0-1.08.05-1.62s0-1 0-1.52v-.56c-.27-.3-.55-.59-.84-.87l-.83-.81c-.4-.39-.82-.78-1.22-1.17-.69-.66-1.36-1.33-2-2a.23.23 0 1 1 .33-.31c.46.49.94 1 1.44 1.44l.71.65 2.06 1.83.29.27c0-.18 0-.37-.07-.55-.06-.38-.11-.78-.19-1.15s-.15-.65-.23-1-.1-.4-.16-.57-.14-.43-.21-.64-.18-.43-.25-.65-.09-.21-.14-.31l-.1-.2-.32-.32a10.21 10.21 0 0 0-1.19-1l-.63-.35a4.06 4.06 0 0 0-.5-.31l-.37-.18a.23.23 0 1 1 .19-.42 9.5 9.5 0 0 1 1.06.5c.25.15.46.32.68.49l-.06-.1c-.31-.38-.62-.75-.94-1.11s-.61-.66-.91-1-.74-.77-1.12-1.14a.33.33 0 0 1-.35 0 11.43 11.43 0 0 1-1.28-1.14c-.1-.11-.22-.21-.31-.32l-.31-.34c-1.33-.45-2.64-1-4-1.42l-1.44-.52c-.64-.22-1.29-.43-1.94-.61-.42-.12-.85-.24-1.28-.34a18.55 18.55 0 0 0-3.44-.49h-1.24a.31.31 0 0 1-.19.53c-.41.09-.81.12-1.22.18-.64.1-1.26.22-1.89.37a28.75 28.75 0 0 0-4.62 2.91l-1.06.73c-.25.19-.49.38-.73.59q-1.85 1.46-3.59 3C64.71 29 63.3 30.31 62 31.7c-1 1-2 2.06-2.89 3.15-.76 1.1-1.49 2.22-2.23 3.34-.3.46-.59.92-.89 1.39a10.74 10.74 0 0 0-.51 1.19.2.2 0 0 1-.06.08l-.22.6-.2.55c-.12.65-.23 1.31-.31 2a16.38 16.38 0 0 0-.12 2.7c0 .28 0 .59.07.91a6.85 6.85 0 0 0 .15 1.5 11.68 11.68 0 0 0 .25 1.38l.44 1.17.27.76c.76-.74 1.54-1.48 2.34-2.18 1.07-.92 2.14-1.82 3.28-2.66l.88-.63.75-.51.34-.22-.24-.22a1.81 1.81 0 0 1-1.1-.82.21.21 0 1 1 .37-.19c.15.41.8.56 1.15.71a2.7 2.7 0 0 1 .25.1h.06l1-1-.54-.41a10 10 0 0 1-1.37-1.17 5.37 5.37 0 0 1-.34-.43c-.05-.07-.09-.16-.15-.24a.14.14 0 0 1 .24-.15 4.51 4.51 0 0 0 1.31 1.34c.32.25.68.47 1 .7l.13.09a.56.56 0 0 1 .36-.12l.1-.1a.33.33 0 0 1-.15-.17.35.35 0 0 1 .18-.46l.4-.18.18-.21-1.42-1.51a12.4 12.4 0 0 0-1.16-1.1l-.5-.42a.17.17 0 0 1 .22-.27l.55.46c.35.3.7.61 1 .93l1.35 1.29.25.24.35-.51.3-.39c.18-.32.36-.63.56-.95l-.25-.22a16.55 16.55 0 0 1-1.78-1.92c-.2-.24-.41-.49-.61-.72l-.49-.52c-.15-.16-.32-.3-.47-.45a.12.12 0 0 1 0-.17.12.12 0 0 1 .17 0c.09.1.22.2.32.29a11.35 11.35 0 0 1 .81.84c.34.38.69.75 1 1.12a10.09 10.09 0 0 0 1 .91c.2.17.4.31.6.46.29-.41.6-.79.92-1.17a15.5 15.5 0 0 1-3-3c-.2-.23-.42-.46-.63-.68s-.36-.34-.54-.51A.23.23 0 0 1 65 35c.39.37.8.73 1.15 1.14s.47.53.71.78a13.77 13.77 0 0 0 2 1.84c.16.11.32.21.49.31.42-.49.86-1 1.31-1.45l.27-.28c-.17-.12-.34-.24-.5-.37l-.47-.39c-.6-.49-1.15-1-1.72-1.57-.29-.27-.58-.55-.88-.81l-.53-.45a.15.15 0 0 1 0-.2.14.14 0 0 1 .2 0l1 .84c.55.48 1.09 1 1.66 1.44A17.91 17.91 0 0 0 71.31 37l.23-.24.55-.54c.51-.52 1.08-1 1.64-1.47l.68-.77-.4-.3a19 19 0 0 1-2.06-2l-.63-.71c-.15-.16-.34-.36-.46-.53a.2.2 0 1 1 .3-.26c.19.25.42.48.63.71s.65.73 1 1.05a13.48 13.48 0 0 0 2 1.68l.14-.15c.15-.16.29-.32.44-.47s.56-.52.83-.79l-.66-.54c-.56-.45-1.1-.91-1.62-1.41a8.55 8.55 0 0 1-.65-.66l-.52-.6c-.1-.11-.19-.26-.28-.38a.18.18 0 0 1 .28-.21 13.65 13.65 0 0 0 3.28 3c.38.27.77.56 1.16.82a14 14 0 0 1 1.48-.69c.25-.26.49-.53.72-.8a.25.25 0 0 1 .38.33v.05a11 11 0 0 1 1.17-.4l-.13-.16-.24-.26c-.35-.36-.71-.7-1.08-1s-.8-.72-1.16-1.11a6.82 6.82 0 0 1-.85-1 .27.27 0 1 1 .44-.32 4.77 4.77 0 0 0 .6.72c.3.31.61.59.93.87.55.47 1.08.95 1.61 1.44.15.14.28.3.43.44a.35.35 0 0 1 .07.13.4.4 0 0 1 .31-.09l.44.07h.35a4.88 4.88 0 0 1 .84.08c.17 0 .34 0 .51.09h.08c-1.12-1.47-2.6-2.66-3.71-4.14a.23.23 0 1 1 .36-.28 14.74 14.74 0 0 0 1 1.14c.38.4.79.77 1.19 1.15l.85.81a11.23 11.23 0 0 1 .81.85c.1.12.2.25.31.36a.36.36 0 0 1 .06.3l.5.14a6.23 6.23 0 0 1 .87.36l.59.23-.3-.34-2.38-2.69a.24.24 0 0 1 .35-.32l2 2.16A21 21 0 0 0 89 32.69a2.24 2.24 0 0 1 .56.42l.16.16a4.18 4.18 0 0 1 .61.93c0 .12.11.24.15.36a5 5 0 0 1 .19.84 5.72 5.72 0 0 1-.07 1.94c0 .12 0 .24.06.37v.17a.18.18 0 0 1 .16 0 .17.17 0 0 1 .1.22c-.06.15-.11.31-.17.46l-.07.16v.42a4.27 4.27 0 0 1-.09.68v.12l.24-.21a.23.23 0 0 1 .32.35c-.66.62-1.3 1.24-1.9 1.92-.16.17-.33.34-.49.5l-.78.78-.7.73-.13.16-.15.18a43.91 43.91 0 0 1-4.68 5.13c-.38.36-.77.73-1.17 1.08l-.15.04c-.5.53-1 1-1.56 1.56-.68.67-1.37 1.32-2.07 2 .33.51.69 1 1 1.49a27 27 0 0 0 5.53 5.66c1.1-.73 2.1-1.46 3.1-2.25zm-2.49-.27a25.14 25.14 0 0 1-2.07-2c-.33-.32-.64-.63-1-.94a6.36 6.36 0 0 0-.55-.43l-.31-.21a.25.25 0 0 1-.07-.34.25.25 0 0 1 .34-.07c.22.15.43.28.65.44a16.69 16.69 0 0 1 1.62 1.43 12.8 12.8 0 0 0 2.49 2.13.3.3 0 0 1-.32.51 6.11 6.11 0 0 1-.8-.52zm-13-1.49l-.41-.46c-.26-.28-.54-.55-.8-.82a13.29 13.29 0 0 1-2.3-2.71.26.26 0 0 1 .44-.26 8.83 8.83 0 0 0 1.82 2.12l1.3 1.19c.16.15.31.31.46.46a.36.36 0 1 1-.52.49zm-31.33-1.67l-.27.1-.1.08zm48.16-1.47a11 11 0 0 0-2-2 .21.21 0 0 1 .24-.34c.08.07.18.12.27.19s.38.3.56.47c.43.41.84.84 1.25 1.28A13.3 13.3 0 0 0 90 55.05a2.58 2.58 0 0 0 .35.24.31.31 0 1 1-.35.51 9.36 9.36 0 0 1-1.66-1.64zM54 55l1-1v-.1c-.41.41-.81.83-1.21 1.25zm4.52-4.29c-.31.25-.61.5-.9.76l-1.42 1.26h.1zm18.74 1.7a12.44 12.44 0 0 0 1.27-1c.79-.64 1.48-1.32 2.12-1.95a.21.21 0 0 1 .1-.05l.46-.43 2-2.08c.42-.45.83-.91 1.24-1.38.17-.19.34-.39.5-.59.38-.48.78-1 1.15-1.45l.6-.83c.36-.5.68-1 1-1.54s.47-.79.66-1.19a11 11 0 0 0 1.09-3.16c0-.15-.06-.3-.1-.44a7.42 7.42 0 0 0-.49-1.24v-.09l-.47-.6a5.87 5.87 0 0 0-.46-.48c-.25-.22-.49-.42-.75-.62a6.26 6.26 0 0 0-.68-.47c-.35-.2-.69-.4-1-.58l-.29-.13-.53-.11a9 9 0 0 0-2-.2 10.61 10.61 0 0 0-2.72.42 11.6 11.6 0 0 0-1.76.69c-.26.29-.52.6-.79.88-.44.45-.91.88-1.38 1.32-.79.73-1.59 1.45-2.4 2.16l-1.78 1.59c-.73.66-1.46 1.32-2.17 2l-.45.59-.24.31.3.06h.21l.45.08c.39.08.75.19 1.14.3s.48.18.72.27a8.23 8.23 0 0 1 1.19.59l.2.14.21.09h.08a6.15 6.15 0 0 1-.38-.56.23.23 0 1 1 .37-.25 12.53 12.53 0 0 0 1.15 1.46 4.46 4.46 0 0 1 1.09.62A7.94 7.94 0 0 1 77 45.87a5.68 5.68 0 0 1 .78 1.1 4.63 4.63 0 0 1 .13 4.09 6.37 6.37 0 0 1-.29.63.35.35 0 0 1-.07.4.36.36 0 0 1-.21.1l-.18.28zm-8.18-8.7a6.9 6.9 0 0 0-1 .05l-.62.1a.28.28 0 0 1-.42.38l-.06-.06-.28.3a14.44 14.44 0 0 1 2.35-.75zm-.61-.71h.35l-.4-.09h-.29L68 43zm28.48-3.09l-1.38-1.41a.22.22 0 1 1 .31-.31c.81.81 1.62 1.6 2.45 2.39.5.47 1 1 1.51 1.42a.33.33 0 0 1 0 .46h-.46c-.81-.87-1.61-1.72-2.43-2.57zm-7 .52a.27.27 0 0 1 0-.12l-.27.46zm8.71-2.64A30.12 30.12 0 0 1 96.43 35c-.25-.34-.5-.71-.73-1.07a.23.23 0 1 1 .38-.26c.24.37.5.75.76 1.1a21.42 21.42 0 0 0 3.3 3.7.3.3 0 0 1-.42.44c-.36-.39-.72-.75-1.08-1.13zm-23-3.29a19.25 19.25 0 0 0-2.83 2.5c.96-.85 1.9-1.66 2.83-2.52zm25.42 1.6v.81a7.62 7.62 0 0 1 0-.83zM69.3 32.77a9.86 9.86 0 0 1-1.05-1.24.18.18 0 1 1 .29-.22 18.12 18.12 0 0 0 3.76 3.43.3.3 0 0 1-.38.46c-.92-.8-1.79-1.58-2.62-2.43zm31.59 1.3a5 5 0 0 0-.09-.54v-.15l-.12-.54a19.24 19.24 0 0 1 .29 2c-.05-.28-.06-.52-.08-.77zm-24.25-1.51l-.18-.15h-.06v.05c-.24.25-.47.49-.69.75q.44-.36.93-.65zm1.31-1.78c-.13-.15-.26-.32-.4-.47-.44-.47-.93-.93-1.41-1.36a8.59 8.59 0 0 1-1.49-1.65.19.19 0 0 1 .32-.22 8.63 8.63 0 0 0 1.79 1.8c.41.34.83.67 1.22 1l.44.44a.31.31 0 0 1-.46.43zm22.17-1.9v-.13a.52.52 0 0 0-.32-.37h-.06l.39.69a1.39 1.39 0 0 0-.02-.19zm-4.27-4.41a11.11 11.11 0 0 0-1.21-1c.37.29.86.73 1.35 1.19zm-5.71-4c-.29-.14-.59-.27-.89-.38s-.7-.21-1.05-.29a2 2 0 0 0-.43-.06l1.53.47.84.29a.12.12 0 0 1-.01-.06zm-5-2.15l-1.19-.05h-1.14a16.24 16.24 0 0 1 2 .22.09.09 0 0 1 .09 0c.39 0 .76 0 1.15.08h.31a5.51 5.51 0 0 0-1.28-.28z"/></svg>