<svg xmlns="http://www.w3.org/2000/svg" viewBox="0 0 164 175"><title>robot</title><path fill="#00fafd" d="M103.59 83.01l-4.61 4.57-4.6-4.57-2.75 2.74 4.6 4.57-4.6 4.58 2.75 2.73 4.6-4.57 4.61 4.57 2.75-2.73-4.6-4.58 4.6-4.57-2.75-2.74zm-28.6 1.37l-1.38-1.37-4.6 4.57-4.6-4.57-2.75 2.74 4.6 4.57-4.6 4.58 2.75 2.73 4.6-4.57 4.6 4.57 1.38-1.36 1.38-1.37-4.6-4.58 4.6-4.57-1.38-1.37z"/><path d="M160.05 139.25h-2.48V130a7.73 7.73 0 0 0-7.74-7.7h-14.39a7.73 7.73 0 0 0-6.92 4.3V99.4a44.43 44.43 0 0 0-42.57-44.21V43.45a12.83 12.83 0 1 0-3.9 0v11.74A44.43 44.43 0 0 0 39.48 99.4v26.76a7.72 7.72 0 0 0-6.68-3.88H18.4a7.73 7.73 0 0 0-7.74 7.7v9.28H7.95A3.94 3.94 0 0 0 4 143.17v10.45a3.94 3.94 0 0 0 3.95 3.92h2.71v9.28a7.73 7.73 0 0 0 7.74 7.7h14.39a7.73 7.73 0 0 0 7.74-7.7V160a21.75 21.75 0 0 0 20.67 15h45.58a21.73 21.73 0 0 0 20.9-15.77v7.59a7.73 7.73 0 0 0 7.74 7.7h14.39a7.73 7.73 0 0 0 7.74-7.7v-9.28h2.48a3.94 3.94 0 0 0 3.95-3.92v-10.45a3.94 3.94 0 0 0-3.93-3.92zm-149.39 15H7.95a.65.65 0 0 1-.64-.64v-10.44a.65.65 0 0 1 .64-.64h2.71zm26 12.57a3.84 3.84 0 0 1-3.84 3.82H18.4a3.84 3.84 0 0 1-3.84-3.82v-7.64h22.07v7.64zm0-11.52h-22.1v-13.81h22.07zm0-17.7h-22.1V130a3.84 3.84 0 0 1 3.84-3.82h14.39a3.84 3.84 0 0 1 3.85 3.82v7.64zM75.07 30.86A8.93 8.93 0 1 1 84 39.74a8.91 8.91 0 0 1-8.93-8.88zm49.55 122.54a17.8 17.8 0 0 1-17.83 17.73H61.21a17.8 17.8 0 0 1-17.83-17.73V117h81.25v36.4zm0-40.27H43.38V99.4a40.62 40.62 0 0 1 81.25 0zm29 53.69a3.84 3.84 0 0 1-3.84 3.82h-14.34a3.84 3.84 0 0 1-3.84-3.82v-7.64h22.08v7.64zm0-11.52h-22.03v-13.81h22.08zm0-17.7h-22.03V130a3.84 3.84 0 0 1 3.84-3.82h14.39a3.84 3.84 0 0 1 3.84 3.82v7.64zm7 16a.65.65 0 0 1-.64.64h-2.48v-11.7h2.48a.65.65 0 0 1 .64.64z" fill="#00fafd"/><path d="M134 109.23a11.5 11.5 0 0 0 11.38-11.6V80.88a14 14 0 0 0 5.55-25.4l-2.18 3.22a10.07 10.07 0 0 1 4.44 8.41 9.77 9.77 0 1 1-19.52 0 10.08 10.08 0 0 1 4.45-8.41L136 55.47a14 14 0 0 0 5.55 25.4v16.76a7.61 7.61 0 0 1-7.48 7.72h-5.5v3.88zm-100-3.87a7.61 7.61 0 0 1-7.48-7.72V80.87A14 14 0 0 0 32 55.47l-2.18 3.22a10.07 10.07 0 0 1 4.44 8.41 9.93 9.93 0 0 1-9.77 10.06 9.92 9.92 0 0 1-9.76-10.06 10.07 10.07 0 0 1 4.44-8.41l-2.18-3.22a14 14 0 0 0 5.55 25.4v16.76A11.5 11.5 0 0 0 34 109.23h5.5v-3.88zM82.05 0h3.9v12.19h-3.9zm20.74 28.93h12.26v3.88h-12.26zm-49.84 0h12.26v3.88H52.95zm45.71-9.9l-2.75-2.74 8.67-8.62 2.75 2.74-8.67 8.62zM63.42 7.67l8.67 8.62-2.76 2.74-8.67-8.62 2.76-2.74z" fill="#00fafd"/><path fill="#f12644" d="M99.59 83.01l-4.61 4.57-4.6-4.57-2.75 2.74 4.6 4.57-4.6 4.58 2.75 2.73 4.6-4.57 4.61 4.57 2.75-2.73-4.6-4.58 4.6-4.57-2.75-2.74zm-28.6 1.37l-1.38-1.37-4.6 4.57-4.6-4.57-2.75 2.74 4.6 4.57-4.6 4.58 2.75 2.73 4.6-4.57 4.6 4.57 1.38-1.36 1.38-1.37-4.6-4.58 4.6-4.57-1.38-1.37z"/><path d="M156.05 139.25h-2.48V130a7.73 7.73 0 0 0-7.74-7.7h-14.39a7.73 7.73 0 0 0-6.92 4.3V99.4a44.43 44.43 0 0 0-42.57-44.21V43.45a12.83 12.83 0 1 0-3.9 0v11.74A44.43 44.43 0 0 0 35.48 99.4v26.76a7.72 7.72 0 0 0-6.68-3.88H14.4A7.73 7.73 0 0 0 6.66 130v9.28H3.95A3.94 3.94 0 0 0 0 143.17v10.45a3.94 3.94 0 0 0 3.95 3.92h2.71v9.28a7.73 7.73 0 0 0 7.74 7.7h14.39a7.73 7.73 0 0 0 7.74-7.7V160a21.75 21.75 0 0 0 20.67 15h45.58a21.73 21.73 0 0 0 20.9-15.77v7.59a7.73 7.73 0 0 0 7.74 7.7h14.39a7.73 7.73 0 0 0 7.74-7.7v-9.28h2.48a3.94 3.94 0 0 0 3.95-3.92v-10.45a3.94 3.94 0 0 0-3.93-3.92zm-149.39 15H3.95a.65.65 0 0 1-.64-.64v-10.44a.65.65 0 0 1 .64-.64h2.71zm26 12.57a3.84 3.84 0 0 1-3.84 3.82H14.4a3.84 3.84 0 0 1-3.84-3.82v-7.64h22.07v7.64zm0-11.52h-22.1v-13.81h22.07zm0-17.7h-22.1V130a3.84 3.84 0 0 1 3.84-3.82h14.39a3.84 3.84 0 0 1 3.85 3.82v7.64zM71.07 30.86A8.93 8.93 0 1 1 80 39.74a8.91 8.91 0 0 1-8.93-8.88zm49.55 122.54a17.8 17.8 0 0 1-17.83 17.73H57.21a17.8 17.8 0 0 1-17.83-17.73V117h81.25v36.4zm0-40.27H39.38V99.4a40.62 40.62 0 0 1 81.25 0zm29 53.69a3.84 3.84 0 0 1-3.84 3.82h-14.34a3.84 3.84 0 0 1-3.84-3.82v-7.64h22.08v7.64zm0-11.52h-22.03v-13.81h22.08zm0-17.7h-22.03V130a3.84 3.84 0 0 1 3.84-3.82h14.39a3.84 3.84 0 0 1 3.84 3.82v7.64zm7 16a.65.65 0 0 1-.64.64h-2.48v-11.7h2.48a.65.65 0 0 1 .64.64z" fill="#f12644"/><path d="M130 109.23a11.5 11.5 0 0 0 11.38-11.6V80.88a14 14 0 0 0 5.55-25.4l-2.18 3.22a10.07 10.07 0 0 1 4.44 8.41 9.77 9.77 0 1 1-19.52 0 10.08 10.08 0 0 1 4.45-8.41L132 55.47a14 14 0 0 0 5.55 25.4v16.76a7.61 7.61 0 0 1-7.48 7.72h-5.5v3.88zm-100-3.87a7.61 7.61 0 0 1-7.48-7.72V80.87A14 14 0 0 0 28 55.47l-2.18 3.22a10.07 10.07 0 0 1 4.44 8.41 9.93 9.93 0 0 1-9.77 10.06 9.92 9.92 0 0 1-9.76-10.06 10.07 10.07 0 0 1 4.44-8.41l-2.18-3.22a14 14 0 0 0 5.55 25.4v16.76A11.5 11.5 0 0 0 30 109.23h5.5v-3.88zM78.05 0h3.9v12.19h-3.9zm20.74 28.93h12.26v3.88H98.79zm-49.84 0h12.26v3.88H48.95zm45.71-9.9l-2.75-2.74 8.67-8.62 2.75 2.74-8.67 8.62zM59.42 7.67l8.67 8.62-2.76 2.74-8.67-8.62 2.76-2.74z" fill="#f12644"/><path fill="#272736" d="M101.59 83.01l-4.61 4.57-4.6-4.57-2.75 2.74 4.6 4.57-4.6 4.58 2.75 2.73 4.6-4.57 4.61 4.57 2.75-2.73-4.6-4.58 4.6-4.57-2.75-2.74zm-28.6 1.37l-1.38-1.37-4.6 4.57-4.6-4.57-2.75 2.74 4.6 4.57-4.6 4.58 2.75 2.73 4.6-4.57 4.6 4.57 1.38-1.36 1.38-1.37-4.6-4.58 4.6-4.57-1.38-1.37z"/><path d="M158.05 139.25h-2.48V130a7.73 7.73 0 0 0-7.74-7.7h-14.39a7.73 7.73 0 0 0-6.92 4.3V99.4a44.43 44.43 0 0 0-42.57-44.21V43.45a12.83 12.83 0 1 0-3.9 0v11.74A44.43 44.43 0 0 0 37.48 99.4v26.76a7.72 7.72 0 0 0-6.68-3.88H16.4A7.73 7.73 0 0 0 8.66 130v9.28H5.95A3.94 3.94 0 0 0 2 143.17v10.45a3.94 3.94 0 0 0 3.95 3.92h2.71v9.28a7.73 7.73 0 0 0 7.74 7.7h14.39a7.73 7.73 0 0 0 7.74-7.7V160a21.75 21.75 0 0 0 20.67 15h45.58a21.73 21.73 0 0 0 20.9-15.77v7.59a7.73 7.73 0 0 0 7.74 7.7h14.39a7.73 7.73 0 0 0 7.74-7.7v-9.28h2.48a3.94 3.94 0 0 0 3.95-3.92v-10.45a3.94 3.94 0 0 0-3.93-3.92zm-149.39 15H5.95a.65.65 0 0 1-.64-.64v-10.44a.65.65 0 0 1 .64-.64h2.71zm26 12.57a3.84 3.84 0 0 1-3.84 3.82H16.4a3.84 3.84 0 0 1-3.84-3.82v-7.64h22.07v7.64zm0-11.52h-22.1v-13.81h22.07zm0-17.7h-22.1V130a3.84 3.84 0 0 1 3.84-3.82h14.39a3.84 3.84 0 0 1 3.85 3.82v7.64zM73.07 30.86A8.93 8.93 0 1 1 82 39.74a8.91 8.91 0 0 1-8.93-8.88zm49.55 122.54a17.8 17.8 0 0 1-17.83 17.73H59.21a17.8 17.8 0 0 1-17.83-17.73V117h81.25v36.4zm0-40.27H41.38V99.4a40.62 40.62 0 0 1 81.25 0zm29 53.69a3.84 3.84 0 0 1-3.84 3.82h-14.34a3.84 3.84 0 0 1-3.84-3.82v-7.64h22.08v7.64zm0-11.52h-22.03v-13.81h22.08zm0-17.7h-22.03V130a3.84 3.84 0 0 1 3.84-3.82h14.39a3.84 3.84 0 0 1 3.84 3.82v7.64zm7 16a.65.65 0 0 1-.64.64h-2.48v-11.7h2.48a.65.65 0 0 1 .64.64z" fill="#272736"/><path d="M132 109.23a11.5 11.5 0 0 0 11.38-11.6V80.88a14 14 0 0 0 5.55-25.4l-2.18 3.22a10.07 10.07 0 0 1 4.44 8.41 9.77 9.77 0 1 1-19.52 0 10.08 10.08 0 0 1 4.45-8.41L134 55.47a14 14 0 0 0 5.55 25.4v16.76a7.61 7.61 0 0 1-7.48 7.72h-5.5v3.88zm-100-3.87a7.61 7.61 0 0 1-7.48-7.72V80.87A14 14 0 0 0 30 55.47l-2.18 3.22a10.07 10.07 0 0 1 4.44 8.41 9.93 9.93 0 0 1-9.77 10.06 9.92 9.92 0 0 1-9.76-10.06 10.07 10.07 0 0 1 4.44-8.41l-2.18-3.22a14 14 0 0 0 5.55 25.4v16.76A11.5 11.5 0 0 0 32 109.23h5.5v-3.88zM80.05 0h3.9v12.19h-3.9zm20.74 28.93h12.26v3.88h-12.26zm-49.84 0h12.26v3.88H50.95zm45.71-9.9l-2.75-2.74 8.67-8.62 2.75 2.74-8.67 8.62zM61.42 7.67l8.67 8.62-2.76 2.74-8.67-8.62 2.76-2.74z" fill="#272736"/></svg>