<svg xmlns="http://www.w3.org/2000/svg" viewBox="0 0 160 320"><title>sprite</title><path d="M54 46.54a.67.67 0 0 0-.16-.4l-4.62-4.92a.58.58 0 0 0-.82 0 .6.6 0 0 0 0 .82L52.09 46H39.58a.58.58 0 0 0 0 1.16h12.51l-3.7 3.94a.61.61 0 0 0 0 .82.58.58 0 0 0 .82 0L53.83 47a.52.52 0 0 0 .16-.4z" fill="#b3caf1"/><path d="M65 115.5a.67.67 0 0 0-.16-.4l-4.62-4.92a.58.58 0 0 0-.82 0 .6.6 0 0 0 0 .82l3.7 3.94H50.58a.58.58 0 0 0 0 1.16h12.51l-3.71 3.9a.61.61 0 0 0 0 .82.58.58 0 0 0 .82 0l4.62-4.92a.52.52 0 0 0 .16-.4zm-15 12a.67.67 0 0 0 .16.4l4.62 4.92a.58.58 0 0 0 .82 0 .6.6 0 0 0 0-.82l-3.7-3.94h12.52a.58.58 0 0 0 0-1.16H51.91l3.7-3.94a.61.61 0 0 0 0-.82.58.58 0 0 0-.82 0l-4.62 4.92a.52.52 0 0 0-.16.4z" fill="#347ffb"/><path d="M0 276.5a.56.56 0 0 0 .13.33l2.69 3a.45.45 0 0 0 .65 0 .5.5 0 0 0 0-.67l-2-2.22h10a.48.48 0 0 0 0-1h-10l2-2.22a.51.51 0 0 0 0-.67.45.45 0 0 0-.65 0l-2.69 3a.43.43 0 0 0-.13.33zm28 0a.56.56 0 0 0-.13-.33l-2.69-3a.45.45 0 0 0-.65 0 .5.5 0 0 0 0 .67l2 2.22h-10a.48.48 0 0 0 0 1h10l-2 2.22a.51.51 0 0 0 0 .67.45.45 0 0 0 .65 0l2.69-3a.43.43 0 0 0 .13-.33z" fill="#8a919a"/><path d="M31 276.5a.56.56 0 0 0 .13.33l2.69 3a.45.45 0 0 0 .65 0 .5.5 0 0 0 0-.67l-2-2.22h10a.48.48 0 0 0 0-1h-10l2-2.22a.51.51 0 0 0 0-.67.45.45 0 0 0-.65 0l-2.69 3a.43.43 0 0 0-.13.33zm28 0a.56.56 0 0 0-.13-.33l-2.69-3a.45.45 0 0 0-.65 0 .5.5 0 0 0 0 .67l2 2.22h-10a.48.48 0 0 0 0 1h10l-2 2.22a.51.51 0 0 0 0 .67.45.45 0 0 0 .65 0l2.69-3a.43.43 0 0 0 .13-.33z" fill="#fff"/><path d="M43.1 3.22l-8.41 23.69v.15l-1.55-3.22-3.23 1.53 8.42-23.84L41.56 0zm21.05.55l-8.41 23.7-1.55-3.23L51 25.77l.2-.56 8.38-23.68L62.8 0l1.54 3.22zm-18 20.48l5-13.92-3.24 1.53-1.61-3.22-4.94 13.92 1.54 3.22zM19.34 10.53H4.57L7.09 13l-2.52 2.45h14.77L21.86 13zM2.52 20.85h23.91l-2.51 2.47 2.51 2.46H2.52L0 23.31zM9.85.2h23.92l-2.52 2.46 2.52 2.46H9.85L7.33 2.66z" fill="#2c92ff" fill-rule="evenodd"/><path d="M130.63 14.47a9.58 9.58 0 0 1 .73-3.69 9.23 9.23 0 0 1 5.08-5.12 9.93 9.93 0 0 1 3.9-.76 10.13 10.13 0 0 1 3.9.75 9.06 9.06 0 0 1 5 5.11 9.87 9.87 0 0 1 0 7.41 9.2 9.2 0 0 1-5.08 5.13 10 10 0 0 1-3.91.76 9.75 9.75 0 0 1-5-1.3 9 9 0 0 1-3.44-3.48 9.67 9.67 0 0 1-1.22-4.8zm-53.4-1.68H87V16h-9.77v4.5h10.26v3.24H73.63V5.21h13.73v3.24H77.23zm12 10.95l6.46-9.42-6.21-9.1h4.19l4.48 6.57 4.48-6.57h4.09l-6.18 9.06 6.46 9.45h-4.19l-4.73-6.94-4.74 6.94zm19.94 0V5.21H113l5.63 8.27 5.63-8.27h3.82v18.52h-3.61V10.95l-5.84 8h-.11l-5.81-8v12.78zm25.08-9.27a6.83 6.83 0 0 0 .77 3.21 6 6 0 0 0 2.17 2.32 5.88 5.88 0 0 0 3.14.86 5.85 5.85 0 0 0 5.29-3.17 6.85 6.85 0 0 0 .77-3.24 6.72 6.72 0 0 0-.78-3.21 6 6 0 0 0-2.19-2.33 5.92 5.92 0 0 0-3.14-.87 5.85 5.85 0 0 0-5.28 3.2 6.9 6.9 0 0 0-.76 3.23z" fill="#2c92ff"/><path d="M34.48 212.58l-6.73 18.95v.12l-1.24-2.58-2.58 1.22 6.77-19.07 2.55-1.22zm16.84.44l-6.73 19-1.24-2.58-2.58 1.23.16-.45 6.73-18.95 2.58-1.27 1.23 2.58zM36.9 229.41l4-11.14-2.59 1.23-1.31-2.59-4 11.14 1.23 2.58zm-21.43-11H3.65l2 2-2 2h11.82l2-2zM2 226.68h19.14l-2 2 2 2H2l-2-2zm5.87-16.52H27l-2 2 2 2H7.88l-2-2z" fill="#2c92ff" fill-rule="evenodd"/><path d="M104.5 221.58a7.67 7.67 0 0 1 .58-3 7.38 7.38 0 0 1 4.06-4.1 8 8 0 0 1 3.12-.61 8.11 8.11 0 0 1 3.12.6 7.25 7.25 0 0 1 4 4.08 7.9 7.9 0 0 1 0 5.93 7.36 7.36 0 0 1-4.07 4.1 8 8 0 0 1-3.13.61 7.8 7.8 0 0 1-4-1 7.21 7.21 0 0 1-2.75-2.78 7.73 7.73 0 0 1-1-3.84zm-42.72-1.34h7.82v2.59h-7.82v3.58H70V229H58.9v-14.83h11v2.59h-8.1zm9.6 8.76l5.17-7.54-5-7.28h3.35l3.58 5.26 3.59-5.26h3.27l-4.95 7.24 5.18 7.58h-3.35l-3.78-5.55-3.79 5.55zm16 0v-14.83h3.02l4.5 6.62 4.5-6.62h3.05V229h-2.88v-10.24l-4.67 6.43h-.08l-4.64-6.39V229zm20.06-7.41a5.46 5.46 0 0 0 .62 2.57 4.77 4.77 0 0 0 1.74 1.87 4.7 4.7 0 0 0 2.52.69 4.68 4.68 0 0 0 4.23-2.54 5.48 5.48 0 0 0 .62-2.59 5.38 5.38 0 0 0-.62-2.57 4.82 4.82 0 0 0-1.75-1.87 4.73 4.73 0 0 0-2.52-.69A4.68 4.68 0 0 0 108 219a5.52 5.52 0 0 0-.61 2.58z" fill="#2c92ff"/><path fill="#fff" d="M0 41.77v9.09h15v-9.05l-7.5 5.85L0 41.77z"/><path fill="#fff" d="M0 40v.79l7.5 5.8 7.5-5.8V40H0zm27 16.86a.63.63 0 0 1-.41-.15l-4.35-3.58a.64.64 0 0 1 .82-1L27 55.4l4-3.25a.64.64 0 1 1 .82 1l-4.35 3.58a.82.82 0 0 1-.47.13zM27 40a.63.63 0 0 1 .41.15l4.35 3.58a.64.64 0 0 1-.82 1L27 41.46l-4 3.25a.64.64 0 1 1-.82-1l4.35-3.58A.82.82 0 0 1 27 40z"/><path d="M68.7 58a1.59 1.59 0 0 1-.52-.06 10.71 10.71 0 0 1-1.44-.58 1.74 1.74 0 0 1-.92-1.9 1 1 0 0 0-.29-1 1.24 1.24 0 0 0-1-.29 1.77 1.77 0 0 1-1.9-.92 7.51 7.51 0 0 1-.58-1.44 1.61 1.61 0 0 1 .69-1.9 1.09 1.09 0 0 0 .52-.92 1.11 1.11 0 0 0-.52-.92 1.67 1.67 0 0 1-.69-1.9 10.71 10.71 0 0 1 .58-1.44 1.74 1.74 0 0 1 1.9-1 1 1 0 0 0 1-.23 1.24 1.24 0 0 0 .29-1 1.77 1.77 0 0 1 .92-1.9 7.51 7.51 0 0 1 1.44-.58 1.61 1.61 0 0 1 1.9.69 1.09 1.09 0 0 0 .92.52 1.11 1.11 0 0 0 .92-.52 1.67 1.67 0 0 1 1.9-.69 10.71 10.71 0 0 1 1.44.58 1.74 1.74 0 0 1 .92 1.9 1 1 0 0 0 1.27 1.21 1.77 1.77 0 0 1 1.9.92 7.51 7.51 0 0 1 .58 1.44 1.61 1.61 0 0 1-.69 1.9 1.09 1.09 0 0 0-.52.92 1.11 1.11 0 0 0 .52.92 1.67 1.67 0 0 1 .69 1.9 10.71 10.71 0 0 1-.58 1.44 1.74 1.74 0 0 1-1.9.92 1 1 0 0 0-1 .29 1.24 1.24 0 0 0-.29 1 1.77 1.77 0 0 1-.92 1.9 7.51 7.51 0 0 1-1.44.58 1.61 1.61 0 0 1-1.9-.69 1.09 1.09 0 0 0-.92-.52 1.11 1.11 0 0 0-.92.52 1.55 1.55 0 0 1-1.36.85zm-3.91-5a2.22 2.22 0 0 1 1.55.63 2.26 2.26 0 0 1 .58 2.07.55.55 0 0 0 .35.58 5.87 5.87 0 0 0 1.27.52.52.52 0 0 0 .58-.17 2.22 2.22 0 0 1 1.9-1 2.3 2.3 0 0 1 1.9 1 .45.45 0 0 0 .58.17 4.89 4.89 0 0 0 1.27-.52.55.55 0 0 0 .35-.58 2.3 2.3 0 0 1 .58-2.07 2.26 2.26 0 0 1 2.03-.63.55.55 0 0 0 .58-.35 5.87 5.87 0 0 0 .52-1.27.52.52 0 0 0-.17-.58 2.22 2.22 0 0 1-1-1.9 2.3 2.3 0 0 1 1-1.9.45.45 0 0 0 .17-.58 4.89 4.89 0 0 0-.52-1.27.55.55 0 0 0-.58-.35 2.3 2.3 0 0 1-2.07-.58 2.26 2.26 0 0 1-.58-2.07.55.55 0 0 0-.35-.58 5.87 5.87 0 0 0-1.27-.52.52.52 0 0 0-.58.17 2.22 2.22 0 0 1-1.9 1 2.3 2.3 0 0 1-1.9-1 .45.45 0 0 0-.58-.17 12.32 12.32 0 0 0-1.27.58.55.55 0 0 0-.35.58 2.3 2.3 0 0 1-.58 2.07 2.26 2.26 0 0 1-2.07.58.55.55 0 0 0-.58.35 5.87 5.87 0 0 0-.52 1.27.52.52 0 0 0 .17.58 2.22 2.22 0 0 1 1 1.9 2.3 2.3 0 0 1-1 1.9.45.45 0 0 0-.17.58 4.89 4.89 0 0 0 .52 1.27.55.55 0 0 0 .58.35 1.68 1.68 0 0 1 .55-.06z" fill="#8a919a"/><path d="M71 53.6a4.6 4.6 0 1 1 4.6-4.6 4.62 4.62 0 0 1-4.6 4.6zm0-8.06A3.45 3.45 0 1 0 74.45 49 3.43 3.43 0 0 0 71 45.55z" fill="#8a919a"/><path d="M75.58 162a1.33 1.33 0 0 1-.43 0 8.92 8.92 0 0 1-1.2-.48 1.45 1.45 0 0 1-.77-1.58.85.85 0 0 0-.24-.82 1 1 0 0 0-.82-.24 1.48 1.48 0 0 1-1.58-.77 6.27 6.27 0 0 1-.48-1.2 1.35 1.35 0 0 1 .58-1.58.91.91 0 0 0 .43-.77.92.92 0 0 0-.43-.77 1.39 1.39 0 0 1-.58-1.58 8.94 8.94 0 0 1 .48-1.2 1.45 1.45 0 0 1 1.58-.82.83.83 0 0 0 .82-.19 1 1 0 0 0 .24-.82 1.48 1.48 0 0 1 .77-1.58 6.25 6.25 0 0 1 1.2-.48 1.34 1.34 0 0 1 1.58.58.91.91 0 0 0 .77.43.92.92 0 0 0 .77-.43 1.39 1.39 0 0 1 1.58-.58 8.92 8.92 0 0 1 1.2.48 1.45 1.45 0 0 1 .77 1.58.84.84 0 0 0 1.06 1 1.48 1.48 0 0 1 1.58.77 6.27 6.27 0 0 1 .48 1.2 1.35 1.35 0 0 1-.58 1.58.91.91 0 0 0-.43.77.92.92 0 0 0 .43.77 1.39 1.39 0 0 1 .58 1.58 8.94 8.94 0 0 1-.48 1.2 1.45 1.45 0 0 1-1.58.77.85.85 0 0 0-.82.24 1 1 0 0 0-.24.82 1.48 1.48 0 0 1-.77 1.58 6.25 6.25 0 0 1-1.2.48 1.34 1.34 0 0 1-1.58-.58.91.91 0 0 0-.77-.43.92.92 0 0 0-.77.43 1.29 1.29 0 0 1-1.15.64zm-3.26-4.18a1.85 1.85 0 0 1 1.3.53 1.88 1.88 0 0 1 .48 1.73.46.46 0 0 0 .29.48 4.89 4.89 0 0 0 1.06.43.43.43 0 0 0 .48-.14 1.85 1.85 0 0 1 1.57-.85 1.92 1.92 0 0 1 1.58.86.37.37 0 0 0 .48.14 4.07 4.07 0 0 0 1.06-.43.46.46 0 0 0 .29-.48 1.92 1.92 0 0 1 .48-1.73 1.88 1.88 0 0 1 1.73-.48.46.46 0 0 0 .48-.29 4.9 4.9 0 0 0 .43-1.06.43.43 0 0 0-.14-.48 1.86 1.86 0 0 1-.86-1.58 1.92 1.92 0 0 1 .86-1.58.37.37 0 0 0 .14-.48 4.08 4.08 0 0 0-.43-1.06.46.46 0 0 0-.48-.29 1.91 1.91 0 0 1-1.73-.48 1.88 1.88 0 0 1-.48-1.73.46.46 0 0 0-.29-.48 4.89 4.89 0 0 0-1.06-.43.43.43 0 0 0-.48.14 1.85 1.85 0 0 1-1.58.86 1.92 1.92 0 0 1-1.58-.86.37.37 0 0 0-.48-.14 10.26 10.26 0 0 0-1.06.48.46.46 0 0 0-.29.48 1.92 1.92 0 0 1-.48 1.73 1.88 1.88 0 0 1-1.73.48.46.46 0 0 0-.48.29 4.9 4.9 0 0 0-.43 1.06.43.43 0 0 0 .14.48 1.86 1.86 0 0 1 .86 1.58 1.92 1.92 0 0 1-.86 1.58.37.37 0 0 0-.14.48 4.08 4.08 0 0 0 .43 1.06.46.46 0 0 0 .48.29 1.4 1.4 0 0 1 .44-.11z" fill="#347ffb"/><path d="M77.5 158.35a3.84 3.84 0 1 1 3.84-3.84 3.85 3.85 0 0 1-3.84 3.84zm0-6.72a2.88 2.88 0 1 0 2.88 2.88 2.86 2.86 0 0 0-2.88-2.88z" fill="#347ffb"/><path d="M75.58 180a1.33 1.33 0 0 1-.43 0 8.92 8.92 0 0 1-1.2-.48 1.45 1.45 0 0 1-.77-1.58.85.85 0 0 0-.24-.82 1 1 0 0 0-.82-.24 1.48 1.48 0 0 1-1.58-.77 6.27 6.27 0 0 1-.48-1.2 1.35 1.35 0 0 1 .58-1.58.91.91 0 0 0 .43-.77.92.92 0 0 0-.43-.77 1.39 1.39 0 0 1-.58-1.58 8.94 8.94 0 0 1 .48-1.2 1.45 1.45 0 0 1 1.58-.82.83.83 0 0 0 .82-.19 1 1 0 0 0 .24-.82 1.48 1.48 0 0 1 .77-1.58 6.25 6.25 0 0 1 1.2-.48 1.34 1.34 0 0 1 1.58.58.91.91 0 0 0 .77.43.92.92 0 0 0 .77-.43 1.39 1.39 0 0 1 1.58-.58 8.92 8.92 0 0 1 1.2.48 1.45 1.45 0 0 1 .77 1.58.84.84 0 0 0 1.06 1 1.48 1.48 0 0 1 1.58.77 6.27 6.27 0 0 1 .48 1.2 1.35 1.35 0 0 1-.58 1.58.91.91 0 0 0-.43.77.92.92 0 0 0 .43.77 1.39 1.39 0 0 1 .58 1.58 8.94 8.94 0 0 1-.48 1.2 1.45 1.45 0 0 1-1.58.77.85.85 0 0 0-.82.24 1 1 0 0 0-.24.82 1.48 1.48 0 0 1-.77 1.58 6.25 6.25 0 0 1-1.2.48 1.34 1.34 0 0 1-1.58-.58.91.91 0 0 0-.77-.43.92.92 0 0 0-.77.43 1.29 1.29 0 0 1-1.15.64zm-3.26-4.18a1.85 1.85 0 0 1 1.3.53 1.88 1.88 0 0 1 .48 1.73.46.46 0 0 0 .29.48 4.89 4.89 0 0 0 1.06.43.43.43 0 0 0 .48-.14 1.85 1.85 0 0 1 1.57-.85 1.92 1.92 0 0 1 1.58.86.37.37 0 0 0 .48.14 4.07 4.07 0 0 0 1.06-.43.46.46 0 0 0 .29-.48 1.92 1.92 0 0 1 .48-1.73 1.88 1.88 0 0 1 1.73-.48.46.46 0 0 0 .48-.29 4.9 4.9 0 0 0 .43-1.06.43.43 0 0 0-.14-.48 1.86 1.86 0 0 1-.86-1.58 1.92 1.92 0 0 1 .86-1.58.37.37 0 0 0 .14-.48 4.08 4.08 0 0 0-.43-1.06.46.46 0 0 0-.48-.29 1.91 1.91 0 0 1-1.73-.48 1.88 1.88 0 0 1-.48-1.73.46.46 0 0 0-.29-.48 4.89 4.89 0 0 0-1.06-.43.43.43 0 0 0-.48.14 1.85 1.85 0 0 1-1.58.86 1.92 1.92 0 0 1-1.58-.86.37.37 0 0 0-.48-.14 10.26 10.26 0 0 0-1.06.48.46.46 0 0 0-.29.48 1.92 1.92 0 0 1-.48 1.73 1.88 1.88 0 0 1-1.73.48.46.46 0 0 0-.48.29 4.9 4.9 0 0 0-.43 1.06.43.43 0 0 0 .14.48 1.86 1.86 0 0 1 .86 1.58 1.92 1.92 0 0 1-.86 1.58.37.37 0 0 0-.14.48 4.08 4.08 0 0 0 .43 1.06.46.46 0 0 0 .48.29 1.4 1.4 0 0 1 .44-.11z" fill="#fff"/><path d="M77.5 176.35a3.84 3.84 0 1 1 3.84-3.84 3.85 3.85 0 0 1-3.84 3.84zm0-6.72a2.88 2.88 0 1 0 2.88 2.88 2.86 2.86 0 0 0-2.88-2.88z" fill="#fff"/><path d="M75.58 198a1.33 1.33 0 0 1-.43 0 8.92 8.92 0 0 1-1.2-.48 1.45 1.45 0 0 1-.77-1.58.85.85 0 0 0-.24-.82 1 1 0 0 0-.82-.24 1.48 1.48 0 0 1-1.58-.77 6.27 6.27 0 0 1-.48-1.2 1.35 1.35 0 0 1 .58-1.58.91.91 0 0 0 .43-.77.92.92 0 0 0-.43-.77 1.39 1.39 0 0 1-.58-1.58 8.94 8.94 0 0 1 .48-1.2 1.45 1.45 0 0 1 1.58-.82.83.83 0 0 0 .82-.19 1 1 0 0 0 .24-.82 1.48 1.48 0 0 1 .77-1.58 6.25 6.25 0 0 1 1.2-.48 1.34 1.34 0 0 1 1.58.58.91.91 0 0 0 .77.43.92.92 0 0 0 .77-.43 1.39 1.39 0 0 1 1.58-.58 8.92 8.92 0 0 1 1.2.48 1.45 1.45 0 0 1 .77 1.58.84.84 0 0 0 1.06 1 1.48 1.48 0 0 1 1.58.77 6.27 6.27 0 0 1 .48 1.2 1.35 1.35 0 0 1-.58 1.58.91.91 0 0 0-.43.77.92.92 0 0 0 .43.77 1.39 1.39 0 0 1 .58 1.58 8.94 8.94 0 0 1-.48 1.2 1.45 1.45 0 0 1-1.58.77.85.85 0 0 0-.82.24 1 1 0 0 0-.24.82 1.48 1.48 0 0 1-.77 1.58 6.25 6.25 0 0 1-1.2.48 1.34 1.34 0 0 1-1.58-.58.91.91 0 0 0-.77-.43.92.92 0 0 0-.77.43 1.29 1.29 0 0 1-1.15.64zm-3.26-4.18a1.85 1.85 0 0 1 1.3.53 1.88 1.88 0 0 1 .48 1.73.46.46 0 0 0 .29.48 4.89 4.89 0 0 0 1.06.43.43.43 0 0 0 .48-.14 1.85 1.85 0 0 1 1.57-.85 1.92 1.92 0 0 1 1.58.86.37.37 0 0 0 .48.14 4.07 4.07 0 0 0 1.06-.43.46.46 0 0 0 .29-.48 1.92 1.92 0 0 1 .48-1.73 1.88 1.88 0 0 1 1.73-.48.46.46 0 0 0 .48-.29 4.9 4.9 0 0 0 .43-1.06.43.43 0 0 0-.14-.48 1.86 1.86 0 0 1-.86-1.58 1.92 1.92 0 0 1 .86-1.58.37.37 0 0 0 .14-.48 4.08 4.08 0 0 0-.43-1.06.46.46 0 0 0-.48-.29 1.91 1.91 0 0 1-1.73-.48 1.88 1.88 0 0 1-.48-1.73.46.46 0 0 0-.29-.48 4.89 4.89 0 0 0-1.06-.43.43.43 0 0 0-.48.14 1.85 1.85 0 0 1-1.58.86 1.92 1.92 0 0 1-1.58-.86.37.37 0 0 0-.48-.14 10.26 10.26 0 0 0-1.06.48.46.46 0 0 0-.29.48 1.92 1.92 0 0 1-.48 1.73 1.88 1.88 0 0 1-1.73.48.46.46 0 0 0-.48.29 4.9 4.9 0 0 0-.43 1.06.43.43 0 0 0 .14.48 1.86 1.86 0 0 1 .86 1.58 1.92 1.92 0 0 1-.86 1.58.37.37 0 0 0-.14.48 4.08 4.08 0 0 0 .43 1.06.46.46 0 0 0 .48.29 1.4 1.4 0 0 1 .44-.11z" fill="#216be3"/><path d="M77.5 194.35a3.84 3.84 0 1 1 3.84-3.84 3.85 3.85 0 0 1-3.84 3.84zm0-6.72a2.88 2.88 0 1 0 2.88 2.88 2.86 2.86 0 0 0-2.88-2.88z" fill="#216be3"/><path d="M95.58 198a1.33 1.33 0 0 1-.43 0 8.92 8.92 0 0 1-1.2-.48 1.45 1.45 0 0 1-.77-1.58.85.85 0 0 0-.24-.82 1 1 0 0 0-.82-.24 1.48 1.48 0 0 1-1.58-.77 6.27 6.27 0 0 1-.48-1.2 1.35 1.35 0 0 1 .58-1.58.91.91 0 0 0 .43-.77.92.92 0 0 0-.43-.77 1.39 1.39 0 0 1-.58-1.58 8.94 8.94 0 0 1 .48-1.2 1.45 1.45 0 0 1 1.58-.82.83.83 0 0 0 .82-.19 1 1 0 0 0 .24-.82 1.48 1.48 0 0 1 .77-1.58 6.25 6.25 0 0 1 1.2-.48 1.34 1.34 0 0 1 1.58.58.91.91 0 0 0 .77.43.92.92 0 0 0 .77-.43 1.39 1.39 0 0 1 1.58-.58 8.92 8.92 0 0 1 1.2.48 1.45 1.45 0 0 1 .77 1.58.84.84 0 0 0 1.06 1 1.48 1.48 0 0 1 1.58.77 6.27 6.27 0 0 1 .48 1.2 1.35 1.35 0 0 1-.58 1.58.91.91 0 0 0-.43.77.92.92 0 0 0 .43.77 1.39 1.39 0 0 1 .58 1.58 8.94 8.94 0 0 1-.48 1.2 1.45 1.45 0 0 1-1.58.77.85.85 0 0 0-.82.24 1 1 0 0 0-.24.82 1.48 1.48 0 0 1-.77 1.58 6.25 6.25 0 0 1-1.2.48 1.34 1.34 0 0 1-1.58-.58.91.91 0 0 0-.77-.43.92.92 0 0 0-.77.43 1.29 1.29 0 0 1-1.15.64zm-3.26-4.18a1.85 1.85 0 0 1 1.3.53 1.88 1.88 0 0 1 .48 1.73.46.46 0 0 0 .29.48 4.89 4.89 0 0 0 1.06.43.43.43 0 0 0 .48-.14 1.85 1.85 0 0 1 1.57-.85 1.92 1.92 0 0 1 1.58.86.37.37 0 0 0 .48.14 4.07 4.07 0 0 0 1.06-.43.46.46 0 0 0 .29-.48 1.92 1.92 0 0 1 .48-1.73 1.88 1.88 0 0 1 1.73-.48.46.46 0 0 0 .48-.29 4.9 4.9 0 0 0 .43-1.06.43.43 0 0 0-.14-.48 1.86 1.86 0 0 1-.86-1.58 1.92 1.92 0 0 1 .86-1.58.37.37 0 0 0 .14-.48 4.08 4.08 0 0 0-.43-1.06.46.46 0 0 0-.48-.29 1.91 1.91 0 0 1-1.73-.48 1.88 1.88 0 0 1-.48-1.73.46.46 0 0 0-.29-.48 4.89 4.89 0 0 0-1.06-.43.43.43 0 0 0-.48.14 1.85 1.85 0 0 1-1.58.86 1.92 1.92 0 0 1-1.58-.86.37.37 0 0 0-.48-.14 10.26 10.26 0 0 0-1.06.48.46.46 0 0 0-.29.48 1.92 1.92 0 0 1-.48 1.73 1.88 1.88 0 0 1-1.73.48.46.46 0 0 0-.48.29 4.9 4.9 0 0 0-.43 1.06.43.43 0 0 0 .14.48 1.86 1.86 0 0 1 .86 1.58 1.92 1.92 0 0 1-.86 1.58.37.37 0 0 0-.14.48 4.08 4.08 0 0 0 .43 1.06.46.46 0 0 0 .48.29 1.4 1.4 0 0 1 .44-.11z" fill="#c3ced6"/><path d="M97.5 194.35a3.84 3.84 0 1 1 3.84-3.84 3.85 3.85 0 0 1-3.84 3.84zm0-6.72a2.88 2.88 0 1 0 2.88 2.88 2.86 2.86 0 0 0-2.88-2.88z" fill="#c3ced6"/><path d="M90.7 58a1.59 1.59 0 0 1-.52-.06 10.71 10.71 0 0 1-1.44-.58 1.74 1.74 0 0 1-.92-1.9 1 1 0 0 0-.29-1 1.24 1.24 0 0 0-1-.29 1.77 1.77 0 0 1-1.9-.92 7.51 7.51 0 0 1-.58-1.44 1.61 1.61 0 0 1 .69-1.9 1.09 1.09 0 0 0 .52-.92 1.11 1.11 0 0 0-.52-.92 1.67 1.67 0 0 1-.69-1.9 10.71 10.71 0 0 1 .58-1.44 1.74 1.74 0 0 1 1.9-1 1 1 0 0 0 1-.23 1.24 1.24 0 0 0 .29-1 1.77 1.77 0 0 1 .92-1.9 7.51 7.51 0 0 1 1.44-.58 1.61 1.61 0 0 1 1.9.69 1.09 1.09 0 0 0 .92.52 1.11 1.11 0 0 0 .92-.52 1.67 1.67 0 0 1 1.9-.69 10.71 10.71 0 0 1 1.44.58 1.74 1.74 0 0 1 .92 1.9 1 1 0 0 0 1.27 1.21 1.77 1.77 0 0 1 1.9.92 7.51 7.51 0 0 1 .58 1.44 1.61 1.61 0 0 1-.69 1.9 1.09 1.09 0 0 0-.52.92 1.11 1.11 0 0 0 .52.92 1.67 1.67 0 0 1 .69 1.9 10.71 10.71 0 0 1-.58 1.44 1.74 1.74 0 0 1-1.9.92 1 1 0 0 0-1 .29 1.24 1.24 0 0 0-.29 1 1.77 1.77 0 0 1-.92 1.9 7.51 7.51 0 0 1-1.44.58 1.61 1.61 0 0 1-1.9-.69 1.09 1.09 0 0 0-.92-.52 1.11 1.11 0 0 0-.92.52 1.55 1.55 0 0 1-1.36.85zm-3.91-5a2.22 2.22 0 0 1 1.55.63 2.26 2.26 0 0 1 .58 2.07.55.55 0 0 0 .35.58 5.87 5.87 0 0 0 1.27.52.52.52 0 0 0 .58-.17 2.22 2.22 0 0 1 1.9-1 2.3 2.3 0 0 1 1.9 1 .45.45 0 0 0 .58.17 4.89 4.89 0 0 0 1.27-.52.55.55 0 0 0 .35-.58 2.3 2.3 0 0 1 .58-2.07 2.26 2.26 0 0 1 2.03-.63.55.55 0 0 0 .58-.35 5.87 5.87 0 0 0 .52-1.27.52.52 0 0 0-.17-.58 2.22 2.22 0 0 1-1-1.9 2.3 2.3 0 0 1 1-1.9.45.45 0 0 0 .17-.58 4.89 4.89 0 0 0-.52-1.27.55.55 0 0 0-.58-.35 2.3 2.3 0 0 1-2.07-.58 2.26 2.26 0 0 1-.58-2.07.55.55 0 0 0-.35-.58 5.87 5.87 0 0 0-1.27-.52.52.52 0 0 0-.58.17 2.22 2.22 0 0 1-1.9 1 2.3 2.3 0 0 1-1.9-1 .45.45 0 0 0-.58-.17 12.32 12.32 0 0 0-1.27.58.55.55 0 0 0-.35.58 2.3 2.3 0 0 1-.58 2.07 2.26 2.26 0 0 1-2.07.58.55.55 0 0 0-.58.35 5.87 5.87 0 0 0-.52 1.27.52.52 0 0 0 .17.58 2.22 2.22 0 0 1 1 1.9 2.3 2.3 0 0 1-1 1.9.45.45 0 0 0-.17.58 4.89 4.89 0 0 0 .52 1.27.55.55 0 0 0 .58.35 1.68 1.68 0 0 1 .55-.06z" fill="#fff"/><path d="M93 53.6a4.6 4.6 0 1 1 4.6-4.6 4.62 4.62 0 0 1-4.6 4.6zm0-8.06A3.45 3.45 0 1 0 96.45 49 3.43 3.43 0 0 0 93 45.55z" fill="#fff"/><path fill="#8b929b" d="M11.01 78H5.99v-2.29L3.2 78.5l2.79 2.79V79h5.02v2.29l2.79-2.79-2.79-2.79V78z"/><path d="M8.5 70C1.75 70 0 71.75 0 78.5S1.75 87 8.5 87s8.5-1.75 8.5-8.5S15.25 70 8.5 70zm0 16C2.33 86 1 84.67 1 78.5S2.33 71 8.5 71s7.5 1.33 7.5 7.5S14.67 86 8.5 86z" fill="#8b929b"/><path fill="#216be3" d="M33.01 78h-5.02v-2.29L25.2 78.5l2.79 2.79V79h5.02v2.29l2.79-2.79-2.79-2.79V78z"/><path d="M30.5 70c-6.75 0-8.5 1.75-8.5 8.5s1.75 8.5 8.5 8.5 8.5-1.75 8.5-8.5-1.75-8.5-8.5-8.5zm0 16c-6.17 0-7.5-1.33-7.5-7.5s1.33-7.5 7.5-7.5 7.5 1.33 7.5 7.5-1.33 7.5-7.5 7.5z" fill="#216be3"/><path d="M122.4 46h-1.19v-1.71A4 4 0 0 0 117 40a4.14 4.14 0 0 0-4.41 4.29V46h-1a1.53 1.53 0 0 0-1.6 1.6v8.8a1.53 1.53 0 0 0 1.6 1.6h10.6a1.71 1.71 0 0 0 1.8-1.8v-8.6a1.63 1.63 0 0 0-1.72-1.6zm-11.6 1.8a1 1 0 0 1 1-1h10.4a1 1 0 0 1 1 1v8.4a1 1 0 0 1-1 1h-10.4a1 1 0 0 1-1-1zm9.6-3.6V46h-7v-1.8a3.25 3.25 0 0 1 3.6-3.4 3.09 3.09 0 0 1 3.4 3.4zm-3.5 9.51a1.71 1.71 0 1 0-1.72-1.71 1.72 1.72 0 0 0 1.73 1.71z" fill="#8a919a"/><path d="M144.4 46h-1.19v-1.71A4 4 0 0 0 139 40a4.14 4.14 0 0 0-4.41 4.29V46h-1a1.53 1.53 0 0 0-1.6 1.6v8.8a1.53 1.53 0 0 0 1.6 1.6h10.6a1.71 1.71 0 0 0 1.8-1.8v-8.6a1.63 1.63 0 0 0-1.72-1.6zm-11.6 1.8a1 1 0 0 1 1-1h10.4a1 1 0 0 1 1 1v8.4a1 1 0 0 1-1 1h-10.4a1 1 0 0 1-1-1zm9.6-3.6V46h-7v-1.8a3.25 3.25 0 0 1 3.6-3.4 3.09 3.09 0 0 1 3.4 3.4zm-3.5 9.51a1.71 1.71 0 1 0-1.72-1.71 1.72 1.72 0 0 0 1.72 1.71z" fill="#216be3"/><path d="M58.18 91.13A15.07 15.07 0 0 0 73.35 76v-.69A10.85 10.85 0 0 0 76 72.5a10.64 10.64 0 0 1-3.06.84 5.35 5.35 0 0 0 2.35-3 10.7 10.7 0 0 1-3.39 1.29 5.34 5.34 0 0 0-9.09 4.86 15.15 15.15 0 0 1-11-5.57 5.34 5.34 0 0 0 1.65 7.12 5.29 5.29 0 0 1-2.46-.61v.07a5.34 5.34 0 0 0 4.28 5.23 5.33 5.33 0 0 1-2.41.09 5.34 5.34 0 0 0 5 3.7 10.7 10.7 0 0 1-6.63 2.28 10.83 10.83 0 0 1-1.24-.07 15.1 15.1 0 0 0 8.18 2.4" fill="#5e9fee"/><path d="M101.26 70.35A5.73 5.73 0 0 0 97.85 72c-1.1 1.14-1.42 2.29-1.56 5.32l-.14 2.8-1.56.07-1.59.1v4.85l1.59.07 1.56.07.07 7.72v7.77h6.53v-7.51c0-5.55.07-7.6.28-7.81a5.48 5.48 0 0 1 2.31-.28h2l.12-.77c.09-.4.21-1.52.3-2.45l.16-1.68h-2.47c-2.08 0-2.47-.07-2.59-.4a14.11 14.11 0 0 1 .23-3.73c.12-.65 1.19-1 3.15-1h1.61V70h-2.61a25.13 25.13 0 0 0-3.98.35z" fill="#4765af"/><path d="M149 80.44a39.48 39.48 0 0 1 2.84 2.86 8.3 8.3 0 0 1 1 1.47c.39.76 0 1.59-.64 1.64h-4.22a3.26 3.26 0 0 1-2.69-1.09c-.58-.6-1.13-1.23-1.69-1.85a4 4 0 0 0-.76-.68.88.88 0 0 0-1.41.34 4.44 4.44 0 0 0-.44 2c0 1-.35 1.26-1.35 1.3a10.8 10.8 0 0 1-6-1.3 13.36 13.36 0 0 1-4.07-3.81 51.27 51.27 0 0 1-5.35-9.54c-.34-.75-.09-1.16.74-1.17h4.14a1.22 1.22 0 0 1 1.15.86 25.64 25.64 0 0 0 2.8 5.19 4.43 4.43 0 0 0 .95 1.13.64.64 0 0 0 1.09-.32 3.61 3.61 0 0 0 .24-1.09 16.23 16.23 0 0 0-.07-3.82 1.59 1.59 0 0 0-1.36-1.46c-.4-.08-.34-.23-.15-.46a1.52 1.52 0 0 1 1.3-.64h4.77c.75.15.92.49 1 1.24v5.3c0 .29.15 1.16.67 1.36s.7-.2 1-.47a16.45 16.45 0 0 0 2.69-4.13c.32-.65.6-1.33.87-2a1 1 0 0 1 1.08-.74h4.6a2.42 2.42 0 0 1 .41 0c.77.13 1 .47.75 1.22a11.47 11.47 0 0 1-1.81 3.22c-.77 1.06-1.59 2.08-2.35 3.15s-.64 1.47.22 2.31z" fill="#536ea7"/><path d="M4.08 118.79a.82.82 0 0 1-.58-.24l-3.26-3.26a.82.82 0 1 1 1.15-1.15L4 116.78l5.53-6.49a.82.82 0 1 1 1.24 1.06l-6.07 7.16a.82.82 0 0 1-.59.29zm139.08 88.79a1.63 1.63 0 0 1-1.15-.48l-6.53-6.53a1.63 1.63 0 0 1 2.31-2.31l5.28 5.28 11.06-13a1.63 1.63 0 1 1 2.48 2.12L144.4 207a1.63 1.63 0 0 1-1.18.57z" fill="#347ffb"/><path d="M4.08 133.79a.82.82 0 0 1-.58-.24l-3.26-3.26a.82.82 0 0 1 1.15-1.15L4 131.78l5.53-6.49a.82.82 0 1 1 1.24 1.06l-6.07 7.16a.82.82 0 0 1-.59.29z" fill="#fff"/><path d="M20.25 120a.28.28 0 0 0-.25.3.19.19 0 0 0 .08.16l8.54 8.54-8.53 8.53a.27.27 0 1 0 .38.38l8.53-8.53 8.53 8.53a.27.27 0 1 0 .38-.38L29.38 129l8.53-8.53a.26.26 0 0 0 0-.38.31.31 0 0 0-.22-.08.25.25 0 0 0-.19.08l-8.5 8.53-8.53-8.53a.31.31 0 0 0-.22-.09z" fill="#347ffb"/><path d="M20.25 100a.28.28 0 0 0-.25.3.19.19 0 0 0 .08.16l8.54 8.54-8.53 8.53a.27.27 0 0 0 .38.38l8.53-8.53 8.53 8.53a.27.27 0 1 0 .38-.38L29.38 109l8.53-8.53a.26.26 0 0 0 0-.38.31.31 0 0 0-.22-.08.25.25 0 0 0-.19.08l-8.5 8.53-8.53-8.53a.31.31 0 0 0-.22-.09z" fill="#0b0b0b"/><path d="M85.54 114.88a.46.46 0 0 0-.46.46v3.11h-7.52v-7.53h3.22a.46.46 0 0 0 0-.92H77.1a.46.46 0 0 0-.46.46v2.18h-2.18a.46.46 0 0 0-.46.46v8.44a.46.46 0 0 0 .46.46h8.44a.46.46 0 0 0 .46-.46v-2.18h2.18a.46.46 0 0 0 .46-.46v-3.57a.46.46 0 0 0-.46-.45zm-3.1 6.21h-7.52v-7.53h1.73v5.34a.46.46 0 0 0 .46.46h5.34z" fill="#c3ced6"/><path d="M86 110.46v2.69a.46.46 0 1 1-.92 0v-1.58l-3.73 3.74a.46.46 0 0 1-.32.13.46.46 0 0 1-.32-.78l3.73-3.73h-1.58a.46.46 0 0 1 0-.92h2.86l.11.08a.46.46 0 0 1 .13.24.32.32 0 0 1 .04.13z" fill="#c3ced6"/><path d="M86 110.46a.5.5 0 0 0 0-.08.32.32 0 0 1 0 .08z" fill="#c3ced6"/><path d="M85.54 128.88a.46.46 0 0 0-.46.46v3.11h-7.52v-7.53h3.22a.46.46 0 0 0 0-.92H77.1a.46.46 0 0 0-.46.46v2.18h-2.18a.46.46 0 0 0-.46.46v8.44a.46.46 0 0 0 .46.46h8.44a.46.46 0 0 0 .46-.46v-2.18h2.18a.46.46 0 0 0 .46-.46v-3.57a.46.46 0 0 0-.46-.45zm-3.1 6.21h-7.52v-7.53h1.73v5.34a.46.46 0 0 0 .46.46h5.34z" fill="#347ffb"/><path d="M86 124.46v2.69a.46.46 0 1 1-.92 0v-1.58l-3.73 3.74a.46.46 0 0 1-.32.13.46.46 0 0 1-.32-.78l3.73-3.73h-1.58a.46.46 0 0 1 0-.92h2.86l.11.08a.46.46 0 0 1 .13.24.32.32 0 0 1 .04.13z" fill="#347ffb"/><path d="M86 124.46a.5.5 0 0 0 0-.08.32.32 0 0 1 0 .08z" fill="#347ffb"/><path d="M109 110a1.88 1.88 0 0 1 1.23.46l13 10.75a1.91 1.91 0 0 1-2.46 2.92L109 114.38l-11.9 9.75a1.91 1.91 0 1 1-2.46-2.92l13-10.75A2.45 2.45 0 0 1 109 110zm0 30.59a1.88 1.88 0 0 1-1.23-.46l-13-10.75a1.91 1.91 0 0 1 2.46-2.92l11.77 9.75 11.9-9.75a1.91 1.91 0 1 1 2.46 2.92l-13 10.75a2.45 2.45 0 0 1-1.36.46z" fill="#fff"/><path d="M143 110a1.88 1.88 0 0 1 1.23.46l13 10.75a1.91 1.91 0 0 1-2.46 2.92L143 114.38l-11.9 9.75a1.91 1.91 0 1 1-2.46-2.92l13-10.75A2.45 2.45 0 0 1 143 110zm0 30.59a1.88 1.88 0 0 1-1.23-.46l-13-10.75a1.91 1.91 0 0 1 2.46-2.92l11.77 9.75 11.9-9.75a1.91 1.91 0 1 1 2.46 2.92l-13 10.75a2.45 2.45 0 0 1-1.36.46z" fill="#8b929b"/><path d="M5 163.86a.63.63 0 0 1-.41-.15l-4.36-3.58a.62.62 0 0 1-.08-.9.62.62 0 0 1 .9-.08L5 162.4l4-3.25a.64.64 0 1 1 .82 1l-4.35 3.58a.82.82 0 0 1-.47.13zM5 147a.63.63 0 0 1 .41.15l4.35 3.58a.64.64 0 0 1-.82 1L5 148.46l-4 3.25a.64.64 0 0 1-.9-.08.64.64 0 0 1 .08-.9l4.35-3.58A.82.82 0 0 1 5 147z" fill="#babfc2"/><path d="M5 186.86a.63.63 0 0 1-.41-.15l-4.36-3.58a.62.62 0 0 1-.08-.9.62.62 0 0 1 .9-.08L5 185.4l4-3.25a.64.64 0 1 1 .82 1l-4.35 3.58a.82.82 0 0 1-.47.13zM5 170a.63.63 0 0 1 .41.15l4.35 3.58a.64.64 0 0 1-.82 1L5 171.46l-4 3.25a.64.64 0 0 1-.9-.08.64.64 0 0 1 .08-.9l4.35-3.58A.82.82 0 0 1 5 170z" fill="#718493"/><path d="M38 147a9.15 9.15 0 0 0-7.9 4.56 6.54 6.54 0 0 0-2.33-.45 6.64 6.64 0 0 0-6.62 6.35 6.62 6.62 0 0 0 1.5 13.08h6.14a.51.51 0 1 0 0-1h-6.14a5.64 5.64 0 0 1-.94-11.19.51.51 0 0 0 .43-.51 5.64 5.64 0 0 1 7.95-5.13.51.51 0 0 0 .66-.24 8.22 8.22 0 0 1 14.52 0 .51.51 0 0 0 .66.24 5.64 5.64 0 0 1 7.95 5.13.51.51 0 0 0 .43.51 5.64 5.64 0 0 1-.94 11.19h-6.16a.51.51 0 1 0 0 1h6.15a6.62 6.62 0 0 0 1.5-13.08 6.64 6.64 0 0 0-6.62-6.35 6.54 6.54 0 0 0-2.33.45A9.15 9.15 0 0 0 38 147zm-.11 20.47a.51.51 0 0 0-.26.14l-6.14 6.14a.51.51 0 0 0 .74.72l5.26-5.26v11a.51.51 0 1 0 1 0v-11l5.26 5.26a.51.51 0 0 0 .74-.72l-6.14-6.14a.51.51 0 0 0-.46-.14z" fill="#dce2e6"/><path d="M101.16 152a4.12 4.12 0 0 0-3.22-4 1 1 0 0 0-1-1 1 1 0 0 0-1 1 4.12 4.12 0 0 0-3.16 4v3.52l-1.15 1.15a.46.46 0 0 0-.12.3v.49h11V157a.75.75 0 0 0-.12-.3l-1.15-1.15-.06-3.52zm-5.47 6.49a1.22 1.22 0 0 0 2.43 0z" fill="#347ffb"/><path d="M95.69 177.2a1.22 1.22 0 0 0 2.43 0zm5.53-2.92l-.06-3.52a4.39 4.39 0 0 0-.06-.73l-6.2 6.2h7.6v-.49a.75.75 0 0 0-.12-.3zm-1.74-6.88a4.12 4.12 0 0 0-1.54-.72 1 1 0 0 0-1-1 1 1 0 0 0-1 1 4.12 4.12 0 0 0-3.22 4.07v3.35zM90.5 179a.5.5 0 0 1-.35-.85l13-13a.5.5 0 0 1 .71.71l-13 13a.5.5 0 0 1-.36.14z" fill="#8b929b"/><path d="M112.37 156.15l-3.37 8.31a.6.6 0 0 0 .13.65.6.6 0 0 0 .67.11l18.79-8.54a.6.6 0 0 0 0-1.1l-18.79-8.54a.6.6 0 0 0-.81.77zm14.57 0l-16.21 7.37 2.71-6.77h7.28a.6.6 0 0 0 0-1.21h-7.28l-2.71-6.77z" fill="#edeff2"/><path d="M112.37 177.15l-3.37 8.31a.6.6 0 0 0 .13.65.6.6 0 0 0 .67.11l18.79-8.54a.6.6 0 0 0 0-1.1l-18.79-8.54a.6.6 0 0 0-.81.77zm14.57 0l-16.21 7.37 2.71-6.77h7.28a.6.6 0 0 0 0-1.21h-7.28l-2.71-6.77z" fill="#216be3"/><path d="M135.37 156.15l-3.37 8.31a.6.6 0 0 0 .13.65.6.6 0 0 0 .67.11l18.79-8.54a.6.6 0 0 0 0-1.1l-18.79-8.54a.6.6 0 0 0-.81.77zm14.57 0l-16.21 7.37 2.71-6.77h7.28a.6.6 0 0 0 0-1.21h-7.28l-2.71-6.77z" fill="#347ffb"/><path d="M15.61 240.28a4.59 4.59 0 0 0-2.72 1.34c-.88.91-1.14 1.83-1.25 4.26l-.11 2.24-1.25.06-1.28.05v3.88l1.27.06 1.25.06.06 6.2v6.21h5.23v-6c0-4.44.06-6.08.22-6.25a4.38 4.38 0 0 1 1.85-.22h1.62l.09-.62c.07-.32.17-1.21.24-2l.13-1.34H19c-1.66 0-2-.06-2.07-.32a11.29 11.29 0 0 1 .19-3c.09-.52 1-.8 2.52-.8h1.29V240h-2.09a20.11 20.11 0 0 0-3.23.28zm23.94 19.23a13.91 13.91 0 0 0 14-14v-.64a10 10 0 0 0 2.45-2.56 9.82 9.82 0 0 1-2.83.78 4.94 4.94 0 0 0 2.17-2.72 9.88 9.88 0 0 1-3.13 1.2 4.93 4.93 0 0 0-8.39 4.43 14 14 0 0 1-10.15-5.14 4.93 4.93 0 0 0 1.52 6.57 4.89 4.89 0 0 1-2.23-.62v.06a4.93 4.93 0 0 0 4 4.83 4.92 4.92 0 0 1-2.22.08 4.93 4.93 0 0 0 4.6 3.42 9.88 9.88 0 0 1-6.12 2.11 10 10 0 0 1-1.17-.07 13.94 13.94 0 0 0 7.55 2.21m45.4-9.01a39.48 39.48 0 0 1 2.84 2.86 8.3 8.3 0 0 1 1 1.47c.39.76 0 1.59-.64 1.64h-4.25a3.26 3.26 0 0 1-2.69-1.09c-.58-.6-1.13-1.23-1.69-1.85a4 4 0 0 0-.76-.68.88.88 0 0 0-1.41.34 4.44 4.44 0 0 0-.44 2c0 1-.35 1.26-1.35 1.3a10.8 10.8 0 0 1-6-1.3 13.36 13.36 0 0 1-4.07-3.81 51.27 51.27 0 0 1-5.35-9.54c-.34-.75-.09-1.16.74-1.17h4.14a1.22 1.22 0 0 1 1.15.86 25.64 25.64 0 0 0 2.8 5.19 4.43 4.43 0 0 0 .98 1.13.64.64 0 0 0 1.09-.32 3.61 3.61 0 0 0 .24-1.09 16.23 16.23 0 0 0-.07-3.82 1.59 1.59 0 0 0-1.36-1.46c-.4-.08-.34-.23-.15-.46a1.52 1.52 0 0 1 1.3-.64h4.77c.75.15.92.49 1 1.24v5.3c0 .29.15 1.16.67 1.36s.7-.2 1-.47a16.45 16.45 0 0 0 2.69-4.13c.32-.65.6-1.33.87-2a1 1 0 0 1 1.08-.74h4.6a2.42 2.42 0 0 1 .41 0c.77.13 1 .47.75 1.22a11.47 11.47 0 0 1-1.81 3.22c-.77 1.06-1.59 2.08-2.35 3.15s-.64 1.47.22 2.31zm72-2.39v1.31a1.14 1.14 0 0 1-.62 1 2.27 2.27 0 0 1-1 .3h-.09a1.06 1.06 0 0 1-1-.62 1.75 1.75 0 0 1-.16-.63v-2.06a1.11 1.11 0 0 1 .8-.93 4.5 4.5 0 0 0-.55-2.09 5.29 5.29 0 0 0-4.12-2.79 5.35 5.35 0 0 0-6.1 4.14 5.05 5.05 0 0 0-.06.65v.09a1.09 1.09 0 0 1 .75.73 1.64 1.64 0 0 1 .08.51v1.7a1.72 1.72 0 0 1-.1.54 1.11 1.11 0 0 1-.41.55 3 3 0 0 0 3.07 2.64h.4a.81.81 0 0 1 .7-.38h1.53a.77.77 0 0 1 .8.75v.79a.77.77 0 0 1-.8.75h-1.53a.81.81 0 0 1-.69-.39h-.4a4.58 4.58 0 0 1-4.7-4.15l-.24-.14a1.11 1.11 0 0 1-.54-.9v-1.8a1.08 1.08 0 0 1 .47-.87 6.24 6.24 0 0 1 1.83-4.62 6.7 6.7 0 0 1 3.73-2 7.12 7.12 0 0 1 6.82 2.17 6 6 0 0 1 1.67 4.45 1.12 1.12 0 0 1 .47.92zm-4.21-2.11v3.11a1 1 0 0 1-1.07 1h-1.36l-1 .92a.44.44 0 0 1-.59 0 .38.38 0 0 1-.12-.28v-.64h-1.35a1 1 0 0 1-1.07-1v-3.11a1 1 0 0 1 1.07-1h4.41a1 1 0 0 1 1.08 1zm-4.1 1.55a.4.4 0 1 0-.4.37.39.39 0 0 0 .4-.37zm1.21 0a.4.4 0 1 0-.4.37.39.39 0 0 0 .4-.37zm1.21 0a.4.4 0 1 0-.4.37.39.39 0 0 0 .4-.37zm-47.3-.35h.72a.45.45 0 0 0 .45-.45v-3.57a.45.45 0 0 0-.45-.45h-2.3a2.23 2.23 0 0 0 0 4.46h1.58zm6.64-7.14a.55.55 0 0 0-.55.55 6.27 6.27 0 0 1-4.36 2.16v4.41a6.27 6.27 0 0 1 4.36 2.16.55.55 0 0 0 1.09 0v-8.73a.55.55 0 0 0-.54-.55zm-6.25 7.71h-2.18l.87 3.79h2.2l-.89-3.79zm7.3-4.35v3.09a1.69 1.69 0 0 0 0-3.09zm21.34-3.36h-10.68a2.17 2.17 0 0 0-2.16 2.16v9.76a2.17 2.17 0 0 0 2.16 2.16h10.68a2.17 2.17 0 0 0 2.16-2.16v-9.76a2.17 2.17 0 0 0-2.16-2.16zm.59 7.81h-3a.76.76 0 1 1 0-1.51h3zm0-3.06h-2.83a2.38 2.38 0 0 0-2.42 2.06 2.27 2.27 0 0 0 2.26 2.48h3v2.44a.79.79 0 0 1-.79.79h-10.29a.79.79 0 0 1-.79-.79v-9.7a.61.61 0 0 1 .61-.61h10.45a.79.79 0 0 1 .79.79zM3 101a.61.61 0 0 1-.42-.16L.17 98.61a.53.53 0 0 1 0-.79.62.62 0 0 1 .84 0l1.92 1.8L7 95.2a.62.62 0 0 1 .84-.06.53.53 0 0 1 .07.78l-4.49 4.88a.61.61 0 0 1-.42.2z" fill="#fff"/><path d="M153 276a.61.61 0 0 1-.42-.16l-2.37-2.23a.53.53 0 0 1 0-.79.62.62 0 0 1 .84 0l1.92 1.8 4-4.43a.62.62 0 0 1 .84-.06.53.53 0 0 1 .07.78l-4.44 4.89a.61.61 0 0 1-.43.2z" fill="#ba6027"/><path d="M80 280q-4.8 0-9.58-5.51L70 274l.42-.49c6.36-7.35 12.8-7.35 19.16 0l.42.49-.42.49Q84.81 280 80 280zm-8.37-6c5.63 6.2 11.11 6.2 16.73 0-5.62-6.2-11.1-6.2-16.73 0z" fill="#dee2e7"/><path d="M80 270.15a3.85 3.85 0 1 0 3.85 3.85 3.85 3.85 0 0 0-3.85-3.85zm-1 3.29a1 1 0 1 1 1-1 1 1 0 0 1-1 1z" fill="#dee2e7"/><path d="M106 280q-4.8 0-9.58-5.51L96 274l.42-.49c6.36-7.35 12.8-7.35 19.16 0l.42.49-.42.49Q110.81 280 106 280zm-8.37-6c5.63 6.2 11.11 6.2 16.73 0-5.62-6.2-11.1-6.2-16.73 0z" fill="#347ffb"/><path d="M106 270.15a3.85 3.85 0 1 0 3.85 3.85 3.85 3.85 0 0 0-3.85-3.85zm-1 3.29a1 1 0 1 1 1-1 1 1 0 0 1-1 1z" fill="#347ffb"/><path d="M132 280q-4.8 0-9.58-5.51L122 274l.42-.49c6.36-7.35 12.8-7.35 19.16 0l.42.49-.42.49Q136.81 280 132 280zm-8.37-6c5.63 6.2 11.11 6.2 16.73 0-5.62-6.2-11.1-6.2-16.73 0z" fill="#216be3"/><path d="M132 270.15a3.85 3.85 0 1 0 3.85 3.85 3.85 3.85 0 0 0-3.85-3.85zm-1 3.29a1 1 0 1 1 1-1 1 1 0 0 1-1 1z" fill="#216be3"/><path d="M10.52 311.95c-.8 0-.7-.3-1-1.1l-2.4-8.1L26 291.65" fill="#598fd2"/><path d="M10.52 311.95a2 2 0 0 0 1.3-.6l3.4-3.3-4.3-2.6" fill="#507fd1"/><path d="M11 305.45l10.4 7.7c1.2.6 2 .3 2.3-1.1l4.2-19.9c.4-1.7-.7-2.5-1.8-2l-24.8 9.5c-1.7.7-1.7 1.6-.3 2l6.4 2 14.7-9.3c.7-.4 1.3-.2.8.3" fill="#609ed8"/></svg>