<svg xmlns="http://www.w3.org/2000/svg" viewBox="0 0 12 36"><title>stars</title><path d="M6.31.2L7.9 3.57a.35.35 0 0 0 .26.2l3.55.54a.37.37 0 0 1 .19.61L9.33 7.55a.37.37 0 0 0-.1.32l.61 3.71a.35.35 0 0 1-.5.38l-3.18-1.75a.33.33 0 0 0-.32 0L2.66 12a.35.35 0 0 1-.5-.38l.61-3.71a.37.37 0 0 0-.1-.32L.1 4.93a.37.37 0 0 1 .19-.61l3.55-.54a.35.35 0 0 0 .26-.2L5.69.2a.34.34 0 0 1 .62 0z" fill="#c5cdd5"/><path d="M6.31 12.2l1.59 3.37a.35.35 0 0 0 .26.2l3.55.54a.37.37 0 0 1 .19.61l-2.57 2.63a.37.37 0 0 0-.1.32l.61 3.71a.35.35 0 0 1-.5.38l-3.18-1.75a.33.33 0 0 0-.32 0L2.66 24a.35.35 0 0 1-.5-.38l.61-3.71a.37.37 0 0 0-.1-.32L.1 16.93a.37.37 0 0 1 .19-.61l3.55-.54a.35.35 0 0 0 .26-.2l1.59-3.38a.34.34 0 0 1 .62 0z" fill="#374563"/><path d="M6.31 24.2l1.59 3.37a.35.35 0 0 0 .26.2l3.55.54a.37.37 0 0 1 .19.61l-2.57 2.63a.37.37 0 0 0-.1.32l.61 3.71a.35.35 0 0 1-.5.38l-3.18-1.75a.33.33 0 0 0-.32 0L2.66 36a.35.35 0 0 1-.5-.38l.61-3.71a.37.37 0 0 0-.1-.32L.1 28.93a.37.37 0 0 1 .19-.61l3.55-.54a.35.35 0 0 0 .26-.2l1.59-3.38a.34.34 0 0 1 .62 0z" fill="#fff"/></svg>