<svg xmlns="http://www.w3.org/2000/svg" viewBox="0 0 223 198"><title>update-icon</title><ellipse cx="40.63" cy="23.17" rx="4.61" ry="4.58" fill="#00fafd"/><ellipse cx="53.7" cy="23.17" rx="4.61" ry="4.58" fill="#00fafd"/><ellipse cx="27.83" cy="23.17" rx="4.61" ry="4.58" fill="#00fafd"/><path d="M16.3 168.06c-3.59 0-6.66-3.82-6.66-8.4V44.31h183.17v78.19a27.69 27.69 0 0 1 5.64 1V14.77c0-8.15-5.38-14.77-12-14.77H16C9.38 0 4 6.62 4 14.77v145.9c0 8.15 5.38 14.77 12 14.77h128a45.33 45.33 0 0 1-.71-7.38zM9.64 16.81c0-5.35 2.82-9.68 6.66-9.68h169.85c3.59 0 6.66 4.58 6.66 9.68v19.86H9.64z" fill="#00fafd"/><ellipse cx="63.37" cy="86.14" rx="7.63" ry="7.58" fill="#00fafd"/><ellipse cx="139.07" cy="86.14" rx="7.63" ry="7.58" fill="#00fafd"/><rect x="69.83" y="128.95" width="62.78" height="9.34" rx="4.67" ry="4.67" fill="#00fafd"/><path d="M208.48 159.14a1.64 1.64 0 0 0-1.72-1.19l-4.77.43a13.57 13.57 0 0 0-1.15-1.28 15.23 15.23 0 0 0-1.29-1.16l.36-4.78a1.64 1.64 0 0 0-1.21-1.71l-6.29-1.72a1.64 1.64 0 0 0-1.87.86l-2.13 4.34a14.25 14.25 0 0 0-3.36.94l-4-2.72a1.64 1.64 0 0 0-2.08.2l-4.6 4.62a1.63 1.63 0 0 0-.22 2.07l2.71 4a14.54 14.54 0 0 0-.87 3.42l-4.27 2.07a1.63 1.63 0 0 0-.86 1.87l1.68 6.18a1.65 1.65 0 0 0 1.7 1.21l4.68-.36a11.13 11.13 0 0 0 1.22 1.41 15.58 15.58 0 0 0 1.31 1.17l-.37 4.63a1.64 1.64 0 0 0 1.19 1.7l6.18 1.72a1.72 1.72 0 0 0 .44.06 1.63 1.63 0 0 0 1.45-.88l2.2-4.24a14.45 14.45 0 0 0 3.39-.94l4 2.71a1.63 1.63 0 0 0 2.07-.2l4.6-4.57a1.65 1.65 0 0 0 .2-2.08l-2.71-4a14.07 14.07 0 0 0 .94-3.39l4.41-2.21a1.64 1.64 0 0 0 .84-1.87zM202.8 167a1.64 1.64 0 0 0-.27.17l-.08.07a1.65 1.65 0 0 0-.62 1.13 11.39 11.39 0 0 1-1.11 4 1.61 1.61 0 0 0 .11 1.63l2.46 3.64-2.69 2.7-3.6-2.44a1.62 1.62 0 0 0-1.63-.12 11.14 11.14 0 0 1-4 1.08 1.64 1.64 0 0 0-1.33.88l-2 3.83-3.59-1 .29-4.2a1.66 1.66 0 0 0-.7-1.46 11.78 11.78 0 0 1-1.62-1.35 12.18 12.18 0 0 1-1.23-1.58l-.12-.12a1.65 1.65 0 0 0-1.47-.7l-4.27.33-.94-3.58 3.84-1.87a1.62 1.62 0 0 0 .94-1.35 11.35 11.35 0 0 1 1-4.08 1.66 1.66 0 0 0-.11-1.64l-2.46-3.64 2.69-2.7 3.61 2.48a1.63 1.63 0 0 0 1.63.11 11.34 11.34 0 0 1 4-1.08 1.67 1.67 0 0 0 1.35-.94l1.93-3.94 3.69 1-.34 4.33a1.63 1.63 0 0 0 .7 1.44 11.56 11.56 0 0 1 3 3 1.64 1.64 0 0 0 1.5.7l4.32-.39 1 3.66z" fill="#00fafd"/><path d="M190.57 159.46a8 8 0 1 0 7.94 8 8 8 0 0 0-7.94-8zm0 12.63a4.68 4.68 0 1 1 4.68-4.68 4.68 4.68 0 0 1-4.68 4.68z" fill="#00fafd"/><path d="M171.21 186.7a27.3 27.3 0 0 1-5.95-29.6l.5 2.17a1.64 1.64 0 0 0 1.59 1.27 1.66 1.66 0 0 0 .36 0 1.64 1.64 0 0 0 1.21-2l-1.47-6.42a1.64 1.64 0 0 0-2-1.24l-6.41 1.47a1.64 1.64 0 0 0 .73 3.19l2.81-.64a30.52 30.52 0 0 0 43.25 38.89L204.2 191a27.2 27.2 0 0 1-32.99-4.3zm51.79-6.18a1.64 1.64 0 0 0-2-1.24l-2.67.61a30.54 30.54 0 0 0-43.51-38.72l1.68 2.81a27.26 27.26 0 0 1 39.11 33.87l-.53-2.32a1.64 1.64 0 0 0-3.19.73l1.47 6.42a1.64 1.64 0 0 0 2 1.24l6.41-1.47a1.64 1.64 0 0 0 1.23-1.93z" fill="#00fafd"/><ellipse cx="36.63" cy="23.17" rx="4.61" ry="4.58" fill="#fd0042"/><ellipse cx="49.7" cy="23.17" rx="4.61" ry="4.58" fill="#fd0042"/><ellipse cx="23.83" cy="23.17" rx="4.61" ry="4.58" fill="#fd0042"/><path d="M12.3 168.06c-3.59 0-6.66-3.82-6.66-8.4V44.31h183.17v78a45.08 45.08 0 0 1 5.63.43V14.77c0-8.15-5.38-14.77-12-14.77H12C5.38 0 0 6.62 0 14.77v145.9c0 8.15 5.38 14.77 12 14.77h130a45.33 45.33 0 0 1-.71-7.38zM5.64 16.81c0-5.35 2.82-9.68 6.66-9.68h169.85c3.59 0 6.66 4.58 6.66 9.68v19.86H5.64z" fill="#fd0042"/><ellipse cx="59.37" cy="86.14" rx="7.63" ry="7.58" fill="#fd0042"/><ellipse cx="135.07" cy="86.14" rx="7.63" ry="7.58" fill="#fd0042"/><rect x="65.83" y="128.95" width="62.78" height="9.34" rx="4.67" ry="4.67" fill="#fd0042"/><path d="M204.48 159.14a1.64 1.64 0 0 0-1.72-1.19l-4.77.43a13.57 13.57 0 0 0-1.15-1.28 15.23 15.23 0 0 0-1.29-1.16l.36-4.78a1.64 1.64 0 0 0-1.21-1.71l-6.29-1.72a1.64 1.64 0 0 0-1.87.86l-2.13 4.34a14.25 14.25 0 0 0-3.36.94l-4-2.72a1.64 1.64 0 0 0-2.08.2l-4.6 4.62a1.63 1.63 0 0 0-.22 2.07l2.71 4a14.54 14.54 0 0 0-.87 3.42l-4.27 2.07a1.63 1.63 0 0 0-.86 1.87l1.68 6.18a1.65 1.65 0 0 0 1.7 1.21l4.68-.36a11.13 11.13 0 0 0 1.22 1.41 15.58 15.58 0 0 0 1.31 1.17l-.37 4.63a1.64 1.64 0 0 0 1.19 1.7l6.18 1.72a1.72 1.72 0 0 0 .44.06 1.63 1.63 0 0 0 1.45-.88l2.2-4.24a14.45 14.45 0 0 0 3.39-.94l4 2.71a1.63 1.63 0 0 0 2.07-.2l4.6-4.57a1.65 1.65 0 0 0 .2-2.08l-2.71-4a14.07 14.07 0 0 0 .94-3.39l4.41-2.21a1.64 1.64 0 0 0 .84-1.87zM198.8 167a1.64 1.64 0 0 0-.27.17l-.08.07a1.65 1.65 0 0 0-.62 1.13 11.39 11.39 0 0 1-1.11 4 1.61 1.61 0 0 0 .11 1.63l2.46 3.64-2.69 2.7-3.6-2.44a1.62 1.62 0 0 0-1.63-.12 11.14 11.14 0 0 1-4 1.08 1.64 1.64 0 0 0-1.33.88l-2 3.83-3.59-1 .29-4.2a1.66 1.66 0 0 0-.7-1.46 11.78 11.78 0 0 1-1.62-1.35 12.18 12.18 0 0 1-1.23-1.58l-.12-.12a1.65 1.65 0 0 0-1.47-.7l-4.27.33-.94-3.58 3.84-1.87a1.62 1.62 0 0 0 .94-1.35 11.35 11.35 0 0 1 1-4.08 1.66 1.66 0 0 0-.11-1.64l-2.46-3.64 2.69-2.7 3.61 2.48a1.63 1.63 0 0 0 1.63.11 11.34 11.34 0 0 1 4-1.08 1.67 1.67 0 0 0 1.35-.94l1.93-3.94 3.69 1-.34 4.33a1.63 1.63 0 0 0 .7 1.44 11.56 11.56 0 0 1 3 3 1.64 1.64 0 0 0 1.5.7l4.32-.39 1 3.66z" fill="#fd0042"/><path d="M186.57 159.46a8 8 0 1 0 7.94 8 8 8 0 0 0-7.94-8zm0 12.63a4.68 4.68 0 1 1 4.68-4.68 4.68 4.68 0 0 1-4.68 4.68z" fill="#fd0042"/><path d="M167.21 186.7a27.3 27.3 0 0 1-5.95-29.6l.5 2.17a1.64 1.64 0 0 0 1.59 1.27 1.66 1.66 0 0 0 .36 0 1.64 1.64 0 0 0 1.21-2l-1.47-6.42a1.64 1.64 0 0 0-2-1.24l-6.41 1.47a1.64 1.64 0 0 0 .73 3.19l2.81-.64a30.52 30.52 0 0 0 43.25 38.89L200.2 191a27.2 27.2 0 0 1-32.99-4.3zm51.79-6.18a1.64 1.64 0 0 0-2-1.24l-2.67.61a30.54 30.54 0 0 0-43.51-38.72l1.68 2.81a27.26 27.26 0 0 1 39.11 33.87l-.53-2.32a1.64 1.64 0 0 0-3.19.73l1.47 6.42a1.64 1.64 0 0 0 2 1.24l6.41-1.47a1.64 1.64 0 0 0 1.23-1.93z" fill="#fd0042"/><ellipse cx="38.63" cy="23.17" rx="4.61" ry="4.58" fill="#272736"/><ellipse cx="51.7" cy="23.17" rx="4.61" ry="4.58" fill="#272736"/><ellipse cx="25.83" cy="23.17" rx="4.61" ry="4.58" fill="#272736"/><path d="M14.3 168.06c-3.59 0-6.66-3.82-6.66-8.4V44.31h183.17v78.07a45.13 45.13 0 0 1 5.64.66V14.77c0-8.15-5.38-14.77-12-14.77H14C7.38 0 2 6.62 2 14.77v145.9c0 8.15 5.38 14.77 12 14.77h130a45.33 45.33 0 0 1-.71-7.38zM7.64 16.81c0-5.35 2.82-9.68 6.66-9.68h169.85c3.59 0 6.66 4.58 6.66 9.68v19.86H7.64z" fill="#272736"/><ellipse cx="61.37" cy="86.14" rx="7.63" ry="7.58" fill="#272736"/><ellipse cx="137.07" cy="86.14" rx="7.63" ry="7.58" fill="#272736"/><rect x="67.83" y="128.95" width="62.78" height="9.34" rx="4.67" ry="4.67" fill="#272736"/><path d="M206.48 159.14a1.64 1.64 0 0 0-1.72-1.19l-4.77.43a13.57 13.57 0 0 0-1.15-1.28 15.23 15.23 0 0 0-1.29-1.16l.36-4.78a1.64 1.64 0 0 0-1.21-1.71l-6.29-1.72a1.64 1.64 0 0 0-1.87.86l-2.13 4.34a14.25 14.25 0 0 0-3.36.94l-4-2.72a1.64 1.64 0 0 0-2.08.2l-4.6 4.62a1.63 1.63 0 0 0-.22 2.07l2.71 4a14.54 14.54 0 0 0-.87 3.42l-4.27 2.07a1.63 1.63 0 0 0-.86 1.87l1.68 6.18a1.65 1.65 0 0 0 1.7 1.21l4.68-.36a11.13 11.13 0 0 0 1.22 1.41 15.58 15.58 0 0 0 1.31 1.17l-.37 4.63a1.64 1.64 0 0 0 1.19 1.7l6.18 1.72a1.72 1.72 0 0 0 .44.06 1.63 1.63 0 0 0 1.45-.88l2.2-4.24a14.45 14.45 0 0 0 3.39-.94l4 2.71a1.63 1.63 0 0 0 2.07-.2l4.6-4.57a1.65 1.65 0 0 0 .2-2.08l-2.71-4a14.07 14.07 0 0 0 .94-3.39l4.41-2.21a1.64 1.64 0 0 0 .84-1.87zM200.8 167a1.64 1.64 0 0 0-.27.17l-.08.07a1.65 1.65 0 0 0-.62 1.13 11.39 11.39 0 0 1-1.11 4 1.61 1.61 0 0 0 .11 1.63l2.46 3.64-2.69 2.7-3.6-2.44a1.62 1.62 0 0 0-1.63-.12 11.14 11.14 0 0 1-4 1.08 1.64 1.64 0 0 0-1.33.88l-2 3.83-3.59-1 .29-4.2a1.66 1.66 0 0 0-.7-1.46 11.78 11.78 0 0 1-1.62-1.35 12.18 12.18 0 0 1-1.23-1.58l-.12-.12a1.65 1.65 0 0 0-1.47-.7l-4.27.33-.94-3.58 3.84-1.87a1.62 1.62 0 0 0 .94-1.35 11.35 11.35 0 0 1 1-4.08 1.66 1.66 0 0 0-.11-1.64l-2.46-3.64 2.69-2.7 3.61 2.48a1.63 1.63 0 0 0 1.63.11 11.34 11.34 0 0 1 4-1.08 1.67 1.67 0 0 0 1.35-.94l1.93-3.94 3.69 1-.34 4.33a1.63 1.63 0 0 0 .7 1.44 11.56 11.56 0 0 1 3 3 1.64 1.64 0 0 0 1.5.7l4.32-.39 1 3.66z" fill="#272736"/><path d="M188.57 159.46a8 8 0 1 0 7.94 8 8 8 0 0 0-7.94-8zm0 12.63a4.68 4.68 0 1 1 4.68-4.68 4.68 4.68 0 0 1-4.68 4.68z" fill="#272736"/><path d="M169.21 186.7a27.3 27.3 0 0 1-5.95-29.6l.5 2.17a1.64 1.64 0 0 0 1.59 1.27 1.66 1.66 0 0 0 .36 0 1.64 1.64 0 0 0 1.21-2l-1.47-6.42a1.64 1.64 0 0 0-2-1.24l-6.41 1.47a1.64 1.64 0 0 0 .73 3.19l2.81-.64a30.52 30.52 0 0 0 43.25 38.89L202.2 191a27.2 27.2 0 0 1-32.99-4.3zm51.79-6.18a1.64 1.64 0 0 0-2-1.24l-2.67.61a30.54 30.54 0 0 0-43.51-38.72l1.68 2.81a27.26 27.26 0 0 1 39.11 33.87l-.53-2.32a1.64 1.64 0 0 0-3.19.73l1.47 6.42a1.64 1.64 0 0 0 2 1.24l6.41-1.47a1.64 1.64 0 0 0 1.23-1.93z" fill="#272736"/></svg>