<svg id="Слой_1" xmlns="http://www.w3.org/2000/svg" viewBox="0 0 160 280"><style>.st0{fill:#b3caf1}.st1{fill:#347ffb}.st2{fill:#8a919a}.st3{fill:#fff}.st4{fill:#2c92ff}.st5{fill:#216be3}.st6{fill:#c3ced6}.st7{fill:#8b929b}.st8{fill:#5e9fee}.st9{fill:#4765af}.st10{fill:#536ea7}.st11{fill:#0b0b0b}.st12{fill:#babfc2}.st13{fill:#718493}.st14{fill:#dce2e6}.st15{fill:#edeff2}.st16{fill:#ba6027}.st17{fill:#dee2e7}</style><title>sprite</title><path class="st0" d="M54 46.5c0-.1-.1-.3-.2-.4l-4.6-4.9c-.2-.2-.6-.2-.8 0-.2.2-.2.6 0 .8l3.7 4H39.6c-.3 0-.6.3-.6.6s.3.6.6.6h12.5l-3.7 3.9c-.2.2-.2.6 0 .8.2.2.6.2.8 0l4.6-4.9c.1-.1.2-.2.2-.5z"/><path class="st1" d="M65 115.5c0-.1-.1-.3-.2-.4l-4.6-4.9c-.2-.2-.6-.2-.8 0-.2.2-.2.6 0 .8l3.7 3.9H50.6c-.3 0-.6.3-.6.6s.3.6.6.6h12.5l-3.7 3.9c-.2.2-.2.6 0 .8.2.2.6.2.8 0l4.6-4.9c.1-.1.2-.2.2-.4zm-15 12c0 .1.1.3.2.4l4.6 4.9c.2.2.6.2.8 0 .2-.2.2-.6 0-.8l-3.7-3.9h12.5c.3 0 .6-.3.6-.6s-.3-.6-.6-.6H51.9l3.7-3.9c.2-.2.2-.6 0-.8-.2-.2-.6-.2-.8 0l-4.6 4.9c-.1.1-.2.2-.2.4z"/><path class="st2" d="M0 276.5c0 .1.1.2.1.3l2.7 3c.2.2.5.2.6 0 .2-.2.2-.5 0-.7l-2-2.2h10c.3 0 .5-.2.5-.5s-.2-.5-.5-.5h-10l2-2.2c.2-.2.2-.5 0-.7-.2-.2-.5-.2-.6 0l-2.7 3c-.1.1-.1.3-.1.4v.1zm28 0c0-.1-.1-.2-.1-.3l-2.7-3c-.2-.2-.5-.2-.6 0-.2.2-.2.5 0 .7l2 2.2h-10c-.3 0-.5.2-.5.5s.2.5.5.5h10l-2 2.2c-.2.2-.2.5 0 .7.2.2.5.2.6 0l2.7-3c.1-.1.1-.2.1-.3v-.2z"/><path class="st3" d="M31 276.5c0 .1.1.2.1.3l2.7 3c.2.2.5.2.6 0 .2-.2.2-.5 0-.7l-2-2.2h10c.3 0 .5-.2.5-.5s-.2-.5-.5-.5h-10l2-2.2c.2-.2.2-.5 0-.7-.2-.2-.5-.2-.6 0l-2.7 3c-.1.1-.1.2-.1.3v.2zm28 0c0-.1-.1-.2-.1-.3l-2.7-3c-.2-.2-.5-.2-.6 0-.2.2-.2.5 0 .7l2 2.2h-10c-.3 0-.5.2-.5.5s.2.5.5.5h10l-2 2.2c-.2.2-.2.5 0 .7.2.2.5.2.6 0l2.7-3c.1-.1.1-.2.1-.3v-.2zM43.1 3.2l-8.4 23.7v.1l-1.5-3.2-3.2 1.5 8.4-23.8L41.6 0l1.5 3.2zm21 .6l-8.4 23.7-1.5-3.2-3.2 1.5.2-.6 8.4-23.7L62.8 0l1.5 3.2-.2.6zm-18 20.5l5-13.9-3.2 1.5-1.6-3.2-4.9 13.9 1.5 3.2 3.2-1.5zM19.3 10.5H4.6L7.1 13l-2.5 2.4h14.8l2.5-2.4-2.6-2.5zM2.5 20.9h23.9l-2.5 2.5 2.5 2.5H2.5L0 23.3l2.5-2.4zM9.9.2h23.9l-2.5 2.5 2.5 2.5H9.9L7.3 2.7 9.9.2zm120.7 14.3c0-1.3.2-2.5.7-3.7.9-2.3 2.8-4.2 5.1-5.1 1.2-.5 2.6-.8 3.9-.8 1.3 0 2.7.2 3.9.8 2.3.9 4.1 2.8 5 5.1 1 2.4 1 5 0 7.4-.9 2.3-2.8 4.2-5.1 5.1-1.2.5-2.6.8-3.9.8-1.8 0-3.5-.4-5-1.3-1.4-.8-2.6-2-3.4-3.5-.8-1.5-1.2-3.1-1.2-4.8zm-53.4-1.7H87V16h-9.8v4.5h10.3v3.2H73.6V5.2h13.7v3.2H77.2v4.4zm12 10.9l6.5-9.4-6.2-9.1h4.2l4.5 6.6 4.5-6.6h4.1l-6.2 9.1 6.5 9.5h-4.2l-4.7-6.9-4.7 6.9-4.3-.1zm20 0V5.2h3.8l5.6 8.3 5.6-8.3h3.8v18.5h-3.6V10.9l-5.8 8h-.1l-5.8-8v12.8h-3.5zm25.1-9.2c0 1.1.3 2.2.8 3.2s1.3 1.8 2.2 2.3c.9.6 2 .9 3.1.9 2.2 0 4.3-1.2 5.3-3.2.5-1 .8-2.1.8-3.2s-.3-2.2-.8-3.2-1.3-1.8-2.2-2.3c-.9-.6-2-.9-3.1-.9-2.2 0-4.3 1.2-5.3 3.2-.6.9-.9 2-.8 3.2z"/><path class="st4" d="M34.5 212.6l-6.7 18.9v.1l-1.2-2.6-2.6 1.2 6.8-19.1 2.5-1.2 1.2 2.7zm16.8.4l-6.7 19-1.2-2.6-2.6 1.2.2-.4 6.7-18.9 2.6-1.3 1.2 2.6-.2.4zm-14.4 16.4l4-11.1-2.6 1.2-1.3-2.6-4 11.1 1.2 2.6 2.7-1.2zm-21.4-11H3.7l2 2-2 2h11.8l2-2-2-2zM2 226.7h19.1l-2 2 2 2H2l-2-2 2-2zm5.9-16.5H27l-2 2 2 2H7.9l-2-2 2-2zm96.6 11.4c0-1 .2-2 .6-3 .7-1.9 2.2-3.3 4.1-4.1 1-.4 2-.6 3.1-.6s2.1.2 3.1.6c1.8.8 3.3 2.2 4 4.1.8 1.9.8 4 0 5.9-.7 1.9-2.2 3.3-4.1 4.1-1 .4-2.1.6-3.1.6-1.4 0-2.8-.3-4-1-1.2-.7-2.1-1.6-2.8-2.8-.6-1.2-1-2.5-.9-3.8zm-42.7-1.4h7.8v2.6h-7.8v3.6H70v2.6H58.9v-14.8h11v2.6h-8.1v3.4zm9.6 8.8l5.2-7.5-5-7.3h3.3l3.6 5.3 3.6-5.3h3.3l-4.9 7.2 5.2 7.6h-3.3l-3.8-5.6-3.8 5.6h-3.4zm16 0v-14.8h3l4.5 6.6 4.5-6.6h3.1V229h-2.9v-10.2l-4.7 6.4h-.1l-4.6-6.4V229h-2.8zm20-7.4c0 .9.2 1.8.6 2.6.4.8 1 1.4 1.7 1.9.8.5 1.6.7 2.5.7 1.8 0 3.4-1 4.2-2.5.4-.8.6-1.7.6-2.6 0-.9-.2-1.8-.6-2.6-.4-.8-1-1.4-1.8-1.9s-1.6-.7-2.5-.7c-1.8 0-3.5.9-4.3 2.5-.2.8-.4 1.7-.4 2.6z"/><path class="st3" d="M0 41.8v9.1h15v-9.1l-7.5 5.9z"/><path class="st3" d="M0 40v.8l7.5 5.8 7.5-5.8V40zm27 16.9c-.2 0-.3-.1-.4-.2l-4.4-3.6c-.3-.2-.3-.6-.1-.9s.6-.3.9-.1l3.9 3.3 4-3.3c.3-.2.7-.2.9.1s.2.7-.1.9l-4.4 3.6c0 .1-.1.2-.3.2zM27 40c.2 0 .3.1.4.2l4.4 3.6c.3.2.3.6.1.9-.2.3-.6.3-.9.1l-4-3.3-4 3.3c-.3.2-.7.2-.9-.1s-.2-.7.1-.9l4.4-3.6c.1-.2.2-.2.4-.2z"/><path class="st2" d="M68.7 58c-.2 0-.4 0-.5-.1-.5-.2-1-.4-1.4-.6-.7-.4-1.1-1.1-.9-1.9.1-.4 0-.7-.3-1-.3-.2-.6-.3-1-.3-.8.1-1.5-.2-1.9-.9-.2-.5-.4-.9-.6-1.4-.2-.7 0-1.5.7-1.9.3-.2.5-.5.5-.9s-.2-.7-.5-.9c-.6-.4-.9-1.2-.7-1.9.2-.5.4-1 .6-1.4.3-.7 1.1-1.1 1.9-1 .4.1.7 0 1-.2.2-.3.3-.6.3-1-.1-.8.2-1.5.9-1.9.5-.2.9-.4 1.4-.6.7-.2 1.5 0 1.9.7.2.3.5.5.9.5s.7-.2.9-.5c.4-.6 1.2-.9 1.9-.7.5.2 1 .4 1.4.6.7.4 1.1 1.1.9 1.9-.1.5.2 1.1.7 1.2h.6c.8-.1 1.5.2 1.9.9.2.5.4.9.6 1.4.2.7 0 1.5-.7 1.9-.3.2-.5.5-.5.9s.2.7.5.9c.6.4.9 1.2.7 1.9-.2.5-.4 1-.6 1.4-.4.7-1.1 1.1-1.9.9-.4-.1-.7 0-1 .3-.2.3-.3.6-.3 1 .1.8-.2 1.5-.9 1.9-.5.2-.9.4-1.4.6-.7.2-1.5 0-1.9-.7-.2-.3-.5-.5-.9-.5s-.7.2-.9.5c-.3.6-.8.9-1.4.9zm-3.9-5c.6 0 1.1.2 1.6.6.5.5.7 1.3.6 2.1 0 .3.1.5.3.6.4.2.8.4 1.3.5.2.1.4 0 .6-.2.4-.6 1.1-1 1.9-1 .8 0 1.5.4 1.9 1 .1.2.4.3.6.2.4-.1.9-.3 1.3-.5.2-.1.4-.3.3-.6-.2-.7.1-1.5.6-2.1.5-.5 1.3-.8 2-.6.3 0 .5-.1.6-.3.2-.4.4-.8.5-1.3.1-.2 0-.4-.2-.6-.6-.4-1-1.1-1-1.9 0-.8.4-1.5 1-1.9.2-.1.3-.4.2-.6-.1-.4-.3-.9-.5-1.3-.1-.2-.3-.4-.6-.3-.7.2-1.5-.1-2.1-.6-.5-.5-.7-1.3-.6-2.1 0-.3-.1-.5-.3-.6-.4-.2-.8-.4-1.3-.5-.2-.1-.4 0-.6.2-.4.6-1.1 1-1.9 1-.8 0-1.5-.4-1.9-1-.1-.2-.4-.3-.6-.2-.4.2-.9.4-1.3.6-.2.1-.4.3-.3.6.2.7-.1 1.5-.6 2.1-.5.5-1.3.7-2.1.6-.3 0-.5.1-.6.3-.2.4-.4.8-.5 1.3-.1.2 0 .4.2.6.6.4 1 1.1 1 1.9 0 .8-.4 1.5-1 1.9-.2.1-.3.4-.2.6.1.4.3.9.5 1.3.1.2.3.4.6.3.2-.1.4-.1.6-.1z"/><path class="st2" d="M71 53.6c-2.5 0-4.6-2.1-4.6-4.6s2.1-4.6 4.6-4.6c2.5 0 4.6 2.1 4.6 4.6 0 2.5-2.1 4.6-4.6 4.6zm0-8.1c-1.9 0-3.4 1.5-3.4 3.5 0 1.9 1.5 3.4 3.5 3.4 1.9 0 3.4-1.5 3.4-3.4s-1.6-3.4-3.5-3.5z"/><path class="st1" d="M75.6 162h-.4c-.4-.1-.8-.3-1.2-.5-.6-.3-.9-.9-.8-1.6.1-.3 0-.6-.2-.8-.2-.2-.5-.3-.8-.2-.6.1-1.3-.2-1.6-.8-.2-.4-.4-.8-.5-1.2-.2-.6 0-1.3.6-1.6.3-.2.4-.5.4-.8 0-.3-.2-.6-.4-.8-.5-.3-.8-1-.6-1.6.1-.4.3-.8.5-1.2.3-.6.9-.9 1.6-.8.3.1.6 0 .8-.2.2-.2.3-.5.2-.8-.1-.6.2-1.3.8-1.6.4-.2.8-.4 1.2-.5.6-.2 1.3 0 1.6.6.2.3.5.4.8.4.3 0 .6-.2.8-.4.3-.5 1-.8 1.6-.6.4.1.8.3 1.2.5.6.3.9.9.8 1.6-.1.5.2.9.6 1h.4c.6-.1 1.3.2 1.6.8.2.4.4.8.5 1.2.2.6 0 1.3-.6 1.6-.3.2-.4.5-.4.8 0 .3.2.6.4.8.5.3.8 1 .6 1.6-.1.4-.3.8-.5 1.2-.3.6-.9.9-1.6.8-.3-.1-.6 0-.8.2-.2.2-.3.5-.2.8.1.6-.2 1.3-.8 1.6-.4.2-.8.4-1.2.5-.6.2-1.3 0-1.6-.6-.2-.3-.5-.4-.8-.4-.3 0-.6.2-.8.4-.3.4-.7.6-1.2.6zm-3.3-4.2c.5 0 1 .2 1.3.5.4.5.6 1.1.5 1.7 0 .2.1.4.3.5.3.2.7.3 1.1.4.2.1.4 0 .5-.1.3-.5.9-.9 1.6-.8.6 0 1.2.3 1.6.9.1.2.3.2.5.1.4-.1.7-.2 1.1-.4.2-.1.3-.3.3-.5-.1-.6 0-1.3.5-1.7.5-.4 1.1-.6 1.7-.5.2 0 .4-.1.5-.3.2-.3.3-.7.4-1.1.1-.2 0-.4-.1-.5-.5-.3-.9-.9-.9-1.6 0-.6.3-1.2.9-1.6.2-.1.2-.3.1-.5-.1-.4-.2-.7-.4-1.1-.1-.2-.3-.3-.5-.3-.6.1-1.3 0-1.7-.5-.4-.5-.6-1.1-.5-1.7 0-.2-.1-.4-.3-.5-.3-.2-.7-.3-1.1-.4-.2-.1-.4 0-.5.1-.3.5-.9.9-1.6.9-.6 0-1.2-.3-1.6-.9-.1-.2-.3-.2-.5-.1-.4.1-.7.3-1.1.5-.2.1-.3.3-.3.5.1.6 0 1.3-.5 1.7-.5.4-1.1.6-1.7.5-.2 0-.4.1-.5.3-.2.3-.3.7-.4 1.1-.1.2 0 .4.1.5.5.3.9.9.9 1.6 0 .6-.3 1.2-.9 1.6-.2.1-.2.3-.1.5.1.4.2.7.4 1.1.1.2.3.3.5.3.1-.1.3-.2.4-.2z"/><path class="st1" d="M77.5 158.4c-2.1 0-3.8-1.7-3.8-3.8s1.7-3.8 3.8-3.8c2.1 0 3.8 1.7 3.8 3.8 0 2-1.7 3.7-3.8 3.8zm0-6.8c-1.6 0-2.9 1.3-2.9 2.9 0 1.6 1.3 2.9 2.9 2.9 1.6 0 2.9-1.3 2.9-2.9 0-1.6-1.3-2.9-2.9-2.9z"/><path class="st3" d="M75.6 180h-.4c-.4-.1-.8-.3-1.2-.5-.6-.3-.9-.9-.8-1.6.1-.3 0-.6-.2-.8-.2-.2-.5-.3-.8-.2-.6.1-1.3-.2-1.6-.8-.2-.4-.4-.8-.5-1.2-.2-.6 0-1.3.6-1.6.3-.2.4-.5.4-.8 0-.3-.2-.6-.4-.8-.5-.3-.8-1-.6-1.6.1-.4.3-.8.5-1.2.3-.6.9-.9 1.6-.8.3.1.6 0 .8-.2.2-.2.3-.5.2-.8-.1-.6.2-1.3.8-1.6.4-.2.8-.4 1.2-.5.6-.2 1.3 0 1.6.6.2.3.5.4.8.4.3 0 .6-.2.8-.4.3-.5 1-.8 1.6-.6.4.1.8.3 1.2.5.6.3.9.9.8 1.6-.1.5.2.9.6 1h.4c.6-.1 1.3.2 1.6.8.2.4.4.8.5 1.2.2.6 0 1.3-.6 1.6-.3.2-.4.5-.4.8 0 .3.2.6.4.8.5.3.8 1 .6 1.6-.1.4-.3.8-.5 1.2-.3.6-.9.9-1.6.8-.3-.1-.6 0-.8.2-.2.2-.3.5-.2.8.1.6-.2 1.3-.8 1.6-.4.2-.8.4-1.2.5-.6.2-1.3 0-1.6-.6-.2-.3-.5-.4-.8-.4-.3 0-.6.2-.8.4-.3.4-.7.6-1.2.6zm-3.3-4.2c.5 0 1 .2 1.3.5.4.5.6 1.1.5 1.7 0 .2.1.4.3.5.3.2.7.3 1.1.4.2.1.4 0 .5-.1.3-.5.9-.9 1.6-.8.6 0 1.2.3 1.6.9.1.2.3.2.5.1.4-.1.7-.2 1.1-.4.2-.1.3-.3.3-.5-.1-.6 0-1.3.5-1.7.5-.4 1.1-.6 1.7-.5.2 0 .4-.1.5-.3.2-.3.3-.7.4-1.1.1-.2 0-.4-.1-.5-.5-.3-.9-.9-.9-1.6 0-.6.3-1.2.9-1.6.2-.1.2-.3.1-.5-.1-.4-.2-.7-.4-1.1-.1-.2-.3-.3-.5-.3-.6.1-1.3 0-1.7-.5-.4-.5-.6-1.1-.5-1.7 0-.2-.1-.4-.3-.5-.3-.2-.7-.3-1.1-.4-.2-.1-.4 0-.5.1-.3.5-.9.9-1.6.9-.6 0-1.2-.3-1.6-.9-.1-.2-.3-.2-.5-.1-.4.1-.7.3-1.1.5-.2.1-.3.3-.3.5.1.6 0 1.3-.5 1.7-.5.4-1.1.6-1.7.5-.2 0-.4.1-.5.3-.2.3-.3.7-.4 1.1-.1.2 0 .4.1.5.5.3.9.9.9 1.6 0 .6-.3 1.2-.9 1.6-.2.1-.2.3-.1.5.1.4.2.7.4 1.1.1.2.3.3.5.3.1-.1.3-.2.4-.2z"/><path class="st3" d="M77.5 176.4c-2.1 0-3.8-1.7-3.8-3.8s1.7-3.8 3.8-3.8c2.1 0 3.8 1.7 3.8 3.8 0 2-1.7 3.7-3.8 3.8zm0-6.8c-1.6 0-2.9 1.3-2.9 2.9 0 1.6 1.3 2.9 2.9 2.9 1.6 0 2.9-1.3 2.9-2.9 0-1.6-1.3-2.9-2.9-2.9z"/><path class="st5" d="M75.6 198h-.4c-.4-.1-.8-.3-1.2-.5-.6-.3-.9-.9-.8-1.6.1-.3 0-.6-.2-.8-.2-.2-.5-.3-.8-.2-.6.1-1.3-.2-1.6-.8-.2-.4-.4-.8-.5-1.2-.2-.6 0-1.3.6-1.6.3-.2.4-.5.4-.8 0-.3-.2-.6-.4-.8-.5-.3-.8-1-.6-1.6.1-.4.3-.8.5-1.2.3-.6.9-.9 1.6-.8.3.1.6 0 .8-.2.2-.2.3-.5.2-.8-.1-.6.2-1.3.8-1.6.4-.2.8-.4 1.2-.5.6-.2 1.3 0 1.6.6.2.3.5.4.8.4.3 0 .6-.2.8-.4.3-.5 1-.8 1.6-.6.4.1.8.3 1.2.5.6.3.9.9.8 1.6-.1.5.2.9.6 1h.4c.6-.1 1.3.2 1.6.8.2.4.4.8.5 1.2.2.6 0 1.3-.6 1.6-.3.2-.4.5-.4.8 0 .3.2.6.4.8.5.3.8 1 .6 1.6-.1.4-.3.8-.5 1.2-.3.6-.9.9-1.6.8-.3-.1-.6 0-.8.2-.2.2-.3.5-.2.8.1.6-.2 1.3-.8 1.6-.4.2-.8.4-1.2.5-.6.2-1.3 0-1.6-.6-.2-.3-.5-.4-.8-.4-.3 0-.6.2-.8.4-.3.4-.7.6-1.2.6zm-3.3-4.2c.5 0 1 .2 1.3.5.4.5.6 1.1.5 1.7 0 .2.1.4.3.5.3.2.7.3 1.1.4.2.1.4 0 .5-.1.3-.5.9-.9 1.6-.8.6 0 1.2.3 1.6.9.1.2.3.2.5.1.4-.1.7-.2 1.1-.4.2-.1.3-.3.3-.5-.1-.6 0-1.3.5-1.7.5-.4 1.1-.6 1.7-.5.2 0 .4-.1.5-.3.2-.3.3-.7.4-1.1.1-.2 0-.4-.1-.5-.5-.3-.9-.9-.9-1.6 0-.6.3-1.2.9-1.6.2-.1.2-.3.1-.5-.1-.4-.2-.7-.4-1.1-.1-.2-.3-.3-.5-.3-.6.1-1.3 0-1.7-.5-.4-.5-.6-1.1-.5-1.7 0-.2-.1-.4-.3-.5-.3-.2-.7-.3-1.1-.4-.2-.1-.4 0-.5.1-.3.5-.9.9-1.6.9-.6 0-1.2-.3-1.6-.9-.1-.2-.3-.2-.5-.1-.4.1-.7.3-1.1.5-.2.1-.3.3-.3.5.1.6 0 1.3-.5 1.7-.5.4-1.1.6-1.7.5-.2 0-.4.1-.5.3-.2.3-.3.7-.4 1.1-.1.2 0 .4.1.5.5.3.9.9.9 1.6 0 .6-.3 1.2-.9 1.6-.2.1-.2.3-.1.5.1.4.2.7.4 1.1.1.2.3.3.5.3.1-.1.3-.2.4-.2z"/><path class="st5" d="M77.5 194.4c-2.1 0-3.8-1.7-3.8-3.8s1.7-3.8 3.8-3.8c2.1 0 3.8 1.7 3.8 3.8 0 2-1.7 3.7-3.8 3.8zm0-6.8c-1.6 0-2.9 1.3-2.9 2.9 0 1.6 1.3 2.9 2.9 2.9 1.6 0 2.9-1.3 2.9-2.9 0-1.6-1.3-2.9-2.9-2.9z"/><path class="st6" d="M95.6 198h-.4c-.4-.1-.8-.3-1.2-.5-.6-.3-.9-.9-.8-1.6.1-.3 0-.6-.2-.8-.2-.2-.5-.3-.8-.2-.6.1-1.3-.2-1.6-.8-.2-.4-.4-.8-.5-1.2-.2-.6 0-1.3.6-1.6.3-.2.4-.5.4-.8 0-.3-.2-.6-.4-.8-.5-.3-.8-1-.6-1.6.1-.4.3-.8.5-1.2.3-.6.9-.9 1.6-.8.3.1.6 0 .8-.2.2-.2.3-.5.2-.8-.1-.6.2-1.3.8-1.6.4-.2.8-.4 1.2-.5.6-.2 1.3 0 1.6.6.2.3.5.4.8.4.3 0 .6-.2.8-.4.3-.5 1-.8 1.6-.6.4.1.8.3 1.2.5.6.3.9.9.8 1.6-.1.5.2.9.6 1h.4c.6-.1 1.3.2 1.6.8.2.4.4.8.5 1.2.2.6 0 1.3-.6 1.6-.3.2-.4.5-.4.8 0 .3.2.6.4.8.5.3.8 1 .6 1.6-.1.4-.3.8-.5 1.2-.3.6-.9.9-1.6.8-.3-.1-.6 0-.8.2-.2.2-.3.5-.2.8.1.6-.2 1.3-.8 1.6-.4.2-.8.4-1.2.5-.6.2-1.3 0-1.6-.6-.2-.3-.5-.4-.8-.4-.3 0-.6.2-.8.4-.3.4-.7.6-1.2.6zm-3.3-4.2c.5 0 1 .2 1.3.5.4.5.6 1.1.5 1.7 0 .2.1.4.3.5.3.2.7.3 1.1.4.2.1.4 0 .5-.1.3-.5.9-.9 1.6-.8.6 0 1.2.3 1.6.9.1.2.3.2.5.1.4-.1.7-.2 1.1-.4.2-.1.3-.3.3-.5-.1-.6 0-1.3.5-1.7.5-.4 1.1-.6 1.7-.5.2 0 .4-.1.5-.3.2-.3.3-.7.4-1.1.1-.2 0-.4-.1-.5-.5-.3-.9-.9-.9-1.6 0-.6.3-1.2.9-1.6.2-.1.2-.3.1-.5-.1-.4-.2-.7-.4-1.1-.1-.2-.3-.3-.5-.3-.6.1-1.3 0-1.7-.5-.4-.5-.6-1.1-.5-1.7 0-.2-.1-.4-.3-.5-.3-.2-.7-.3-1.1-.4-.2-.1-.4 0-.5.1-.3.5-.9.9-1.6.9-.6 0-1.2-.3-1.6-.9-.1-.2-.3-.2-.5-.1-.4.1-.7.3-1.1.5-.2.1-.3.3-.3.5.1.6 0 1.3-.5 1.7-.5.4-1.1.6-1.7.5-.2 0-.4.1-.5.3-.2.3-.3.7-.4 1.1-.1.2 0 .4.1.5.5.3.9.9.9 1.6 0 .6-.3 1.2-.9 1.6-.2.1-.2.3-.1.5.1.4.2.7.4 1.1.1.2.3.3.5.3.1-.1.3-.2.4-.2z"/><path class="st6" d="M97.5 194.4c-2.1 0-3.8-1.7-3.8-3.8s1.7-3.8 3.8-3.8c2.1 0 3.8 1.7 3.8 3.8 0 2-1.7 3.7-3.8 3.8zm0-6.8c-1.6 0-2.9 1.3-2.9 2.9 0 1.6 1.3 2.9 2.9 2.9 1.6 0 2.9-1.3 2.9-2.9 0-1.6-1.3-2.9-2.9-2.9z"/><path class="st3" d="M90.7 58c-.2 0-.4 0-.5-.1-.5-.2-1-.4-1.4-.6-.7-.4-1.1-1.1-.9-1.9.1-.4 0-.7-.3-1-.3-.2-.6-.3-1-.3-.8.1-1.5-.2-1.9-.9-.2-.5-.4-.9-.6-1.4-.2-.7 0-1.5.7-1.9.3-.2.5-.5.5-.9s-.2-.7-.5-.9c-.6-.4-.9-1.2-.7-1.9.2-.5.4-1 .6-1.4.3-.7 1.1-1.1 1.9-1 .4.1.7 0 1-.2.2-.3.3-.6.3-1-.1-.8.2-1.5.9-1.9.5-.2.9-.4 1.4-.6.7-.2 1.5 0 1.9.7.2.3.5.5.9.5s.7-.2.9-.5c.4-.6 1.2-.9 1.9-.7.5.2 1 .4 1.4.6.7.4 1.1 1.1.9 1.9-.1.5.2 1.1.7 1.2h.6c.8-.1 1.5.2 1.9.9.2.5.4.9.6 1.4.2.7 0 1.5-.7 1.9-.3.2-.5.5-.5.9s.2.7.5.9c.6.4.9 1.2.7 1.9-.2.5-.4 1-.6 1.4-.4.7-1.1 1.1-1.9.9-.4-.1-.7 0-1 .3-.2.3-.3.6-.3 1 .1.8-.2 1.5-.9 1.9-.5.2-.9.4-1.4.6-.7.2-1.5 0-1.9-.7-.2-.3-.5-.5-.9-.5s-.7.2-.9.5c-.3.6-.8.9-1.4.9zm-3.9-5c.6 0 1.1.2 1.6.6.5.5.7 1.3.6 2.1 0 .3.1.5.3.6.4.2.8.4 1.3.5.2.1.4 0 .6-.2.4-.6 1.1-1 1.9-1 .8 0 1.5.4 1.9 1 .1.2.4.3.6.2.4-.1.9-.3 1.3-.5.2-.1.4-.3.3-.6-.2-.7.1-1.5.6-2.1.5-.5 1.3-.8 2-.6.3 0 .5-.1.6-.3.2-.4.4-.8.5-1.3.1-.2 0-.4-.2-.6-.6-.4-1-1.1-1-1.9 0-.8.4-1.5 1-1.9.2-.1.3-.4.2-.6-.1-.4-.3-.9-.5-1.3-.1-.2-.3-.4-.6-.3-.7.2-1.5-.1-2.1-.6-.5-.5-.7-1.3-.6-2.1 0-.3-.1-.5-.3-.6-.4-.2-.8-.4-1.3-.5-.2-.1-.4 0-.6.2-.4.6-1.1 1-1.9 1-.8 0-1.5-.4-1.9-1-.1-.2-.4-.3-.6-.2-.4.2-.9.4-1.3.6-.2.1-.4.3-.3.6.2.7-.1 1.5-.6 2.1-.5.5-1.3.7-2.1.6-.3 0-.5.1-.6.3-.2.4-.4.8-.5 1.3-.1.2 0 .4.2.6.6.4 1 1.1 1 1.9 0 .8-.4 1.5-1 1.9-.2.1-.3.4-.2.6.1.4.3.9.5 1.3.1.2.3.4.6.3.2-.1.4-.1.6-.1z"/><path class="st3" d="M93 53.6c-2.5 0-4.6-2.1-4.6-4.6s2.1-4.6 4.6-4.6c2.5 0 4.6 2.1 4.6 4.6 0 2.5-2.1 4.6-4.6 4.6zm0-8.1c-1.9 0-3.4 1.5-3.4 3.5 0 1.9 1.5 3.4 3.5 3.4 1.9 0 3.4-1.5 3.4-3.4s-1.6-3.4-3.5-3.5z"/><path class="st7" d="M11 78H6v-2.3l-2.8 2.8L6 81.3V79h5v2.3l2.8-2.8-2.8-2.8z"/><path class="st7" d="M8.5 70C1.8 70 0 71.8 0 78.5S1.8 87 8.5 87s8.5-1.8 8.5-8.5S15.3 70 8.5 70zm0 16C2.3 86 1 84.7 1 78.5S2.3 71 8.5 71s7.5 1.3 7.5 7.5S14.7 86 8.5 86z"/><path class="st5" d="M33 78h-5v-2.3l-2.8 2.8 2.8 2.8V79h5v2.3l2.8-2.8-2.8-2.8z"/><path class="st5" d="M30.5 70c-6.8 0-8.5 1.8-8.5 8.5s1.8 8.5 8.5 8.5 8.5-1.8 8.5-8.5-1.7-8.5-8.5-8.5zm0 16c-6.2 0-7.5-1.3-7.5-7.5s1.3-7.5 7.5-7.5 7.5 1.3 7.5 7.5-1.3 7.5-7.5 7.5z"/><path class="st2" d="M122.4 46h-1.2v-1.7c.2-2.2-1.5-4.1-3.7-4.3h-.5c-2.3-.2-4.3 1.6-4.4 3.9V46h-1c-.8 0-1.6.6-1.6 1.5v8.9c0 .8.6 1.6 1.5 1.6h10.7c.9.1 1.7-.7 1.8-1.6v-8.8c0-.9-.8-1.6-1.6-1.6h-.1.1zm-11.6 1.8c0-.6.4-1 1-1h10.4c.6 0 1 .4 1 1v8.4c0 .6-.4 1-1 1h-10.4c-.6 0-1-.4-1-1v-8.4zm9.6-3.6V46h-7v-1.8c-.1-1.8 1.3-3.3 3.1-3.4h.5c1.7-.2 3.2 1 3.4 2.7v.7zm-3.5 9.5c.9 0 1.7-.8 1.7-1.7 0-.9-.8-1.7-1.7-1.7-.9 0-1.7.8-1.7 1.7 0 .9.8 1.7 1.7 1.7z"/><path class="st5" d="M144.4 46h-1.2v-1.7c.2-2.2-1.5-4.1-3.7-4.3h-.5c-2.3-.2-4.3 1.6-4.4 3.9V46h-1c-.8 0-1.6.6-1.6 1.5v8.9c0 .8.6 1.6 1.5 1.6h10.7c.9.1 1.7-.7 1.8-1.6v-8.8c0-.9-.8-1.6-1.6-1.6h-.1.1zm-11.6 1.8c0-.6.4-1 1-1h10.4c.6 0 1 .4 1 1v8.4c0 .6-.4 1-1 1h-10.4c-.6 0-1-.4-1-1v-8.4zm9.6-3.6V46h-7v-1.8c-.1-1.8 1.3-3.3 3.1-3.4h.5c1.7-.2 3.2 1 3.4 2.7v.7zm-3.5 9.5c.9 0 1.7-.8 1.7-1.7 0-.9-.8-1.7-1.7-1.7-.9 0-1.7.8-1.7 1.7 0 .9.8 1.7 1.7 1.7z"/><path class="st8" d="M58.2 91.1c8.3.1 15.1-6.6 15.2-15v-.9c1-.8 1.9-1.7 2.7-2.8-1 .4-2 .7-3.1.8 1.1-.7 2-1.7 2.3-3-1 .6-2.2 1.1-3.4 1.3-2-2.1-5.4-2.2-7.5-.2-1.4 1.3-2 3.2-1.5 5.1-4.3-.2-8.3-2.2-11-5.6-1.4 2.4-.7 5.6 1.7 7.1-.9 0-1.7-.2-2.5-.6v.1c0 2.5 1.8 4.7 4.3 5.2-.8.2-1.6.2-2.4.1.7 2.2 2.7 3.7 5 3.7-1.9 1.5-4.2 2.3-6.6 2.3-.4 0-.8 0-1.2-.1 2.2 1.7 5.1 2.5 8 2.5"/><path class="st9" d="M101.3 70.3c-1.3.1-2.5.7-3.4 1.7-1.1 1.1-1.4 2.3-1.6 5.3l-.1 2.8-1.6.1-1.6.1v4.8l1.6.1 1.6.1.1 7.7v7.8h6.5v-7.5c0-5.6.1-7.6.3-7.8.7-.3 1.5-.4 2.3-.3h2l.1-.8c.1-.4.2-1.5.3-2.4l.2-1.7h-2.5c-2.1 0-2.5-.1-2.6-.4-.1-1.2 0-2.5.2-3.7.1-.7 1.2-1 3.2-1h1.6V70h-2.6c-1.4 0-2.7.1-4 .3z"/><path class="st10" d="M149 80.4c1 .9 1.9 1.9 2.8 2.9.4.5.7.9 1 1.5.4.8 0 1.6-.6 1.6H148c-1 .1-2-.3-2.7-1.1-.6-.6-1.1-1.2-1.7-1.8-.2-.3-.5-.5-.8-.7-.4-.3-.9-.3-1.2.1-.1.1-.1.2-.2.3-.3.6-.5 1.3-.4 2 0 1-.4 1.3-1.4 1.3-2.1.2-4.2-.3-6-1.3-1.6-1-3-2.3-4.1-3.8-2.1-3-3.9-6.2-5.3-9.5-.3-.8-.1-1.2.7-1.2h4.1c.5 0 1 .4 1.1.9.7 1.8 1.7 3.6 2.8 5.2.3.4.6.8 1 1.1.2.3.6.3.9 0 .1-.1.2-.2.2-.3.1-.3.2-.7.2-1.1.1-1.3.1-2.6-.1-3.8-.1-.7-.6-1.4-1.4-1.5-.4-.1-.3-.2-.1-.5.3-.4.8-.7 1.3-.6h4.8c.8.2.9.5 1 1.2v5.3c0 .3.1 1.2.7 1.4s.7-.2 1-.5c1.1-1.2 2-2.6 2.7-4.1.3-.7.6-1.3.9-2 .1-.5.6-.8 1.1-.7h5c.8.1 1 .5.8 1.2-.4 1.2-1 2.3-1.8 3.2-.8 1.1-1.6 2.1-2.4 3.2s-.6 1.3.3 2.1z"/><path class="st1" d="M4.1 118.8c-.2 0-.4-.1-.6-.2l-3.3-3.3c-.4-.3-.4-.8-.1-1.2.3-.4.8-.4 1.2-.1.1 0 .1.1.1.1l2.6 2.6 5.5-6.5c.3-.4.8-.5 1.1-.2.4.3.5.8.2 1.1l-.1.1-6.1 7.2c0 .3-.3.4-.5.4zm139.1 88.8c-.4 0-.8-.2-1.1-.5l-6.5-6.5c-.6-.6-.6-1.7 0-2.3s1.7-.6 2.3 0l5.3 5.3 11.1-13c.6-.7 1.6-.8 2.3-.2.7.6.8 1.6.2 2.3L144.4 207c-.3.3-.7.6-1.2.6z"/><path class="st3" d="M4.1 133.8c-.2 0-.4-.1-.6-.2l-3.3-3.3c-.3-.4-.2-.9.1-1.1.3-.2.7-.2 1 0l2.6 2.6 5.5-6.5c.3-.4.8-.5 1.1-.2.4.3.5.8.2 1.1l-.1.1-6.1 7.2c.1.2-.2.3-.4.3z"/><path class="st1" d="M20.3 120c-.2 0-.3.1-.3.3 0 .1 0 .1.1.2l8.5 8.5-8.5 8.5c-.1.1-.1.3 0 .4.1.1.3.1.4 0l8.5-8.5 8.5 8.5c.1.1.3.1.4 0 .1-.1.1-.3 0-.4l-8.5-8.5 8.5-8.5c.1-.1.1-.3 0-.4-.1-.1-.1-.1-.2-.1s-.1 0-.2.1l-8.5 8.5-8.5-8.5c-.1-.1-.2-.1-.2-.1z"/><path class="st11" d="M20.3 100c-.2 0-.3.1-.3.3 0 .1 0 .1.1.2l8.5 8.5-8.5 8.5c-.1.1-.1.3 0 .4.1.1.2.1.3 0l8.5-8.5 8.5 8.5c.1.1.3.1.4 0 .1-.1.1-.3 0-.4l-8.5-8.5 8.5-8.5c.1-.1.1-.3 0-.4-.1-.1-.1-.1-.2-.1s-.1 0-.2.1l-8.5 8.5-8.5-8.5c0-.1-.1-.1-.1-.1z"/><path class="st6" d="M85.5 114.9c-.3 0-.5.2-.5.5v3.1h-7.5V111h3.2c.3 0 .5-.2.5-.5s-.2-.5-.5-.5H77c-.3 0-.5.2-.5.5v2.2h-2.2c-.3 0-.5.2-.5.5v8.4c0 .3.2.5.5.5h8.4c.3 0 .5-.2.5-.5v-2.2h2.2c.3 0 .5-.2.5-.5v-3.6c.1-.2-.1-.4-.4-.4zm-3.1 6.2h-7.5v-7.5h1.7v5.3c0 .3.2.5.5.5h5.3v1.7z"/><path class="st6" d="M86 110.5v2.7c0 .3-.2.5-.5.5s-.5-.2-.5-.5v-1.6l-3.7 3.7c-.1.1-.2.1-.3.1-.3 0-.5-.2-.4-.5 0-.1 0-.2.1-.3l3.7-3.7h-1.6c-.3 0-.5-.2-.5-.5s.2-.5.5-.5h2.9l.1.1c.1.1.1.1.1.2.1.2.1.2.1.3zm0 0c0-.1 0-.1 0 0 0-.1 0-.1 0 0z"/><path class="st1" d="M85.5 128.9c-.3 0-.5.2-.5.5v3.1h-7.5V125h3.2c.3 0 .5-.2.5-.5s-.2-.5-.5-.5H77c-.3 0-.5.2-.5.5v2.2h-2.2c-.3 0-.5.2-.5.5v8.4c0 .3.2.5.5.5h8.4c.3 0 .5-.2.5-.5v-2.2h2.2c.3 0 .5-.2.5-.5v-3.6c.1-.2-.1-.4-.4-.4zm-3.1 6.2h-7.5v-7.5h1.7v5.3c0 .3.2.5.5.5h5.3v1.7z"/><path class="st1" d="M86 124.5v2.7c0 .3-.2.5-.5.5s-.5-.2-.5-.5v-1.6l-3.7 3.7c-.1.1-.2.1-.3.1-.3 0-.5-.2-.4-.5 0-.1 0-.2.1-.3l3.7-3.7h-1.6c-.3 0-.5-.2-.5-.5s.2-.5.5-.5h2.9l.1.1c.1.1.1.1.1.2.1.2.1.2.1.3zm0 0c0-.1 0-.1 0 0 0-.1 0-.1 0 0z"/><path class="st3" d="M109 110c.5 0 .9.2 1.2.5l13 10.8c.8.7.9 1.9.1 2.7-.7.8-1.8.8-2.6.2l-11.8-9.8-11.9 9.8c-.8.7-2 .6-2.7-.1-.7-.8-.6-2 .1-2.7l.1-.1 13-10.8c.5-.3 1-.5 1.5-.5zm0 30.6c-.5 0-.9-.2-1.2-.5l-13-10.8c-.8-.7-.9-1.9-.1-2.7.7-.8 1.8-.8 2.6-.2l11.8 9.8 11.9-9.8c.8-.7 2-.6 2.7.1.7.8.6 2-.1 2.7l-.1.1-13 10.8c-.5.3-1 .5-1.5.5z"/><path class="st7" d="M143 110c.5 0 .9.2 1.2.5l13 10.8c.8.7.9 1.9.1 2.7-.7.8-1.8.8-2.6.2l-11.8-9.8-11.9 9.8c-.8.7-2 .6-2.7-.1-.7-.8-.6-2 .1-2.7l.1-.1 13-10.8c.5-.3 1-.5 1.5-.5zm0 30.6c-.5 0-.9-.2-1.2-.5l-13-10.8c-.8-.7-.9-1.9-.1-2.7.7-.8 1.8-.8 2.6-.2l11.8 9.8 11.9-9.8c.8-.7 2-.6 2.7.1.7.8.6 2-.1 2.7l-.1.1-13 10.8c-.5.3-1 .5-1.5.5z"/><path class="st12" d="M5 163.9c-.2 0-.3-.1-.4-.1l-4.4-3.6c-.3-.2-.3-.6-.1-.9.2-.3.6-.3.9-.1l4 3.2 4-3.3c.3-.2.7-.2.9.1.2.3.2.7-.1.9l-4.3 3.6c-.2.1-.3.2-.5.2zM5 147c.2 0 .3.1.4.1l4.4 3.6c.3.2.3.6.1.9-.2.3-.6.3-.9.1l-4-3.2-4 3.3c-.3.2-.7.2-.9-.1-.2-.3-.2-.7.1-.9l4.3-3.6c.2-.1.3-.2.5-.2z"/><path class="st13" d="M5 186.9c-.2 0-.3-.1-.4-.1l-4.4-3.6c-.3-.2-.3-.6-.1-.9.2-.3.6-.3.9-.1l4 3.2 4-3.3c.3-.2.7-.2.9.1.2.3.2.7-.1.9l-4.3 3.6c-.2.1-.3.2-.5.2zM5 170c.2 0 .3.1.4.1l4.4 3.6c.3.2.3.6.1.9-.2.3-.6.3-.9.1l-4-3.2-4 3.3c-.3.2-.7.2-.9-.1-.2-.3-.2-.7.1-.9l4.3-3.6c.2-.1.3-.2.5-.2z"/><path class="st14" d="M38 147c-3.3 0-6.3 1.7-7.9 4.6-.7-.3-1.5-.4-2.3-.4-3.5 0-6.5 2.8-6.6 6.4-3.6.8-5.8 4.3-5 7.9.7 3 3.4 5.2 6.5 5.2h6.1c.3.1.5-.1.6-.4.1-.3-.1-.5-.4-.6h-6.3c-3.1 0-5.6-2.6-5.6-5.7 0-2.7 2-5 4.6-5.5.3 0 .4-.3.4-.5 0-3.1 2.5-5.6 5.7-5.6.8 0 1.6.2 2.3.5.2.1.5 0 .7-.2 2.1-4 7.1-5.5 11.1-3.4 1.4.8 2.6 2 3.4 3.4.1.2.4.3.7.2 2.8-1.3 6.2 0 7.5 2.8.3.7.5 1.5.5 2.3 0 .3.2.5.4.5 3.1.6 5.1 3.5 4.5 6.6-.5 2.7-2.8 4.6-5.5 4.6h-6.2c-.3-.1-.5.1-.6.4-.1.3.1.5.4.6h6.4c3.7 0 6.6-2.9 6.7-6.6 0-3.1-2.1-5.8-5.2-6.5-.2-3.5-3.1-6.3-6.6-6.4-.8 0-1.6.2-2.3.4-1.7-2.9-4.7-4.6-8-4.6zm-.1 20.5c-.1 0-.2.1-.3.1l-6.1 6.1c-.2.2-.2.5 0 .7s.5.2.7 0l5.3-5.3v11c-.1.3.1.5.4.6.3.1.5-.1.6-.4v-11.2l5.3 5.3c.2.2.5.2.7 0 .2-.2.2-.5 0-.7l-6.1-6.1c-.2-.1-.3-.2-.5-.1z"/><path class="st1" d="M101.2 152c0-1.9-1.3-3.6-3.2-4 0-.6-.4-1-1-1s-1 .4-1 1c-1.9.4-3.2 2.1-3.2 4v3.5l-1.2 1.1c-.1.1-.1.2-.1.3v.5h11v-.4c0-.1-.1-.2-.1-.3l-1.2-1.1V152zm-5.5 6.5c.1.7.7 1.2 1.3 1.1.6-.1 1.1-.5 1.1-1.1h-2.4z"/><path class="st7" d="M95.7 177.2c.1.7.7 1.2 1.3 1.1.6-.1 1.1-.5 1.1-1.1h-2.4zm5.5-2.9l-.1-3.5c0-.2 0-.5-.1-.7l-6.2 6.2h7.6v-.5c0-.1-.1-.2-.1-.3l-1.1-1.2zm-1.7-6.9c-.5-.3-1-.6-1.5-.7 0-.6-.4-1-1-1s-1 .4-1 1c-1.9.4-3.2 2.1-3.2 4.1v3.4l6.7-6.8zm-9 11.6c-.3 0-.5-.2-.5-.5 0-.1.1-.3.1-.3l13-13c.2-.2.5-.2.7 0 .2.2.2.5 0 .7l-13 13c0 .1-.2.1-.3.1z"/><path class="st15" d="M112.4 156.1l-3.4 8.3c-.1.2 0 .5.1.6.2.2.4.2.7.1l18.8-8.5c.3-.1.4-.5.3-.8l-.3-.3-18.8-8.5c-.3-.1-.7 0-.8.3-.1.2-.1.3 0 .5l3.4 8.3zm14.5 0l-16.2 7.4 2.7-6.8h7.3c.3 0 .6-.3.6-.6s-.3-.6-.6-.6h-7.3l-2.7-6.8 16.2 7.4z"/><path class="st5" d="M112.4 177.1l-3.4 8.3c-.1.2 0 .5.1.6.2.2.4.2.7.1l18.8-8.5c.3-.1.4-.5.3-.8l-.3-.3-18.8-8.5c-.3-.1-.7 0-.8.3-.1.2-.1.3 0 .5l3.4 8.3zm14.5 0l-16.2 7.4 2.7-6.8h7.3c.3 0 .6-.3.6-.6s-.3-.6-.6-.6h-7.3l-2.7-6.8 16.2 7.4z"/><path class="st1" d="M135.4 156.1l-3.4 8.3c-.1.2 0 .5.1.6.2.2.4.2.7.1l18.8-8.5c.3-.1.4-.5.3-.8l-.3-.3-18.8-8.5c-.3-.1-.7 0-.8.3-.1.2-.1.3 0 .5l3.4 8.3zm14.5 0l-16.2 7.4 2.7-6.8h7.3c.3 0 .6-.3.6-.6s-.3-.6-.6-.6h-7.3l-2.7-6.8 16.2 7.4z"/><path class="st3" d="M15.6 240.3c-1 .1-2 .6-2.7 1.3-.9.9-1.1 1.8-1.3 4.3l-.1 2.2-1.3.1H9v3.9l1.3.1 1.3.1.1 6.2v6.2h5.2v-6c0-4.4.1-6.1.2-6.3.6-.2 1.2-.3 1.9-.2h1.6l.1-.6c.1-.3.2-1.2.2-2l.1-1.3h-2c-1.7 0-2-.1-2.1-.3-.1-1 0-2 .2-3 .1-.5 1-.8 2.5-.8h1.3V240h-2.1c-1 0-2.1.1-3.2.3zm23.9 19.2c7.7 0 14-6.1 14-13.8v-.8c1-.7 1.8-1.6 2.5-2.6-.9.4-1.9.7-2.8.8 1-.6 1.8-1.6 2.2-2.7-1 .6-2 1-3.1 1.2-1.9-2-5-2-7-.2-1.2 1.2-1.8 2.9-1.4 4.6-4-.2-7.6-2.1-10.2-5.1-1.3 2.2-.6 5.1 1.5 6.6-.8 0-1.5-.2-2.2-.6v.1c0 2.4 1.7 4.4 4 4.8-.7.2-1.5.2-2.2.1.6 2 2.5 3.4 4.6 3.4-1.7 1.4-3.9 2.1-6.1 2.1-.4 0-.8 0-1.2-.1 2.2 1.4 4.8 2.2 7.4 2.2m45.5-9.1c1 .9 1.9 1.9 2.8 2.9.4.5.7.9 1 1.5.4.8 0 1.6-.6 1.6h-4.3c-1 .1-2-.3-2.7-1.1-.6-.6-1.1-1.2-1.7-1.9-.2-.3-.5-.5-.8-.7-.4-.3-.9-.3-1.2.1-.1.1-.1.2-.2.3-.3.6-.5 1.3-.4 2 0 1-.3 1.3-1.3 1.3-2.1.2-4.2-.3-6-1.3-1.6-1-3-2.3-4.1-3.8-2.1-3-3.9-6.2-5.3-9.5-.3-.8-.1-1.2.7-1.2H65c.5 0 1 .4 1.2.9.7 1.8 1.7 3.6 2.8 5.2.3.4.6.8 1 1.1.2.3.6.3.9 0 .1-.1.2-.2.2-.3.1-.3.2-.7.2-1.1.1-1.3.1-2.6-.1-3.8-.1-.7-.6-1.4-1.4-1.5-.4-.1-.3-.2-.2-.5.3-.4.8-.7 1.3-.6h4.8c.8.1.9.5 1 1.2v5.3c0 .3.2 1.2.7 1.4s.7-.2 1-.5c1.1-1.2 2-2.6 2.7-4.1.3-.6.6-1.3.9-2 .1-.5.6-.8 1.1-.7h5c.8.1 1 .5.8 1.2-.4 1.2-1 2.3-1.8 3.2-.8 1.1-1.6 2.1-2.3 3.1s-.7 1.5.2 2.3zm72-2.3v1.3c0 .4-.2.8-.6 1-.3.2-.6.3-1 .3h-.1c-.4 0-.8-.2-1-.6-.1-.2-.1-.4-.2-.6v-2.1c.1-.4.4-.8.8-.9 0-.7-.2-1.4-.6-2.1-.8-1.6-2.4-2.6-4.1-2.8-2.8-.5-5.5 1.4-6.1 4.1 0 .2-.1.4-.1.6v.1c.4.1.6.4.8.7.1.2.1.3.1.5v1.7c0 .2 0 .4-.1.5-.1.2-.2.4-.4.6.2 1.5 1.5 2.7 3.1 2.6h.4c.2-.2.4-.4.7-.4h1.5c.4 0 .8.3.8.7v.8c0 .4-.4.8-.8.8h-1.5c-.3 0-.5-.1-.7-.4h-.4c-2.4.1-4.5-1.7-4.7-4.1l-.2-.1c-.3-.2-.5-.5-.5-.9v-1.8c0-.3.2-.7.5-.9-.1-1.7.6-3.4 1.8-4.6 1-1.1 2.3-1.8 3.7-2 2.5-.6 5.1.3 6.8 2.2 1.1 1.2 1.7 2.8 1.7 4.4.3.2.5.6.5.9l-.1.5zm-4.2-2.2v3.1c0 .6-.4 1-1 1h-1.5l-1 .9c-.2.2-.4.2-.6 0-.1-.1-.1-.2-.1-.3v-.6h-1.4c-.6 0-1-.4-1.1-.9v-3.2c0-.6.4-1 1-1h4.5c.7 0 1.1.4 1.2 1zm-4.1 1.6c0-.2-.1-.4-.4-.4s-.4.1-.4.4.1.4.4.4c.2 0 .4-.2.4-.4zm1.2 0c0-.2-.1-.4-.4-.4s-.4.1-.4.4.1.4.4.4c.2 0 .4-.2.4-.4zm1.2 0c0-.2-.1-.4-.4-.4s-.4.1-.4.4.1.4.4.4c.2 0 .4-.2.4-.4zm-47.3-.4h.7c.2 0 .4-.2.4-.4v-3.6c0-.2-.2-.4-.4-.4h-2.3c-1.2 0-2.2 1-2.2 2.2 0 1.2 1 2.2 2.2 2.2h1.6zm6.6-7.1c-.3 0-.6.2-.6.6-1.1 1.3-2.7 2.1-4.4 2.2v4.4c1.7.1 3.3.9 4.4 2.2 0 .3.3.5.6.5.2 0 .4-.2.5-.5v-8.7c.1-.4-.2-.7-.5-.7zm-6.2 7.7H102l.9 3.8h2.2zm7.3-4.3v3.1c.9-.4 1.2-1.4.9-2.2-.2-.5-.5-.8-.9-.9zm21.3-3.4h-10.7c-1.2 0-2.2 1-2.2 2.2v9.8c0 1.2 1 2.2 2.2 2.2h10.7c1.2 0 2.2-1 2.2-2.2v-9.8c0-1.2-1-2.2-2.2-2.2zm.6 7.8h-3c-.4 0-.8-.3-.8-.7s.3-.8.7-.8h3.2v1.5zm0-3h-2.8c-1.2 0-2.3.9-2.4 2.1-.1 1.2.8 2.4 2.1 2.5h3.2v2.4c0 .4-.4.8-.8.8h-10.3c-.4 0-.8-.4-.8-.8V242c0-.3.3-.6.6-.6h10.5c.4 0 .8.4.8.8l-.1 2.6zM3 101c-.2 0-.3-.1-.4-.2L.2 98.6c-.2-.2-.2-.5 0-.7.2-.2.6-.2.8 0l1.9 1.8L7 95.2c.2-.2.6-.3.8-.1.2.2.3.5.1.7l-4.5 4.9c-.1.2-.2.3-.4.3z"/><path class="st16" d="M153 276c-.2 0-.3-.1-.4-.2l-2.4-2.2c-.2-.2-.2-.5 0-.7.2-.2.6-.2.8 0l1.9 1.8 4-4.4c.2-.2.6-.3.8-.1.2.2.3.5.1.7l-4.4 4.9c-.1.1-.2.2-.4.2z"/><path class="st17" d="M80 280c-3.2 0-6.4-1.8-9.6-5.5l-.4-.5.4-.5c6.4-7.4 12.8-7.4 19.2 0l.4.5-.4.5c-3.2 3.7-6.4 5.5-9.6 5.5zm-8.4-6c5.6 6.2 11.1 6.2 16.7 0-5.6-6.2-11-6.2-16.7 0z"/><path class="st17" d="M80 270.1c-2.1 0-3.8 1.7-3.8 3.9 0 2.1 1.7 3.9 3.8 3.9 2.1 0 3.8-1.7 3.8-3.9s-1.7-3.9-3.8-3.9zm-1 3.3c-.6 0-1-.4-1-1s.4-1 1-1 1 .4 1 1-.4 1-1 1z"/><path class="st1" d="M106 280c-3.2 0-6.4-1.8-9.6-5.5l-.4-.5.4-.5c6.4-7.4 12.8-7.4 19.2 0l.4.5-.4.5c-3.2 3.7-6.4 5.5-9.6 5.5zm-8.4-6c5.6 6.2 11.1 6.2 16.7 0-5.6-6.2-11-6.2-16.7 0z"/><path class="st1" d="M106 270.1c-2.1 0-3.8 1.7-3.8 3.9 0 2.1 1.7 3.9 3.8 3.9 2.1 0 3.8-1.7 3.8-3.9s-1.7-3.9-3.8-3.9zm-1 3.3c-.6 0-1-.4-1-1s.4-1 1-1 1 .4 1 1-.4 1-1 1z"/><path class="st5" d="M132 280c-3.2 0-6.4-1.8-9.6-5.5l-.4-.5.4-.5c6.4-7.4 12.8-7.4 19.2 0l.4.5-.4.5c-3.2 3.7-6.4 5.5-9.6 5.5zm-8.4-6c5.6 6.2 11.1 6.2 16.7 0-5.6-6.2-11-6.2-16.7 0z"/><path class="st5" d="M132 270.1c-2.1 0-3.8 1.7-3.8 3.9s1.7 3.9 3.9 3.9c2.1 0 3.8-1.7 3.8-3.9s-1.8-3.9-3.9-3.9zm-1 3.3c-.6 0-1-.4-1-1s.4-1 1-1 1 .4 1 1-.4 1-1 1z"/></svg>