<svg xmlns="http://www.w3.org/2000/svg" viewBox="0 0 160 280"><title>sprite</title><path d="M15 75.5a.76.76 0 0 0-.2-.4l-4.6-4.9a.57.57 0 0 0-.8.8l3.7 3.9H.6a.6.6 0 1 0 0 1.2h12.5L9.4 80a.57.57 0 0 0 .8.8l4.6-4.9a.52.52 0 0 0 .2-.4zm-15 12a.76.76 0 0 0 .2.4l4.6 4.9a.61.61 0 0 0 .8 0 .61.61 0 0 0 0-.8l-3.7-3.9h12.5a.6.6 0 1 0 0-1.2H1.9L5.6 83a.61.61 0 0 0 0-.8.61.61 0 0 0-.8 0L.2 87.1a.52.52 0 0 0-.2.4z" fill="#347ffb"/><path d="M34.5 2.7l-6.7 18.9v.1l-1.2-2.6-2.6 1.2 6.8-19.1L33.3 0zm16.8.4l-6.7 19-1.2-2.6-2.6 1.2.2-.4 6.7-18.9L50.3.1l1.2 2.6zM36.9 19.5l4-11.1-2.6 1.2L37 7l-4 11.1 1.2 2.6zm-21.4-11H3.7l2 2-2 2h11.8l2-2zM2 16.8h19.1l-2 2 2 2H2l-2-2zM7.9.3H27l-2 2 2 2H7.9l-2-2zm96.6 11.4a8 8 0 0 1 .6-3 7.2 7.2 0 0 1 4.1-4.1 8.31 8.31 0 0 1 6.2 0 7.32 7.32 0 0 1 4 4.1 7.55 7.55 0 0 1 0 5.9 7.2 7.2 0 0 1-4.1 4.1 8.53 8.53 0 0 1-3.1.6 7.92 7.92 0 0 1-4-1 7.52 7.52 0 0 1-2.8-2.8 7.35 7.35 0 0 1-.9-3.8zm-42.7-1.4h7.8v2.6h-7.8v3.6H70v2.6H58.9V4.3h11v2.6h-8.1zm9.6 8.8l5.2-7.5-5-7.3h3.3l3.6 5.3 3.6-5.3h3.3l-4.9 7.2 5.2 7.6h-3.3l-3.8-5.6-3.8 5.6zm16 0V4.3h3l4.5 6.6 4.5-6.6h3.1v14.8h-2.9V8.9l-4.7 6.4h-.1l-4.6-6.4v10.2zm20-7.4a5.83 5.83 0 0 0 .6 2.6 5.19 5.19 0 0 0 1.7 1.9 4.51 4.51 0 0 0 2.5.7 4.76 4.76 0 0 0 4.2-2.5 5.93 5.93 0 0 0 0-5.2 4.69 4.69 0 0 0-1.8-1.9 4.51 4.51 0 0 0-2.5-.7 4.73 4.73 0 0 0-4.3 2.5 10.87 10.87 0 0 0-.4 2.6z" fill="#fff"/><path d="M58 51.2a15.09 15.09 0 0 0 15.2-15v-.9a14.38 14.38 0 0 0 2.7-2.8 10.89 10.89 0 0 1-3.1.8 5 5 0 0 0 2.3-3 10 10 0 0 1-3.4 1.3 5.34 5.34 0 0 0-7.5-.2 5.1 5.1 0 0 0-1.5 5.1 14.87 14.87 0 0 1-11-5.6 5.28 5.28 0 0 0 1.7 7.1 5.42 5.42 0 0 1-2.5-.6v.1a5.34 5.34 0 0 0 4.3 5.2 6.47 6.47 0 0 1-2.4.1 5.25 5.25 0 0 0 5 3.7 10.6 10.6 0 0 1-6.6 2.3 4.87 4.87 0 0 1-1.2-.1 13.13 13.13 0 0 0 8 2.5" fill="#5e9fee"/><path d="M98.3 30.3a5.08 5.08 0 0 0-3.4 1.7c-1.1 1.1-1.4 2.3-1.6 5.3l-.1 2.8-1.6.1-1.6.1v4.8l1.6.1 1.6.1.1 7.7v7.8h6.5v-7.5c0-5.6.1-7.6.3-7.8a4.45 4.45 0 0 1 2.3-.3h2l.1-.8c.1-.4.2-1.5.3-2.4l.2-1.7h-2.5c-2.1 0-2.5-.1-2.6-.4a15.33 15.33 0 0 1 .2-3.7c.1-.7 1.2-1 3.2-1h1.6V30h-2.6a26 26 0 0 0-4 .3z" fill="#4765af"/><path d="M144.9 40.3a38.34 38.34 0 0 1 2.8 2.9 7.84 7.84 0 0 1 1 1.5c.4.8 0 1.6-.6 1.6h-4.2a3.17 3.17 0 0 1-2.7-1.1c-.6-.6-1.1-1.2-1.7-1.8a2.7 2.7 0 0 0-.8-.7.82.82 0 0 0-1.2.1c-.1.1-.1.2-.2.3a3.44 3.44 0 0 0-.4 2c0 1-.4 1.3-1.4 1.3a10.39 10.39 0 0 1-6-1.3 14.87 14.87 0 0 1-4.1-3.8 52.22 52.22 0 0 1-5.3-9.5c-.3-.8-.1-1.2.7-1.2h4.1a1.17 1.17 0 0 1 1.1.9 26.09 26.09 0 0 0 2.8 5.2 5.24 5.24 0 0 0 1 1.1.56.56 0 0 0 .9 0c.1-.1.2-.2.2-.3a3.59 3.59 0 0 0 .2-1.1 16 16 0 0 0-.1-3.8 1.7 1.7 0 0 0-1.4-1.5c-.4-.1-.3-.2-.1-.5a1.37 1.37 0 0 1 1.3-.6h4.8c.8.2.9.5 1 1.2v5.3c0 .3.1 1.2.7 1.4s.7-.2 1-.5a16.19 16.19 0 0 0 2.7-4.1c.3-.7.6-1.3.9-2a.92.92 0 0 1 1.1-.7h5c.8.1 1 .5.8 1.2A9.16 9.16 0 0 1 147 35c-.8 1.1-1.6 2.1-2.4 3.2s-.6 1.3.3 2.1z" fill="#536ea7"/><path d="M30.3 90a.27.27 0 0 0-.3.3c0 .1 0 .1.1.2l8.5 8.5-8.5 8.5a.28.28 0 1 0 .4.4l8.5-8.5 8.5 8.5a.28.28 0 1 0 .4-.4L39.4 99l8.5-8.5a.3.3 0 0 0 0-.4c-.1-.1-.1-.1-.2-.1s-.1 0-.2.1L39 98.6l-8.5-8.5a.31.31 0 0 0-.2-.1z" fill="#347ffb"/><path d="M30.3 70a.27.27 0 0 0-.3.3c0 .1 0 .1.1.2l8.5 8.5-8.5 8.5a.3.3 0 0 0 0 .4.19.19 0 0 0 .3 0l8.5-8.5 8.5 8.5a.28.28 0 0 0 .4-.4L39.3 79l8.5-8.5a.3.3 0 0 0 0-.4c-.1-.1-.1-.1-.2-.1s-.1 0-.2.1l-8.5 8.5-8.6-8.6z" fill="#0b0b0b"/><path d="M26 39.1a.91.91 0 0 1-.3.7l-6.6 7.8a1.13 1.13 0 0 1-1.6.2h-.1a1.13 1.13 0 0 1-.2-1.6v-.1l6-7.1-6-7.2a1.13 1.13 0 0 1 .2-1.6 1.25 1.25 0 0 1 1.7.2l6.6 7.8a1.9 1.9 0 0 1 .3.9zm-26 0a.91.91 0 0 1 .3-.7l6.6-7.8a1.25 1.25 0 0 1 1.7-.2 1.13 1.13 0 0 1 .2 1.6l-6 7.1 6 7.2a1.12 1.12 0 0 1-.1 1.6 1.36 1.36 0 0 1-1.7-.1L.4 40a1.39 1.39 0 0 1-.4-.9z" fill="#718493"/><path d="M44.9 142l-3.1-4.6.4-5.5a1 1 0 0 0-.6-1l-5-2.4-2.4-5a1 1 0 0 0-1-.6l-5.6.3-4.6-3.1a1.27 1.27 0 0 0-1.2 0l-4.5 3-5.5-.4a1 1 0 0 0-1 .6l-2.4 5-5 2.4a1 1 0 0 0-.6 1l.4 5.5-3 4.6a1.27 1.27 0 0 0 0 1.2l3 4.6-.4 5.5a1 1 0 0 0 .6 1l5 2.4 2.4 5a1 1 0 0 0 1 .6l5.5-.4 4.6 3a.73.73 0 0 0 .6.2 1.42 1.42 0 0 0 .6-.2l4.6-3 5.5.4a1 1 0 0 0 1-.6l2.4-5 5-2.4a1 1 0 0 0 .6-1l-.3-5.5 3-4.6a.91.91 0 0 0 0-1zm-5.1 4.8a.84.84 0 0 0-.2.7l.3 5.2-4.6 2.3a1.21 1.21 0 0 0-.5.5l-2.3 4.6-5.2-.3a2.54 2.54 0 0 0-.7.2l-4.3 2.9L18 160a.73.73 0 0 0-.6-.2h-.1l-5.2.3-2.3-4.6a1.21 1.21 0 0 0-.5-.5L5 152.6l.3-5.2a2.54 2.54 0 0 0-.2-.7l-2.9-4.3 2.9-4.3a.84.84 0 0 0 .2-.7l-.3-5 4.6-2.3a1.21 1.21 0 0 0 .5-.5l2.3-4.6 5.2.3a2.54 2.54 0 0 0 .7-.2l4.3-2.9 4.3 2.9a.84.84 0 0 0 .7.2l5.2-.3 2.3 4.6a1.21 1.21 0 0 0 .5.5l4.6 2.3-.3 5.2a2.54 2.54 0 0 0 .2.7l2.9 4.3z" fill="#fff"/><path d="M16.8 141.2a5 5 0 1 0-5-5 5.08 5.08 0 0 0 5 5zm0-7.8a2.8 2.8 0 0 1 0 5.6 2.8 2.8 0 0 1 0-5.6zM28 143.8a5 5 0 1 0 5 5 5 5 0 0 0-5-5zm0 7.8a2.8 2.8 0 0 1-2.8-2.8 2.8 2.8 0 1 1 2.8 2.8zm-15.568-.692l18.384-18.385 1.556 1.556-18.385 18.385zM96 159.3H82.2v-3.6h-3.6v-4.3h7.9a2.11 2.11 0 0 0 2.1-2.1v-15.7a2.11 2.11 0 0 0-2.1-2.1H85v-4.3a7.2 7.2 0 1 0-14.4 0v4.3h-1.4a2.11 2.11 0 0 0-2.1 2.1v15.7a2.11 2.11 0 0 0 2.1 2.1h7.9v4.3h-3.6v3.6H60v1.4h13.6v3.6h8.6v-3.6H96v-1.4zm-23.8-32.1a5.7 5.7 0 0 1 11.4 0v4.3H72.2zm-2.9 22.9a.68.68 0 0 1-.7-.7v-15.7a.68.68 0 0 1 .7-.7h17.1a.68.68 0 0 1 .7.7v15.7a.68.68 0 0 1-.7.7zm11.4 12.8H75v-5.7h5.7z" fill="#fff"/><path fill="#fff" d="M77.2 159.3h1.4v1.4h-1.4zM76.1 143l-.6 2.8h4.6l-.6-2.8a2.84 2.84 0 0 0 1.1-2.3 2.9 2.9 0 0 0-5.8 0 3.8 3.8 0 0 0 1.3 2.3zm1.8-3.7a1.37 1.37 0 0 1 1.4 1.4 1.56 1.56 0 0 1-.8 1.3l-.5.2.4 2.1h-1.1l.4-2.1-.5-.2a1.34 1.34 0 0 1-.8-1.3 1.6 1.6 0 0 1 1.5-1.4zm-.7 7.9h1.4v1.4h-1.4zm2.8 0h1.4v1.4H80zm-5.7 0h1.4v1.4h-1.4zm58.2-27.2a22.5 22.5 0 1 0 22.5 22.5 22.53 22.53 0 0 0-22.5-22.5zm0 43.5a21 21 0 1 1 21-21 21 21 0 0 1-21 21z"/><path d="M149.8 134.9a.67.67 0 0 0-1 0l-4.3 4.3a3 3 0 0 0-1.6-.5 3.1 3.1 0 0 0-2.2.9l-3.5-2.2a3 3 0 0 0 .2-1 3.1 3.1 0 1 0-6.2 0 3 3 0 0 0 1.2 2.4l-2.9 6.6c-.2 0-.4-.1-.6-.1a2.79 2.79 0 0 0-1.8.6l-3.3-2.9a3.26 3.26 0 0 0 .4-1.4 3.1 3.1 0 1 0-6.2 0 2.77 2.77 0 0 0 .5 1.6l-3.5 3.5a.67.67 0 0 0 0 1 .76.76 0 0 0 .5.2c.2 0 .3-.1.5-.2l3.5-3.5a3 3 0 0 0 1.6.5 2.79 2.79 0 0 0 1.8-.6l3.3 2.8a3.26 3.26 0 0 0-.4 1.4 3.1 3.1 0 1 0 6.2 0 3.34 3.34 0 0 0-1.2-2.5l2.9-6.6c.2 0 .4.1.6.1a3.1 3.1 0 0 0 2.2-.9l3.5 2.2a3 3 0 0 0-.2 1 3.1 3.1 0 0 0 6.2 0 2.77 2.77 0 0 0-.5-1.6l4.3-4.3c.3-.1.3-.6 0-.8zm-28.5 8.6a1.7 1.7 0 1 1 1.7-1.7 1.75 1.75 0 0 1-1.7 1.7zm7.8 6.7a1.7 1.7 0 1 1 1.7-1.7 1.69 1.69 0 0 1-1.7 1.7zm5.3-12a1.7 1.7 0 1 1 1.7-1.7 1.75 1.75 0 0 1-1.7 1.7zm8.5 5.3a1.7 1.7 0 1 1 0-3.4 1.66 1.66 0 0 1 1.2.5 1.66 1.66 0 0 1 .5 1.2 1.75 1.75 0 0 1-1.7 1.7zM26 200.8a5.09 5.09 0 0 0 .6 4 5.24 5.24 0 0 0 4.2 2.5h.3a5.83 5.83 0 0 0 2.6-.6 5.07 5.07 0 0 0 2.1-6.9 5.39 5.39 0 0 0-3.2-2.7 5 5 0 0 0-1.2-.2 4.61 4.61 0 0 0-2.8.6 5 5 0 0 0-2.6 3.3zm3.4-1.5a3.29 3.29 0 0 1 1.7-.4h.1c.3 0 .5.1.8.1a3.39 3.39 0 0 1 2 1.7 3.08 3.08 0 0 1-1.3 4.3 4.06 4.06 0 0 1-1.9.4 3.38 3.38 0 0 1-3.1-4.2 4.36 4.36 0 0 1 1.7-1.9z" fill="#fff"/><path d="M43.9 199.3a5 5 0 0 1-3-2.7 5.25 5.25 0 0 1-.6-3.8 1.75 1.75 0 0 0-.8-1.9l-1-.6a6.38 6.38 0 0 0-1.4-.8 1.92 1.92 0 0 0-1.8-.1c-.1.1-.2.1-.4.2l-.1.1c-.2.1-.5.4-.7.5s-.1.1-.2.1a6.75 6.75 0 0 1-3 .5 4.9 4.9 0 0 1-2.4-.8c.1.8.2 1.5.3 2.3a6.47 6.47 0 0 0 2 .4 8.65 8.65 0 0 0 3.8-.6c.1-.1.4-.1.5-.2a4.7 4.7 0 0 0 .9-.6l.3-.2 2.2 1.2-.1.4a6.52 6.52 0 0 0 .9 4.6 7.41 7.41 0 0 0 3.6 3.4l.3.1v.3a12.1 12.1 0 0 1-.1 1.9v.4l-.3.1a3.55 3.55 0 0 0-.9.4 7.66 7.66 0 0 0-3.1 3.5 6.89 6.89 0 0 0-.7 4.1l.1.4-.3.1a5.94 5.94 0 0 0-.8.4l-1.1.6-.4-.3a6 6 0 0 0-3.9-1.5 8.1 8.1 0 0 0-4.5.8 3.51 3.51 0 0 0-.8.5l-.3.2-.3-.1c-.5-.3-1.1-.6-1.7-1l-.3-.2.1-.3a6.93 6.93 0 0 0-1-4.8 4.7 4.7 0 0 0-.6-.9 9.5 9.5 0 0 1-1.7 1l.6.9a4.71 4.71 0 0 1 .6 4 1.68 1.68 0 0 0 .8 1.8 23.57 23.57 0 0 0 2.5 1.5c.3.1.5.2.8.3h.1a1.85 1.85 0 0 0 .7-.2c.1-.1.3-.2.4-.4a1.79 1.79 0 0 1 .7-.5 5.67 5.67 0 0 1 2.7-.6 2 2 0 0 1 .7.1 5.16 5.16 0 0 1 3 1.2 1.73 1.73 0 0 0 1.2.6h.1a2.24 2.24 0 0 0 1-.3c.3-.1.5-.3.8-.4l.6-.4a4.05 4.05 0 0 0 .9-.5 1.67 1.67 0 0 0 .9-2.1 5.49 5.49 0 0 1 .5-3.2 5.81 5.81 0 0 1 2.4-2.5c.3-.1.6-.3.9-.4a1.59 1.59 0 0 0 1.2-.9 1.48 1.48 0 0 0 .1-.7 10.57 10.57 0 0 0 .2-2.6v-.1a1.75 1.75 0 0 0-1.1-1.7zm-28.6-6.2c-.6-.4-1.2-.6-1.7-.9a4.58 4.58 0 0 1-1.4-.7 1 1 0 0 1-.5-1.2 1.17 1.17 0 0 1 .9-1 7.11 7.11 0 0 1 1.6-.1 3.49 3.49 0 0 1 1.3.5l.1.1.2-.4c.1-.3.2-.5.3-.8.1-.1-.1-.3-.1-.4l-.2-.1c-.2-.1-.5-.2-.7-.3a2.48 2.48 0 0 0-.9-.1H14v-1.2h-1.4v1.2l-.2.1a5.91 5.91 0 0 0-1.4.6 3.13 3.13 0 0 0-1.1 2.2 2.93 2.93 0 0 0 .9 2.1 9.3 9.3 0 0 0 1.9 1.1 6.11 6.11 0 0 1 1.4.7 1.5 1.5 0 0 1 .6 1.5 1.78 1.78 0 0 1-.9 1.2c-.3.1-.6.1-.9.2h-.1a4.2 4.2 0 0 1-2.1-.6l-.4-.2-.4.4c-.1.2-.1.4-.2.6s0 .4.1.4a5.91 5.91 0 0 0 1.4.6 2.2 2.2 0 0 0 .8.1h.2v1.2h1.5v-1.3l.2-.1c.2-.1.4-.1.6-.2a3 3 0 0 0 1.9-2.3 2.56 2.56 0 0 0-1.1-2.9z" fill="#fff"/><path d="M26.3 193.2a13.43 13.43 0 0 0-3.8-9.3 12.76 12.76 0 0 0-9.3-3.9A13.08 13.08 0 0 0 .1 193.1a13.43 13.43 0 0 0 3.8 9.3 13.1 13.1 0 0 0 9.3 3.9l.1.3v-.3a13.19 13.19 0 0 0 13-13.1zm-13.2 11.4a12 12 0 0 1-8.1-3.5 11.17 11.17 0 0 1-3.3-8.1 11.53 11.53 0 0 1 11.5-11.3 11 11 0 0 1 8 3.4 11.17 11.17 0 0 1 3.3 8.1 11.39 11.39 0 0 1-11.4 11.4zm76.2-2a2.9 2.9 0 1 0-2.9-2.9 2.9 2.9 0 0 0 2.9 2.9zm0-5.3a2.4 2.4 0 1 1-2.4 2.4 2.43 2.43 0 0 1 2.4-2.4zM79 183.5c-5.4.7-9.9 3-12.7 6.6a.25.25 0 1 0 .4.3c1.9-2.4 5.6-5.5 12.4-6.4.2-.1.2-.6-.1-.5zm2.8 13.3a2.9 2.9 0 1 0 2.9 2.9 2.84 2.84 0 0 0-2.9-2.9zm0 5.3a2.4 2.4 0 1 1 2.4-2.4 2.37 2.37 0 0 1-2.4 2.4zm-7.5-5.3a2.9 2.9 0 1 0 2.9 2.9 2.84 2.84 0 0 0-2.9-2.9zm0 5.3a2.4 2.4 0 1 1 2.4-2.4 2.37 2.37 0 0 1-2.4 2.4z" fill="#fff"/><path d="M84.5 217c12-.8 20.5-7.8 20.5-18.5 0-9.9-9.5-18.5-22.5-18.5-15 0-22.5 10.1-22.5 18.5 0 9.8 6.4 16 16.6 17.9a.82.82 0 0 1 .6.4c2.5 5.5 7.1 7.1 7.7 7.1-1.8-1.6-3.5-6.8-.4-6.9zm-3 .5a4.25 4.25 0 0 0 .4 3.7 13.47 13.47 0 0 1-3.1-4.5 10.39 10.39 0 0 0 3-1.4 23.11 23.11 0 0 1-5-.3c-9.9-1.8-15.4-7.7-15.4-16.5 0-8.2 7.5-17 21-17 11.7 0 21 7.6 21 17 0 9.6-7.5 16.2-19.1 17a3.27 3.27 0 0 0-2.8 2zm51.1-10.5a2.89 2.89 0 0 0 4-.9 10.37 10.37 0 0 0 .4-1l3-7.4a1 1 0 0 0-.2-1.2c-.6-.4-1.3.3-1.3.3l-6.2 5.3s-.4.5-.6.7l-.1.1a3 3 0 0 0 1 4.1zm.4-3.1l.5-.5 4-3.5-2.1 4.8a4.17 4.17 0 0 1-.2.6c-.3.6-1 .7-1.7.3a1.34 1.34 0 0 1-.5-1.7zm-6.7-12.5h-6.8a.9.9 0 1 0 0 1.8h6.8a.9.9 0 0 0 .9-.9 1 1 0 0 0-.9-.9zm0 5.7h-11.4a.9.9 0 1 0 0 1.8h11.4a.9.9 0 0 0 .9-.9 1 1 0 0 0-.9-.9zm0 17.1h-6.8a.9.9 0 1 0 0 1.8h6.8a.9.9 0 0 0 .9-.9 1.06 1.06 0 0 0-.9-.9zm0 5.7h-2.9a.9.9 0 1 0 0 1.8h2.9a.9.9 0 0 0 .9-.9 1.06 1.06 0 0 0-.9-.9zm0-34.2h-2.9a.9.9 0 1 0 0 1.8h2.9a.9.9 0 0 0 .9-.9 1.06 1.06 0 0 0-.9-.9zm0 22.8h-11.4a.9.9 0 1 0 0 1.8h11.4a.9.9 0 0 0 .9-.9 1.06 1.06 0 0 0-.9-.9zm0-5.7h-15.4a.9.9 0 1 0 0 1.8h15.4a.9.9 0 0 0 .9-.9 1.06 1.06 0 0 0-.9-.9z" fill="#fff"/><path d="M153.5 190.5l1.2-1.1a.91.91 0 0 0 .1-1.2l-1.1-1.2a.91.91 0 0 0-1.2-.1l-1.2 1.1a.91.91 0 0 0-.1 1.2l-1.8 1.6a19.37 19.37 0 0 0-13.5-6.7v-1.8h1.1a1.1 1.1 0 0 0 0-2.2h-5a1.1 1.1 0 0 0 0 2.2h1.1v3.4h.7v2.1h1.6l.2-2.1a17.57 17.57 0 0 1 9 3l-1.3 1.9a10.59 10.59 0 0 1 1.2 1l1.5-1.8a17.41 17.41 0 0 1 5.5 7.8l-2.4.8a8.33 8.33 0 0 1 .4 1.5l2.5-.6a20.24 20.24 0 0 1 .5 4.3 15.07 15.07 0 0 1-.7 4.8l-2.6-.7a8.8 8.8 0 0 1-.5 1.5l2.5 1a17.74 17.74 0 0 1-5.8 7.7l-1.6-2a14.62 14.62 0 0 1-1.3.9l1.4 2.1a18 18 0 0 1-9.2 2.7l-.1-2.4H133l-.2 2.4h-.8a.9.9 0 1 0 0 1.8h2.6a19.67 19.67 0 0 0 19.7-19.7 19.42 19.42 0 0 0-3.8-11.6l1.9-1.6a.78.78 0 0 0 1.1 0z" fill="#fff"/><path d="M65.1 82.8h-5s-.1-4 0-5.3c.2-2.2.8-4.4 4.6-7.5 1.6 1.1 2.9 1.8 2.9 1.8s-2.4 2.7-2.4 5.7c-.1 2.2-.1 5.3-.1 5.3zm8.5 0h-5s-.1-4 0-5.3c.2-2.2.8-4.4 4.6-7.5 1.6 1.1 2.9 1.8 2.9 1.8s-2.4 2.7-2.4 5.7c-.1 2.2-.1 5.3-.1 5.3z" fill="#e3e4e7"/><path d="M115 86.9a.52.52 0 0 1-.4-.2l-4.3-3.6a.64.64 0 1 1 .8-1l3.9 3.2 4-3.2a.64.64 0 0 1 .8 1l-4.3 3.6a1.69 1.69 0 0 1-.5.2zm0-16.9a.52.52 0 0 1 .4.2l4.3 3.6a.64.64 0 1 1-.8 1l-3.9-3.2-4 3.2a.64.64 0 0 1-.8-1l4.3-3.6a1.69 1.69 0 0 1 .5-.2z" fill="#fff"/><path d="M140.5 92c-.8 0-.7-.3-1-1.1l-2.4-8.1L156 71.7" fill="#2b91d6"/><path d="M140.5 92a2 2 0 0 0 1.3-.6l3.4-3.3-4.3-2.6" fill="#2b80d6"/><path d="M141 85.5l10.4 7.7c1.2.6 2 .3 2.3-1.1l4.2-19.9c.4-1.7-.7-2.5-1.8-2l-24.8 9.5c-1.7.7-1.7 1.6-.3 2l6.4 2 14.7-9.3c.7-.4 1.3-.2.8.3" fill="#29a0dc"/><path d="M95 77.87a.63.63 0 0 1-.41-.15l-4.36-3.58a.62.62 0 0 1-.1-.87.62.62 0 0 1 .87-.1l4 3.25 4-3.25a.65.65 0 1 1 .82 1l-4.35 3.58a.82.82 0 0 1-.47.12zM95 87a.63.63 0 0 1 .41.15l4.35 3.58a.65.65 0 1 1-.82 1L95 88.46l-4 3.25a.64.64 0 0 1-.82-1l4.35-3.58A.82.82 0 0 1 95 87z" fill="#718493"/></svg>